<svg width="313" height="329" viewBox="0 0 313 329" fill="none" xmlns="http://www.w3.org/2000/svg">
<g clip-path="url(#clip0_8_14326)">
<path d="M243.56 292.551C291.727 244.383 291.727 166.289 243.56 118.122C195.393 69.9544 117.298 69.9541 69.1305 118.121C20.9633 166.289 20.9635 244.383 69.1308 292.551C117.298 340.718 195.392 340.718 243.56 292.551Z" fill="#FBAE17"/>
<path d="M156.341 316.38C217.666 316.38 267.381 266.665 267.381 205.34C267.381 144.014 217.666 94.2998 156.341 94.2998C95.0151 94.2998 45.3008 144.014 45.3008 205.34C45.3008 266.665 95.0151 316.38 156.341 316.38Z" fill="#4065FF"/>
</g>
<mask id="mask0_8_14326" style="mask-type:alpha" maskUnits="userSpaceOnUse" x="0" y="-19" width="313" height="336">
<path fill-rule="evenodd" clip-rule="evenodd" d="M24 -19H292V162H258.64C264.224 175.249 267.31 189.809 267.31 205.09C267.31 266.415 217.596 316.13 156.27 316.13C94.9448 316.13 45.2305 266.415 45.2305 205.09C45.2305 189.809 48.3171 175.249 53.9008 162H24V-19Z" fill="#22B573"/>
</mask>
<g mask="url(#mask0_8_14326)">
<path d="M198.268 60.0152C213.088 79.0652 224.388 127.395 206.618 146.565C188.848 165.735 118.688 181.815 87.9976 150.715C57.3076 119.615 78.1976 56.165 126.198 37.525C174.198 18.885 179.428 35.7952 198.268 60.0152Z" fill="#190A10"/>
<path d="M204.709 112.325C209.709 130.055 194.229 144.885 182.869 153.205C193.039 145.375 192.029 133.265 192.029 133.265C188.419 145.755 178.229 159.645 150.449 162.315C122.669 164.985 75.4488 163.485 86.6388 95.7148C97.8288 27.9448 199.469 89.2851 204.709 112.325Z" fill="black"/>
<path d="M101.837 434.945H250.657C245.657 411.545 241.607 394.945 241.607 394.945C240.957 404.945 245.867 214.705 242.007 209.385C231.327 194.695 183.567 207.745 171.777 194.705C164.447 186.595 164.687 149.205 164.687 149.205L120.027 146.895C124.447 166.405 122.397 185.995 114.447 197.895C100.737 218.365 54.6573 211.965 48.3373 237.985C40.9873 268.215 100.457 386.235 115.067 408.895C110.747 415.445 106.237 424.475 101.837 434.945Z" fill="#FFAB8A"/>
<path d="M250.658 436.575H101.838C101.568 436.575 101.303 436.507 101.065 436.379C100.828 436.252 100.626 436.068 100.476 435.843C100.327 435.619 100.235 435.361 100.21 435.093C100.184 434.825 100.224 434.554 100.328 434.305C103.877 425.49 108.159 416.987 113.128 408.885C105.558 396.835 87.5877 362.685 71.9677 326.935C47.0477 269.865 44.4977 246.855 46.7477 237.595C50.4377 222.425 66.5877 217.675 82.2177 213.095C94.5077 209.485 107.218 205.745 113.088 196.985C120.738 185.555 122.788 166.505 118.438 147.275C118.382 147.028 118.383 146.772 118.442 146.525C118.501 146.279 118.616 146.05 118.778 145.855C118.941 145.661 119.147 145.508 119.379 145.407C119.612 145.306 119.865 145.261 120.118 145.275L164.768 147.585C165.189 147.608 165.584 147.792 165.873 148.1C166.162 148.407 166.321 148.813 166.318 149.235C166.258 159.455 167.318 187.365 172.998 193.625C178.238 199.425 192.338 199.625 205.998 199.795C221.408 200.005 237.358 200.215 243.338 208.445C244.098 209.495 245.528 211.445 245.058 272.535C244.798 305.975 244.058 344.535 243.598 370.115C243.378 382.115 243.198 391.885 243.188 394.525V394.585C243.188 394.745 247.298 411.445 252.248 434.585C252.302 434.824 252.301 435.073 252.246 435.312C252.19 435.551 252.081 435.774 251.928 435.965C251.774 436.154 251.58 436.306 251.361 436.412C251.141 436.517 250.901 436.573 250.658 436.575ZM104.308 433.305H248.658C244.568 414.305 241.168 400.045 240.268 396.305C240.026 395.876 239.909 395.387 239.928 394.895C239.928 394.585 239.928 394.125 239.928 393.525C239.928 392.355 239.928 390.625 239.998 388.425C240.068 384.015 240.188 377.705 240.328 370.045C241.118 328.045 243.198 216.815 240.638 210.285C235.558 203.455 220.508 203.285 205.948 203.055C190.948 202.855 176.768 202.665 170.578 195.815C163.658 188.165 163.088 158.615 163.058 150.765L122.058 148.645C125.988 168.015 123.638 187.075 115.788 198.795C109.258 208.545 95.9678 212.445 83.1178 216.225C67.7078 220.745 53.1177 225.015 49.9077 238.355C46.9077 250.755 55.7877 281.745 74.9077 325.615C90.9077 362.145 109.248 396.925 116.388 407.995C116.561 408.262 116.653 408.572 116.653 408.89C116.653 409.208 116.561 409.519 116.388 409.785C111.702 417.269 107.661 425.137 104.308 433.305Z" fill="#BA5435"/>
<path d="M147.188 280.825C160.528 290.595 173.518 296.825 188.358 293.315C231.918 282.985 211.298 208.385 211.048 206.995C203.558 207.695 180.818 205.715 174.278 202.565C167.738 199.415 163.148 175.745 163.148 175.745C163.148 175.745 144.208 204.875 134.368 211.895C130.159 214.72 125.777 217.279 121.248 219.555C123.478 241.185 147.188 280.825 147.188 280.825Z" fill="#FFC9A4"/>
<path d="M145.158 261.995C165.488 271.795 170.618 278.605 175.488 278.055C180.358 277.505 182.808 272.055 189.098 260.215C185.538 269.665 182.228 286.765 186.768 292.645C189.348 296.005 171.968 304.045 171.968 296.935C171.968 281.645 161.018 272.635 145.158 261.995Z" fill="#FFAB8A"/>
<path d="M101.348 367.825C113.438 397.295 109.158 420.245 105.828 434.945H258.128C254.048 409.075 248.248 375.845 249.568 359.725C251.848 331.725 252.688 329.725 258.478 308.935C264.268 288.145 252.478 256.085 232.788 239.605C218.048 237.285 190.488 252.885 169.438 254.905C142.348 257.505 124.738 245.905 95.4978 253.385C83.4278 292.755 78.9878 292.095 79.3178 301.195C79.6478 310.295 88.6578 336.865 101.348 367.825Z" fill="#890C2A"/>
<path d="M258.128 436.575H105.828C105.582 436.576 105.339 436.522 105.118 436.416C104.896 436.311 104.701 436.156 104.548 435.965C104.394 435.772 104.285 435.547 104.23 435.307C104.174 435.066 104.173 434.816 104.228 434.575C108.428 416.035 110.808 395.195 99.8275 368.445C86.4975 335.935 78.0075 310.195 77.6875 301.245C77.5175 296.535 78.5775 294.095 80.9175 288.765C83.4375 283.015 87.6575 273.395 93.9175 252.915C93.9995 252.646 94.1493 252.403 94.3524 252.208C94.5555 252.014 94.8052 251.875 95.0775 251.805C112.078 247.455 125.468 249.475 138.388 251.425C147.958 252.875 157.848 254.365 169.268 253.275C178.678 252.375 189.478 248.675 199.918 245.105C212.618 240.765 224.608 236.665 233.028 237.995C233.319 238.039 233.593 238.164 233.818 238.355C254.028 255.295 266.038 287.825 260.028 309.355L259.248 312.155C254.128 330.515 253.338 333.335 251.178 359.835C250.028 373.965 254.428 401.495 258.308 425.775C258.798 428.775 259.308 431.775 259.728 434.665C259.764 434.899 259.749 435.137 259.684 435.365C259.619 435.592 259.506 435.803 259.352 435.982C259.198 436.162 259.007 436.306 258.792 436.405C258.578 436.504 258.344 436.555 258.108 436.555L258.128 436.575ZM107.878 433.305H256.218C255.848 431.025 255.478 428.685 255.098 426.305C251.188 401.835 246.748 374.095 247.938 359.585C250.118 332.765 251.038 329.485 256.118 311.285L256.898 308.485C259.568 298.885 258.388 286.035 253.638 273.215C248.888 260.395 241.088 248.825 232.088 241.155C224.468 240.155 213.088 244.065 200.998 248.155C190.378 251.785 179.388 255.545 169.598 256.485C157.788 257.615 147.688 256.085 137.918 254.615C124.978 252.615 112.738 250.805 96.7975 254.705C90.6075 274.765 86.4275 284.295 83.9175 290.025C81.5975 295.325 80.8075 297.115 80.9175 301.085C81.2275 309.535 89.8175 335.465 102.818 367.155C115.058 396.935 110.658 420.745 107.878 433.305Z" fill="#440316"/>
<path d="M166.558 434.945H225.358C222.768 390.505 216.238 341.775 215.968 324.595C215.848 317.285 208.868 267.785 198.068 248.125C189.678 250.025 180.598 254.565 169.438 254.905C158.278 255.245 136.288 249.135 123.578 249.455C130.518 277.735 165.358 319.035 168.388 374.225C169.518 394.895 168.288 416.425 166.558 434.945Z" fill="#AD1C45"/>
<path d="M196.739 248.125C202.429 251.175 211.559 289.805 211.909 295.615C203.509 301.945 171.329 304.475 156.029 303.615C149.832 285.974 142.294 268.834 133.479 252.345C149.149 251.855 158.479 257.795 171.339 256.065C184.199 254.335 193.519 248.125 196.739 248.125Z" fill="#C63759"/>
<g opacity="0.7">
<path opacity="0.7" d="M166.778 263.725C168.625 263.732 170.471 263.642 172.308 263.455C179.508 262.695 186.908 260.055 194.758 257.265C202.608 254.475 210.628 251.615 219.298 250.265L218.638 245.985C209.558 247.395 201.298 250.335 193.298 253.185C185.708 255.885 178.538 258.435 171.848 259.185C164.308 259.985 155.308 258.715 145.788 257.375C133.308 255.615 120.398 253.795 108.838 256.305L109.758 260.545C120.558 258.195 133.078 259.955 145.188 261.665C152.808 262.695 160.108 263.725 166.778 263.725Z" fill="#6D0C23"/>
</g>
<g opacity="0.7">
<path opacity="0.7" d="M167.588 273.705C170.069 273.72 172.548 273.563 175.008 273.235C182.088 272.235 188.628 270.025 195.538 267.685C203.818 264.875 212.378 261.965 222.678 260.935L222.248 256.625C211.458 257.705 202.658 260.685 194.148 263.625C187.428 265.905 181.088 268.055 174.398 268.995C166.668 270.075 157.178 268.905 147.128 267.655C134.708 266.115 121.868 264.525 110.598 266.975L111.518 271.205C122.068 268.915 134.518 270.465 146.598 271.955C153.553 272.956 160.562 273.54 167.588 273.705Z" fill="#6D0C23"/>
</g>
<g opacity="0.7">
<path opacity="0.7" d="M170.529 283.495C173.183 283.507 175.835 283.35 178.469 283.025C189.159 281.655 198.249 279.165 207.039 276.765C213.039 275.125 218.699 273.575 224.629 272.435L223.809 268.175C217.709 269.345 211.969 270.915 205.889 272.585C197.249 274.945 188.299 277.395 177.889 278.725C170.489 279.675 162.139 278.875 153.299 278.015C141.139 276.835 128.569 275.615 115.789 278.445L116.719 282.675C128.829 279.995 141.059 281.185 152.879 282.325C159.029 282.915 164.929 283.495 170.529 283.495Z" fill="#6D0C23"/>
</g>
<g opacity="0.7">
<path opacity="0.7" d="M118.497 295.065C129.497 292.675 142.197 293.265 154.497 293.825C164.127 294.275 173.237 294.695 181.127 293.675C188.427 292.673 195.665 291.264 202.807 289.455C211.079 287.345 219.485 285.805 227.967 284.845L227.517 280.535C218.852 281.509 210.265 283.083 201.817 285.245C194.818 287.011 187.728 288.393 180.577 289.385C173.057 290.385 164.137 289.935 154.697 289.505C142.147 288.925 129.167 288.325 117.607 290.835L118.497 295.065Z" fill="#6D0C23"/>
</g>
<g opacity="0.7">
<path opacity="0.7" d="M121.818 306.625C132.918 305.135 144.138 305.475 154.988 305.805C164.858 306.105 174.188 306.385 182.738 305.285C189.949 304.281 197.102 302.899 204.168 301.145C213.114 298.885 222.216 297.291 231.398 296.375L231.008 292.055C221.63 292.991 212.335 294.619 203.198 296.925C196.274 298.647 189.264 300.002 182.198 300.985C173.978 302.045 164.828 301.765 155.128 301.475C144.128 301.145 132.708 300.795 121.258 302.325L121.818 306.625Z" fill="#6D0C23"/>
</g>
<g opacity="0.7">
<path opacity="0.7" d="M124.658 318.115C135.738 315.705 147.498 316.115 158.868 316.505C167.758 316.805 176.158 317.095 183.988 316.085C190.568 315.245 196.818 314.005 202.848 312.815C213.398 310.735 223.358 308.815 234.738 308.815V304.475C222.938 304.475 212.298 306.575 202.018 308.605C196.018 309.785 189.868 311.005 183.438 311.835C175.958 312.835 167.728 312.515 159.018 312.215C147.378 311.815 135.338 311.395 123.738 313.915L124.658 318.115Z" fill="#6D0C23"/>
</g>
<g opacity="0.7">
<path opacity="0.7" d="M174.657 327.535H177.657C193.437 327.345 205.607 324.485 214.497 322.395C219.357 321.255 223.187 320.395 225.747 320.395V316.065C222.687 316.065 218.637 317.015 213.507 318.225C204.817 320.225 192.907 323.055 177.607 323.225C167.817 323.345 160.117 322.855 153.327 322.415C143.457 321.785 135.657 321.285 127.617 323.295L128.667 327.495C136.057 325.655 143.187 326.105 153.057 326.745C159.217 327.095 166.127 327.535 174.657 327.535Z" fill="#6D0C23"/>
</g>
<path d="M172.468 227.755C174.648 223.325 176.978 222.125 185.098 221.525C193.218 220.925 198.008 218.785 199.918 217.835C201.828 216.885 201.198 219.715 195.298 222.585C189.398 225.455 171.758 231.915 172.468 227.755Z" fill="#FFAB8A"/>
<path d="M151.889 230.815C148.469 227.245 145.889 226.815 137.969 228.675C130.049 230.535 108.289 226.335 106.179 226.005C104.069 225.675 122.069 231.785 128.549 232.755C135.029 233.725 153.809 234.565 151.889 230.815Z" fill="#FFAB8A"/>
<path d="M124.448 161.005C124.448 161.005 125.448 186.005 117.028 200.155C111.798 207.525 92.748 216.045 92.748 216.045C92.748 216.045 114.438 209.675 120.818 204.185C127.198 198.695 132.438 179.075 132.438 179.075C132.438 179.075 138.368 185.575 144.108 185.155C151.918 184.585 165.358 160.255 165.358 160.255" fill="#ED7E5D"/>
<path d="M57.1783 256.615C44.4783 276.135 92.0483 396.695 121.348 410.675C144.558 421.735 149.178 398.675 149.588 386.055C149.998 373.435 115.498 291.565 102.588 277.055" fill="#F2A888"/>
<path d="M249.299 205.465C266.519 210.225 282.679 249.035 295.299 287.415C307.919 325.795 312.429 346.865 313.059 358.485C313.689 370.105 268.489 415.315 216.529 421.425C203.749 417.005 194.349 384.485 196.939 378.305C211.269 365.305 259.189 352.825 259.189 352.825C250.789 334.425 224.189 249.345 224.189 249.345" fill="#D1CDC5"/>
<path d="M77.9471 426.925C77.8271 429.535 77.6671 432.215 77.4771 434.925H159.737C161.567 419.335 162.817 407.795 163.327 402.875C166.017 376.975 158.637 315.925 140.087 289.415C121.537 262.905 109.717 215.635 114.447 197.875C107.997 204.645 43.6871 212.375 39.8771 230.785C37.1971 243.735 79.1371 399.405 77.9471 426.925Z" fill="#D1CDC5"/>
<path d="M109.299 295.615C108.209 295.165 120.509 332.195 123.479 333.945C126.449 335.695 148.189 337.325 149.219 332.845C150.069 329.185 123.329 301.505 109.299 295.615Z" fill="#F9F1E5"/>
<path opacity="0.2" d="M221.888 434.945H265.958C255.668 362.835 244.958 299.865 234.498 273.705C216.328 228.135 170.098 191.265 170.098 191.265C179.908 222.145 203.188 253.495 208.548 287.345C212.598 312.855 218.718 376.575 221.888 434.945Z" fill="black"/>
<path d="M250.988 206.065C242.418 199.765 204.348 198.885 189.468 196.805C174.588 194.725 169.918 190.005 169.918 190.005C176.678 208.665 187.098 205.615 205.188 251.845C218.928 286.955 225.108 352.785 225.708 371.125C225.888 376.515 226.918 401.795 228.508 434.945H268.138C265.604 422.721 263.728 410.37 262.518 397.945C260.098 369.945 266.898 310.365 261.938 297.355C256.978 284.345 244.418 258.815 243.128 249.685" fill="#D1CDC5"/>
<path d="M241.228 260.185C242.738 255.185 260.878 292.835 261.588 301.975C262.028 307.725 236.008 323.885 232.258 318.865C230.098 315.995 235.218 279.995 241.228 260.185Z" fill="#F9F1E5"/>
<path d="M240.408 245.725C233.648 236.915 207.488 212.395 204.408 201.455C204.408 201.455 237.848 202.225 249.278 209.275C240.988 224.065 240.408 245.725 240.408 245.725Z" fill="#F9F1E5"/>
<path d="M308.379 357.395C311.379 337.395 271.949 219.515 250.729 209.275C243.049 218.495 251.589 256.355 257.379 270.275C275.189 313.275 272.229 344.275 276.759 348.925C281.289 353.575 308.379 357.395 308.379 357.395Z" fill="#F9F1E5"/>
<path opacity="0.2" d="M258.298 325.715C258.918 314.075 264.348 298.805 264.348 298.805L277.058 281.895C278.418 289.315 273.918 297.975 271.128 302.995C268.338 308.015 268.598 317.575 268.598 317.575L275.188 313.285C278.728 310.985 296.778 303.205 296.778 303.205L298.578 308.715L288.578 313.605L301.158 317.365L302.158 320.945L293.328 323.305C293.328 323.305 281.178 330.305 279.898 332.625C278.618 334.945 299.408 340.485 299.408 340.485L301.148 344.245C300.228 346.675 291.268 344.185 288.828 343.635C286.388 343.085 278.228 345.935 278.058 346.125C275.678 348.785 266.798 361.635 262.588 364.905C258.378 368.175 251.838 370.285 251.838 370.285L258.298 325.715Z" fill="black"/>
<path d="M263.828 320.895C263.828 320.895 266.318 311.245 267.708 301.475C274.708 289.055 279.908 280.475 275.528 281.385C271.148 282.295 262.098 295.735 260.698 298.335C258.628 302.155 254.118 316.245 252.198 321.055C250.278 325.865 238.058 350.155 233.928 356.995" fill="#FFAB8A"/>
<path d="M255.099 318.495C253.539 325.805 243.019 349.435 239.379 352.085C236.811 353.905 234.14 355.574 231.379 357.085L243.759 371.085C243.759 371.085 271.399 337.945 274.359 335.935C277.319 333.925 274.489 326.575 275.669 324.225C276.849 321.875 265.669 318.885 263.159 319.345C260.649 319.805 255.769 315.335 255.099 318.495Z" fill="#FFAB8A"/>
<path d="M260.059 321.875C260.149 321.105 261.849 319.275 263.649 317.485C268.319 312.835 273.169 307.185 276.559 305.635C279.949 304.085 302.139 293.225 304.559 295.815C307.349 298.815 301.559 303.035 284.159 311.955C281.439 313.345 271.159 326.105 271.159 326.105" fill="#FFAB8A"/>
<path d="M274.107 331.385C274.107 331.385 286.467 319.945 289.487 319.755C306.977 318.605 314.197 315.265 309.397 311.865C306.527 309.865 287.727 310.515 284.057 311.115C280.387 311.715 272.957 320.605 267.057 323.615C265.544 324.568 264.301 325.894 263.447 327.465" fill="#FFAB8A"/>
<path d="M238.728 350.185C235.998 355.045 235.958 356.185 238.058 359.735C239.888 362.855 245.058 365.465 247.928 364.325C252.548 362.465 266.928 342.795 268.418 340.465C269.908 338.135 274.038 338.115 276.738 337.365C279.438 336.615 289.368 335.935 290.088 335.185C290.238 335.035 291.188 332.305 289.858 332.075C284.628 331.195 270.098 333.185 268.328 334.815C266.608 336.185 265.438 333.305 268.268 331.295C271.098 329.285 284.268 318.585 284.968 316.925C285.668 315.265 285.408 312.995 283.348 312.755C281.288 312.515 269.968 323.755 268.498 324.475C267.028 325.195 264.608 328.245 263.388 328.355C262.168 328.465 261.888 326.165 263.848 324.135C265.808 322.105 277.278 311.695 278.108 310.215C278.938 308.735 277.918 306.505 276.228 306.645C274.538 306.785 260.928 322.155 259.418 323.545C257.908 324.935 256.768 323.825 258.638 320.545C259.518 319.005 263.708 302.685 264.258 300.835C264.588 299.705 276.028 285.285 273.048 283.375C271.048 282.115 262.048 296.705 260.648 298.935C259.248 301.165 254.558 319.765 253.508 322.935C252.458 326.105 240.288 347.365 238.728 350.185Z" fill="#FFC9A4"/>
<path d="M295.518 297.355C294.518 298.025 296.038 300.755 297.388 300.775C299.668 300.775 305.998 296.345 305.208 295.175C304.418 294.005 297.658 295.875 295.518 297.355Z" fill="#EF6F6F"/>
<path d="M302.297 310.655C301.127 310.805 301.207 313.915 302.397 314.545C304.397 315.615 312.087 314.545 311.917 313.125C311.747 311.705 304.877 310.315 302.297 310.655Z" fill="#EF6F6F"/>
<path d="M269.097 286.295C268.517 287.295 271.097 289.115 272.277 288.545C274.347 287.545 278.057 280.755 276.837 280.065C275.617 279.375 270.377 284.025 269.097 286.295Z" fill="#EF6F6F"/>
<path d="M94.7681 278.845C106.638 294.465 119.408 349.095 129.018 371.455C125.858 386.765 92.8181 419.955 78.2981 413.525C63.4481 394.575 47.3481 333.275 40.3581 305.905C28.1181 257.965 33.1181 234.025 41.1281 228.105" fill="#D1CDC5"/>
<path d="M93.1289 407.075C80.6689 397.615 22.7189 259.765 44.4389 232.625C59.7089 227.045 69.5689 247.855 69.5689 247.855C82.3189 257.665 112.459 358.545 112.129 363.125C111.799 367.705 102.069 373.055 97.2589 376.775C92.4489 380.495 117.069 373.875 118.959 375.485" fill="#F9F1E5"/>
<path d="M44.4375 232.625C41.1275 228.105 65.8375 216.045 92.7475 211.625C96.6075 224.945 94.1375 237.115 84.3175 254.295C70.5175 240.885 49.0075 235.705 49.0075 235.705" fill="#F9F1E5"/>
<path opacity="0.2" d="M92.188 311.755C95.048 319.545 104.858 320.755 107.728 326.755C109.534 330.534 111.606 334.18 113.928 337.665L78.498 348.435C79.918 351.505 83.738 351.855 86.828 352.185L86.528 353.625C88.528 357.475 97.978 358.165 104.058 357.845C110.138 357.525 116.208 361.315 115.978 363.165C115.748 365.015 98.3881 366.805 95.548 367.895C97.278 370.965 106.548 370.505 110.718 371.205C114.888 371.905 116.448 372.205 118.718 375.315C120.988 378.425 155.658 373.085 155.658 371.225C155.658 369.365 147.458 366.635 145.118 364.285C142.778 361.935 124.848 328.775 124.848 328.775" fill="black"/>
<path d="M161.528 374.185L144.258 370.835C144.258 370.835 130.338 338.925 128.648 334.905C127.828 332.905 116.648 317.465 113.738 315.965C110.828 314.465 90.6082 305.455 90.5082 307.965C90.2282 315.695 107.308 321.425 109.228 322.885C111.148 324.345 116.388 334.565 116.388 334.565C116.388 334.565 103.828 333.885 100.748 334.685C97.6682 335.485 87.7482 340.395 82.5482 343.545C75.8782 347.605 77.9782 350.235 81.5482 350.545C82.72 350.752 83.9261 350.638 85.0382 350.215C83.3282 351.075 85.3082 357.045 95.0882 354.955C102.618 353.355 105.398 353.275 106.918 353.415C109.468 353.635 118.838 358.185 119.728 360.285C120.618 362.385 114.148 360.835 109.368 361.165C104.368 361.495 94.3682 364.565 94.8182 366.845C95.3882 369.545 100.458 368.735 106.058 369.125C111.658 369.515 118.228 370.305 119.248 372.035C120.268 373.765 124.528 387.695 132.988 386.495C137.488 385.865 149.858 398.215 149.858 398.215L161.528 374.185Z" fill="#FFAB8A"/>
<path d="M117.508 335.445C118.195 335.675 118.897 335.862 119.608 336.005C121.448 336.335 121.778 335.585 120.078 333.195C118.818 331.425 113.298 321.545 110.668 320.115C108.038 318.685 96.6077 314.825 93.5977 312.515C96.3277 316.655 107.178 320.635 109.768 322.355C111.468 323.495 117.508 335.445 117.508 335.445Z" fill="#F48B6C"/>
<path d="M98.3386 309.015C99.3386 309.635 97.9786 312.435 96.6386 312.515C94.3586 312.655 87.8286 308.515 88.5586 307.285C89.2886 306.055 96.1286 307.635 98.3386 309.015Z" fill="#EF6F6F"/>
<path d="M193.928 91.5451C193.928 91.5451 206.008 87.1351 208.278 94.5451C210.548 101.955 206.928 111.495 204.948 115.965C202.968 120.435 197.758 126.965 192.278 122.425C186.798 117.885 193.928 91.5451 193.928 91.5451Z" fill="#DD7657"/>
<g style="mix-blend-mode:color-burn" opacity="0.3">
<path d="M197.809 97.295C198.449 95.935 205.379 94.6152 207.079 95.8252C208.779 97.0352 208.149 103.495 205.329 108.275C206.429 105.895 205.669 99.6949 204.279 99.0049C202.889 98.3149 199.779 103.705 199.839 105.865C199.899 108.025 201.989 107.165 201.839 109.865C201.689 112.565 197.029 118.745 193.629 112.505" fill="#0F0400"/>
</g>
<path d="M93.9583 93.4952C93.9583 93.4952 81.7283 89.555 79.7383 97.085C77.7483 104.615 83.4283 113.935 85.5783 118.315C87.7283 122.695 91.5083 129.095 96.8083 124.315C102.108 119.535 93.9583 93.4952 93.9583 93.4952Z" fill="#DD7657"/>
<g style="mix-blend-mode:color-burn" opacity="0.3">
<path d="M91.9873 99.3651C91.2873 98.0151 84.3173 96.975 82.6573 98.245C80.9973 99.515 81.8973 105.955 84.9073 110.625C83.7073 108.285 84.2173 102.065 85.5873 101.315C86.9573 100.565 90.2573 105.835 90.2873 108.005C90.3173 110.175 88.1173 109.005 88.4173 111.695C88.7173 114.385 92.2273 118.015 94.8973 115.045" fill="#0F0400"/>
</g>
<path d="M142.279 21.2748C183.149 20.5748 198.699 59.945 198.379 81.915C198.569 95.195 190.289 135.835 184.629 143.525C176.949 153.985 158.199 171.225 146.109 171.095C134.729 170.985 114.829 155.995 106.779 144.755C98.7287 133.515 90.5287 97.3148 90.1987 84.0248C88.8487 58.4848 93.9887 22.3348 142.279 21.2748Z" fill="#FFAB8A"/>
<path d="M146.239 172.735H146.099C133.659 172.605 113.179 156.505 105.449 145.735C100.389 138.685 96.1088 123.825 93.9988 115.595C90.8688 103.325 88.7388 90.9649 88.5588 84.1049C87.4088 62.2749 91.8988 45.715 101.909 34.935C110.909 25.195 124.519 20.055 142.239 19.665C157.509 19.395 170.509 24.4849 180.829 34.7749C194.349 48.2549 200.209 68.1848 200.009 81.9648C200.099 88.3948 198.249 101.455 195.289 115.185C193.759 122.255 189.799 139.265 185.939 144.525C178.659 154.375 159.659 172.735 146.239 172.735ZM142.309 22.915C125.509 23.285 112.719 28.0649 104.309 37.125C94.9188 47.235 90.7288 62.9948 91.8288 83.9448C92.1788 97.7748 100.509 133.205 108.109 143.795C116.109 155.025 135.659 169.355 146.109 169.465H146.219C156.939 169.465 175.009 153.825 183.299 142.565C188.509 135.455 196.909 95.165 196.729 81.935C196.909 68.805 191.349 49.8651 178.509 37.0551C168.859 27.4251 156.659 22.645 142.309 22.915Z" fill="#BA5435"/>
<path d="M163.659 49.5249C168.239 62.5249 179.499 76.6952 183.919 96.8452C187.919 103.125 185.169 135.145 178.429 145.165C169.019 159.165 153.429 167.815 146.089 168.165C138.749 168.515 123.319 158.965 114.219 146.935C107.169 137.605 99.8386 120.755 101.289 93.7148C104.129 86.1848 112.789 52.9849 163.659 49.5249Z" fill="#FFC89E"/>
<path d="M153.659 126.895C155.559 126.295 156.039 124.345 154.519 123.645C152.999 122.945 149.039 122.955 145.039 123.005C140.869 123.055 136.819 123.285 135.459 124.005C133.689 124.945 134.639 126.805 136.459 127.205C137.369 127.405 142.169 129.345 145.059 129.285C147.949 129.225 152.749 127.185 153.659 126.895Z" fill="#F99C78"/>
<path d="M138.929 124.385C136.419 124.855 135.869 125.945 138.749 126.185C142.529 126.495 143.659 123.515 138.929 124.385Z" fill="#B75439"/>
<path d="M150.938 124.185C153.448 124.625 154.038 125.665 151.168 125.985C147.408 126.365 146.258 123.345 150.938 124.185Z" fill="#B75439"/>
<path d="M144.657 114.005C142.917 114.005 140.657 118.495 141.237 120.345C141.967 122.525 148.067 122.035 148.487 119.965C148.907 117.895 146.327 113.965 144.657 114.005Z" fill="#FFD6AE"/>
<path opacity="0.4" d="M183.038 88.8654C183.358 85.7654 169.167 81.415 158.688 88.945C172.438 73.315 190.627 78.1653 192.607 90.2453C192.188 94.3453 184.608 96.4853 180.188 101.245C184.448 95.6253 182.318 95.6854 183.038 88.8654Z" fill="#D33222"/>
<path opacity="0.8" d="M189.759 93.3749C185.759 79.4449 171.569 82.6748 165.219 85.2148C173.219 82.4648 183.439 85.4452 187.789 93.9252" fill="#D33222"/>
<path d="M157.067 102.235C156.067 103.515 156.467 105.025 157.977 104.075C159.487 103.125 173.407 106.745 181.547 102.905C186.227 100.685 187.277 95.9051 187.077 94.7051C185.867 90.8451 180.797 86.9752 174.297 88.3652C167.797 89.7552 158.517 95.0649 157.067 102.235Z" fill="#EFAA94"/>
<path d="M184.368 99.0354C185.038 98.1354 186.468 98.0351 185.508 99.8151C184.548 101.595 182.008 104.325 175.638 105.155C171.728 105.665 167.778 104.785 167.068 104.965C171.518 104.505 175.958 104.855 179.628 103.105C181.549 102.205 183.188 100.798 184.368 99.0354Z" fill="#973525"/>
<path d="M160.188 100.995C159.538 102.075 159.388 102.915 160.188 102.995C163.658 103.165 170.778 106.355 178.138 102.755C180.998 101.355 184.768 97.5847 184.588 96.5247C178.878 90.7247 165.848 91.6349 160.188 100.995Z" fill="#FFE2DC"/>
<path d="M162.758 94.0754C161.188 96.8754 163.348 101.805 165.988 102.685C170.238 103.615 175.748 102.595 177.378 102.125C181.868 99.7952 182.878 90.9353 175.178 88.9753C170.028 88.9253 164.088 91.6854 162.758 94.0754Z" fill="#001E48"/>
<path d="M163.379 98.2849C166.199 93.4349 177.239 91.7347 180.379 94.8347C181.439 98.6347 179.979 103.095 172.379 104.225C166.769 105.065 163.449 101.305 163.379 98.2849Z" fill="url(#paint0_linear_8_14326)"/>
<path d="M156.738 102.745C161.078 89.7452 174.948 88.8451 179.348 90.3951C183.748 91.9451 184.928 95.005 187.088 96.585C189.888 97.665 194.638 93.6452 195.298 91.7252C194.008 94.4452 189.738 94.1551 188.828 93.1651C187.747 91.3453 186.307 89.7635 184.597 88.5157C182.887 87.2679 180.941 86.3801 178.878 85.9054C175.078 85.1854 158.808 87.5452 156.738 102.745Z" fill="#7F3518"/>
<path d="M167.438 96.9152C167.378 92.1852 174.438 90.8051 175.308 96.0051C176.178 101.205 167.488 101.705 167.438 96.9152Z" fill="#001E48"/>
<path d="M174.888 97.1851C175.608 96.0151 178.278 97.4051 177.478 99.1851C176.678 100.965 173.898 98.7851 174.888 97.1851Z" fill="#FFEEEE"/>
<path d="M169.038 98.6449C168.508 97.7249 167.418 99.0548 167.758 99.5248C168.348 100.355 169.658 99.7549 169.038 98.6449Z" fill="#FFEEEE"/>
<path d="M157.709 100.345C159.949 90.6851 173.409 87.0947 179.509 87.7547C183.749 88.2047 187.269 92.805 187.269 92.805C189.549 92.935 193.549 91.8047 193.389 89.2147C193.869 92.0647 189.389 97.2151 186.519 96.1151C184.659 95.3751 182.149 91.7849 179.599 90.9349C175.424 89.831 170.999 90.1579 167.031 91.8636C163.063 93.5693 159.781 96.5555 157.709 100.345Z" fill="#160401"/>
<path d="M156.887 94.2651C156.737 91.0451 160.337 87.5053 164.777 87.1753C161.707 90.9553 157.207 96.6351 156.887 94.2651Z" fill="#FFE4B0"/>
<path d="M157.008 100.455C155.178 102.455 154.288 105.685 156.268 106.235C158.248 106.785 159.038 104.925 165.098 105.165C162.338 104.365 159.398 104.035 158.378 104.535C157.358 105.035 155.808 105.255 156.078 103.625C156.274 102.538 156.586 101.476 157.008 100.455Z" fill="#FFE9C5"/>
<path d="M151.858 154.735C149.958 154.185 144.168 153.735 140.858 154.945C140.078 154.235 140.658 151.475 145.778 151.255C150.898 151.035 152.568 152.915 151.858 154.735Z" fill="#F99C78"/>
<path d="M185.597 108.795C184.177 106.795 181.197 109.255 182.597 111.515C183.777 113.515 187.367 111.325 185.597 108.795Z" fill="#FFE8BB"/>
<path d="M180.177 111.595C179.177 110.595 177.747 112.195 178.717 113.035C179.687 113.875 181.237 112.685 180.177 111.595Z" fill="#FFE8BB"/>
<path d="M103.968 110.765C105.208 108.645 108.388 110.875 107.208 113.235C106.168 115.325 102.408 113.445 103.968 110.765Z" fill="#FFE8BB"/>
<path d="M109.598 113.485C110.518 112.375 112.078 113.875 111.178 114.795C110.278 115.715 108.658 114.645 109.598 113.485Z" fill="#FFE8BB"/>
<path d="M155.059 83.9951C155.059 78.6051 168.519 70.1951 176.839 70.5551C185.159 70.9151 193.189 77.1753 193.189 77.1753C185.869 72.6553 165.499 75.1851 155.059 83.9951Z" fill="#1E120A"/>
<path d="M133.548 83.9951C133.548 78.6051 120.088 70.1951 111.768 70.5551C103.448 70.9151 95.418 77.1753 95.418 77.1753C102.738 72.6553 123.108 75.1851 133.548 83.9951Z" fill="#1E120A"/>
<path opacity="0.4" d="M105.488 90.5451C104.978 87.4651 118.888 82.2852 129.788 89.1852C115.148 74.3952 97.2778 80.315 96.0078 92.485C96.6578 96.555 104.378 98.2453 109.058 102.765C104.468 97.3853 106.598 97.3151 105.488 90.5451Z" fill="#D33222"/>
<path opacity="0.8" d="M99.0273 95.4446C102.207 81.3046 116.557 83.6948 123.027 85.8548C114.867 83.5748 104.847 87.1548 101.027 95.8548" fill="#D33222"/>
<path d="M132.198 102.355C133.288 103.585 132.948 105.115 131.388 104.255C129.828 103.395 116.138 107.825 107.798 104.475C102.998 102.535 101.668 97.8254 101.798 96.6154C102.798 92.6854 107.608 88.5253 114.178 89.5353C120.748 90.5453 130.328 95.2951 132.198 102.355Z" fill="#EFAA94"/>
<path d="M104.748 100.775C104.028 99.9147 102.588 99.915 103.658 101.615C104.728 103.315 107.428 105.915 113.828 106.375C117.758 106.645 121.648 105.545 122.368 105.685C117.898 105.485 113.488 106.085 109.718 104.555C107.746 103.775 106.026 102.467 104.748 100.775Z" fill="#973525"/>
<path d="M128.997 101.305C129.707 102.305 129.907 103.175 129.127 103.305C125.657 103.685 118.747 107.305 111.177 104.125C108.247 102.895 104.267 99.3553 104.377 98.2853C109.737 92.1853 122.797 92.2953 128.997 101.305Z" fill="#FFE2DC"/>
<path d="M126.289 94.5449C128.019 97.2449 126.149 102.295 123.569 103.325C119.379 104.515 113.809 103.815 112.169 103.445C107.539 101.375 106.009 92.5951 113.579 90.1851C118.729 89.8351 124.809 92.2349 126.289 94.5449Z" fill="#001E48"/>
<path d="M125.909 98.7747C122.819 94.1147 111.689 93.0548 108.759 96.3348C107.929 100.195 109.639 104.555 117.279 105.245C122.919 105.755 126.019 101.805 125.909 98.7747Z" fill="url(#paint1_linear_8_14326)"/>
<path d="M132.548 102.845C127.448 90.1152 113.548 90.0552 109.248 91.8452C104.948 93.6352 103.958 96.7748 101.888 98.4848C99.1582 99.7248 94.1782 95.9952 93.4082 94.1152C94.8582 96.7452 99.0982 96.215 99.9482 95.165C100.922 93.2871 102.266 91.6258 103.899 90.2802C105.531 88.9347 107.419 87.9327 109.448 87.3349C113.198 86.4249 129.588 87.8052 132.548 102.845Z" fill="#7F3518"/>
<path d="M122.138 97.6652C121.908 92.9352 114.808 91.9952 114.218 97.2252C113.628 102.455 122.358 102.465 122.138 97.6652Z" fill="#001E48"/>
<path d="M114.709 98.375C113.919 97.245 111.339 98.7951 112.239 100.515C113.139 102.235 115.799 99.915 114.709 98.375Z" fill="#FFEEEE"/>
<path d="M120.659 99.4951C121.139 98.4951 122.309 99.8049 121.999 100.295C121.419 101.185 120.049 100.645 120.659 99.4951Z" fill="#FFEEEE"/>
<path d="M131.438 100.515C128.638 90.9951 114.978 88.2249 108.928 89.2349C104.728 89.9349 101.478 94.7349 101.478 94.7349C99.2076 94.9849 95.1576 94.0649 95.1676 91.5049C94.8476 94.3749 99.6476 99.2649 102.428 97.9849C104.248 97.1349 106.538 93.4153 109.038 92.4053C113.141 91.0594 117.576 91.1267 121.636 92.5967C125.697 94.0667 129.147 96.8545 131.438 100.515Z" fill="#160401"/>
<path d="M131.898 94.395C131.898 91.165 128.058 87.8549 123.598 87.7749C126.898 91.3749 131.718 96.785 131.898 94.395Z" fill="#FFE4B0"/>
<path d="M132.138 100.585C134.138 102.525 135.138 105.645 133.218 106.305C131.298 106.965 130.378 105.165 124.348 105.755C127.048 104.755 129.978 104.295 131.018 104.755C132.058 105.215 133.628 105.325 133.258 103.705C132.997 102.628 132.621 101.582 132.138 100.585Z" fill="#FFE9C5"/>
<path d="M169.808 132.405C174.878 137.005 165.258 136.405 165.578 136.495C166.918 133.995 168.658 131.315 169.808 132.405Z" fill="#F99C78"/>
<path d="M120.808 132.185C117.058 137.925 124.728 136.345 124.408 136.405C123.248 133.845 121.658 130.905 120.808 132.185Z" fill="#F99C78"/>
<path d="M145.738 140.765C152.138 140.765 164.628 137.375 164.628 137.375C159.688 143.245 152.438 149.295 145.478 149.295C138.518 149.295 130.788 143.295 126.238 137.375C126.238 137.375 139.328 140.765 145.738 140.765Z" fill="#F97582"/>
<path d="M123.979 135.605C128.979 136.785 134.469 136.825 145.189 136.825C155.909 136.825 159.639 137.375 166.539 135.605C165.389 137.265 160.399 138.945 158.229 139.605C147.919 142.915 141.979 142.975 131.699 139.655C129.309 138.925 125.069 137.375 123.979 135.605Z" fill="#F7596D"/>
<path d="M135.438 142.795C139.438 149.455 151.347 148.635 154.557 143.165C149.307 144.185 140.037 143.705 135.438 142.795Z" fill="#FFA3AC"/>
<path d="M136.068 143.125C137.118 143.125 139.968 143.795 140.248 144.875C139.658 146.035 137.238 145.445 136.068 143.125Z" fill="#FFCBC7"/>
<path d="M121.889 135.045C129.889 136.515 137.889 141.935 145.279 141.935C152.669 141.935 159.949 136.415 168.709 135.045C162.229 139.185 154.069 142.735 145.149 142.735C136.229 142.735 127.219 139.355 121.889 135.045Z" fill="#BF1F45"/>
<path d="M162.838 137.365C164.738 136.605 166.838 135.365 167.388 134.365C167.456 134.17 167.588 134.003 167.762 133.892C167.937 133.781 168.143 133.732 168.349 133.753C168.554 133.774 168.747 133.864 168.896 134.007C169.044 134.151 169.14 134.34 169.168 134.545C169.238 135.315 167.658 136.055 162.838 137.365Z" fill="#770725"/>
<path d="M161.008 351.355C161.008 351.355 154.738 335.355 149.588 327.025C144.438 318.695 97.0883 273.545 96.2083 269.635C95.3283 265.725 108.508 246.485 108.508 246.485C108.508 246.485 89.3483 246.485 88.2283 244.665C87.1083 242.845 96.8083 208.435 99.0183 203.605C106.018 188.345 115.018 180.125 120.178 178.965C119.749 184.867 118.87 190.727 117.548 196.495C109.548 229.695 146.998 291.495 153.248 311.285C161.748 338.185 161.008 351.355 161.008 351.355Z" fill="#D1CDC5"/>
<path d="M170.098 191.265C175.688 205.375 197.548 229.135 206.938 256.055C216.328 282.975 221.938 334.885 224.038 343.465C223.698 321.185 239.528 258.005 239.408 253.125C239.288 248.245 212.138 232.775 211.078 231.225C210.018 229.675 227.788 225.165 228.018 220.835C228.248 216.505 198.018 194.285 193.858 190.595C189.698 186.905 175.748 175.745 167.858 177.595C167.828 179.665 168.738 187.565 170.098 191.265Z" fill="#D1CDC5"/>
<path d="M92.7383 119.495C86.5783 119.565 87.1582 131.775 93.3582 132.385C99.8382 133.025 98.8883 119.425 92.7383 119.495Z" fill="#A8918C"/>
<path d="M92.7777 127.605C91.0377 125.605 89.5277 128.145 89.5877 129.035C89.6477 129.925 91.2177 132.195 92.5177 131.735C93.8177 131.275 93.5977 128.555 92.7777 127.605Z" fill="#EAE5E4"/>
<path d="M92.8871 122.015C89.0771 122.015 89.4471 129.495 93.2671 130.015C97.0871 130.535 96.6571 121.965 92.8871 122.015Z" fill="#250C00"/>
<path d="M91.4881 122.005C91.7181 120.365 89.3781 119.915 89.1981 122.005C89.0581 123.585 91.1681 124.185 91.4881 122.005Z" fill="#EAE5E4"/>
<path d="M95.2182 125.185C94.2182 121.925 92.3782 125.475 92.5282 126.985C92.6782 128.495 96.6582 129.755 95.2182 125.185Z" fill="#512818"/>
<path d="M197.347 119.495C203.497 119.565 202.917 131.775 196.727 132.385C190.237 133.025 191.187 119.425 197.347 119.495Z" fill="#A8918C"/>
<path d="M198.837 121.885C200.407 120.805 201.437 122.275 201.677 124.885C201.827 126.495 200.897 130.695 198.737 129.525C197.797 128.985 196.407 123.545 198.837 121.885Z" fill="#EAE5E4"/>
<path d="M197.167 121.865C200.977 121.865 200.597 129.345 196.777 129.865C192.957 130.385 193.357 121.825 197.167 121.865Z" fill="#250C00"/>
<path d="M195.419 125.075C196.419 121.815 198.269 125.365 198.119 126.875C197.969 128.385 194.019 129.605 195.419 125.075Z" fill="#512818"/>
<path d="M96.2782 91.9849C96.2782 91.9849 90.0982 89.8149 88.2782 89.8149C84.5582 89.8149 96.2782 98.8149 96.2782 98.8149V91.9849Z" fill="#FF7288"/>
<path d="M194.729 91.9849C194.729 91.9849 200.899 89.8149 202.729 89.8149C206.449 89.8149 194.729 98.8149 194.729 98.8149V91.9849Z" fill="#FF7288"/>
<path d="M139.018 103.685C140.618 100.775 151.658 101.335 153.258 103.685C153.666 102.106 153.765 100.462 153.548 98.8452L139.018 98.7451V103.685Z" fill="#A5213A"/>
<path d="M139.917 92.9351C140.247 95.6851 152.257 95.4651 152.357 92.9351L154.477 93.3252C154.477 93.3252 154.577 99.9249 154.617 101.815C151.217 99.3449 140.857 99.3848 138.427 101.695C135.997 104.005 139.917 92.9351 139.917 92.9351Z" fill="#FF7288"/>
<path d="M139.268 91.515C136.138 87.415 101.408 83.0248 96.4679 88.1048C92.3479 92.3448 96.4179 107.265 98.9979 110.055C101.578 112.845 132.298 115.505 134.668 113.605C138.168 110.805 142.138 95.275 139.268 91.515ZM132.998 111.095C130.998 112.685 104.078 110.795 101.898 108.455C99.7179 106.115 95.8979 94.5747 99.4079 91.0247C103.568 86.7647 132.918 90.6047 135.548 94.0247C137.968 97.1847 135.948 108.745 132.998 111.095Z" fill="#A0002E"/>
<path d="M157.658 113.605C160.018 115.505 190.738 112.845 193.328 110.055C195.918 107.265 199.978 92.3448 195.858 88.1048C190.918 83.0248 156.188 87.415 153.058 91.515C150.148 95.275 154.108 110.805 157.658 113.605ZM156.778 94.035C159.418 90.605 188.778 86.765 192.918 91.035C196.388 94.585 192.608 106.125 190.428 108.465C188.248 110.805 161.318 112.695 159.328 111.105C156.328 108.745 154.308 97.185 156.728 94.035H156.778Z" fill="#A0002E"/>
<path opacity="0.5" d="M135.069 105.025C135.069 105.025 134.509 109.465 132.479 110.785C130.449 112.105 117.479 110.125 117.479 110.125C123.369 109.865 132.819 109.695 135.069 105.025Z" fill="white"/>
<path opacity="0.5" d="M193.068 101.185C193.068 101.185 192.218 106.365 190.068 108.315C187.918 110.265 176.248 109.815 176.248 109.815C183.198 108.455 191.248 107.185 193.068 101.185Z" fill="white"/>
<path d="M177.598 18.825C186.498 16.585 177.718 -2.01504 151.468 0.824963C125.218 3.66496 115.158 11.1848 115.158 11.1848C148.008 -5.10518 184.548 -4.15541 181.158 17.6946" fill="#0A0005"/>
<path d="M165.209 48.1851C166.069 56.2851 178.039 63.0853 187.149 97.3853C192.149 116.385 189.089 146.865 166.749 152.655C189.439 146.305 208.749 116.445 185.989 61.9053" fill="#3A1A1A"/>
<path d="M191.767 161.185C210.327 157.675 226.517 141.085 230.017 120.785C230.017 120.785 235.537 97.2451 221.427 61.4951C207.317 25.7451 189.917 11.005 180.007 17.165C178.327 -2.13498 125.437 -6.32485 94.7172 26.3052C63.9972 58.9352 70.3372 124.535 74.1172 137.675C77.8972 150.815 97.2372 164.925 113.547 166.615C91.9772 150.205 84.1072 98.8651 104.147 70.7851C124.687 42.0051 158.147 51.125 162.547 47.625C166.737 43.815 170.837 35.2348 170.837 35.2348C170.837 35.2348 164.837 44.685 165.207 48.185C172.317 62.905 188.127 83.9052 193.437 95.3052C204.927 119.995 206.327 142.095 185.357 155.845C202.627 150.775 208.417 139.165 208.287 131.305C208.047 146.575 203.657 155.925 191.767 161.185Z" fill="#190A10"/>
<path d="M198.018 87.625C205.548 114.935 206.868 143.135 189.418 154.435C213.358 143.075 209.188 119.815 198.018 87.625Z" fill="#592826"/>
<path d="M162.428 43.9255C157.158 48.3155 142.798 45.6851 128.178 51.8151C113.558 57.9451 101.818 66.3551 92.4883 84.2751C109.658 44.6051 148.158 35.8355 162.428 43.9255Z" fill="black"/>
<path d="M180.988 18.8853C187.988 18.0053 191.697 18.055 202.327 34.605C195.557 26.605 187.208 22.5453 185.178 23.4053C183.148 24.2653 195.178 38.8853 195.178 38.8853C189.928 33.8853 185.878 31.7553 181.068 32.8853C176.258 34.0153 173.918 35.655 176.268 33.375C178.618 31.095 181.747 18.3751 165.438 10.4951C180.977 17.7651 177.838 23.0152 179.988 22.8252C182.138 22.6352 180.988 18.8853 180.988 18.8853Z" fill="black"/>
<path d="M177.658 27.7747C174.588 39.8647 157.518 34.9548 132.108 43.1848C102.178 52.8748 79.5182 107.995 98.5782 153.905C85.1282 139.625 79.1081 110.815 81.2781 92.905C70.0781 132.765 78.7982 147.035 78.7982 147.035C68.4982 143.295 64.1282 119.855 64.4682 120.915C61.4082 80.7748 75.6481 41.4449 102.058 19.4949C128.468 -2.45511 175.118 -8.57509 179.668 19.2649C163.668 5.08491 140.188 2.83463 129.218 7.73463C151.318 6.25463 166.268 12.2246 171.868 20.1946C168.708 24.2846 134.428 13.1947 110.958 38.1047C133.078 23.9947 169.058 31.6047 177.658 27.7747Z" fill="#3A1A1A"/>
<path d="M166.098 44.2451C165.038 54.3951 174.098 69.1353 185.098 85.9253C196.098 102.715 194.018 136.205 178.398 146.925C198.728 131.925 206.618 107.475 182.998 58.9253C189.698 71.6053 197.588 82.2053 206.828 99.4253C219.658 123.365 211.828 145.735 204.828 152.715C218.058 138.785 225.138 127.565 226.128 117.765C227.128 107.665 223.488 86.995 215.078 74.915C227.488 87.485 237.388 126.145 225.598 140.175C238.328 130.035 233.828 71.0948 198.328 29.9648C191.748 23.9648 188.138 24.5952 188.138 24.5952C194.308 33.0352 209.138 53.6753 209.138 53.6753C200.408 41.2153 189.138 36.0948 183.918 35.4448C178.698 34.7948 177.868 37.3448 176.918 39.7548C175.968 42.1648 178.488 47.0249 178.488 47.0249C178.488 47.0249 166.658 41.1851 166.098 44.2451Z" fill="#3A1A1A"/>
<path d="M149.709 33.5951C107.479 48.1651 87.819 74.6852 87.099 125.175C84.579 95.2552 89.869 70.945 94.989 60.765C70.879 88.075 75.219 109.955 75.219 109.955C70.159 100.795 65.079 81.8251 77.219 54.0951C89.359 26.3651 121.329 9.2251 141.219 10.0951C146.579 10.8851 150.959 11.8251 150.959 11.8251C135.629 11.8251 116.069 21.5951 106.959 30.6151C123.509 20.6751 154.129 13.3751 163.729 15.3051C137.729 17.1051 111.539 31.5849 99.309 53.1449C116.079 35.3249 143.099 32.2651 149.709 33.5951Z" fill="#592826"/>
<path d="M171.229 12.6151C158.479 4.24508 134.699 1.76502 110.139 13.805C148.879 -5.68498 166.999 2.63508 171.229 12.6151Z" fill="#592826"/>
<path d="M169.728 47.7749C168.868 57.7749 172.838 67.7752 181.998 78.5752C191.158 89.3752 200.148 112.245 192.428 128.075C202.398 111.045 191.738 67.1049 169.728 47.7749Z" fill="#592826"/>
<path d="M183.848 46.5449C182.988 58.9049 190.848 72.6851 200.078 79.7051C209.308 86.7251 219.678 114.325 213.298 136.785C219.908 115.785 224.948 102.915 205.908 73.2251C216.768 82.9551 223.908 99.2249 223.488 112.025C226.048 77.0249 204.168 51.4453 189.278 39.4053C184.438 40.1053 186.498 41.6353 186.498 41.6353C194.658 49.8653 201.128 64.4751 201.128 64.4751C196.231 57.7227 190.415 51.6875 183.848 46.5449Z" fill="#592826"/>
<path d="M192.867 30.4849C214.017 48.2749 241.867 101.855 234.517 128.135C241.367 95.0953 202.537 45.7549 192.867 30.4849Z" fill="#592826"/>
<path d="M77.8288 85.085C73.9988 102.275 65.2789 137.825 76.4489 152.465C66.3389 144.085 67.0588 120.055 77.8288 85.085Z" fill="#592826"/>
<path d="M98.2378 22.9751C73.1078 47.4151 45.6478 91.1749 66.8678 122.505C55.8678 102.915 60.4878 62.7853 96.8678 24.9053" fill="#0A0005"/>
<path d="M173.569 53.6553C172.109 64.2853 183.389 71.9351 187.099 76.7051C190.809 81.4751 193.039 91.605 193.039 91.605C191.659 77.355 181.919 59.1853 173.569 53.6553Z" fill="#87453A"/>
<path d="M126.118 39.895C109.028 45.015 99.7184 49.7652 96.3184 69.0352C106.708 54.8152 126.118 39.895 126.118 39.895Z" fill="#87453A"/>
<path d="M122.658 25.0151C99.9282 32.4451 90.5782 48.5252 86.1582 58.7852C99.7182 44.9152 122.658 25.0151 122.658 25.0151Z" fill="#87453A"/>
<path d="M178.658 25.4053C177.658 27.7753 169.658 26.2853 156.498 26.4053C167.618 24.6353 176.408 23.9153 176.548 20.4053C181.178 22.2953 178.658 25.4053 178.658 25.4053Z" fill="black"/>
<path d="M185.087 86.7451C194.577 100.005 199.577 127.275 181.607 142.255C191.507 128.685 193.457 105.965 185.087 86.7451Z" fill="#190A10"/>
<path d="M171.039 179.665C178.339 178.965 221.199 212.795 226.409 219.665C227.709 223.415 206.189 228.665 207.819 231.275C209.449 233.885 234.119 247.715 235.819 250.985C237.519 254.255 226.349 302.405 223.819 325.085C219.329 286.495 216.119 265.195 203.729 240.465C194.729 222.545 181.379 204.935 175.509 194.265C172.139 188.035 171.039 179.665 171.039 179.665Z" fill="#F9F1E5"/>
<path d="M118.037 188.185C115.037 192.055 111.847 205.945 116.277 223.585C120.707 241.225 139.967 286.585 147.117 301.435C154.267 316.285 157.777 332.325 157.777 337.345C157.777 338.925 153.917 330.345 146.037 318.585C138.157 306.825 106.537 279.585 104.457 271.825C102.377 264.065 116.057 245.925 114.647 244.295C113.237 242.665 97.4073 244.765 96.0373 241.295C94.6673 237.825 97.6073 200.295 117.857 183.825C118.957 183.765 118.037 188.185 118.037 188.185Z" fill="#F9F1E5"/>
<path d="M127.358 137.365C125.458 136.605 123.358 135.365 122.808 134.365C122.739 134.17 122.607 134.003 122.433 133.892C122.259 133.781 122.052 133.732 121.847 133.753C121.641 133.774 121.448 133.864 121.3 134.007C121.151 134.151 121.055 134.34 121.028 134.545C120.958 135.315 122.568 136.055 127.358 137.365Z" fill="#770725"/>
</g>
<defs>
<linearGradient id="paint0_linear_8_14326" x1="175.954" y1="127.242" x2="173.164" y2="114.761" gradientUnits="userSpaceOnUse">
<stop offset="0.17" stop-color="#789DA4"/>
<stop offset="0.29" stop-color="#7297A0"/>
<stop offset="0.45" stop-color="#628694"/>
<stop offset="0.63" stop-color="#486B7F"/>
<stop offset="0.83" stop-color="#244464"/>
<stop offset="1" stop-color="#001E48"/>
</linearGradient>
<linearGradient id="paint1_linear_8_14326" x1="-57877" y1="82081.5" x2="-57858" y2="81944.9" gradientUnits="userSpaceOnUse">
<stop offset="0.17" stop-color="#789DA4"/>
<stop offset="0.29" stop-color="#7297A0"/>
<stop offset="0.45" stop-color="#628694"/>
<stop offset="0.63" stop-color="#486B7F"/>
<stop offset="0.83" stop-color="#244464"/>
<stop offset="1" stop-color="#001E48"/>
</linearGradient>
<clipPath id="clip0_8_14326">
<rect width="246.68" height="246.68" fill="white" transform="translate(33 82)"/>
</clipPath>
</defs>
</svg>
