<svg width="313" height="329" viewBox="0 0 313 329" fill="none" xmlns="http://www.w3.org/2000/svg">
<g clip-path="url(#clip0_8_14323)">
<path d="M243.56 292.551C291.727 244.383 291.727 166.289 243.56 118.122C195.393 69.9544 117.298 69.9541 69.1305 118.121C20.9633 166.289 20.9635 244.383 69.1308 292.551C117.298 340.718 195.392 340.718 243.56 292.551Z" fill="#FBAE17"/>
<path d="M156.341 316.38C217.666 316.38 267.381 266.665 267.381 205.34C267.381 144.014 217.666 94.2998 156.341 94.2998C95.0151 94.2998 45.3008 144.014 45.3008 205.34C45.3008 266.665 95.0151 316.38 156.341 316.38Z" fill="#FFCD5C"/>
</g>
<mask id="mask0_8_14323" style="mask-type:alpha" maskUnits="userSpaceOnUse" x="0" y="-19" width="313" height="336">
<path fill-rule="evenodd" clip-rule="evenodd" d="M24 -19H292V162H258.64C264.224 175.249 267.31 189.809 267.31 205.09C267.31 266.415 217.596 316.13 156.27 316.13C94.9448 316.13 45.2305 266.415 45.2305 205.09C45.2305 189.809 48.3171 175.249 53.9008 162H24V-19Z" fill="#22B573"/>
</mask>
<g mask="url(#mask0_8_14323)">
<path d="M232.594 114.538C235.644 145.988 262.674 211.278 246.594 228.728C261.594 215.008 242.594 159.218 235.664 116.988" fill="black"/>
<path d="M235.544 108.018C235.664 153.548 246.234 182.868 250.894 218.438C256.164 258.668 245.374 292.178 217.014 309.868C227.124 303.108 238.074 267.868 239.524 252.988C234.864 277.818 222.374 298.848 211.674 301.878C202.234 314.818 191.194 320.598 171.784 319.588C146.594 322.018 97.0844 303.348 103.454 285.588C130.644 209.768 78.2244 102.478 114.554 50.3479C137.654 17.1779 235.274 6.05782 235.544 108.018Z" fill="#260C08"/>
<path d="M108.854 128.268C121.374 164.498 125.853 203.108 117.923 222.268C129.003 201.868 123.853 163.998 121.923 157.528C131.413 177.358 129.773 229.738 114.393 240.698C116.333 195.748 115.484 156.608 108.854 128.268Z" fill="black"/>
<path d="M231.034 133.988C229.774 161.308 232.474 185.368 236.614 197.788C233.874 183.008 239.444 163.638 239.444 163.638C242.984 190.938 250.344 216.998 251.734 237.638C253.124 258.278 241.734 286.958 230.644 298.798C242.434 278.178 245.644 250.668 236.954 226.898C228.264 203.128 225.524 187.428 223.954 175.588C224.534 202.588 231.464 291.098 208.814 308.868C223.814 267.868 213.544 207.078 212.284 183.478C214.504 175.208 222.074 158.478 222.074 158.478L225.194 170.998L226.134 144.788L231.034 133.988Z" fill="black"/>
<path d="M239.053 161.328C242.823 194.038 264.123 259.048 228.273 292.148C240.083 276.148 248.153 247.148 243.913 216.148C240.773 193.238 238.543 171.628 239.053 161.328Z" fill="#353131"/>
<path d="M137.563 148.308C142.303 155.538 135.493 193.868 129.773 200.488C130.403 219.088 208.983 211.168 192.773 187.348C180.473 169.238 201.223 120.818 199.963 113.678C198.703 106.538 130.323 137.248 137.563 148.308Z" fill="#8C6239"/>
<path d="M129.873 200.348C133.04 193.497 135.39 186.298 136.873 178.898C137.543 182.788 139.023 186.828 141.523 187.408C146.103 188.458 163.763 174.848 164.943 176.228C166.123 177.608 150.713 202.468 143.433 206.078" fill="#A67C52"/>
<path d="M133.173 200.158C133.173 200.158 132.053 199.338 127.483 200.488C122.913 201.638 119.573 218.018 102.563 235.928C85.5534 253.838 60.9534 264.138 55.9534 279.388C50.9534 294.638 68.0534 340.388 94.7334 360.948C121.413 381.508 158.733 394.118 179.733 360.948C191.493 312.628 212.513 274.808 214.413 254.948C216.313 235.088 204.873 200.458 188.303 180.248C168.953 191.098 137.733 201.538 133.173 200.158Z" fill="#8C6239"/>
<path d="M193.764 136.358C190.344 158.708 185.334 177.038 193.764 187.798C184.764 180.798 179.764 167.078 180.134 157.988C171.384 165.718 151.854 179.148 143.394 179.658C138.024 177.508 138.094 164.998 138.094 164.998" fill="#8C6239"/>
<path d="M190.514 281.098C194.047 269.457 198.227 258.023 203.034 246.848C202.034 264.138 201.924 284.338 201.924 284.338L190.514 281.098Z" fill="#6E3222"/>
<path d="M126.064 201.308C128.404 199.018 134.694 201.568 140.254 200.548C144.486 199.658 148.791 199.166 153.114 199.078C155.744 199.188 139.114 210.968 131.784 244.318C129.694 242.318 122.104 235.318 118.144 234.228C110.954 232.168 108.564 234.998 102.734 235.738C116.834 222.588 122.894 204.408 126.064 201.308Z" fill="#A67C52"/>
<path d="M125.955 201.928C127.425 201.178 130.955 202.118 133.755 201.368C136.555 200.618 127.585 206.778 125.295 206.008C122.825 205.158 124.835 202.538 125.955 201.928Z" fill="#CE9474"/>
<path d="M84.0331 327.408C66.2631 325.938 31.8131 325.998 -2.10687 355.668C-36.0269 385.338 -42.5069 447.858 -8.58685 493.598C25.3331 539.338 93.9531 556.538 149.953 525.238C168.953 514.628 155.683 344.988 144.623 335.468C109.563 305.308 84.0331 327.408 84.0331 327.408Z" fill="#F0AE72"/>
<path d="M27.9548 517.588C27.3848 519.918 26.2848 533.688 24.7048 555.488H207.635C204.895 532.168 201.815 512.338 198.125 497.588C184.125 441.808 180.735 426.358 178.825 399.298C177.395 378.998 182.045 348.798 185.755 343.198C189.235 336.198 192.855 328.558 196.235 319.788C209.775 284.718 210.905 279.788 207.855 279.008C204.805 278.228 178.135 279.768 152.215 264.198C144.525 259.868 125.155 238.598 117.155 235.548C109.155 232.498 101.155 234.788 91.9948 241.648C82.8347 248.508 54.6448 269.478 52.7348 280.148C50.8248 290.818 55.0448 311.018 50.4648 317.498C45.8848 323.978 22.8048 326.128 -10.2452 360.498C-43.2952 394.868 -48.4352 443.648 -23.8552 475.558C-2.60523 503.108 12.9548 502.088 27.9548 517.588Z" fill="#076C81"/>
<path d="M53.8931 307.948C53.8931 307.948 80.2731 316.378 92.6031 312.828C104.933 309.278 128.933 265.598 119.853 239.268C118.403 235.088 109.203 233.268 99.933 236.768C92.613 239.548 55.0431 267.278 52.7731 280.148C50.7531 291.668 53.4631 303.168 53.8931 307.948Z" fill="#0E7D95"/>
<path d="M52.7747 314.608C55.9847 316.008 91.7747 330.978 119.855 337.478C88.0547 333.748 60.9547 322.048 51.6447 317.168C50.0747 315.748 51.3447 313.978 52.7747 314.608Z" fill="#0E7D95"/>
<path d="M103.784 236.768C109.784 235.698 89.7838 268.238 79.6338 273.618C69.4838 278.998 54.4338 280.538 54.5238 275.908C54.6138 271.278 89.4138 239.308 103.784 236.768Z" fill="#2393A5"/>
<path d="M52.5846 308.588C63.9946 316.588 113.585 331.788 144.415 335.918C165.415 339.268 186.825 338.078 188.105 338.478C189.385 338.878 190.355 339.628 187.315 344.078C184.275 348.528 185.265 348.228 182.085 348.798C158.085 349.178 132.305 344.408 96.8645 335.948C61.4245 327.488 49.8646 319.598 49.1246 318.798C48.3846 317.998 49.9146 316.158 50.6846 313.868C51.4546 311.578 51.3746 308.588 52.5846 308.588Z" fill="#C2C290"/>
<path opacity="0.2" d="M84.0245 314.678C82.4745 314.778 79.4245 317.028 77.7145 321.098C76.0045 325.168 75.5245 331.638 76.8545 333.218C78.1845 334.798 84.7745 336.048 96.8545 335.948C100.854 336.218 107.194 336.098 107.194 336.098H108.434C108.434 336.098 120.494 342.578 123.434 341.908C126.374 341.238 128.814 333.768 126.994 330.738C125.174 327.708 99.9944 328.908 99.7044 328.738" fill="black"/>
<path d="M100.384 327.538C100.384 327.538 95.1039 320.198 91.9239 317.078C88.7439 313.958 83.9239 312.148 81.7439 313.568C79.5639 314.988 75.0139 323.888 75.8139 325.388C76.6139 326.888 85.4339 334.388 96.8139 335.568C99.8239 334.758 101.744 329.348 100.384 327.538Z" fill="#C2C290"/>
<path d="M98.5349 326.768C98.9149 325.438 91.1848 317.448 90.0048 316.498C88.8248 315.548 85.6448 322.208 84.5748 321.908C83.5048 321.608 79.3548 321.308 77.9648 322.838C81.6948 322.198 83.9648 322.998 87.3648 326.308C90.7648 329.618 94.6549 333.088 95.2249 332.208C95.7949 331.328 90.9749 326.988 93.1049 325.298C94.8249 322.758 98.6349 328.068 98.5349 326.768Z" fill="#DEDCB4"/>
<path d="M90.4035 317.428C89.0735 316.278 85.0735 322.138 85.8335 322.858C86.5935 323.578 91.4235 318.308 90.4035 317.428Z" fill="#FFFDDE"/>
<path d="M176.643 186.378C164.833 185.998 140.643 205.178 137.773 226.788C133.043 261.848 136.243 362.478 133.193 375.058C130.143 387.638 175.773 399.448 179.633 378.438C188.153 332.158 185.473 316.348 193.443 283.188C201.413 250.028 205.233 239.748 201.043 216.878" fill="#8C6239"/>
<path d="M159.513 200.358C149.223 204.968 141.513 216.598 139.443 233.718C137.373 250.838 139.133 277.778 138.323 306.638C137.513 335.498 136.603 356.838 142.563 369.918C149.393 384.918 156.763 387.978 163.323 381.478C166.753 378.078 170.803 358.798 175.453 312.048C177.943 287.048 179.513 269.638 183.063 248.578C185.953 231.538 176.183 199.768 159.513 200.358Z" fill="#A67C52"/>
<path d="M153.714 207.128C145.124 207.068 140.804 222.958 142.344 238.498C143.384 248.938 176.444 207.288 153.714 207.128Z" fill="#CE9474"/>
<path d="M114.604 92.5382C112.484 84.4782 101.004 85.1983 99.5343 95.6383C98.0643 106.078 104.774 118.638 111.764 112.498" fill="#8C6239"/>
<path d="M108.383 141.598H108.273C106.183 141.808 104.343 139.488 102.963 134.908C100.403 126.408 100.153 111.908 105.033 109.348C105.111 109.307 105.196 109.281 105.283 109.273C105.37 109.264 105.458 109.273 105.542 109.299C105.626 109.325 105.704 109.368 105.771 109.424C105.838 109.481 105.893 109.55 105.933 109.628C106.015 109.782 106.032 109.962 105.982 110.129C105.931 110.296 105.817 110.435 105.663 110.518C101.813 112.518 101.603 125.768 104.233 134.518C105.353 138.248 106.823 140.398 108.143 140.268C109.313 140.148 110.213 139.028 110.823 136.938C112.763 130.208 110.553 115.828 108.093 113.788C108.492 113.657 108.883 113.504 109.263 113.328C112.013 115.458 114.163 130.158 112.103 137.328C111.343 139.938 110.093 141.368 108.383 141.598Z" fill="#C00C3B"/>
<path d="M103.074 112.868C98.7236 119.448 101.614 135.608 106.314 140.128C101.814 130.688 101.954 118.338 103.074 112.868Z" fill="#F43668"/>
<path d="M109.763 116.438C111.813 120.958 111.953 134.628 111.183 137.978C114.963 132.708 111.853 119.488 110.813 115.898C109.493 114.648 109.763 116.438 109.763 116.438Z" fill="#A00031"/>
<path d="M100.954 121.898C100.694 117.838 102.574 119.178 102.494 122.828C102.414 126.478 101.244 126.708 100.954 121.898Z" fill="#FF647E"/>
<path d="M107.285 90.6785C110.995 92.4385 113.215 101.298 112.285 103.678C111.355 106.058 110.955 105.358 109.185 104.608C107.415 103.858 106.025 108.328 107.935 109.048C104.765 108.868 103.635 104.938 106.255 102.678C107.515 101.578 106.645 96.5485 105.155 95.6785C102.255 94.0585 101.275 98.6785 101.275 98.6785C100.485 92.5385 105.275 89.7285 107.285 90.6785Z" fill="#452018"/>
<path d="M121.633 48.0283C101.793 85.8483 110.823 110.028 138.423 126.838C151.677 134.923 167.6 137.411 182.689 133.756C197.778 130.101 210.798 120.602 218.883 107.348C222.886 100.786 225.557 93.4997 226.744 85.9053C227.931 78.3108 227.61 70.557 225.801 63.0864C223.991 55.6159 220.727 48.5749 216.196 42.3657C211.665 36.1565 205.955 30.9004 199.393 26.898C171.803 10.058 136.653 19.3983 121.633 48.0283Z" fill="#8C6239"/>
<path d="M112.953 70.9282C106.023 89.4782 104.783 121.698 110.613 136.998C116.073 151.348 127.873 166.108 136.613 168.208C147.083 170.738 176.673 159.498 185.853 148.268C198.323 133.018 211.543 101.128 211.543 101.128" fill="#8C6239"/>
<path d="M113.324 77.478C107.594 97.658 107.014 117.028 109.694 127.138C113.064 139.828 114.024 144.438 121.884 154.138C126.134 159.408 129.274 163.138 134.884 164.588C140.884 166.088 145.154 163.838 151.884 160.958C163.084 156.158 169.885 151.658 176.705 143.208C183.315 135.068 191.925 112.588 188.655 90.5283C185.785 71.1083 140.925 54.4283 133.295 43.5283C123.953 53.0348 117.094 64.6941 113.324 77.478Z" fill="#BC7C52"/>
<path d="M156.863 137.188C158.863 137.188 160.703 132.618 162.603 133.528C166.203 135.228 163.403 138.738 156.863 137.188Z" fill="#CE9474"/>
<path d="M123.794 133.368C121.904 132.728 120.794 127.168 119.034 128.758C116.164 131.388 119.424 132.388 124.314 133.998" fill="#CE9474"/>
<path d="M123.264 135.538C125.134 138.408 129.264 146.538 136.634 147.318C144.004 148.098 153.804 142.088 156.324 139.958C147.834 139.858 128.234 138.648 128.234 138.648" fill="#FC4E49"/>
<path d="M129.004 140.908C128.334 141.688 131.864 145.278 136.134 145.808C142.194 146.558 145.694 143.578 144.654 142.928C144.034 142.548 139.074 142.358 136.504 141.928C133.124 141.458 129.464 140.358 129.004 140.908Z" fill="#FF847D"/>
<path d="M141.793 143.638C139.793 143.998 139.183 145.869 141.653 145.239C144.123 144.609 143.803 143.278 141.793 143.638Z" fill="#FFD6D6"/>
<path d="M120.444 130.598C125.368 133.428 130.808 135.246 136.444 135.948C145.754 137.248 156.584 135.948 160.534 135.838C160.684 137.128 157.204 139.608 154.964 140.598C152.724 141.588 145.064 142.888 136.564 141.598C130.394 140.688 126.664 139.118 123.564 135.858C122.044 134.248 119.954 131.308 120.444 130.598Z" fill="#960E0E"/>
<path d="M128.223 133.158C126.043 133.158 128.643 139.908 135.933 140.958C148.303 142.738 156.083 141.528 155.123 136.318C148.595 135.972 142.089 135.281 135.633 134.248" fill="#660000"/>
<path d="M125.953 133.158C126.568 134.925 127.597 136.52 128.953 137.808C131.503 139.728 144.883 141.478 149.423 139.578C151.018 138.738 152.325 137.439 153.173 135.848" fill="#FFC1B1"/>
<path d="M145.503 138.098C145.883 138.098 145.313 139.788 144.903 140.098C142.713 140.688 132.983 139.698 130.313 138.098C130.013 137.718 130.123 136.378 130.123 136.378C134.323 137.988 138.833 138.228 145.503 138.098Z" fill="#F9E5E1"/>
<path d="M160.514 135.838C156.014 136.188 147.684 133.118 138.434 132.998C137.624 132.998 136.254 133.738 135.624 133.658C134.994 133.578 133.944 132.758 133.094 132.488C127.094 130.638 123.754 132.178 120.344 130.488C123.394 132.488 129.814 136.118 135.704 136.908C140.444 137.538 153.644 137.658 160.514 135.838Z" fill="#F24C45"/>
<path d="M133.953 39.2879C144.603 52.7479 173.403 58.3379 187.613 75.8479C201.823 93.3579 199.733 114.038 197.523 119.938C217.653 91.3578 217.763 57.3577 175.433 35.1477C133.103 12.9377 128.293 32.648 119.493 49.428C114.25 59.3065 110.899 70.078 109.613 81.1878C114.673 64.3278 127.093 43.6779 133.953 39.2879Z" fill="#42210B"/>
<path d="M154.615 101.588C152.505 103.758 153.855 104.468 155.705 104.148C157.555 103.828 162.445 106.328 170.275 106.408C178.105 106.488 181.135 103.588 182.425 101.238C180.465 89.4585 162.025 85.8081 154.615 101.588Z" fill="#FFB5A6"/>
<path d="M157.005 101.788C155.655 103.948 165.655 105.958 172.145 105.488C178.635 105.018 182.505 102.348 180.635 99.4884C177.865 95.2784 165.605 87.9782 157.005 101.788Z" fill="#FFE3DE"/>
<path d="M165.544 91.0285C160.414 94.4185 160.724 105.428 168.954 105.288C177.894 106.928 181.164 100.508 179.164 95.858C177.164 91.208 169.394 88.5385 165.544 91.0285Z" fill="#0C1F26"/>
<path d="M163.833 96.4582C162.143 98.3982 162.243 105.868 170.423 105.668C176.863 105.548 178.583 101.569 178.203 100.009C177.583 97.4785 169.843 92.6082 163.833 96.4582Z" fill="#507886"/>
<path d="M170.955 92.9379C166.015 92.3079 164.425 100.998 170.305 101.758C176.185 102.518 178.365 93.8679 170.955 92.9379Z" fill="#0C1F26"/>
<path d="M166.124 101.698C165.504 100.348 161.224 101.108 161.344 102.868C161.464 104.628 167.194 104.028 166.124 101.698Z" fill="#FFE3DE"/>
<path d="M174.954 99.4283C174.224 99.1583 172.774 100.358 174.424 101.278C176.074 102.198 176.864 100.138 174.954 99.4283Z" fill="#FFE3DE"/>
<path d="M160.885 105.088C169.135 106.958 178.445 107.038 182.305 101.258C179.965 88.7482 163.915 85.8381 155.555 99.8081C158.675 84.3981 180.355 82.8081 186.225 99.5981C184.335 103.658 175.875 109.748 160.885 105.088Z" fill="#6E3222"/>
<path d="M159.953 94.4682C168.233 86.6782 180.833 91.288 186.393 98.728C186.613 100.928 183.103 101.478 182.473 100.958C180.393 94.898 168.253 89.2982 159.953 94.4682Z" fill="#211309"/>
<path d="M132.154 99.2783C132.514 101.658 131.743 102.448 130.013 101.948C128.283 101.448 123.734 101.488 117.234 99.1782C110.324 96.7382 110.234 92.9882 109.854 90.1782C115.104 79.2082 129.244 82.3483 132.154 99.2783Z" fill="#FFB5A6"/>
<path d="M112.953 92.0479C119.453 81.1579 132.573 88.9579 131.043 101.048C130.863 102.038 114.133 101.828 112.953 92.0479Z" fill="#FFE3DE"/>
<path d="M121.873 84.3781C117.403 83.9181 112.243 95.4682 120.953 99.7082C128.763 102.178 132.383 98.5484 131.613 94.9284C130.843 91.3084 126.643 84.8681 121.873 84.3781Z" fill="#0C1F26"/>
<path d="M121.835 100.248C126.835 102.078 130.325 98.988 130.665 96.768C130.105 92.828 123.875 88.9579 118.755 89.4379C116.435 91.3579 116.035 98.098 121.835 100.248Z" fill="#507886"/>
<path d="M125.875 88.6478C119.685 86.7478 118.985 95.6477 123.965 96.8177C129.785 98.1977 131.045 90.2278 125.875 88.6478Z" fill="#0C1F26"/>
<path d="M118.884 93.7583C118.674 92.2783 114.224 91.6379 113.824 93.3579C113.424 95.0779 119.244 96.3283 118.884 93.7583Z" fill="#FFE3DE"/>
<path d="M128.394 95.938C127.804 95.488 126.164 96.118 127.394 97.418C128.624 98.718 129.954 97.108 128.394 95.938Z" fill="#FFE3DE"/>
<path d="M127.834 101.538C120.164 99.398 112.264 99.4279 111.094 89.6679C116.094 79.7879 130.004 84.3281 132.354 98.1381C133.714 84.0381 117.274 75.5882 110.064 85.2182C110.064 85.7282 109.204 90.1581 109.924 92.3681C112.054 98.9281 118.384 100.458 127.834 101.538Z" fill="#6E3222"/>
<path d="M130.004 92.3079C126.294 87.6779 117.174 83.1477 110.854 90.0477C109.324 89.5177 108.534 88.0479 109.024 86.9979C113.714 81.0379 127.134 82.3879 130.004 92.3079Z" fill="#211309"/>
<path d="M129.475 118.728C126.355 117.278 129.675 122.798 135.475 124.518C141.275 126.238 148.075 124.518 147.905 123.118C147.735 121.718 139.165 121.698 136.435 121.218C134.01 120.715 131.668 119.877 129.475 118.728Z" fill="#8C6239"/>
<path d="M146.623 115.358C147.233 116.538 148.673 117.758 149.223 119.358C149.893 121.288 147.343 123.928 147.343 123.928L145.023 122.098C145.625 121.972 146.188 121.702 146.663 121.312C147.138 120.923 147.512 120.423 147.753 119.858C148.463 117.918 146.623 115.358 146.623 115.358Z" fill="#8C6239"/>
<path d="M140.313 122.538C141.873 122.408 146.153 124.288 144.243 124.608C142.333 124.928 138.153 122.678 140.313 122.538Z" fill="#260C08"/>
<path d="M130.444 120.738C131.444 120.108 134.944 121.508 133.814 122.078C132.684 122.648 129.344 121.448 130.444 120.738Z" fill="#260C08"/>
<path d="M177.664 130.698C175.034 131.388 172.104 132.429 173.324 137.259C174.544 142.089 175.404 135.698 175.644 135.038C175.884 134.378 179.784 130.128 177.664 130.698Z" fill="#CE9474"/>
<path d="M110.883 122.398C113.423 123.398 114.313 123.868 112.563 128.528C110.813 133.188 111.023 126.848 110.863 126.168C110.703 125.488 108.833 121.608 110.883 122.398Z" fill="#CE9474"/>
<path d="M135.244 114.538C132.674 115.078 131.614 119.088 134.584 119.628C137.554 120.168 138.254 113.888 135.244 114.538Z" fill="#CE9474"/>
<path d="M161.143 76.828C159.463 77.308 153.883 81.5582 153.313 83.0082C152.743 84.4582 160.483 83.0082 162.503 82.2382C164.523 81.4682 173.563 77.6278 178.763 78.8178C184.603 80.1578 190.653 86.4779 190.653 86.4779C190.653 86.4779 186.783 80.598 180.793 77.808C174.803 75.018 164.433 75.888 161.143 76.828Z" fill="#6E3222"/>
<path d="M161.104 81.6984C159.164 82.2484 156.104 82.818 156.104 82.818C157.401 81.3024 158.823 79.8978 160.354 78.6183C162.834 76.5483 172.703 78.0983 172.703 78.0983C172.703 78.0983 162.444 81.3084 161.104 81.6984Z" fill="#452018"/>
<path d="M115.294 68.9883C119.884 68.0883 127.294 72.9882 129.514 74.6182C130.634 75.4782 133.574 80.3082 133.574 81.6182C133.574 82.9282 127.224 79.2982 125.944 78.1182C124.664 76.9382 119.634 71.5684 115.344 71.0284C113.964 70.8684 111.434 73.858 111.434 73.858C111.434 73.858 113.254 69.3883 115.294 68.9883Z" fill="#6E3222"/>
<path d="M127.164 78.418C128.403 79.1795 129.752 79.7463 131.164 80.0981C130.626 78.7769 130.004 77.4909 129.304 76.248C128.054 73.958 120.174 72.248 120.174 72.248C120.174 72.248 126.264 77.738 127.164 78.418Z" fill="#452018"/>
<path d="M209.024 106.538C213.334 101.338 223.274 99.4783 226.374 107.718C230.234 117.958 216.614 129.148 209.874 131.448C203.134 133.748 197.944 131.188 199.544 124.368" fill="#8C6239"/>
<path d="M201.284 160.848H201.164C199.064 160.778 197.534 158.248 196.764 153.528C195.324 144.768 196.944 130.388 202.124 128.448C202.205 128.418 202.292 128.404 202.378 128.407C202.465 128.41 202.551 128.431 202.63 128.467C202.709 128.503 202.78 128.554 202.839 128.618C202.898 128.682 202.944 128.756 202.974 128.838C203.035 129.004 203.029 129.187 202.956 129.349C202.883 129.51 202.749 129.635 202.584 129.698C198.514 131.218 196.584 144.288 198.074 153.308C198.704 157.158 199.874 159.478 201.204 159.518C202.374 159.518 203.424 158.568 204.294 156.568C207.084 150.148 206.754 135.568 204.574 133.258C204.99 133.184 205.401 133.08 205.804 132.948C208.244 135.418 208.484 150.268 205.514 157.098C204.424 159.588 203.004 160.848 201.284 160.848Z" fill="#C00C3B"/>
<path d="M199.724 131.678C194.554 137.678 195.334 154.038 199.414 159.128C196.164 149.188 197.954 136.958 199.724 131.678Z" fill="#F43668"/>
<path d="M205.893 136.078C207.343 140.828 205.713 154.398 204.523 157.618C208.943 152.888 207.523 139.378 207.013 135.678C205.853 134.268 205.893 136.078 205.893 136.078Z" fill="#A00031"/>
<path d="M196.433 140.348C196.693 136.298 198.433 137.868 197.833 141.478C197.233 145.088 196.113 145.168 196.433 140.348Z" fill="#FF647E"/>
<path d="M217.274 108.118C212.414 107.218 203.994 114.278 203.224 117.278C202.454 120.278 203.324 119.848 205.574 120.368C207.824 120.888 206.024 126.228 203.674 125.588C206.884 127.648 210.674 123.878 209.364 119.908C208.054 115.938 213.114 111.608 215.154 111.838C219.154 112.298 217.434 120.258 217.434 120.258C223.824 114.398 219.954 108.608 217.274 108.118Z" fill="#452018"/>
<path d="M166.455 7.53826C160.535 3.08826 123.215 -0.401958 99.7047 56.068C78.9447 105.928 105.515 220.328 92.3347 229.628C111.495 213.128 89.3947 102.678 101.715 73.5383C93.5047 105.658 98.7147 133.058 104.715 139.598C92.0647 116.598 109.125 46.3184 141.715 32.6584C155.545 19.3684 166.455 7.53826 166.455 7.53826Z" fill="black"/>
<path d="M146.294 8.98839C143.184 2.77839 116.784 3.80838 95.2344 67.9884C104.094 31.2184 130.104 -3.45175 148.094 7.34825C149.664 9.73825 146.294 8.98839 146.294 8.98839Z" fill="black"/>
<path d="M123.644 39.998C112.644 53.998 101.194 80.4179 100.094 94.1479C97.3139 71.0279 111.954 43.668 123.644 39.998Z" fill="#353131"/>
<path d="M126.583 35.438C106.343 45.848 91.9335 67.8682 97.2035 120.678C100.323 151.868 110.623 175.278 99.7835 202.138C110.623 175.278 83.7135 128.268 93.0435 78.3682C101.043 35.5282 122.703 17.828 133.633 16.228C123.523 22.828 106.403 49.6982 106.403 49.6982C115.783 37.5382 126.583 35.438 126.583 35.438Z" fill="#353131"/>
<path d="M193.764 64.668C198.418 72.4882 201.343 81.2151 202.342 90.2607C203.341 99.3063 202.39 108.461 199.554 117.108C199.554 117.108 210.044 99.6382 221.954 99.8882C225.954 81.5382 193.764 64.668 193.764 64.668Z" fill="#260C08"/>
<path d="M166.154 214.718C174.344 213.278 192.024 196.498 197.154 180.848C187.714 202.498 168.694 213.748 149.984 210.258C169.894 211.308 191.984 196.498 203.984 143.198C211.594 109.278 204.054 86.7184 192.724 74.1984C173.284 52.6884 154.144 57.8381 134.724 37.4381C130.944 33.6781 136.854 11.3082 152.644 4.03821C179.314 -9.90179 228.004 12.0383 237.644 73.1383C245.074 120.278 242.254 193.388 213.484 207.558C222.484 203.558 232.164 164.068 229.744 135.298C209.254 207.688 183.314 212.808 166.154 214.718Z" fill="black"/>
<path d="M168.363 214.408C164.023 215.458 153.363 213.958 154.183 208.058C153.883 211.298 166.633 217.228 171.833 212.438C171.443 213.118 169.153 214.208 168.363 214.408Z" fill="black"/>
<path d="M157.475 6.14791C175.475 -4.46209 218.565 8.14805 233.175 55.5381C246.655 99.3181 243.275 164.178 226.475 193.188C233.715 163.358 240.925 119.448 231.065 77.518C221.205 35.588 180.465 6.19791 157.475 6.14791Z" fill="#353131"/>
<path d="M212.494 95.8779C211.594 118.738 203.674 182.118 170.774 205.718C187.624 198.408 202.154 179.438 209.344 159.558C201.614 187.718 195.394 200.338 186.344 207.908C209.904 197.408 221.124 156.988 226.104 139.398C234.034 106.118 228.574 61.2681 208.554 37.7481C187.624 13.1381 165.914 5.99825 149.934 12.4482C152.254 12.2482 160.074 11.6782 176.044 23.4482C163.814 18.6582 149.214 17.678 145.424 21.728C152.994 34.898 167.494 38.278 189.504 51.9981C196.946 56.5493 203.014 63.0336 207.063 70.7607C211.111 78.4879 212.988 87.1685 212.494 95.8779ZM201.884 44.7583C221.204 60.8783 230.104 97.9879 220.674 131.298C225.314 109.928 222.154 68.7383 201.884 44.7583Z" fill="#353131"/>
<path d="M139.203 30.1479C150.793 45.3779 176.083 46.7179 193.863 62.3179C211.643 77.9179 210.373 103.748 206.603 122.218C209.223 101.638 209.523 75.4179 184.603 64.2979C159.683 53.1779 140.953 44.0079 139.203 30.1479Z" fill="#353131"/>
<path d="M171.734 0.698218C158.794 1.69822 146.074 8.69794 141.844 15.9179C147.074 13.1579 158.634 16.5781 158.634 16.5781C146.394 16.8581 141.054 20.2081 139.244 23.3481C144.474 32.6181 158.314 42.0678 172.754 45.7978C154.364 42.6578 141.754 32.4079 138.074 27.8979C139.164 38.3079 142.494 47.428 161.144 53.728C151.02 50.7478 141.877 45.1132 134.664 37.4082C126.374 42.7182 113.804 61.358 109.994 78.768C112.424 56.768 125.924 37.8982 129.904 33.9282C124.774 32.6182 117.204 38.4682 117.204 38.4682C122.417 32.9026 128.014 27.7097 133.954 22.9282C138.664 17.2382 138.564 14.1479 138.564 14.1479C135.844 12.9079 127.564 17.1479 127.564 17.1479C136.404 10.9779 137.944 7.2981 145.814 7.3281C151.954 -0.211899 163.234 -0.701782 171.734 0.698218Z" fill="#353131"/>
<path d="M153.693 19.0881C170.013 18.9881 196.773 30.0883 210.373 67.2883C203.703 52.1383 175.213 26.0881 153.693 19.0881Z" fill="white"/>
<path d="M162.494 14.6384C188.194 10.2784 202.234 32.3385 208.654 48.5285C195.724 29.8185 162.494 14.6384 162.494 14.6384Z" fill="white"/>
<path d="M173.953 3.53809C205.673 8.41809 219.433 31.608 225.233 51.208C217.953 29.368 193.953 10.6581 173.953 3.53809Z" fill="white"/>
<path d="M192.173 201.368C206.303 183.368 216.423 134.988 216.423 134.988C211.503 154.758 203.533 174.058 185.703 192.658C200.363 175.998 215.433 134.708 217.033 117.608C232.303 143.328 204.953 193.688 192.173 201.368Z" fill="white"/>
<path d="M145.523 22.2585C162.013 15.4985 191.333 43.368 196.813 81.548C202.293 119.728 184.193 150.228 172.053 146.548C184.343 151.908 200.423 120.188 200.153 90.0182C199.823 52.7982 161.873 5.26848 145.523 22.2585Z" fill="white"/>
<path d="M139.483 23.1479C125.043 9.40788 76.4832 112.598 106.223 126.218C76.1732 114.538 122.853 8.66801 138.953 20.538C140.953 21.788 139.483 23.1479 139.483 23.1479Z" fill="white"/>
<path d="M133.154 36.1481C127.594 34.1481 111.034 45.428 110.894 64.298C110.664 41.238 131.894 29.2281 133.154 36.1481Z" fill="white"/>
<path d="M145.573 22.0783C145.973 14.3883 163.223 3.24815 180.573 10.6681C159.543 1.24815 140.563 17.7883 145.573 22.0783Z" fill="white"/>
<path d="M52.9545 309.448C60.0404 312.992 67.3609 316.045 74.8645 318.588C70.3945 317.828 67.8645 316.758 66.7745 317.338C65.6845 317.918 64.5745 322.688 65.3445 323.738C66.1145 324.788 70.6745 326.908 70.2045 327.228C69.7345 327.548 49.5045 320.368 49.3245 317.958C49.1445 315.548 51.4345 315.558 51.5145 312.728C51.5945 309.898 51.4545 308.948 52.9545 309.448Z" fill="#DEDCB4"/>
</g>
<defs>
<clipPath id="clip0_8_14323">
<rect width="246.68" height="246.68" fill="white" transform="translate(33 82)"/>
</clipPath>
</defs>
</svg>
