<svg width="313" height="329" viewBox="0 0 313 329" fill="none" xmlns="http://www.w3.org/2000/svg">
<g clip-path="url(#clip0_8_14321)">
<path d="M243.56 292.551C291.727 244.383 291.727 166.289 243.56 118.122C195.393 69.9544 117.298 69.9541 69.1305 118.121C20.9633 166.289 20.9635 244.383 69.1308 292.551C117.298 340.718 195.392 340.718 243.56 292.551Z" fill="#FBAE17"/>
<path d="M156.341 316.38C217.666 316.38 267.381 266.665 267.381 205.34C267.381 144.014 217.666 94.2998 156.341 94.2998C95.0151 94.2998 45.3008 144.014 45.3008 205.34C45.3008 266.665 95.0151 316.38 156.341 316.38Z" fill="#E275D2"/>
</g>
<mask id="mask0_8_14321" style="mask-type:alpha" maskUnits="userSpaceOnUse" x="0" y="-19" width="313" height="336">
<path fill-rule="evenodd" clip-rule="evenodd" d="M24 -19H292V162H258.64C264.224 175.249 267.31 189.809 267.31 205.09C267.31 266.415 217.596 316.13 156.27 316.13C94.9448 316.13 45.2305 266.415 45.2305 205.09C45.2305 189.809 48.3171 175.249 53.9008 162H24V-19Z" fill="#22B573"/>
</mask>
<g mask="url(#mask0_8_14321)">
<path d="M79.6011 183.789C67.9511 185.059 55.9111 204.368 46.9911 224.938C38.0711 245.508 11.9911 286.998 3.47108 299.678C-5.04892 312.358 2.74112 343.678 11.8911 345.448C22.9511 347.608 37.3412 332.379 49.4612 308.729C61.5812 285.079 77.3212 259.018 85.3412 251.428" fill="#FFAB8A"/>
<path d="M207.992 342.298C167.992 345.458 114.792 330.998 113.332 301.698C111.262 260.198 127.942 236.108 112.222 202.778C96.5021 169.448 97.8821 123.778 106.352 71.8281C114.822 19.8781 142.352 -7.72181 165.482 2.71819C181.092 -6.12181 214.912 3.18839 235.032 82.4184C255.152 161.648 259.132 207.578 270.352 234.528C279.612 256.768 285.172 282.088 269.952 304.888C280.812 284.888 264.952 251.498 264.952 251.498C272.062 268.298 272.242 319.118 246.662 334.728C240.662 338.408 226.572 340.818 214.042 341.818C217.452 335.388 217.042 323.498 214.122 310.818C215.142 323.588 214.072 341.808 207.992 342.298Z" fill="#231110"/>
<path d="M236.492 338.668C253.122 335.078 263.492 313.828 261.492 291.338C264.092 306.708 264.422 325.818 254.492 335.048C275.262 320.268 271.362 278.888 261.222 257.138C259.912 270.588 252.092 287.048 252.092 287.048C252.092 287.048 254.482 306.658 249.762 324.048C249.325 317.78 247.76 311.641 245.142 305.928" fill="#3D281D"/>
<path d="M249.832 188.398C263.222 220.628 286.252 270.608 274.722 290.928C281.462 275.138 271.052 259.168 260.722 236.558C259.282 225.878 249.832 188.398 249.832 188.398Z" fill="#3D281D"/>
<path d="M68.1022 486.028H232.282C231.862 453.468 203.712 373.678 187.172 347.628C194.672 334.078 208.842 297.908 229.172 271.178C244.802 250.658 245.442 225.128 243.032 214.398C237.962 191.868 199.512 198.548 188.032 180.688C181.342 170.328 184.752 151.068 188.852 134.308L150.312 135.648C150.312 135.648 148.752 167.859 142.312 174.749C131.952 185.819 88.9722 173.628 79.5422 186.138C70.1122 198.648 79.1422 346.368 79.1422 346.368C79.1422 346.368 65.9622 440.498 68.1022 486.028Z" fill="#FFAB8A"/>
<path d="M151.283 157.298C151.283 157.298 169.023 186.628 177.403 192.828C185.783 199.028 203.903 206.068 203.903 206.068C203.903 206.068 179.153 237.918 143.583 238.608C119.263 225.728 108.053 185.908 108.293 184.718C114.723 185.428 135.573 184.088 141.293 181.468C147.013 178.848 151.283 157.298 151.283 157.298Z" fill="#FFC9A4"/>
<path d="M148.352 203.939C146.532 200.079 144.542 199.019 137.552 198.379C133.129 198.087 128.807 196.928 124.832 194.968C123.202 194.128 123.702 196.578 128.742 199.138C133.782 201.698 148.902 207.529 148.352 203.939Z" fill="#FFAB8A"/>
<path d="M166.051 206.878C169.051 203.878 171.281 203.508 178.051 205.238C184.821 206.968 203.671 203.658 205.501 203.408C207.331 203.158 191.711 208.158 186.111 208.898C180.511 209.638 164.331 210.088 166.051 206.878Z" fill="#FFAB8A"/>
<path d="M185.982 147.628C185.982 147.628 181.092 169.088 188.172 181.428C192.572 187.868 210.102 194.308 210.102 194.308C210.102 194.308 191.102 189.308 185.652 184.468C180.202 179.628 177.652 163.878 177.652 163.878C177.652 163.878 171.652 166.558 166.742 166.108C160.012 165.508 150.742 145.168 150.742 145.168" fill="#ED7E5D"/>
<path d="M79.9329 181.638C72.5029 181.318 57.6528 195.808 49.1528 213.708C40.6528 231.608 20.5729 266.368 13.8329 278.708C7.09288 291.048 0.0828757 345.978 12.8329 347.648C25.5829 349.318 32.2228 341.458 52.0228 309.018C71.8228 276.578 88.6929 257.308 88.6929 257.308" fill="#B21234"/>
<path d="M76.2013 183.789C66.7113 185.879 58.8413 199.228 49.0613 219.258C39.2813 239.288 20.7813 270.048 20.3113 272.678C19.8413 275.308 32.7414 280.278 38.4614 281.628C32.0714 284.508 20.9614 280.888 20.9614 280.888C29.8514 288.118 25.6613 321.889 25.4213 330.249C40.3113 318.309 62.6013 263.608 67.0413 247.158C71.4813 230.708 63.2613 212.878 65.4913 211.318C68.6713 209.088 73.1813 234.158 74.2013 231.908C75.2213 229.658 84.9013 183.379 75.5713 184.269" fill="#D31E4E"/>
<path d="M111.132 71.6983C112.602 100.208 135.192 122.208 163.702 120.698C192.212 119.188 212.402 95.0083 210.932 66.5083C209.462 38.0083 186.872 15.9983 158.362 17.5083C129.852 19.0183 109.662 43.1983 111.132 71.6983Z" fill="#FFAB8A"/>
<path d="M114.701 78.3984C116.761 98.1584 122.311 123.698 127.771 132.088C134.631 142.618 140.711 147.598 150.541 154.778C155.851 158.648 159.681 159.238 165.361 158.948C171.421 158.628 175.431 156.999 180.961 152.499C190.181 145.019 196.551 138.008 200.601 128.438C204.511 119.218 208.071 93.7985 208.091 73.9385" fill="#FFAB8A"/>
<path d="M159.533 37.8884C178.173 32.1484 201.703 56.6884 207.533 92.1784C211.363 63.2784 203.643 21.2788 163.913 17.5188C124.183 13.7588 112.913 60.9786 116.223 89.0686C118.993 59.0886 135.623 34.4084 159.533 37.8884Z" fill="#ED7E5D"/>
<path d="M122.473 91.2981C123.413 109.488 127.793 124.868 132.603 132.578C138.603 142.248 143.543 146.278 152.183 152.878C156.843 156.438 160.183 156.988 165.183 156.728C170.503 156.458 174.023 154.958 178.863 150.858C186.933 144.008 192.333 138.188 195.863 129.428C199.263 120.978 202.373 106.758 202.033 88.5481C201.533 61.0581 178.133 37.7182 158.903 39.0882C135.903 40.7182 121.003 62.9481 122.473 91.2981Z" fill="#FFC9A4"/>
<path d="M200.202 87.1382C200.202 87.1382 195.202 79.8086 192.032 78.7886C189.183 77.7424 186.087 77.5635 183.136 78.2754C180.185 78.9873 177.511 80.5581 175.452 82.7886C172.452 85.8986 171.972 92.5083 171.702 93.5483C171.242 95.3383 172.622 96.1583 174.562 95.5483C175.989 95.1239 177.465 94.8883 178.952 94.8482C177.072 93.8482 182.272 90.7682 183.282 89.6782C186.912 85.7682 200.202 87.1382 200.202 87.1382Z" fill="#F78D7F"/>
<path d="M200.712 86.2285C200.712 86.2285 198.011 80.0381 192.881 78.0581C187.751 76.0781 175.881 76.4785 172.771 87.9585C176.451 77.7285 187.772 78.0785 191.052 79.5385C195.292 81.4585 198.121 85.9785 198.121 85.9785L200.712 86.2285Z" fill="#CE5A46"/>
<path d="M175.443 91.9384C174.903 93.4484 173.603 93.5884 173.703 94.3984C173.803 95.2084 175.803 94.0684 179.203 94.6684C183.683 95.4484 195.343 94.8584 196.723 91.6684C198.103 88.4784 197.723 86.0082 196.413 84.7782C194.143 82.6382 180.023 79.1884 175.443 91.9384Z" fill="#FFC0B3"/>
<path d="M176.012 92.9784C175.842 91.1684 183.683 86.4884 188.793 85.9784C193.903 85.4684 195.243 88.558 195.433 89.328C195.623 90.098 193.593 92.8284 186.593 93.4784C181.283 93.9484 176.152 94.4784 176.012 92.9784Z" fill="#FFEEEB"/>
<path d="M178.061 90.7283C179.391 93.3983 183.061 95.3184 187.941 93.7884C193.121 92.1484 193.191 87.7883 191.151 84.9783C187.841 80.3983 178.361 83.3281 177.911 88.7581C177.788 89.4166 177.839 90.0962 178.061 90.7283V90.7283Z" fill="#478976"/>
<path d="M191.422 85.3783C188.132 83.3783 181.322 84.1183 178.072 87.8783C178.262 86.1483 180.432 83.7282 184.362 83.0282C188.292 82.3282 190.692 83.7683 191.422 85.3783Z" fill="#0E3528"/>
<path d="M188.352 88.0883C187.642 84.7483 181.862 84.7881 181.962 88.5781C182.062 92.3681 189.052 91.4783 188.352 88.0883Z" fill="#0E3528"/>
<path d="M190.422 88.5082C188.842 88.3282 188.592 89.8082 190.102 90.5082C194.282 92.4182 195.072 89.0482 190.422 88.5082Z" fill="#FFEEEE"/>
<path d="M180.623 89.5385C179.553 89.6785 179.773 91.0482 180.843 90.9082C181.913 90.7682 181.693 89.4085 180.623 89.5385Z" fill="#FFEEEE"/>
<path d="M194.503 92.0884C190.902 93.4682 187.079 94.1734 183.223 94.1685C180.226 94.0565 177.23 94.3729 174.323 95.1084C173.753 95.1684 173.323 95.1082 173.173 94.8882C172.773 94.3282 173.283 93.8884 173.783 93.3784C174.147 92.9054 174.397 92.3545 174.513 91.7686C172.873 93.5986 171.613 94.6785 172.513 95.4985C173.203 96.0985 174.083 95.4985 175.353 95.2485C177.905 94.8482 180.491 94.6973 183.073 94.7983C186.793 95.1083 193.253 94.8984 195.533 92.8784C197.813 90.8584 197.273 89.8784 197.273 89.8784C196.56 90.846 195.604 91.6082 194.503 92.0884V92.0884Z" fill="#935641"/>
<path d="M173.342 93.4383C175.272 91.6983 177.212 87.0681 179.202 85.6981C181.298 84.3425 183.703 83.54 186.193 83.3651C188.683 83.1902 191.177 83.6487 193.442 84.6981C195.332 85.6981 197.442 87.9681 198.552 88.2381C199.662 88.5081 202.252 87.3081 202.922 86.2381C201.778 86.4057 200.611 86.2137 199.582 85.6883C198.019 84.2559 196.241 83.078 194.312 82.1981C191.112 80.9281 183.232 79.878 178.082 84.868C176.632 86.278 174.472 90.378 173.692 92.368C173.614 92.7362 173.496 93.0952 173.342 93.4383V93.4383Z" fill="#160401"/>
<path d="M123.553 91.0684C123.553 91.0684 127.763 83.2485 130.793 81.8985C133.514 80.5536 136.573 80.0456 139.583 80.439C142.593 80.8324 145.418 82.1094 147.703 84.1084C150.963 86.8884 152.203 93.3985 152.583 94.3985C153.233 96.1285 151.943 97.0982 149.943 96.6582C148.479 96.3929 146.986 96.3193 145.503 96.4385C147.263 95.1985 141.763 92.7286 140.643 91.7686C136.623 88.2986 123.553 91.0684 123.553 91.0684Z" fill="#F78D7F"/>
<path d="M122.951 90.2286C122.951 90.2286 124.951 83.7786 129.861 81.2286C134.771 78.6786 146.641 77.8283 150.911 88.9083C146.161 79.1383 134.911 80.7087 131.841 82.4987C127.841 84.8587 125.501 89.6583 125.501 89.6583L122.951 90.2286Z" fill="#CE5A46"/>
<path d="M148.692 93.1984C149.392 94.6384 150.692 94.6384 150.692 95.4484C150.692 96.2584 148.572 95.3582 145.252 96.3082C140.882 97.5682 129.252 98.2383 127.512 95.1783C125.772 92.1183 125.902 89.6585 127.082 88.2985C129.102 85.9485 142.772 81.0084 148.692 93.1984Z" fill="#FFC0B3"/>
<path d="M148.282 94.2984C148.282 92.4884 139.962 88.6686 134.822 88.6886C129.682 88.7086 128.692 91.9384 128.582 92.7384C128.472 93.5384 130.792 96.0183 137.812 95.9083C143.112 95.8183 148.282 95.7984 148.282 94.2984Z" fill="#FFEEEB"/>
<path d="M145.952 92.2983C144.952 95.0983 141.432 97.4082 136.462 96.4082C131.132 95.3282 130.592 91.0082 132.322 87.9882C135.122 83.0782 144.862 84.9881 145.892 90.3281C146.082 90.9685 146.103 91.6475 145.952 92.2983V92.2983Z" fill="#478976"/>
<path d="M132.102 88.3783C135.162 86.0483 142.012 86.0484 145.642 89.4384C145.262 87.7484 142.842 85.5683 138.872 85.2983C134.902 85.0283 132.652 86.7083 132.102 88.3783Z" fill="#0E3528"/>
<path d="M135.442 90.7581C135.792 87.3581 141.542 86.7579 141.842 90.5579C142.142 94.3579 135.102 94.1981 135.442 90.7581Z" fill="#0E3528"/>
<path d="M133.421 91.3985C134.981 91.0485 135.421 92.4885 133.961 93.3385C130.051 95.6885 128.861 92.4285 133.421 91.3985Z" fill="#FFEEEE"/>
<path d="M143.281 91.3684C144.361 91.3684 144.281 92.7688 143.211 92.7488C142.141 92.7288 142.201 91.3484 143.281 91.3684Z" fill="#FFEEEE"/>
<path d="M129.752 95.3882C133.48 96.3731 137.358 96.665 141.192 96.2485C144.16 95.8227 147.174 95.8227 150.142 96.2485C150.712 96.2485 151.142 96.1782 151.262 95.9082C151.602 95.3082 151.042 94.9083 150.492 94.4683C150.079 94.039 149.774 93.5181 149.602 92.9482C151.422 94.5882 152.792 95.5282 151.942 96.4482C151.312 97.1182 150.372 96.6185 149.082 96.4985C146.502 96.3748 143.916 96.5051 141.362 96.8882C137.692 97.5882 131.252 98.0781 128.762 96.3081C126.272 94.5381 126.762 93.5283 126.762 93.5283C127.576 94.4023 128.608 95.0441 129.752 95.3882V95.3882Z" fill="#935641"/>
<path d="M150.942 94.4585C148.832 92.9385 146.412 88.5381 144.282 87.3881C142.05 86.2707 139.572 85.7372 137.078 85.8369C134.585 85.9365 132.157 86.6664 130.022 87.9585C128.252 89.1685 126.372 91.6383 125.322 92.0283C124.272 92.4183 121.542 91.4885 120.762 90.5185C121.917 90.5634 123.057 90.245 124.022 89.6084C125.423 88.026 127.067 86.6759 128.892 85.6084C131.892 84.0084 139.662 82.1183 145.312 86.5283C146.902 87.7683 149.492 91.6183 150.472 93.5283C150.598 93.8525 150.756 94.1641 150.942 94.4585V94.4585Z" fill="#160401"/>
<path d="M171.662 116.578C172.992 114.748 165.332 113.828 162.282 113.998C158.842 114.178 152.282 116.578 153.182 117.578C154.462 119.008 170.512 118.138 171.662 116.578Z" fill="#F2A888"/>
<path d="M155.452 116.758C155.332 115.968 159.622 115.569 159.872 116.269C160.012 116.689 159.272 117.148 157.772 117.368C156.732 117.528 155.502 117.098 155.452 116.758Z" fill="#D1745A"/>
<path d="M169.882 115.828C169.882 115.028 165.612 115.128 165.442 115.828C165.342 116.268 166.132 116.638 167.642 116.698C168.692 116.738 169.862 116.168 169.882 115.828Z" fill="#D1745A"/>
<path d="M163.913 108.189C164.553 107.879 166.783 110.188 166.413 111.328C166.211 111.792 165.841 112.163 165.377 112.366C164.913 112.568 164.39 112.587 163.913 112.418C162.073 111.718 163.093 108.589 163.913 108.189Z" fill="#FFE0CF"/>
<path d="M176.152 66.8182C172.712 69.3082 170.872 72.8183 170.782 74.1483C170.692 75.4783 177.282 71.968 178.712 70.828C180.142 69.688 187.492 63.5481 191.572 63.2581C197.182 62.8481 201.892 67.5081 201.892 67.5081C201.892 67.5081 197.822 62.5579 192.272 61.8079C186.722 61.0579 178.502 65.1082 176.152 66.8182Z" fill="#935641"/>
<path d="M185.861 63.4282C185.861 63.4282 176.781 66.7585 175.371 68.4785C174.461 69.7159 173.783 71.1085 173.371 72.5884C175.042 71.9666 176.628 71.1365 178.091 70.1182C180.371 68.4782 185.861 63.4282 185.861 63.4282Z" fill="#6B3527"/>
<path d="M146.331 68.5484C147.681 69.1584 151.831 73.4283 152.121 74.7183C152.411 76.0083 145.361 73.5482 143.771 72.6382C142.181 71.7282 134.351 67.4881 129.841 67.8281C124.771 68.2181 120.361 72.9082 120.361 72.9082C122.418 69.9447 125.374 67.7219 128.791 66.5684C134.161 64.9884 143.691 67.3484 146.331 68.5484Z" fill="#935641"/>
<path d="M145.512 72.7286C146.743 73.2176 148.029 73.5535 149.342 73.7286C148.475 72.5045 147.537 71.3322 146.532 70.2184C144.712 68.1684 136.242 68.2184 136.242 68.2184C136.242 68.2184 144.432 72.2386 145.512 72.7286Z" fill="#6B3527"/>
<path d="M146.283 126.568C145.283 126.248 143.143 123.398 141.493 125.238C139.843 127.078 142.733 128.808 146.203 128.018" fill="#F2A888"/>
<path d="M180.332 124.868C181.332 124.398 183.062 121.278 184.912 122.868C186.762 124.458 184.102 126.599 180.582 126.289" fill="#F2A888"/>
<path d="M145.211 126.298C148.581 126.828 159.591 128.078 163.491 127.928C167.391 127.778 178.421 125.379 181.701 124.379C183.561 123.819 183.481 124.619 181.991 125.539C180.501 126.459 170.321 138.159 163.761 138.419C157.201 138.679 146.621 128.089 144.991 127.479C143.361 126.869 143.281 125.948 145.211 126.298Z" fill="#681F1B"/>
<path d="M176.141 125.408C175.351 128.608 169.541 130.408 163.071 130.558C156.871 130.718 151.431 129.408 150.441 126.448C159.005 127.553 167.695 127.201 176.141 125.408V125.408Z" fill="#FFE2D7"/>
<path d="M161.373 123.729C153.713 123.729 149.093 125.549 145.213 126.249C151.166 127.184 157.187 127.625 163.213 127.568C168.273 127.368 179.043 125.328 181.693 124.328C177.773 124.178 171.153 122.748 165.263 123.578C163.971 123.72 162.671 123.77 161.373 123.729V123.729Z" fill="#FF6F64"/>
<path d="M163.612 134.968C171.242 134.668 178.922 127.348 181.992 125.488C179.122 127.548 176.132 140.218 163.522 140.708C150.912 141.198 148.082 129.068 144.992 127.428C148.042 129.018 155.992 135.298 163.612 134.968Z" fill="#FF6F64"/>
<path d="M172.282 134.348C174.052 135.878 170.022 139.278 162.832 138.968C155.642 138.658 153.172 136.378 153.772 134.588C154.372 132.798 162.192 135.768 163.162 136.358C165.512 134.988 171.202 133.388 172.282 134.348Z" fill="#FF9A92"/>
<path d="M175.552 124.749C176.462 125.659 166.352 126.459 163.552 126.629C160.752 126.799 150.262 126.098 151.022 125.578C151.782 125.058 159.222 123.489 161.342 123.729C162.639 123.935 163.964 123.884 165.242 123.578C167.442 123.028 175.152 124.349 175.552 124.749Z" fill="#FF9A92"/>
<path d="M170.652 134.298C171.362 134.678 171.352 135.298 170.432 135.658C169.512 136.018 168.092 136.158 168.042 135.548C167.992 134.938 170.332 134.088 170.652 134.298Z" fill="white"/>
<path d="M247.812 211.848C254.412 222.848 263.442 316.468 264.622 344.448C265.412 363.288 249.552 385.688 232.762 357.648C227.172 348.308 220.042 274.108 214.762 265.548" fill="#FFAB8A"/>
<path d="M245.822 208.148C252.342 210.918 253.822 232.148 257.712 255.708C261.602 279.268 268.442 339.708 267.012 347.548C265.582 355.388 257.712 373.608 248.012 373.628C238.312 373.648 227.372 362.078 225.102 341.348C222.832 320.618 218.002 280.588 211.902 273.828" fill="#B21234"/>
<path d="M249.873 216.298C246.053 201.918 229.363 196.098 222.193 196.948C211.293 196.608 194.743 238.659 141.883 241.519C111.773 226.799 105.013 183.669 106.133 179.019C100.813 177.949 85.3428 177.838 77.6428 181.948C72.9928 199.478 81.1828 228.319 77.7228 241.519C68.5228 255.729 59.5628 281.828 73.6128 303.718C76.2128 307.498 78.4929 330.079 76.5529 344.089C72.5529 372.629 66.3228 407.548 64.1328 413.928C75.5728 433.238 127.133 439.668 162.133 427.928C189.013 418.868 219.723 411.118 225.133 411.828C230.543 412.538 194.593 357.298 195.433 342.828C196.233 329.218 220.923 284.729 229.203 264.049C237.483 243.368 251.983 220.728 249.913 216.308" fill="#B21234"/>
<path d="M243.282 208.148C247.282 210.278 252.282 221.438 255.092 253.258C257.902 285.078 266.982 307.008 267.352 328.468C267.722 349.928 249.792 355.608 241.942 345.648C234.562 336.298 226.532 285.199 227.482 278.999C228.432 272.799 245.482 249.878 245.982 246.688C246.482 243.498 225.982 265.428 223.652 262.088C221.322 258.748 229.272 223.498 235.502 217.918" fill="#D31E4E"/>
<path d="M275.283 251.588C271.503 257.728 299.283 276.588 301.193 270.518C302.733 265.638 278.543 246.238 275.283 251.588Z" fill="#B21234"/>
<path d="M274.863 254.979C271.513 260.459 298.023 277.728 299.473 269.218C300.113 265.498 280.363 245.999 274.863 254.979Z" fill="#910624"/>
<path d="M14.1624 295.688C8.99235 279.888 -22.9677 222.839 -25.3577 216.019C-27.9077 208.769 -31.8877 203.018 -31.8877 198.258C-31.8877 196.778 -49.3477 210.548 -49.3477 210.548C-47.0677 211.948 -47.0877 211.229 -46.6177 213.789C-46.3456 216.204 -45.5834 218.538 -44.3777 220.648C-43.1777 222.578 -26.1476 278.048 -21.1776 298.778C-16.9176 316.538 0.602344 343.778 12.9023 341.778" fill="#FFAB8A"/>
<path d="M249.833 373.629C261.753 373.249 279.833 343.499 281.833 321.859C283.603 303.139 300.503 247.859 305.233 240.989C310.913 236.839 338.653 236.699 341.933 235.899C345.213 235.099 349.933 233.188 356.053 228.808C362.853 223.968 371.673 221.059 366.643 219.669C363.303 218.749 358.403 220.439 354.283 222.289C358.023 219.289 363.503 212.939 366.743 202.779C369.983 192.619 371.573 188.829 367.743 189.669C363.913 190.509 360.373 205.668 355.573 210.098C352.233 213.178 341.223 215.928 335.473 216.098C343.113 210.098 342.913 202.278 340.053 202.098C337.193 201.918 327.543 214.099 318.053 215.359C306.723 215.049 290.193 213.519 287.303 230.469C285.083 233.709 255.653 297.779 245.803 311.539C237.593 325.999 235.473 344.928 235.473 344.928" fill="#FFAB8A"/>
<path d="M332.462 231.368C325.742 231.688 310.062 238.709 300.982 236.039C291.902 233.369 293.312 223.708 304.582 222.428C311.582 221.638 331.582 226.069 340.372 226.039C342.592 226.039 347.542 226.569 349.232 225.459C350.922 224.349 352.922 226.868 349.662 228.158C346.402 229.448 337.802 231.128 332.462 231.368Z" fill="#FFC9A4"/>
<path d="M314.731 216.638C307.291 217.578 296.791 220.209 293.311 223.709C289.831 227.209 288.641 224.538 292.121 220.868C296.351 216.398 307.861 214.848 314.731 216.638Z" fill="#FFC9A4"/>
<path d="M289.851 232.118C287.761 229.608 267.301 269.788 265.701 273.938C264.371 277.388 267.881 283.228 271.151 284.258C274.421 285.288 285.341 281.558 286.231 277.598C287.411 272.318 297.231 242.769 299.101 240.499C300.971 238.229 312.101 234.869 312.101 233.019C312.101 231.169 298.661 242.698 289.851 232.118Z" fill="#FFC9A4"/>
<path d="M25.4214 304.078C23.8314 294.258 -13.4086 233.168 -19.9686 217.078C-23.4886 228.018 -46.4186 237.298 -47.5586 233.448C-42.4986 251.228 -26.1986 300.159 -21.3486 310.289C-16.4986 320.419 -0.00866699 351.398 18.9913 347.628" fill="#B21234"/>
<path d="M248.052 373.628C266.992 377.688 277.702 350.098 281.462 339.508C286.202 326.108 294.672 283.738 301.162 270.508C299.962 274.338 278.602 262.568 275.252 251.578C268.452 267.578 240.912 314.739 237.172 323.979C231.002 339.189 234.262 352.778 235.492 359.458" fill="#B21234"/>
<path d="M-19.2988 221.408C-17.1488 223.158 -7.53887 245.488 -0.218872 258.128C5.58869 268.197 12.0108 277.899 19.0111 287.178C25.7011 296.278 30.4711 317.738 26.1711 329.428C15.3111 340.158 -7.20885 327.278 -15.3188 298.668C-23.4288 270.058 -32.0889 241.558 -38.1289 238.668C-44.1689 235.778 -37.7289 235.269 -29.7389 230.979C-21.7489 226.689 -19.2988 221.408 -19.2988 221.408Z" fill="#D31E4E"/>
<path d="M183.642 338.348C187.972 338.688 171.392 359.759 181.052 374.039C189.005 386.053 195.602 398.911 200.722 412.378C200.722 412.378 185.102 415.148 172.942 420.158C135.382 439.828 82.452 431.238 68.582 414.428C70.082 406.558 79.2319 360.069 81.7319 344.039C84.2319 328.009 84.952 318.578 79.592 303.568C86.192 305.138 106.772 309.638 101.872 303.568C96.9719 297.498 73.872 296.448 70.942 275.838C68.792 260.638 81.1419 220.048 80.6119 217.368C80.3719 216.168 75.962 229.458 73.712 232.968C75.082 229.368 72.472 192.108 75.572 184.238C79.832 180.348 100.572 179.128 103.182 180.378C102.512 195.689 118.792 236.618 140.442 243.378C193.002 242.028 208.572 201.649 222.192 199.499C227.014 198.944 231.888 199.916 236.127 202.279C240.367 204.642 243.758 208.276 245.822 212.669C240.662 216.029 230.432 227.978 222.912 241.968C212.432 261.498 212.802 273.738 207.372 287.558C200.242 305.678 184.932 312.388 179.742 314.798C165.382 321.448 156.932 347.698 158.382 350.618C160.652 355.218 180.882 338.128 183.642 338.348Z" fill="#D31E4E"/>
<path d="M275.963 256.078C270.583 263.848 265.423 277.148 257.273 291.368C249.123 305.588 235.723 319.068 235.273 334.148C234.823 349.228 237.683 359.708 249.123 356.848C260.563 353.988 271.543 338.008 277.973 314.848C284.403 291.688 290.143 276.698 291.573 273.358C293.003 270.018 282.223 266.238 275.963 256.078Z" fill="#D31E4E"/>
<path d="M159.902 37.2985C175.162 29.2285 202.342 40.2984 206.492 98.2984C210.642 156.298 197.022 175.758 192.912 187.868C188.982 199.478 208.912 198.218 221.792 203.558C234.672 208.898 259.472 220.138 240.862 236.558C260.182 221.898 241.302 206.778 227.862 201.338C214.422 195.898 208.022 190.568 223.242 174.848C237.702 159.928 245.242 101.938 225.512 50.9283C205.782 -0.081665 172.812 -5.68151 161.132 4.83849L159.902 37.2985Z" fill="#3D281D"/>
<path d="M159.902 37.2981C140.832 30.4281 117.242 50.058 118.832 91.908C120.042 123.908 117.392 171.568 131.832 184.038C146.272 196.508 145.142 214.458 133.292 221.508C121.442 228.558 124.832 248.718 135.942 256.178C117.832 244.818 116.851 230.518 122.771 219.458C128.691 208.398 125.461 195.988 112.771 186.758C100.081 177.528 95.1715 145.298 100.401 85.5979C105.631 25.8979 137.511 -8.19186 165.401 2.04814" fill="#3D281D"/>
<path d="M162.893 34.6084C171.143 28.4284 182.363 26.5082 193.133 48.4082C182.763 35.6782 171.513 33.0184 162.893 34.6084Z" fill="#231110"/>
<path d="M154.092 35.2181C143.512 26.3781 138.262 32.8884 131.002 45.0184C138.432 33.2984 154.092 35.2181 154.092 35.2181Z" fill="#231110"/>
<path d="M161.951 32.3987C175.851 22.2787 196.231 29.3388 210.221 88.9788C222.921 143.149 201.221 173.978 199.161 187.118C197.101 200.258 202.841 217.559 223.721 218.419C220.257 218.139 216.901 217.087 213.898 215.339C210.894 213.591 208.321 211.193 206.367 208.32C204.413 205.446 203.128 202.172 202.606 198.737C202.084 195.301 202.338 191.792 203.351 188.469C204.011 205.719 212.781 209.919 230.491 210.529C248.201 211.139 269.491 224.649 261.641 262.089C273.641 235.189 254.641 208.918 235.851 206.178C217.061 203.438 211.621 196.338 212.601 185.178C213.581 174.018 225.431 150.418 220.601 115.948C225.861 137.468 222.461 159.368 221.021 171.198C219.581 183.028 227.111 183.949 242.641 182.669C258.171 181.389 275.111 199.989 269.931 218.839C279.571 198.059 255.011 180.579 242.821 177.939C230.631 175.299 226.671 160.509 228.441 139.479C230.211 118.449 225.671 87.4788 223.551 80.2688C235.401 118.849 232.931 155.819 236.011 169.359C237.424 171.996 239.798 173.987 242.641 174.919C239.641 162.299 236.381 92.8586 236.381 92.8586C245.661 136.009 243.381 164.648 248.191 176.078C253.771 189.348 280.801 222.258 258.561 231.828C278.471 229.098 269.871 210.249 261.951 195.209C254.031 180.169 256.221 161.899 240.271 95.2087C226.531 37.7187 194.561 -12.8713 163.271 4.68872L161.861 9.44848C179.611 -0.751518 199.861 16.1686 207.251 26.2786C191.671 8.01856 171.621 9.05864 166.171 12.8586C160.721 16.6586 161.951 32.3987 161.951 32.3987Z" fill="#5B453C"/>
<path d="M154.771 15.1084C156.421 20.7484 155.601 34.5284 155.601 34.5284C143.301 21.4184 122.361 34.9982 118.371 87.0582C114.861 132.858 122.442 158.149 135.092 173.289C147.742 188.429 155.092 203.339 138.842 215.289C150.152 204.629 150.421 191.418 131.501 177.338C112.581 163.258 108.402 141.688 107.442 129.148C112.582 163.258 118.702 179.788 130.442 191.558C142.182 203.328 133.741 217.028 121.631 225.628C109.521 234.228 110.751 259.728 122.631 264.578C105.851 258.898 109.762 230.648 121.322 222.368C132.882 214.088 126.551 194.369 114.621 185.419C102.691 176.469 93.9715 120.479 100.072 82.2286C89.1815 112.699 95.6015 154.538 101.121 162.808C88.1215 154.038 86.2815 106.808 97.0615 62.6285C107.842 18.4485 136.891 -5.26177 157.631 4.88823C158.341 8.56823 157.631 10.0582 157.631 10.0582C148.481 7.66816 124.762 16.4483 116.312 36.9883C128.452 16.4283 149.441 13.6484 154.771 15.1084Z" fill="#5B453C"/>
<path d="M163.951 29.2984C178.841 20.9684 201.951 40.8983 214.951 93.9082C227.951 146.918 224.161 171.158 225.061 178.118C225.961 185.078 243.141 182.718 252.801 184.488C262.461 186.258 271.691 196.598 270.801 210.078C274.871 192.818 261.061 183.648 250.541 182.138C240.021 180.628 227.021 181.818 227.541 166.468C228.061 151.118 224.931 89.7384 206.541 54.1084C220.001 77.3184 226.451 101.248 226.721 113.968C226.131 77.5483 219.661 48.5984 207.841 33.3584C195.681 17.6784 177.511 12.8483 164.841 20.4283C173.841 15.9283 189.551 23.0682 198.841 38.0782C184.041 23.2982 168.281 22.0484 163.951 29.2984Z" fill="#967054"/>
<path d="M167.861 4.84837C186.271 1.49837 205.401 18.3487 220.971 61.4187C236.541 104.489 252.341 151.949 249.401 166.629C253.001 139.099 235.721 80.8584 224.871 53.0984C214.021 25.3384 190.521 -0.811629 167.861 4.84837Z" fill="#967054"/>
<path d="M215.332 157.979C216.682 168.859 210.252 185.909 214.442 194.979C218.632 204.049 234.782 209.208 234.782 209.208C215.392 208.278 208.782 207.989 204.652 194.979C200.522 181.969 213.962 172.639 215.332 157.979Z" fill="#967054"/>
<path d="M154.512 28.7287C155.852 32.4987 144.942 24.8586 132.242 32.8586C119.542 40.8586 106.502 109.279 122.742 159.249C106.382 131.249 108.622 91.6584 108.622 91.6584C104.942 125.778 107.532 173.658 128.802 189.948C106.802 176.788 95.6023 148.558 101.622 93.1584C107.642 37.7584 129.392 13.4585 150.532 16.2985C136.532 15.5885 123.692 27.3483 117.452 46.5583C125.982 32.6783 150.112 16.4087 154.512 28.7287Z" fill="#967054"/>
<path d="M146.282 9.05792C111.282 17.3479 84.2221 84.6883 90.9421 135.918C84.2821 81.2983 108.792 6.29792 146.282 9.05792Z" fill="#967054"/>
<path d="M130.422 197.008C140.222 200.468 141.422 215.118 121.652 225.628C132.352 214.958 130.422 197.008 130.422 197.008Z" fill="#967054"/>
</g>
<defs>
<clipPath id="clip0_8_14321">
<rect width="246.68" height="246.68" fill="white" transform="translate(33 82)"/>
</clipPath>
</defs>
</svg>
