<svg width="313" height="329" viewBox="0 0 313 329" fill="none" xmlns="http://www.w3.org/2000/svg">
<g clip-path="url(#clip0_8_14325)">
<path d="M243.56 292.551C291.727 244.383 291.727 166.289 243.56 118.122C195.393 69.9544 117.298 69.9541 69.1305 118.121C20.9633 166.289 20.9635 244.383 69.1308 292.551C117.298 340.718 195.392 340.718 243.56 292.551Z" fill="#FBAE17"/>
<path d="M156.341 316.38C217.666 316.38 267.381 266.665 267.381 205.34C267.381 144.014 217.666 94.2998 156.341 94.2998C95.0151 94.2998 45.3008 144.014 45.3008 205.34C45.3008 266.665 95.0151 316.38 156.341 316.38Z" fill="#BC7C52"/>
</g>
<mask id="mask0_8_14325" style="mask-type:alpha" maskUnits="userSpaceOnUse" x="0" y="-19" width="313" height="336">
<path fill-rule="evenodd" clip-rule="evenodd" d="M24 -19H292V162H258.64C264.224 175.249 267.31 189.809 267.31 205.09C267.31 266.415 217.596 316.13 156.27 316.13C94.9448 316.13 45.2305 266.415 45.2305 205.09C45.2305 189.809 48.3171 175.249 53.9008 162H24V-19Z" fill="#22B573"/>
</mask>
<g mask="url(#mask0_8_14325)">
<path d="M51.9386 212.132C25.9886 211.462 3.63856 242.492 8.71856 286.672C9.24856 291.312 2.89857 299.382 1.44857 302.942C-11.8014 335.682 53.8386 343.122 55.6786 322.332C55.9186 319.642 57.5386 309.602 59.7386 306.332C76.9386 281.272 98.8686 213.342 51.9386 212.132Z" fill="#F57E5B"/>
<path d="M4.07782 293.643C-7.28218 309.893 -16.0422 348.532 -12.6122 374.522C-9.48218 398.262 -1.86219 419.522 24.0678 397.322C46.7678 377.912 58.2078 344.803 55.4078 306.373" fill="#F57E5B"/>
<path d="M43.5084 218.352C32.7884 215.452 11.9384 230.532 8.57839 256.282C5.43839 280.332 11.5784 286.112 2.74837 303.332C-6.08163 320.552 -20.5916 347.792 -10.1116 383.182C-6.51161 394.182 4.32838 400.892 19.0984 375.332C33.8684 349.772 35.2684 327.722 33.2884 314.592C29.9684 292.482 44.2884 280.142 49.8484 263.492C55.4084 246.842 60.4184 222.922 43.5084 218.352Z" fill="#FD9F76"/>
<path d="M-23.2109 408.003C-13.6309 317.903 14.6891 227.272 22.2491 218.782C29.3191 210.842 39.7291 208.643 50.4491 204.713C59.3891 201.433 58.5091 308.383 58.5091 308.383C58.5091 308.383 46.2391 383.123 34.8991 417.733" fill="#11110E"/>
<path d="M35.2375 296.492C35.8975 288.752 30.8575 219.162 24.2375 219.592C17.6175 220.022 -19.8825 375.812 -21.5625 411.972C-9.5625 418.672 14.6975 412.452 16.7875 406.702C18.8775 400.952 33.7875 313.562 35.2375 296.492Z" fill="#21211D"/>
<path d="M203.258 114.623C202.188 120.213 202.008 129.233 201.258 130.873C200.508 132.513 195.528 135.302 195.508 135.132C195.488 134.962 193.338 109.712 193.388 109.232" fill="#C1C1C1"/>
<path d="M120.688 169.392C127.978 161.962 192.688 157.322 202.878 164.582C213.068 171.842 189.188 204.752 152.078 209.112C114.968 213.472 111.588 178.662 120.688 169.392Z" fill="#7F4C29"/>
<path d="M194.098 110.782C193.538 143.782 197.598 171.872 202.728 180.482C213.298 198.242 237.348 213.672 245.818 217.482C228.168 212.892 170.208 222.912 161.308 220.132C171.418 204.912 178.718 165.552 175.978 164.352C173.238 163.152 146.168 190.772 139.378 189.202C132.148 187.532 122.778 164.382 122.778 164.382C120.508 134.102 191.838 86.8821 194.098 110.782Z" fill="#5B3516"/>
<path d="M164.859 183.192C167.039 184.662 157.749 235.622 150.949 235.382C144.149 235.142 97.2592 216.182 96.2792 213.222C95.2992 210.262 117.719 208.332 120.809 204.802C123.899 201.272 124.009 176.802 125.659 178.472C127.539 180.382 135.989 195.012 139.289 195.572C142.589 196.132 162.679 181.722 164.859 183.192Z" fill="#7F4C29"/>
<path d="M67.5084 464.572C63.9684 450.292 60.2784 426.572 67.5084 399.572C56.6984 370.572 54.2284 321.952 48.4284 310.382C44.6384 302.382 41.1284 293.852 39.8784 285.382C35.1384 253.102 48.4984 220.442 67.7284 213.992C86.1184 207.822 114.668 234.773 139.888 239.353C165.108 243.933 240.288 213.203 264.888 241.433C278.488 257.013 278.168 294.223 264.058 331.433C250.058 368.323 216.278 400.993 216.878 422.123C219.828 427.913 225.118 458.802 219.108 471.492C210.818 488.992 145.708 497.232 117.868 493.282C91.3284 489.492 71.0084 478.662 67.5084 464.572Z" fill="#F57E5B"/>
<path d="M222.829 232.382C235.829 239.972 234.919 284.112 219.599 298.382C200.379 316.242 190.289 320.812 165.479 320.652C194.359 335.222 222.359 317.332 230.079 324.782C239.569 333.932 215.829 379.842 208.079 396.102C200.459 412.102 198.179 416.102 203.809 424.322C209.439 432.542 215.319 455.322 204.669 468.322C196.279 478.552 156.669 494.372 118.529 489.012C80.2489 483.632 71.989 468.492 68.399 453.962C64.759 439.242 66.0589 421.342 70.0989 412.962C74.1389 404.582 68.4589 389.882 63.5089 376.172C56.8489 357.722 53.6289 335.842 52.2189 315.322C57.1389 315.482 73.7089 322.322 92.8889 310.322C71.5489 308.962 59.1189 308.222 50.7789 294.432C42.4389 280.642 45.3489 230.352 68.1389 217.622C80.7289 214.842 109.799 220.312 117.139 228.292C124.479 236.272 124.919 254.932 128.029 257.682C131.139 260.432 130.609 241.372 143.809 234.352C157.009 227.332 207.509 223.412 222.829 232.382Z" fill="#FD9673"/>
<path d="M176.718 299.792C184.588 300.452 185.848 309.312 177.028 309.062C168.208 308.812 164.508 298.762 176.718 299.792Z" fill="#F57E5B"/>
<path d="M50.5979 284.312C57.2679 286.542 58.0979 295.642 50.5079 293.612C42.9179 291.582 40.2479 280.852 50.5979 284.312Z" fill="#F57E5B"/>
<path d="M119.949 199.382C114.099 198.202 49.3687 213.112 45.6087 216.762C41.8487 220.412 34.5487 256.683 35.7587 292.873C37.9887 359.363 51.7587 408.752 52.1787 416.212C53.8787 445.692 42.0587 473.903 44.0187 484.353C46.3587 496.883 69.0187 507.752 99.6887 511.732C144.879 517.612 217.569 510.922 235.739 496.132C242.089 492.002 245.179 483.012 244.159 478.422C243.139 473.832 230.849 450.003 231.999 443.603C233.149 437.203 268.059 348.153 277.739 309.603C287.419 271.053 289.439 228.603 277.939 223.893C266.439 219.183 225.809 197.892 209.279 184.232C191.379 206.232 151.549 206.232 139.369 230.292C135.019 208.132 119.949 199.382 119.949 199.382Z" fill="#DFCDBC"/>
<path d="M136.509 232.942C133.149 225.072 129.909 220.942 127.379 220.702C124.849 220.462 108.739 237.702 106.559 236.992C104.379 236.282 102.489 210.292 103.469 204.632C105.469 216.762 112.689 218.162 116.469 213.092C120.249 208.022 124.299 202.572 129.059 206.732C133.819 210.892 135.939 227.452 136.509 232.942Z" fill="#B6A190"/>
<path d="M142.139 234.732C145.239 220.732 150.239 208.583 156.289 208.623C162.339 208.663 181.649 234.062 184.909 235.382C188.169 236.702 213.299 199.242 213.299 199.242C213.299 199.242 188.639 242.432 183.749 242.172C178.859 241.912 160.749 223.522 157.449 222.822C154.149 222.122 144.869 228.512 142.139 234.732Z" fill="#B6A190"/>
<path d="M119.139 506.192C116.185 507.149 113.004 507.149 110.049 506.192C108.419 494.662 117.949 301.922 130.049 255.742C130.049 255.742 137.179 254.463 139.789 254.123C139.799 254.193 116.109 477.282 119.139 506.192Z" fill="#F7EAE2"/>
<path d="M213.358 450.512C203.008 481.182 177.618 486.892 178.978 488.702C180.338 490.512 204.358 482.702 218.388 462.992C218.388 462.992 229.928 480.233 225.308 488.683C220.688 497.133 192.748 504.682 188.708 504.262C184.668 503.842 176.418 502.452 169.378 505.322C162.338 508.192 140.688 511.062 125.118 506.192C121.808 503.122 126.658 428.853 131.308 370.103C135.958 311.353 138.608 275.753 143.568 238.562C144.208 237.162 151.038 231.173 154.318 229.913C158.858 228.183 175.078 243.743 183.148 248.853C186.788 247.853 209.208 218.162 218.568 195.572C225.378 195.692 276.148 226.572 276.808 232.742C277.468 238.912 242.808 332.202 206.608 362.442C218.428 360.052 227.608 355.072 229.668 356.902C231.728 358.732 212.448 391.432 209.168 405.402C205.888 419.372 213.588 443.792 213.358 450.512Z" fill="#F7EAE2"/>
<path d="M107.038 506.083C104.318 506.983 75.7384 503.812 57.2284 491.152C38.7184 478.492 47.1684 473.882 51.7084 467.072C56.2484 460.262 53.8184 439.883 57.2484 437.643C60.6784 435.403 67.1684 447.642 84.4384 451.762C70.6084 438.012 61.6784 426.262 59.6684 418.552C56.7284 411.122 44.9784 339.802 42.6684 283.702C41.3884 252.482 45.4684 225.972 49.8184 217.812C49.8184 217.812 76.5884 206.292 98.1784 206.292C98.1784 206.292 101.788 242.623 105.258 242.143C108.728 241.663 120.068 227.792 124.138 229.242C125.138 229.612 130.428 234.372 129.888 237.012C125.368 259.462 115.258 347.922 115.258 347.922C113.558 379.192 106.588 483.403 107.038 506.083Z" fill="#F7EAE2"/>
<path d="M139.238 231.813C139.238 231.813 140.648 214.973 141.778 212.233C142.908 209.493 150.138 206.683 158.118 202.433C164.378 199.103 194.748 178.913 201.118 165.043C202.828 161.343 217.368 182.282 217.838 186.422C218.308 190.562 186.398 242.112 183.838 238.922C170.048 221.712 158.358 210.753 155.678 211.603C152.998 212.453 144.198 222.772 141.798 236.242" fill="#DFCDBC"/>
<path d="M107.128 232.192C104.298 230.672 101.278 198.982 102.338 195.692C103.398 192.402 117.648 169.273 121.938 169.393C120.368 183.493 129.388 204.392 135.018 208.092C137.858 209.972 139.578 229.092 139.238 231.772C138.898 234.452 132.058 211.902 129.178 211.822C122.188 211.652 109.738 233.632 107.128 232.192Z" fill="#DFCDBC"/>
<path d="M202.019 166.092C198.649 175.742 178.749 192.922 144.629 210.342C140.819 214.582 141.219 224.482 141.219 224.482C141.219 224.482 149.689 208.993 155.759 209.413C161.829 209.833 181.499 234.953 183.809 235.413C186.119 235.873 192.609 227.663 192.609 227.663C192.609 227.663 186.739 231.432 184.219 230.382C181.699 229.332 164.219 209.062 168.219 205.282C172.219 201.502 206.409 181.802 202.019 166.092Z" fill="#F7EAE2"/>
<path d="M118.848 174.043C118.708 180.953 123.328 205.643 127.088 206.273C130.848 206.903 133.668 208.362 136.528 217.452C131.478 209.202 128.008 207.912 125.448 210.342C122.888 212.772 109.668 228.343 107.448 227.623C105.228 226.903 102.558 202.283 103.718 196.623C106.908 187.473 118.878 172.343 118.848 174.043Z" fill="#F7EAE2"/>
<path d="M131.288 296.562C124.668 293.672 119.698 305.762 127.408 308.792C134.288 311.512 138.738 299.812 131.288 296.562Z" fill="#DFCDBC"/>
<path d="M127.508 297.772C132.308 295.472 136.288 302.212 132.368 306.602C133.908 302.922 129.588 297.862 127.508 297.772Z" fill="#F7EAE2"/>
<path d="M137.108 245.542C130.498 242.652 125.528 254.742 133.238 257.782C140.118 260.492 144.568 248.792 137.108 245.542Z" fill="#DFCDBC"/>
<path d="M133.299 246.752C138.099 244.452 142.069 251.192 138.159 255.582C139.729 251.902 135.419 246.842 133.299 246.752Z" fill="#F7EAE2"/>
<path d="M117.079 177.302C116.309 179.302 121.409 209.063 122.799 209.403C124.189 209.743 125.389 207.593 125.309 205.923C125.229 204.253 117.839 175.262 117.079 177.302Z" fill="white"/>
<path d="M104.509 94.6926C102.129 91.1126 98.7788 85.3927 93.8788 88.2727C88.9788 91.1527 90.5688 106.693 94.3788 112.683C98.1888 118.673 98.1188 120.893 100.029 122.943C101.939 124.993 106.919 124.632 107.499 121.242" fill="#683C1B"/>
<path d="M101.299 100.652C100.239 96.4624 96.4789 93.2125 94.9489 93.7325C93.4189 94.2525 93.4689 100.882 93.4689 100.882C93.4689 100.882 94.2189 97.5424 95.9689 98.8824C97.7189 100.222 101.529 104.882 99.4189 107.152C97.3089 109.422 100.089 113.442 101.849 114.972C99.7089 110.332 103.419 109.112 101.299 100.652Z" fill="#471F1D"/>
<path d="M210.509 69.8526C210.907 85.2467 205.174 100.168 194.571 111.336C183.968 122.503 169.363 129.002 153.969 129.402C121.909 130.232 97.1392 103.913 96.2992 71.8526C95.4592 39.7926 118.899 14.1423 150.959 13.3023C166.354 12.9073 181.276 18.6431 192.443 29.2476C203.61 39.8522 210.109 54.4577 210.509 69.8526Z" fill="#683C1B"/>
<path d="M100.189 50.8726C93.3685 60.2426 95.5885 74.3725 98.0185 89.2925C100.449 104.212 99.0185 111.512 100.069 116.032C101.119 120.552 105.319 142.402 110.889 150.762C114.769 156.572 125.549 168.462 129.889 172.552C134.229 176.642 153.309 175.253 158.249 171.103C163.189 166.953 184.329 151.323 188.869 142.583C193.409 133.843 194.209 104.272 195.409 89.0322" fill="#683C1B"/>
<path d="M184.239 97.1926C183.409 110.423 181.949 136.312 177.719 143.762C171.089 155.442 156.789 165.662 152.919 169.762C149.049 173.862 134.539 174.493 130.739 170.943C126.939 167.393 116.459 156.173 112.669 150.393C108.749 144.393 102.149 121.912 101.289 115.822C100.729 111.822 101.819 106.553 100.979 97.3727C99.7787 84.3127 95.3487 60.8425 108.359 50.9025C116.549 49.5425 125.359 60.9027 138.619 54.3127C151.139 48.0827 164.789 46.3127 170.059 49.0627C175.329 51.8127 186.119 67.6126 184.239 97.1926Z" fill="#7F4C29"/>
<path d="M145.929 152.132C143.649 153.052 136.499 154.322 132.259 153.242C131.379 154.242 132.439 157.582 138.839 157.242C145.239 156.902 147.039 154.292 145.929 152.132Z" fill="#471F1D"/>
<path d="M123.238 89.5024C125.128 91.2124 129.628 96.0823 130.028 98.3423C130.428 100.602 128.698 116.652 128.698 116.652C128.698 117.112 127.818 103.102 124.378 99.2222C120.938 95.3422 109.188 96.0422 104.268 98.5522C107.268 94.3922 111.658 92.5526 111.758 91.3926C111.958 89.1726 106.688 84.1323 106.688 84.1323L123.238 89.5024Z" fill="#683C1B"/>
<path d="M146.949 81.0522C145.189 82.0522 143.569 88.4822 145.119 88.8422C146.669 89.2022 154.309 85.9924 158.209 84.1024C162.109 82.2124 166.209 78.8025 168.349 78.4325C170.489 78.0625 180.229 80.0922 180.229 80.0922C180.229 80.0922 172.669 74.0222 168.009 74.8222C163.349 75.6222 148.699 80.0322 146.949 81.0522Z" fill="#471F1D"/>
<path d="M120.508 82.7523C123.228 83.4123 124.868 90.2624 123.668 90.6424C122.468 91.0224 114.828 88.4324 111.758 86.8724C108.688 85.3124 106.098 82.3722 104.428 82.1122C102.758 81.8522 97.4277 83.9623 97.4277 83.9623C97.4277 83.9623 100.998 78.2924 104.648 78.8524C108.298 79.4124 117.808 82.0923 120.508 82.7523Z" fill="#471F1D"/>
<path d="M124.039 126.102C126.039 124.872 130.669 126.152 132.489 127.442C133.456 128.034 134.582 128.311 135.713 128.234C136.843 128.157 137.922 127.73 138.799 127.012C140.099 125.642 144.799 124.242 146.799 124.582C148.799 124.922 150.059 126.422 149.259 126.872C148.459 127.322 140.259 130.002 138.579 131.472C137.332 132.833 136.665 134.627 136.719 136.472C136.839 137.082 138.189 137.182 138.809 136.902C139.429 136.622 137.379 139.432 136.039 139.112C135.013 138.73 134.168 137.977 133.669 137.002C133.329 135.902 133.599 132.082 132.509 131.112C130.939 129.712 121.649 129.542 124.039 126.102Z" fill="#683C1B"/>
<path d="M130.569 128.083C130.339 127.403 126.569 125.642 125.009 126.282C123.449 126.922 124.939 128.222 126.629 127.992C128.319 127.762 130.869 128.983 130.569 128.083Z" fill="#260C08"/>
<path d="M141.228 127.603C141.718 126.343 144.288 125.092 145.948 125.092C147.608 125.092 148.178 127.093 146.858 127.163C145.538 127.233 140.958 128.283 141.228 127.603Z" fill="#260C08"/>
<path d="M121.258 143.192C125.096 142.105 129.001 141.267 132.948 140.683C134.728 140.553 135.768 141.212 136.878 141.062C137.988 140.913 139.658 140.262 141.098 139.962C142.538 139.662 155.978 139.553 158.198 139.433C154.508 141.263 143.128 143.603 141.608 144.333C139.359 145.282 136.89 145.587 134.478 145.212C132.308 144.752 123.608 144.782 121.258 143.192Z" fill="#DB4E48"/>
<path d="M121.828 143.842C124.428 145.482 129.248 152.692 138.988 151.842C148.728 150.992 155.158 140.842 157.588 139.502C150.728 141.572 144.138 143.132 141.388 144.502C138.638 145.872 136.298 145.653 132.818 145.103C128.248 144.353 121.828 143.842 121.828 143.842Z" fill="#EC685D"/>
<path d="M146.188 145.503C144.478 144.753 141.428 146.503 141.838 147.383C142.338 148.413 148.018 146.303 146.188 145.503Z" fill="#F47973"/>
<path d="M118.738 142.402C117.828 143.162 118.958 144.232 123.108 144.262C127.258 144.292 132.198 145.532 134.688 145.862C137.069 146.224 139.503 145.876 141.688 144.862C147.214 142.939 152.843 141.323 158.548 140.022C162.638 139.122 162.478 137.842 161.418 137.342C160.358 136.842 159.958 138.112 157.228 139.342C154.498 140.572 144.338 143.282 141.968 143.852C139.598 144.422 138.148 145.572 134.608 144.952C130.231 144.687 125.883 144.065 121.608 143.092C119.698 142.522 119.668 141.622 118.738 142.402Z" fill="#A5312B"/>
<path d="M131.308 119.813C131.308 119.813 128.058 121.443 129.978 123.683C133.838 128.193 134.728 117.783 131.308 119.813Z" fill="#CE9474"/>
<path d="M111.099 90.3126C107.979 90.8026 100.829 96.1824 99.8086 99.1324C102.159 101.522 106.089 103.973 113.689 103.933C121.289 103.893 124.039 102.472 125.899 102.762C130.789 103.502 127.479 100.822 125.629 97.7623C123.779 94.7023 115.609 89.6026 111.099 90.3126Z" fill="#6E3222"/>
<path d="M126.118 99.6325C119.998 91.7925 108.298 92.2327 101.178 99.2727C103.278 101.663 114.428 105.382 124.848 101.092C126.118 101.532 127.318 100.983 126.118 99.6325Z" fill="#F9C0C0"/>
<path d="M124.308 100.722C120.728 94.7221 107.788 94.4522 103.248 99.8622C106.288 101.882 117.958 104.462 124.308 100.722Z" fill="#FFFCF8"/>
<path d="M110.358 94.2622C108.258 96.5422 109.498 102.322 115.358 102.762C121.218 103.202 123.678 97.2922 121.358 94.7622C119.228 92.4322 111.318 93.1922 110.358 94.2622Z" fill="#18516B"/>
<path d="M114.509 97.0723C113.2 97.8529 112.017 98.8274 110.999 99.9624C110.709 100.672 112.999 102.732 116.529 102.542C120.059 102.352 121.329 99.9526 121.339 99.3926C121.349 98.8326 117.869 97.2524 117.869 97.2524" fill="#6486BC"/>
<path d="M115.878 94.262C111.958 93.982 111.228 99.3724 115.478 99.9324C119.728 100.492 120.578 94.602 115.878 94.262Z" fill="#101C23"/>
<path d="M119.718 98.7324C120.198 97.9724 118.048 96.9325 117.898 98.1625C117.748 99.3925 118.928 99.9624 119.718 98.7324Z" fill="#FFFCF8"/>
<path d="M127.949 100.193C125.699 97.6426 123.619 95.0427 120.319 93.3127C117.019 91.5827 111.239 92.0825 108.049 93.0925C104.767 94.266 101.72 96.0133 99.0488 98.2527C101.682 94.8024 105.482 92.4309 109.739 91.5827C112.479 90.9627 117.339 90.5826 120.529 92.4426C123.688 94.2692 126.261 96.9573 127.949 100.193Z" fill="#471F1D"/>
<path d="M101.178 99.2722C101.178 99.2722 105.308 95.6023 107.998 94.8523C110.688 94.1023 118.388 94.1922 121.308 95.7922C123.255 97.0624 125.077 98.5155 126.748 100.132C126.748 100.132 123.748 95.0723 122.218 93.8523C119.838 91.9723 111.978 91.3323 108.538 92.6023C105.366 93.8748 102.755 96.2409 101.178 99.2722Z" fill="#160907"/>
<path d="M162.917 87.3824C171.007 87.1724 174.727 91.2124 176.187 94.1124C172.497 98.2407 167.381 100.82 161.867 101.333C153.437 101.943 150.667 100.432 148.427 100.612C143.297 101.022 146.567 97.9124 148.277 94.6124C149.987 91.3124 154.507 87.6124 162.917 87.3824Z" fill="#6E3222"/>
<path d="M147.288 98.1923C145.418 98.5223 146.288 100.502 148.148 99.9222C150.008 99.3422 154.068 100.692 160.628 100.212C168.028 99.6723 174.628 94.3124 174.628 94.3124C174.628 94.3124 170.248 90.1324 160.628 90.8524C151.008 91.5724 147.288 98.1923 147.288 98.1923Z" fill="#F9C0C0"/>
<path d="M148.758 98.6121C153.048 91.7321 169.188 90.3521 172.858 94.3821C168.818 99.5721 153.108 100.812 148.758 98.6121Z" fill="#FFFCF8"/>
<path d="M156.198 91.7125C154.328 94.2425 156.198 99.9225 162.138 99.7125C168.078 99.5025 169.938 93.2525 167.308 90.9625C164.918 88.8525 157.058 90.5525 156.198 91.7125Z" fill="#18516B"/>
<path d="M160.658 94.0625C159.429 95.0058 158.341 96.1205 157.428 97.3726C157.218 98.1226 159.748 99.9326 163.258 99.3726C166.768 98.8126 167.808 96.2023 167.758 95.6523C167.708 95.1023 164.058 93.8926 164.058 93.8926" fill="#6486BC"/>
<path d="M161.979 90.8022C157.979 90.9622 157.839 96.4622 162.179 96.5522C166.519 96.6422 166.739 90.6022 161.979 90.8022Z" fill="#101C23"/>
<path d="M166.059 95.1924C166.469 94.3724 164.209 93.5623 164.169 94.8223C164.129 96.0823 165.399 96.4624 166.059 95.1924Z" fill="#FFFCF8"/>
<path d="M145.508 96.9327C147.662 94.2409 150.309 91.9836 153.308 90.2823C156.628 88.4423 162.908 87.7426 166.208 88.6226C171.208 89.9626 178.408 92.1925 178.408 92.1925C174.598 88.1325 167.238 87.7125 164.408 87.1925C160.484 86.7551 156.521 87.5375 153.058 89.4327C149.967 91.2797 147.375 93.8545 145.508 96.9327Z" fill="#471F1D"/>
<path d="M147.289 98.1925C147.289 98.1925 151.149 94.0623 154.289 92.7023C157.429 91.3423 163.859 90.4225 167.439 91.1925C170.08 91.8793 172.621 92.9042 174.999 94.2424C173.057 92.5327 171.01 90.9462 168.869 89.4924C165.229 87.5724 157.489 87.9425 153.869 89.9425C150.249 91.9425 147.289 98.1925 147.289 98.1925Z" fill="#160907"/>
<path d="M126.988 541.472H25.0879C31.1879 506.152 38.7279 463.782 40.2979 446.522C41.9279 428.622 31.0379 348.852 31.0279 305.112C31.0179 261.372 36.0279 217.932 40.3879 208.902C44.9479 204.632 98.0679 191.772 98.0979 191.772C102.898 182.422 112.268 175.093 116.438 173.913C105.378 190.343 89.8479 236.912 87.2079 278.012C86.2079 317.732 117.928 395.932 120.378 410.532C122.828 425.132 129.378 516.592 128.618 531.092C128.296 534.583 127.751 538.05 126.988 541.472Z" fill="#11110E"/>
<path d="M28.0391 541.472C32.9591 513.552 39.0391 482.903 42.0991 469.623C47.9991 444.383 42.1591 417.042 45.1891 419.762C48.2191 422.482 67.3991 448.943 68.3491 447.143C69.2991 445.343 45.6691 403.723 43.7891 397.813C41.9091 391.903 36.549 351.813 35.619 325.543C34.689 299.273 31.2891 217.542 33.3491 213.632C35.4091 209.722 84.8291 194.633 85.6691 197.793C86.7591 201.863 55.8291 215.463 51.9091 219.853C47.9891 224.243 53.2791 290.403 56.7491 308.353C60.2191 326.303 101.059 411.083 107.369 426.153C113.369 440.513 123.579 515.762 121.249 541.472H28.0391Z" fill="#21211D"/>
<path d="M213.618 35.3022C221.928 39.8922 223.858 50.5726 216.508 56.3726C222.208 50.8326 222.208 42.0224 212.818 36.5024" fill="#E5E5E5"/>
<path d="M200.348 14.8823C203.448 15.2323 210.868 17.6922 205.618 23.2822C207.748 18.5722 205.168 15.2824 199.918 15.4224" fill="#E5E5E5"/>
<path d="M152.969 4.42212C157.689 -0.017879 172.079 -1.29788 173.049 1.42212C174.019 4.14212 164.859 -2.05788 153.809 4.42212" fill="#E5E5E5"/>
<path d="M192.108 78.4025C193.038 85.4025 189.978 100.163 189.718 102.253C189.558 103.473 192.218 105.163 192.938 104.253C194.388 101.713 201.148 79.7024 212.828 89.8224C215.828 76.4424 219.538 49.0723 212.828 36.5123C206.118 23.9523 182.338 -2.25757 142.238 4.38243C102.138 11.0224 91.7681 43.8726 91.5681 52.8326C91.4581 58.1026 90.5681 72.4826 94.5181 82.8326C96.9181 89.1226 97.7581 90.9223 98.7481 93.5323C96.3981 78.0923 96.9181 58.9223 101.918 51.4523C105.858 45.5723 118.388 47.3427 132.408 51.1627C146.458 45.1627 166.178 43.7026 175.638 44.5226C179.638 44.8626 184.338 45.0123 184.338 45.0123C184.338 45.0123 181.188 46.3125 180.338 46.6925C181.441 46.6579 182.536 46.89 183.53 47.3688C184.524 47.8475 185.388 48.5587 186.048 49.4425C184.536 48.9695 182.949 48.7796 181.368 48.8824C186.288 53.6624 189.188 62.4924 190.458 67.1324C188.728 63.5224 186.788 62.7325 186.788 62.7325C189.144 67.7396 190.929 72.996 192.108 78.4025Z" fill="#FBFFFA"/>
<path d="M96.9679 78.7925C98.3279 86.1125 100.088 101.182 99.3679 107.272C97.6779 95.8125 92.8379 77.4023 92.8379 77.4023" fill="#FBFFFA"/>
<path d="M140.269 1.49215C145.319 2.77215 140.429 8.32232 126.789 13.4223C113.149 18.5223 107.919 30.6426 112.969 41.6626C107.889 28.6626 110.199 21.2026 122.159 13.6626C134.119 6.12256 138.629 0.602147 140.269 1.49215Z" fill="#E5E5E5"/>
<path d="M134.389 3.4723C137.189 5.2923 129.249 6.74271 118.539 13.8927C107.829 21.0427 103.279 29.7824 113.029 42.7824C102.279 30.8724 105.029 21.6427 113.209 14.1827C121.389 6.72275 131.669 1.7223 134.389 3.4723Z" fill="#E5E5E5"/>
<path d="M87.9687 53.2422C87.5587 56.6922 90.1687 64.2422 92.2187 66.8022C90.315 62.0374 89.4162 56.9307 89.5787 51.8022" fill="#FBFFFA"/>
<path d="M120.858 51.1922C106.398 50.7022 100.148 23.6521 128.408 14.6121C163.248 3.46214 171.968 3.13214 169.358 0.612138C173.948 -0.987862 177.688 0.972138 178.868 4.61214C186.608 4.18214 193.578 10.3822 193.418 12.9022C198.708 11.9022 209.098 21.8024 210.798 27.1024C215.308 28.8724 221.138 44.2622 215.048 51.4022C218.328 41.1622 215.938 33.1521 203.658 37.5721C191.378 41.9921 181.108 45.4524 167.168 46.9324C153.228 48.4124 151.898 42.1722 139.898 52.1522C134.568 51.1522 135.898 40.0323 144.898 33.7923C133.648 41.1623 132.058 52.0223 136.748 53.7923C127.408 51.1623 119.478 36.222 145.448 27.702C122.178 32.702 119.608 48.702 126.908 52.992C117.728 48.452 112.278 31.222 121.068 22.992C108.508 32.722 113.868 46.1322 120.858 51.1922Z" fill="#E5E5E5"/>
<path d="M97.5086 37.452C99.8986 35.802 102.789 35.9124 103.449 38.0624C104.109 40.2124 96.4486 42.6625 96.4486 42.6625C96.4486 42.6625 102.339 41.6622 104.579 42.8822C100.469 43.9622 96.7386 47.8822 96.7386 47.8822C101.529 45.0522 104.429 46.2922 104.819 47.1722C98.3886 54.5022 91.8186 65.1723 91.8986 72.5423C89.6186 64.5923 90.2186 57.8224 94.5886 53.8724C90.2086 57.1424 87.8586 62.8723 90.1086 67.4623C86.3186 62.0823 90.2086 53.0421 94.8986 49.8021C89.1686 53.4921 88.2686 56.9125 88.2686 56.9125C86.7186 47.7625 90.8586 42.032 97.5086 37.452Z" fill="#E5E5E5"/>
<path d="M102.829 32.1922C101.659 26.6922 93.0887 33.8124 90.2188 46.3924C94.6687 34.1924 102.839 34.7022 102.829 32.1922Z" fill="#E5E5E5"/>
<path d="M198.218 42.0026C209.218 39.0826 219.038 48.3126 216.538 54.0026C218.428 57.7726 219.538 63.8325 216.308 65.6325C214.508 59.3325 203.768 54.8825 203.768 54.8825C211.768 58.4725 220.028 70.7425 215.458 74.4025C213.018 67.4025 201.458 58.4024 192.188 56.5324C205.908 63.5324 216.098 77.9628 213.778 80.4328C201.518 71.3528 188.338 60.7125 185.508 55.1525C189.178 53.1525 200.078 57.4426 200.078 57.4426C193.518 53.4426 184.548 52.7825 183.888 51.6125C183.228 50.4425 191.888 47.6126 199.088 48.7126C194.046 47.3264 188.823 46.716 183.598 46.9025C189.308 43.5625 198.218 42.0026 198.218 42.0026Z" fill="#E5E5E5"/>
<path d="M156.059 42.3221C171.739 41.7921 181.059 43.6525 189.759 38.9325C203.349 31.5025 206.929 31.7021 210.759 34.1121C205.499 30.5321 194.429 38.2021 186.569 42.3021C176.379 47.6421 167.019 42.3921 156.059 42.3221Z" fill="#C1C1C1"/>
<path d="M138.338 47.3525C140.418 37.3525 153.718 31.6723 169.778 29.8823C185.838 28.0923 197.778 25.4521 200.268 16.9521C202.928 19.9521 192.408 27.5526 179.918 30.6626C200.778 32.4426 208.528 21.9722 206.728 18.2822C209.028 23.0822 200.298 32.4925 177.358 35.5425C154.418 38.5925 145.948 49.9725 140.248 50.5425C142.328 44.9125 152.818 38.4824 152.818 38.4824C143.508 41.6824 139.558 45.1925 138.338 47.3525Z" fill="#C1C1C1"/>
<path d="M132.138 47.1123C124.418 41.5323 127.608 28.9222 148.138 27.0322C168.668 25.1422 178.388 25.5722 182.138 21.0322C172.198 29.2722 155.328 28.9422 144.518 31.0322C133.708 33.1222 131.038 41.2623 132.138 47.1123Z" fill="#C1C1C1"/>
<path d="M170.779 18.5522C161.259 24.5522 161.029 25.2122 141.839 28.5522C122.649 31.8922 113.929 40.6022 120.839 46.5522C108.979 41.3522 118.709 26.7023 138.839 26.1323C158.969 25.5623 166.509 21.6622 170.779 18.5522Z" fill="#C1C1C1"/>
<path d="M129.569 15.1924C113.569 25.7124 114.909 44.9725 123.569 49.0425C115.359 44.2625 113.149 32.5425 113.149 32.5425C111.689 41.7225 114.669 46.5423 118.369 47.3223C103.999 42.5523 108.909 30.0726 113.549 25.4326C118.189 20.7926 129.569 15.1924 129.569 15.1924Z" fill="#C1C1C1"/>
<path d="M173.568 0.79248C176.908 4.66248 167.568 6.79262 144.668 10.4326C154.631 8.30662 164.324 5.07305 173.568 0.79248Z" fill="#C1C1C1"/>
<path d="M192.908 13.4824C189.667 19.1024 180.038 22.5725 165.428 23.8325C172.618 22.3125 175.938 19.8325 179.638 10.8325C179.558 13.5525 169.638 19.2823 150.188 18.4023C172.028 15.6123 179.007 9.27225 179.188 4.55225C181.657 4.68225 182.978 10.8524 182.518 12.6724C182.058 14.4924 191.578 13.8526 191.378 10.1626C192.758 11.0426 192.908 13.4824 192.908 13.4824Z" fill="#FBFFFA"/>
<path d="M193.899 13.4224C195.899 16.0724 184.569 25.3323 168.059 28.1123C190.089 26.7323 203.509 19.0024 193.899 13.4224Z" fill="#FBFFFA"/>
<path d="M210.798 27.0425C205.658 25.0425 201.588 30.0426 194.508 32.3926C205.188 27.2426 207.808 21.8025 206.038 20.0625C207.813 22.2548 209.405 24.5894 210.798 27.0425Z" fill="#FBFFFA"/>
<path d="M150.849 2.05238C160.019 0.512377 157.849 3.41247 144.779 7.40247C137.319 9.64433 129.976 12.2608 122.779 15.2423C131.872 10.3053 141.245 5.90123 150.849 2.05238Z" fill="#E5E5E5"/>
<path d="M192.669 66.7925C203.099 72.2725 204.969 80.4226 204.139 82.6826C203.309 84.9426 198.309 89.8022 198.309 89.8022C198.859 84.9922 194.559 76.1426 194.559 76.1426C198.099 85.9526 193.559 96.5525 191.469 100.583C192.2 89.5486 191.582 78.4667 189.629 67.5825C192.129 70.1125 198.159 79.4126 198.159 79.4126C194.509 71.1926 192.669 66.7925 192.669 66.7925Z" fill="#E5E5E5"/>
<path d="M96.0689 65.6123C92.3989 74.7223 91.0689 78.9226 97.6089 93.1626C96.5089 74.1926 96.0689 65.6123 96.0689 65.6123Z" fill="#E5E5E5"/>
<path d="M190.168 44.6123C198.298 39.4123 207.298 46.8125 209.168 50.8325C203.018 46.1425 201.168 46.3525 201.168 46.3525C205.858 48.7225 208.168 54.6923 208.168 54.6923C203.248 51.3023 191.168 50.7622 191.168 50.7622C192.168 47.4422 201.048 49.1425 201.048 49.1425C197.763 46.9163 194.062 45.3753 190.168 44.6123Z" fill="#C1C1C1"/>
<path d="M191.748 57.0024C196.998 58.8524 201.638 63.6226 201.468 66.1426C193.508 64.0326 189.398 58.1924 191.748 57.0024Z" fill="#C1C1C1"/>
<path d="M102.829 47.9425C101.979 51.1325 98.0387 54.2625 95.9688 54.9425C96.7788 50.9125 98.2588 46.9425 102.829 47.9425Z" fill="#C1C1C1"/>
<path d="M101.768 42.3323C98.7076 44.9923 96.7676 46.3322 95.0176 46.7522C96.4676 38.2522 98.0976 37.8222 101.518 37.9622C99.7568 39.0675 98.3023 40.5979 97.2876 42.4124C100.018 40.5924 101.768 42.3323 101.768 42.3323Z" fill="#C1C1C1"/>
<path d="M193.508 101.502C195.818 92.1325 206.508 82.2125 212.698 85.2325C216.158 87.1825 215.778 101.762 212.588 107.232C209.398 112.702 206.408 114.232 203.378 119.732C200.348 125.232 192.228 127.513 190.898 120.063" fill="#683C1B"/>
<path d="M208.318 90.4023C204.318 91.3523 196.988 102.082 198.768 105.082C200.548 108.082 201.078 106.772 201.488 109.312C201.898 111.852 197.838 114.853 197.838 114.853C197.838 114.853 204.588 110.422 204.338 107.532C204.088 104.642 200.208 101.432 202.968 98.2524C205.728 95.0724 208.968 97.0323 208.558 99.5923C208.148 102.152 206.758 108.663 206.758 108.663C206.758 108.663 211.818 100.532 212.038 95.9223C212.258 91.3123 209.328 90.1923 208.318 90.4023Z" fill="#471F1D"/>
<path d="M254.228 443.702C254.688 460.382 265.538 501.952 272.758 541.472H109.508C109.168 539.862 108.848 538.232 108.568 536.582C106.378 524.002 104.568 434.022 110.248 414.532C115.928 395.042 178.488 312.532 187.508 290.442C196.528 268.352 217.508 200.162 209.908 172.762C214.268 170.602 224.058 187.762 227.558 191.212C227.558 191.212 299.608 212.932 303.558 224.772C310.038 243.752 253.558 419.842 254.228 443.702Z" fill="#11110E"/>
<path d="M265.798 213.663C291.798 212.663 323.528 238.473 318.458 282.773C317.928 287.423 320.458 294.562 321.848 298.113C335.138 330.713 269.418 338.992 267.568 318.202C267.328 315.512 259.038 292.653 256.828 289.463" fill="#F57E5B"/>
<path d="M319.119 287.353C336.809 310.353 339.119 364.562 331.829 391.192C326.389 411.122 322.509 427.432 296.539 405.572C273.819 386.432 261.719 344.572 267.829 302.222" fill="#F57E5B"/>
<path d="M256.509 305.762C256.159 315.262 266.059 379.132 280.899 422.882C281.899 435.482 334.619 421.272 345.649 411.172C340.649 337.932 317.929 239.652 309.279 227.712C299.669 214.442 270.619 206.843 257.209 202.163" fill="#11110E"/>
<path d="M270.889 308.422C268.999 319.212 283.319 385.802 283.559 408.772C298.349 404.192 321.759 419.312 333.689 415.992C335.919 399.862 317.379 247.762 303.289 231.302C298.419 225.632 274.919 285.442 270.889 308.422Z" fill="#21211D"/>
<path d="M242.348 399.882C237.428 407.682 208.788 419.582 208.348 422.882C207.908 426.182 229.898 414.982 232.238 420.342C234.578 425.702 223.618 472.182 220.568 484.822C217.518 497.462 204.868 507.203 205.338 511.043C205.808 514.883 232.628 494.272 237.578 498.492C239.808 500.402 243.158 519.962 245.878 541.492H112.638L112.458 540.492C108.268 515.562 106.778 444.832 112.538 430.822C132.008 399.702 195.768 361.143 218.918 329.523C245.008 293.873 272.918 238.523 268.088 230.923C263.468 223.623 245.808 213.632 239.088 199.242C236.878 194.512 300.768 218.573 301.478 223.623C302.188 228.673 289.198 236.333 274.888 278.313C260.578 320.293 247.268 392.092 242.348 399.882Z" fill="#21211D"/>
<path d="M252.348 312.972C253.558 314.102 256.688 316.922 256.008 317.972C255.328 319.022 218.098 313.203 214.218 309.853C210.338 306.503 212.828 304.382 212.828 304.382" fill="#11110E"/>
<path d="M210.717 295.083C210.717 295.083 203.367 303.952 208.967 306.212C214.567 308.472 249.577 315.952 250.967 315.042C252.357 314.132 254.607 307.042 254.367 305.112C254.127 303.182 249.697 301.172 249.697 301.172C249.697 301.172 251.017 297.112 250.697 296.172C250.157 294.902 216.787 296.013 210.717 295.083Z" fill="#B6A190"/>
<path d="M251.508 311.492C252.158 310.402 253.798 305.492 253.198 304.152C252.598 302.812 237.868 303.152 230.198 302.402C228.708 304.402 226.098 308.163 226.098 308.163C234.198 310.193 251.218 311.952 251.508 311.492Z" fill="#DFCDBC"/>
<path d="M249.698 296.192C250.698 297.062 248.208 300.452 248.208 300.452C243.388 300.192 232.958 298.523 232.698 297.913C232.438 297.303 248.678 295.332 249.698 296.192Z" fill="#DFCDBC"/>
<path d="M219.658 181.452C224.348 187.762 255.278 222.402 255.208 225.452C255.148 227.772 237.448 232.372 236.678 235.452C235.908 238.532 262.028 225.993 263.348 228.083C265.608 231.633 236.018 292.403 219.138 314.733C198.068 342.593 121.138 405.783 113.298 427.793C112.908 404.413 136.938 374.913 147.528 360.523C169.088 331.203 184.818 302.762 189.278 293.592C193.738 284.422 213.278 245.053 215.398 192.933C215.918 180.193 214.968 175.192 219.658 181.452Z" fill="#21211D"/>
<path d="M99.8778 190.132C88.3178 204.132 64.2678 212.362 63.2678 215.282C62.5178 217.482 77.5378 226.522 77.1878 229.682C76.8378 232.842 54.5678 214.152 52.6078 215.682C49.2678 218.232 51.0978 279.882 59.2178 306.682C69.3578 340.122 103.218 403.332 110.838 416.272C113.288 398.092 112.208 388.102 107.568 376.162C94.3578 342.242 83.7478 295.372 83.3978 277.812C83.3178 273.482 84.9678 249.012 104.148 190.892C108.158 178.682 104.878 184.062 99.8778 190.132Z" fill="#21211D"/>
<path d="M232.278 199.242C233.458 200.962 257.068 222.822 256.828 224.692C256.588 226.562 238.358 232.012 236.018 230.922C233.678 229.832 231.318 204.172 228.298 197.372C225.278 190.572 228.758 194.122 232.278 199.242Z" fill="#33332D"/>
<path d="M197.698 289.902C199.838 290.122 223.698 296.043 225.038 299.183C226.378 302.323 204.468 328.692 190.218 341.782C175.968 354.872 158.368 372.632 156.218 373.572C154.068 374.512 144.318 374.042 142.808 371.702C141.298 369.362 166.808 338.042 175.368 324.952C183.928 311.862 195.418 289.662 197.698 289.902Z" fill="#2B2B26"/>
<path d="M261.869 228.472C263.999 227.852 263.229 231.613 259.149 232.633C253.399 234.073 239.919 237.853 238.799 237.293C237.679 236.733 254.619 230.572 261.869 228.472Z" fill="#33332D"/>
<path d="M52.6092 215.643C54.9292 215.163 72.2792 228.943 74.7292 229.313C77.1792 229.683 75.7891 231.763 70.2791 229.833C64.7691 227.903 59.5791 222.463 54.6291 222.333C52.6291 222.283 51.7092 247.703 52.1492 260.333C49.9392 239.023 49.7492 216.243 52.6092 215.643Z" fill="#33332D"/>
<path d="M86.2077 201.832C88.9577 200.432 78.4377 223.832 76.8677 224.582C75.2977 225.332 62.8177 217.742 63.2677 215.282C63.7177 212.822 79.5977 205.192 86.2077 201.832Z" fill="#2B2B26"/>
<path d="M81.7089 283.633C77.8389 283.203 57.0689 291.393 57.5189 293.633C57.9689 295.873 64.9489 322.292 70.9889 333.952C77.0289 345.612 86.5789 367.423 88.4689 368.383C90.3589 369.343 107.829 377.923 107.349 376.653C106.869 375.383 95.6889 340.442 91.8589 327.992C88.0289 315.542 84.8689 283.993 81.7089 283.633Z" fill="#2B2B26"/>
<path d="M220.059 308.342C219.289 306.002 217.059 307.342 215.169 308.342C213.279 309.342 194.169 300.462 192.549 299.702C190.929 298.942 180.199 317.132 179.089 318.952C177.979 320.772 173.449 325.953 173.799 327.213C174.149 328.473 179.799 324.113 180.639 323.683C181.479 323.253 196.239 330.833 197.639 331.943C199.039 333.053 220.449 309.542 220.059 308.342Z" fill="#33332D"/>
<path d="M304.729 231.542C300.139 230.792 285.159 257.092 274.859 299.692C285.089 272.472 301.799 238.932 304.729 239.532C307.659 240.132 306.169 231.772 304.729 231.542Z" fill="#2B2B26"/>
<path d="M147.728 216.612C152.848 213.312 171.268 203.292 175.898 206.742C181.558 210.952 176.898 243.072 169.608 247.052C162.248 247.372 148.368 234.052 145.938 231.152" fill="#11110E"/>
<path d="M151.588 220.882C150.588 219.592 150.738 216.012 152.268 214.962C157.338 211.452 171.558 206.613 174.188 208.413C179.748 212.223 174.638 241.113 169.798 242.273C166.478 243.073 151.928 232.693 151.218 230.003C150.508 227.313 150.218 224.312 152.218 224.362C154.218 224.412 164.038 228.652 165.418 226.732C166.798 224.812 166.778 220.562 165.418 218.982C163.638 216.922 152.508 222.062 151.588 220.882Z" fill="#21211D"/>
<path d="M154.359 219.653C153.559 218.653 168.449 212.473 169.929 215.233C171.409 217.993 155.339 220.913 154.359 219.653Z" fill="#2B2B26"/>
<path d="M154.177 225.402C153.567 224.722 166.327 228.322 165.697 230.552C165.067 232.782 154.897 226.192 154.177 225.402Z" fill="#2B2B26"/>
<path d="M132.689 215.792C128.019 212.682 113.769 204.182 110.019 207.462C106.269 210.742 106.939 240.082 110.019 242.292C113.099 244.502 130.329 233.422 132.689 230.702" fill="#11110E"/>
<path d="M128.999 220.652C129.909 219.412 129.889 215.973 128.509 214.983C124.029 211.753 113.509 207.172 111.329 208.882C107.439 212.012 108.469 236.653 111.099 237.583C113.729 238.513 128.419 231.943 129.099 229.393C129.779 226.843 130.099 223.962 128.329 223.972C126.559 223.982 117.869 227.712 116.759 225.922C115.649 224.132 115.759 220.272 116.909 218.842C118.509 216.942 128.159 221.772 128.999 220.652Z" fill="#21211D"/>
<path d="M126.507 219.472C127.247 218.472 114.557 212.942 113.297 215.472C112.037 218.002 125.597 220.662 126.507 219.472Z" fill="#2B2B26"/>
<path d="M126.509 224.922C127.069 224.292 115.949 227.342 116.429 229.402C116.909 231.462 125.869 225.662 126.509 224.922Z" fill="#2B2B26"/>
<path d="M149.508 215.512C150.378 216.512 149.279 230.442 147.359 232.512C145.439 234.582 132.288 233.732 130.788 231.322C129.628 229.452 130.038 216.243 131.128 214.753C132.218 213.263 143.108 212.362 149.508 215.512Z" fill="#11110E"/>
<path d="M132.079 214.622C130.129 215.622 130.409 227.622 132.409 228.882C134.409 230.142 137.889 229.882 137.889 229.882C137.889 229.882 133.609 217.452 133.889 214.592C133.289 214.491 132.675 214.501 132.079 214.622Z" fill="#21211D"/>
<path d="M135.508 214.662C134.648 217.262 138.828 229.872 139.958 229.922C141.088 229.972 144.888 230.192 145.338 229.922C145.788 229.652 146.968 217.392 145.068 215.692C143.168 213.992 136.378 213.812 135.508 214.662Z" fill="#21211D"/>
</g>
<defs>
<clipPath id="clip0_8_14325">
<rect width="246.68" height="246.68" fill="white" transform="translate(33 82)"/>
</clipPath>
</defs>
</svg>
