<svg width="313" height="329" viewBox="0 0 313 329" fill="none" xmlns="http://www.w3.org/2000/svg">
<g clip-path="url(#clip0_8_14322)">
<path d="M243.56 292.551C291.727 244.383 291.727 166.289 243.56 118.122C195.393 69.9544 117.298 69.9541 69.1305 118.121C20.9633 166.289 20.9635 244.383 69.1308 292.551C117.298 340.718 195.392 340.718 243.56 292.551Z" fill="#FBAE17"/>
<path d="M156.341 316.38C217.666 316.38 267.381 266.665 267.381 205.34C267.381 144.014 217.666 94.2998 156.341 94.2998C95.0151 94.2998 45.3008 144.014 45.3008 205.34C45.3008 266.665 95.0151 316.38 156.341 316.38Z" fill="#998675"/>
</g>
<mask id="mask0_8_14322" style="mask-type:alpha" maskUnits="userSpaceOnUse" x="0" y="-19" width="313" height="336">
<path fill-rule="evenodd" clip-rule="evenodd" d="M24 -19H292V162H258.64C264.224 175.249 267.31 189.809 267.31 205.09C267.31 266.415 217.596 316.13 156.27 316.13C94.9448 316.13 45.2305 266.415 45.2305 205.09C45.2305 189.809 48.3171 175.249 53.9008 162H24V-19Z" fill="#22B573"/>
</mask>
<g mask="url(#mask0_8_14322)">
<path d="M236.394 227.94C256.394 210.45 294.224 223.05 319.124 261.11C321.734 265.11 332.004 267.31 335.464 269.16C367.294 286.24 320.534 335 305.464 319.86C303.464 317.86 295.674 311.06 291.834 309.97C261.954 301.45 200.304 259.55 236.394 227.94Z" fill="#EF7154"/>
<path d="M312.865 324.08C311.329 324.127 309.799 323.861 308.369 323.299C306.939 322.737 305.637 321.89 304.545 320.81C302.595 318.81 294.985 312.26 291.545 311.27C270.745 305.37 230.625 281.7 224.745 255.56C222.345 244.9 225.975 235.25 235.535 226.88C243.025 220.32 252.965 217.67 264.305 219.23C284.305 221.97 305.305 237.34 320.305 260.34C321.845 262.69 327.215 264.58 331.145 265.95C332.853 266.506 334.523 267.175 336.145 267.95C344.275 272.31 348.255 279.08 347.685 287.53C346.685 302.09 332.145 318.12 319.795 322.73C317.584 323.59 315.237 324.047 312.865 324.08ZM237.325 228.94C228.585 236.59 225.255 245.33 227.415 254.94C229.805 265.57 239.155 277.46 253.735 288.44C265.895 297.58 280.665 305.31 292.275 308.61C296.515 309.82 304.685 317.03 306.495 318.86C310.005 322.39 315.135 321.49 318.815 320.12C330.385 315.8 344.005 300.85 344.925 287.31C345.425 279.92 342.035 274.21 334.835 270.31C333.334 269.612 331.791 269.011 330.215 268.51C325.685 266.91 320.035 264.93 317.985 261.8C303.375 239.46 283.155 224.55 263.905 221.91C253.395 220.47 244.195 222.91 237.325 228.91V228.94Z" fill="#A03B29"/>
<path d="M327.333 263.54C346.893 268.89 379.043 293.54 393.333 316.23C406.393 336.94 414.293 358.64 379.393 358.14C348.853 357.71 318.203 339.14 295.283 307.14" fill="#EF7154"/>
<path d="M380.575 359.53H379.395C348.395 359.1 317.335 340.29 294.185 307.92C293.973 307.623 293.889 307.254 293.948 306.894C294.008 306.534 294.208 306.213 294.505 306C294.802 305.789 295.171 305.704 295.531 305.764C295.89 305.824 296.212 306.024 296.425 306.32C319.055 337.96 349.315 356.32 379.425 356.78C391.345 356.94 398.835 354.47 401.665 349.42C405.145 343.23 402.045 332.62 392.185 316.98C385.575 306.51 374.385 294.66 361.465 284.48C348.905 274.58 336.335 267.48 326.975 264.88C326.797 264.836 326.631 264.757 326.484 264.648C326.338 264.538 326.215 264.401 326.122 264.244C326.029 264.087 325.968 263.912 325.942 263.732C325.917 263.551 325.928 263.367 325.975 263.19C326.019 263.012 326.098 262.844 326.208 262.697C326.318 262.55 326.456 262.426 326.614 262.333C326.773 262.239 326.948 262.179 327.13 262.154C327.312 262.13 327.497 262.142 327.675 262.19C337.375 264.84 350.305 272.19 363.135 282.28C376.295 292.65 387.725 304.75 394.485 315.48C405.075 332.28 408.115 343.48 404.045 350.74C400.765 356.66 393.075 359.53 380.575 359.53Z" fill="#A03B29"/>
<path d="M247.094 230.13C253.624 220.84 279.884 219.07 299.354 237.13C317.554 254 316.484 262.57 334.714 270.33C352.944 278.09 382.124 290.03 397.024 324.71C401.374 335.71 397.244 348.07 368.914 337.63C340.584 327.19 325.084 310.76 318.054 299.15C306.204 279.59 286.854 279.27 271.614 269.79C256.374 260.31 236.804 244.77 247.094 230.13Z" fill="#FD9673"/>
<path d="M108.484 117.55C109.224 123.06 108.914 131.89 109.534 133.55C110.154 135.21 114.894 138.19 114.924 138.03C114.954 137.87 118.424 113.29 118.404 112.82" fill="#211515"/>
<path d="M193.225 179.88C185.775 172.29 115.125 164.33 104.705 171.75C94.2848 179.17 121.115 215.07 159.065 219.53C197.015 223.99 202.535 189.36 193.225 179.88Z" fill="#0E3654"/>
<path d="M114.394 118.34C115.054 147.81 111.834 179.47 104.984 190.16C98.1341 200.85 69.3541 224.16 42.7441 232.92C79.9641 295.92 247.334 283.92 244.674 228.41C232.964 223.41 198.804 212.93 193.754 203.88C188.704 194.83 189.374 183.88 188.364 162.88C187.354 141.88 117.454 91.7598 114.394 118.34Z" fill="#EF7154"/>
<path d="M117.025 118.94C117.605 152.66 112.505 182.35 107.265 191.16C96.455 209.32 71.8651 224.16 63.2051 228.05C81.2051 223.36 140.525 233.6 149.625 230.76C139.285 215.2 131.825 169.32 134.625 168.09C137.425 166.86 163.465 191.58 170.415 189.97C177.805 188.27 189.025 166.25 189.025 166.25C191.315 135.32 119.335 94.5299 117.025 118.94Z" fill="#D35A3F"/>
<path d="M145.734 185.48C143.504 186.98 153.264 246.65 160.214 246.4C167.164 246.15 215.124 226.76 216.124 223.74C217.124 220.72 195.374 215.24 192.214 211.63C189.054 208.02 187.804 176.83 186.114 178.55C184.184 180.55 172.404 196.86 169.034 197.44C165.664 198.02 147.964 183.94 145.734 185.48Z" fill="#FD9673"/>
<path d="M245.554 480.78C249.174 466.17 252.934 441.93 245.554 414.27C256.614 384.63 259.144 334.89 265.074 323.06C268.944 314.91 272.534 306.16 273.814 297.46C278.664 264.46 265.004 231.06 245.334 224.46C226.524 218.15 197.334 245.71 171.534 250.39C145.734 255.07 68.8638 223.65 43.6838 252.52C29.7838 268.46 30.1037 306.52 44.5337 344.6C58.8237 382.33 93.4037 415.74 92.7837 437.35C89.7837 443.26 84.3637 474.86 90.5037 487.83C98.9837 505.73 165.564 514.16 194.034 510.12C221.194 506.27 241.974 495.19 245.554 480.78Z" fill="#EF7154"/>
<path d="M177.243 512.49C162.92 512.4 148.632 511.085 134.533 508.56C119.943 505.92 94.6631 499.81 89.2631 488.42C83.1131 475.42 88.1132 444.11 91.4232 437.02C91.5732 425.77 81.7732 410.91 70.4232 393.73C60.7732 379.09 49.8331 362.5 43.2331 345.08C28.5931 306.43 28.3431 267.99 42.6331 251.61C59.6331 232.12 99.2332 239.23 131.053 244.94C148.053 247.94 162.643 250.6 171.273 249.04C182.063 247.04 193.543 241.04 204.653 235.11C219.953 227 234.413 219.35 245.763 223.11C255.603 226.41 264.453 236.4 270.043 250.51C275.78 265.51 277.543 281.738 275.163 297.62C273.783 307.03 269.703 316.46 266.313 323.62C263.763 328.7 261.783 341.48 259.503 356.28C256.643 374.75 253.103 397.71 246.993 414.28C252.603 435.63 252.563 458.09 246.863 481.05C243.233 495.69 223.063 507.33 194.213 511.42C188.587 512.163 182.918 512.521 177.243 512.49ZM80.8431 241.57C65.7331 241.57 52.5231 244.49 44.7331 253.42C38.2231 260.88 34.7331 273.95 34.8731 290.24C35.0231 306.71 38.8731 325.84 45.8731 344.11C52.3631 361.23 63.2132 377.69 72.7832 392.21C84.4732 409.93 94.5631 425.21 94.2131 437.39C94.2082 437.592 94.157 437.79 94.0632 437.97C91.0032 443.97 85.9932 474.97 91.7932 487.24C95.3532 494.74 111.123 501.52 135.063 505.85C155.943 509.62 179.583 510.78 193.893 508.75C221.183 504.88 240.893 493.75 244.253 480.45C249.873 457.79 249.873 435.65 244.253 414.63C244.168 414.356 244.168 414.063 244.253 413.79C250.363 397.42 253.923 374.39 256.773 355.89C259.193 340.24 261.103 327.89 263.833 322.44C267.133 315.49 271.113 306.31 272.433 297.26C277.083 265.66 264.213 232.26 244.883 225.77C234.653 222.34 220.703 229.72 205.943 237.55C194.653 243.55 182.943 249.72 171.773 251.75C162.653 253.4 147.773 250.75 130.563 247.65C114.633 244.79 96.6931 241.57 80.8431 241.57Z" fill="#A03B29"/>
<path d="M86.7047 243.32C73.4047 251.09 74.3446 296.23 90.0146 310.79C109.665 329.06 120.015 333.73 145.355 333.57C115.825 348.46 87.1946 330.17 79.2946 337.79C69.5946 347.15 93.8646 394.1 101.785 410.72C109.575 427.11 111.915 431.22 106.155 439.58C100.395 447.94 94.3746 471.3 105.275 484.58C113.855 495.03 154.365 511.21 193.355 505.73C232.505 500.23 240.955 484.73 244.625 469.89C248.355 454.83 247.025 436.53 242.895 427.89C238.765 419.25 244.565 404.29 249.635 390.28C256.445 371.4 259.735 349.03 261.175 328.04C256.175 328.21 239.175 335.22 219.585 322.92C241.405 321.53 254.115 320.77 262.645 306.68C271.275 292.41 268.205 241.14 244.895 228.12C232.025 225.28 202.285 230.87 194.825 239.03C187.365 247.19 186.825 266.28 183.685 269.08C180.545 271.88 181.055 252.41 167.555 245.23C154.055 238.05 102.395 234.16 86.7047 243.32Z" fill="#FD9673"/>
<path d="M133.864 312.26C125.864 312.94 124.524 322 133.544 321.74C142.564 321.48 146.394 311.21 133.864 312.26Z" fill="#EF7154"/>
<path d="M133.165 323.13C128.045 323.13 126.055 320.38 125.915 317.96C125.695 313.96 129.725 311.23 133.745 310.89C139.245 310.43 141.545 312.04 142.505 313.47C142.955 314.179 143.201 314.998 143.217 315.837C143.233 316.677 143.018 317.505 142.595 318.23C141.125 321.08 137.595 323.01 133.595 323.12L133.165 323.13ZM133.975 313.64C130.525 313.93 128.565 315.99 128.675 317.81C128.765 319.47 130.615 320.44 133.505 320.37C136.915 320.27 139.335 318.53 140.145 316.96C140.341 316.666 140.452 316.323 140.465 315.97C140.477 315.616 140.39 315.267 140.215 314.96C139.935 314.54 138.655 313.2 133.975 313.6V313.64Z" fill="#A03B29"/>
<path d="M262.833 296.44C256.023 298.71 255.173 308.02 262.933 305.95C270.693 303.88 273.393 292.94 262.833 296.44Z" fill="#EF7154"/>
<path d="M260.865 307.63C259.855 307.711 258.848 307.445 258.009 306.876C257.171 306.307 256.552 305.468 256.255 304.5C255.255 301.36 257.595 296.74 262.405 295.13C266.705 293.69 268.875 294.55 269.935 295.53C270.502 296.103 270.902 296.821 271.091 297.605C271.279 298.39 271.25 299.211 271.005 299.98C270.448 301.754 269.446 303.356 268.095 304.634C266.743 305.912 265.088 306.822 263.285 307.28C262.497 307.502 261.683 307.619 260.865 307.63ZM263.275 297.74C259.845 298.89 258.395 302.04 258.895 303.74C259.355 305.26 261.395 304.96 262.575 304.65C263.901 304.319 265.122 303.661 266.127 302.735C267.132 301.809 267.888 300.645 268.325 299.35C268.433 299.058 268.466 298.744 268.42 298.436C268.375 298.129 268.253 297.837 268.065 297.59C267.805 297.34 266.675 296.64 263.275 297.77V297.74Z" fill="#A03B29"/>
<path d="M262.234 216.32C275.114 217.18 294.494 221.32 310.704 244.76C326.914 268.2 344.814 265.31 347.194 276.61C349.574 287.91 321.194 327.1 309.674 332.12C302.264 332.12 275.444 309.19 257.594 308.3" fill="#21517C"/>
<path d="M264.545 219.86C270.725 225.33 280.005 266.94 280.605 277.86C294.605 291.92 321.705 308.63 331.255 308.86C340.805 309.09 346.775 285.32 340.155 271.39C333.535 257.46 281.905 212.56 264.545 219.86Z" fill="#2A669B"/>
<path d="M58.9332 481.34C58.0032 496.76 57.0732 513.72 56.0032 528.66H276.393C274.463 518.6 272.093 507.74 269.763 496.4C267.563 485.74 259.513 461.47 261.253 431.33C261.693 423.7 275.773 373.18 278.053 305.19C278.283 298.1 276.623 274.71 276.053 267.32L264.813 216.52C226.013 212.26 200.813 199 194.813 200.21C194.813 200.21 176.593 218.53 172.133 241.21C168.583 234.21 163.653 223.53 156.663 219.42C139.183 209.13 113.663 210.17 100.663 194.1C83.7632 208.02 45.0132 221.43 33.2632 226.23C21.5132 231.03 34.7632 288.93 42.6332 328.78C50.5032 368.63 61.3332 441.73 58.9332 481.34Z" fill="#21517C"/>
<path d="M52.1446 224.19C25.5646 223.14 -6.85543 249.55 -1.71543 294.86C-1.16543 299.62 -3.7154 306.92 -5.1854 310.54C-18.7654 343.88 48.4346 361.73 50.3246 340.46C50.5746 337.71 54.9446 320.21 61.3246 309.2" fill="#EF7154"/>
<path d="M35.0939 351.03C23.5139 351.03 8.09406 345.8 -1.04595 336.16C-8.39595 328.42 -10.276 319.38 -6.45598 310.02C-5.52598 307.73 -2.52598 299.88 -3.08598 295.02C-5.52598 273.63 0.223976 254.19 13.124 240.29C23.784 228.8 38.384 222.29 52.194 222.81C52.5584 222.826 52.9017 222.985 53.149 223.253C53.3963 223.521 53.5275 223.875 53.514 224.24C53.5089 224.421 53.4676 224.6 53.3925 224.765C53.3175 224.93 53.2102 225.078 53.077 225.201C52.9437 225.324 52.7873 225.419 52.6168 225.481C52.4462 225.543 52.265 225.57 52.0839 225.56C39.0839 225.06 25.264 231.26 15.144 242.16C2.804 255.47 -2.69599 274.16 -0.345994 294.71C0.264006 300.07 -2.63605 307.93 -3.90605 311.06C-8.16605 321.52 -3.61595 329.45 0.954055 334.26C9.84406 343.62 30.524 351.46 42.874 347.16C46.624 345.85 48.6641 343.56 48.9541 340.34C49.2041 337.52 53.544 319.88 60.114 308.51C60.2961 308.193 60.5963 307.962 60.9487 307.867C61.301 307.771 61.6769 307.819 61.994 308C62.3111 308.184 62.5426 308.486 62.6381 308.84C62.7337 309.194 62.6854 309.572 62.504 309.89C56.154 320.89 51.914 338.19 51.694 340.59C51.314 344.92 48.574 348.09 43.784 349.76C40.9769 350.658 38.0408 351.087 35.0939 351.03Z" fill="#A03B29"/>
<path d="M-14.3655 414.04C-21.7955 386.79 -20.4755 323.04 -2.3655 299.54C11.5545 284.11 49.8245 289.03 50.0845 314.75C50.5445 358.49 44.7945 401.34 29.4245 421.35" fill="#EF7154"/>
<path d="M29.3947 422.73C29.0899 422.732 28.7936 422.629 28.5547 422.44C28.2665 422.216 28.0784 421.888 28.0316 421.526C27.9847 421.165 28.083 420.799 28.3047 420.51C41.7747 402.97 49.1947 364.43 48.6847 314.76C48.5447 302.09 39.0147 296.6 33.3547 294.45C21.1247 289.82 5.90473 292.45 -1.33527 300.45C-9.33527 310.83 -14.6953 330.38 -16.5753 355.52C-18.1853 377.08 -16.7953 399.92 -13.0353 413.69C-12.9874 413.867 -12.9752 414.052 -12.9997 414.234C-13.0242 414.416 -13.0848 414.592 -13.1779 414.75C-13.2711 414.908 -13.3948 415.047 -13.5421 415.157C-13.6893 415.267 -13.857 415.346 -14.0353 415.39C-14.212 415.437 -14.3961 415.447 -14.577 415.422C-14.7579 415.397 -14.932 415.336 -15.0892 415.243C-15.2464 415.15 -15.3836 415.027 -15.4927 414.88C-15.6019 414.734 -15.681 414.567 -15.7253 414.39C-19.5553 400.34 -20.9853 377.14 -19.3553 355.28C-18.2453 340.4 -14.7053 313.28 -3.51533 298.69L-3.44526 298.61C4.61474 289.67 20.8447 286.77 34.2947 291.86C45.0647 295.94 51.2947 304.27 51.4047 314.72C51.6447 337.86 50.1147 359.46 46.9847 377.18C43.4147 397.42 37.8547 412.56 30.4647 422.18C30.3374 422.344 30.1757 422.479 29.9908 422.574C29.8059 422.669 29.6024 422.722 29.3947 422.73Z" fill="#A03B29"/>
<path d="M171.904 248.48C172.544 263.24 176.324 284.81 177.244 287.92C180.034 290.4 188.324 288.43 188.554 286.92C188.784 285.41 183.694 244.52 183.694 244.52" fill="#21517C"/>
<path d="M181.515 290.49C179.657 290.607 177.818 290.061 176.325 288.95L176.035 288.69L175.925 288.31C174.925 284.92 171.155 263.04 170.525 248.54C170.517 248.359 170.544 248.178 170.606 248.007C170.668 247.837 170.764 247.68 170.886 247.546C171.009 247.412 171.157 247.304 171.321 247.227C171.486 247.151 171.663 247.108 171.845 247.1C172.026 247.092 172.206 247.119 172.376 247.181C172.546 247.244 172.702 247.339 172.835 247.462C172.968 247.584 173.075 247.732 173.151 247.897C173.226 248.061 173.268 248.239 173.275 248.42C174.103 261.421 175.833 274.349 178.455 287.11C180.565 288.44 185.915 287.38 187.175 286.49C187.025 283.19 184.235 260.05 182.325 244.69C182.302 244.51 182.316 244.327 182.364 244.153C182.412 243.978 182.494 243.814 182.606 243.671C182.717 243.528 182.856 243.409 183.013 243.319C183.171 243.23 183.345 243.172 183.525 243.15C183.705 243.127 183.887 243.141 184.062 243.189C184.237 243.237 184.4 243.319 184.543 243.43C184.686 243.542 184.806 243.681 184.896 243.838C184.985 243.996 185.043 244.17 185.065 244.35C186.595 256.7 190.145 285.59 189.915 287.12C189.765 288.12 188.855 288.9 187.115 289.53C185.312 290.151 183.421 290.475 181.515 290.49Z" fill="#002D56"/>
<path d="M174.834 254.52C174.974 256.95 176.404 285.9 177.984 286.9C179.564 287.9 187.064 287.67 187.414 285.9C187.764 284.13 182.684 240.97 181.304 239.66C179.924 238.35 174.834 254.52 174.834 254.52Z" fill="#2A669B"/>
<path opacity="0.2" d="M174.965 243.94C178.405 235.89 181.715 231.65 184.305 231.42C186.895 231.19 203.365 248.8 205.595 248.08C207.825 247.36 209.755 220.78 208.755 214.99C206.755 227.4 199.325 228.82 195.515 223.64C191.705 218.46 187.515 212.89 182.635 217.14C177.755 221.39 175.565 238.29 174.965 243.94Z" fill="black"/>
<path opacity="0.2" d="M169.234 245.73C166.054 231.44 160.944 218.99 154.754 219.03C148.564 219.07 128.824 245.03 125.484 246.4C122.144 247.77 96.4844 209.4 96.4844 209.4C96.4844 209.4 121.684 253.57 126.694 253.3C131.704 253.03 150.254 234.23 153.584 233.51C156.914 232.79 166.394 239.37 169.234 245.73Z" fill="black"/>
<path d="M172.195 242.74C172.195 242.74 168.874 225.52 167.724 222.74C166.574 219.96 161.045 217.07 152.895 212.74C146.485 209.33 110.735 187.74 104.195 173.57C102.445 169.78 92.2645 192.13 91.7845 196.37C91.3045 200.61 123.935 253.32 126.545 250.06C140.645 232.45 152.544 221.25 155.334 222.11C158.124 222.97 167.075 233.54 169.535 247.31" fill="#21517C"/>
<path d="M102.954 175.54C101.954 173.49 95.0238 190.99 94.4238 194.25C97.4938 207.09 118.594 243.78 126.144 243.9C133.144 239.04 146.404 219.37 145.654 215.35C144.904 211.33 109.904 189.52 102.954 175.54Z" fill="#2A669B"/>
<path d="M205.034 243.17C207.924 241.61 211.034 209.17 209.934 205.85C208.834 202.53 196.144 178.85 191.754 178.95C193.364 193.37 184.144 214.72 178.384 218.53C175.474 220.45 170.385 242.13 172.315 251.77C172.855 254.48 180.474 223.36 183.414 223.28C190.564 223.06 202.394 244.61 205.034 243.17Z" fill="#21517C"/>
<path d="M103.304 174.6C106.754 184.47 130.854 202.98 165.744 220.79C168.274 225.41 170.414 240.79 170.414 240.79C170.414 240.79 161.504 219.43 155.304 219.86C149.104 220.29 128.974 245.97 126.614 246.4C124.254 246.83 117.614 238.48 117.614 238.48C117.614 238.48 123.614 242.33 126.194 241.26C128.774 240.19 146.644 219.46 142.514 215.59C138.384 211.72 98.8137 190.66 103.304 174.6Z" fill="#387BAD"/>
<path d="M193.984 183.66C194.134 190.73 185.424 217.66 181.584 218.27C177.744 218.88 175.294 225.41 173.084 243.9C175.674 234.35 179.514 222.42 183.484 221.72C187.024 221.1 202.484 239.23 204.744 238.46C207.004 237.69 209.744 212.55 208.564 206.74C205.254 197.4 193.954 181.94 193.984 183.66Z" fill="#2A669B"/>
<path d="M177.493 247.63C182.043 245.63 185.493 253.95 180.153 256.03C175.393 257.94 172.393 249.86 177.493 247.63Z" fill="#BFB8AC"/>
<path d="M178.774 257.69C177.719 257.642 176.701 257.285 175.847 256.663C174.993 256.04 174.342 255.18 173.974 254.19C173.64 253.481 173.453 252.713 173.424 251.93C173.395 251.147 173.524 250.367 173.805 249.635C174.085 248.904 174.51 248.237 175.055 247.674C175.599 247.111 176.252 246.664 176.974 246.36C177.747 246.009 178.601 245.876 179.444 245.977C180.286 246.077 181.085 246.407 181.754 246.93C182.641 247.637 183.332 248.559 183.759 249.61C184.186 250.661 184.336 251.805 184.194 252.93C184.065 253.908 183.67 254.833 183.053 255.603C182.436 256.373 181.62 256.96 180.694 257.3C180.084 257.548 179.433 257.681 178.774 257.69ZM178.884 248.69C178.593 248.691 178.307 248.756 178.044 248.88C177.658 249.049 177.31 249.296 177.023 249.604C176.735 249.912 176.512 250.275 176.369 250.672C176.226 251.068 176.165 251.49 176.19 251.911C176.215 252.331 176.325 252.743 176.514 253.12C176.984 254.25 178.094 255.36 179.654 254.74C180.126 254.585 180.545 254.299 180.86 253.914C181.176 253.53 181.375 253.063 181.434 252.57C181.514 251.926 181.43 251.272 181.191 250.669C180.951 250.066 180.564 249.534 180.064 249.12C179.73 248.85 179.314 248.701 178.884 248.7V248.69Z" fill="#756E63"/>
<path d="M180.114 248.46C176.814 246.88 174.114 251.46 176.784 254.52C175.694 251.99 178.664 248.52 180.114 248.46Z" fill="#FFF7EB"/>
<path d="M179.795 272.46C184.345 270.46 187.795 278.78 182.455 280.87C177.735 282.73 174.675 274.7 179.795 272.46Z" fill="#BFB8AC"/>
<path d="M181.075 282.52C180.018 282.476 178.999 282.12 178.144 281.497C177.29 280.874 176.639 280.012 176.275 279.02C175.943 278.312 175.757 277.544 175.728 276.762C175.7 275.98 175.83 275.201 176.11 274.471C176.39 273.741 176.815 273.075 177.359 272.512C177.902 271.95 178.554 271.504 179.275 271.199C180.046 270.847 180.9 270.713 181.743 270.811C182.586 270.91 183.385 271.238 184.055 271.76C184.941 272.467 185.631 273.39 186.059 274.441C186.486 275.491 186.636 276.634 186.495 277.76C186.365 278.736 185.97 279.659 185.353 280.428C184.736 281.197 183.92 281.782 182.995 282.12C182.386 282.376 181.735 282.512 181.075 282.52ZM181.185 273.52C180.896 273.524 180.61 273.585 180.345 273.699C179.958 273.87 179.611 274.118 179.323 274.427C179.035 274.735 178.813 275.099 178.669 275.497C178.526 275.894 178.466 276.316 178.49 276.738C178.515 277.16 178.626 277.572 178.815 277.949C179.285 279.079 180.385 280.19 181.945 279.57C182.42 279.415 182.841 279.127 183.158 278.741C183.475 278.355 183.675 277.886 183.735 277.39C183.817 276.749 183.738 276.097 183.504 275.494C183.27 274.891 182.888 274.357 182.395 273.94C182.048 273.674 181.622 273.533 181.185 273.54V273.52Z" fill="#756E63"/>
<path d="M182.395 273.29C179.095 271.71 176.395 276.29 179.055 279.36C177.995 276.83 180.965 273.35 182.395 273.29Z" fill="#FFF7EB"/>
<path d="M194.854 183.24C197.124 195.01 190.434 219.47 189.004 219.82C187.574 220.17 186.354 217.97 186.444 216.27C186.534 214.57 191.994 197.36 194.854 183.24Z" fill="#387BAD"/>
<path d="M53.6133 218.27C43.2433 222.32 28.0434 224.97 17.7734 233.27C7.50339 241.57 -3.75665 251.12 -7.13665 269.55C-10.4066 287.37 -16.1366 310.62 -19.5066 324.32C-24.0066 328.09 -23.9566 338.8 -23.9966 340.78C-24.1466 347.62 -19.2366 345.6 -19.2366 345.6C-19.2366 345.6 -7.09661 341.1 17.1534 346.25C41.4034 351.4 53.3933 363.78 52.3333 368.25C57.1833 371.39 59.8234 365.66 59.8234 358.65C59.8234 351.64 77.0434 306.26 77.0434 306.26" fill="#21517C"/>
<path d="M78.7042 300.47C83.3242 303.6 93.9441 290.16 96.4641 292.85C98.9841 295.54 87.3042 313.37 81.6842 318.75C76.0642 324.13 79.8341 374.06 86.9941 413.94C94.1541 453.82 94.9941 470.88 95.2141 483.84C95.4341 496.8 157.344 520.26 186.114 524.17C141.834 528.17 104.364 504.9 96.4641 511.78C93.4641 514.36 91.2742 521.13 89.7942 528.66H208.864C208.334 518.66 209.524 507.42 212.814 500.72C193.814 493.98 168.814 467.53 174.614 443.15C180.414 418.77 206.614 405.88 214.464 390.76C222.314 375.64 268.394 297.29 271.464 276.32C273.834 260.03 270.464 226.32 263.894 219.24C243.514 217.24 213.394 207.41 213.394 207.41C212.674 211.83 212.954 237.46 205.614 251.79C198.614 247.69 191.154 239.79 187.954 239.79C184.754 239.79 193.204 285.4 190.704 288.79C188.204 292.18 177.464 293.21 174.854 290.18C172.244 287.15 169.254 250.18 167.414 247.31C164.314 242.52 153.914 237.95 150.124 240.76C146.334 243.57 131.894 258.33 126.124 257.5C120.354 256.67 98.5842 213.62 90.6742 204.87C77.1242 212.87 36.0742 227.42 36.0742 227.42C67.6342 257.7 74.0742 297.34 78.7042 300.47Z" fill="#2A669B"/>
<path d="M212.275 98.8099C215.065 95.2999 219.025 89.6598 224.275 92.9598C229.525 96.2598 226.895 112.08 222.405 117.96C217.915 123.84 217.885 126.12 215.695 128.09C213.505 130.06 208.075 129.35 207.625 125.83" fill="#EA6B4E"/>
<path d="M215.393 105.14C216.773 100.91 221.063 97.84 222.693 98.48C224.323 99.12 223.933 105.92 223.933 105.92C223.933 105.92 223.293 102.44 221.313 103.73C219.333 105.02 214.913 109.49 217.103 111.97C219.293 114.45 216.033 118.37 214.023 119.82C216.623 115.18 212.643 113.67 215.393 105.14Z" fill="#C6472E"/>
<path d="M104.983 66.7597C104.327 74.5599 105.214 82.4131 107.593 89.8705C109.972 97.3279 113.798 104.243 118.85 110.222C123.903 116.201 130.085 121.125 137.041 124.714C143.997 128.303 151.593 130.487 159.393 131.14C192.193 133.89 218.283 107.36 221.033 74.56C223.783 41.76 202.243 14.1601 169.443 11.4101C136.643 8.66006 108.153 28.9397 104.983 66.7597Z" fill="#EF7154"/>
<path d="M164.015 132.71C162.445 132.71 160.865 132.65 159.275 132.51C151.289 131.862 143.512 129.637 136.392 125.964C129.272 122.291 122.951 117.242 117.795 111.11C112.608 105.005 108.684 97.9324 106.248 90.301C103.812 82.6696 102.914 74.631 103.605 66.6501C105.155 48.2301 112.605 33.0703 125.245 22.8103C137.095 13.1703 152.835 8.64027 169.555 10.0403C202.555 12.8103 225.265 40.5902 222.415 74.6702C221.2 90.8167 214.08 105.95 202.415 117.18C192.104 127.127 178.341 132.692 164.015 132.71ZM163.635 12.55C149.775 12.55 136.935 16.8599 126.985 24.9499C114.985 34.7299 107.835 49.2301 106.355 66.8801C105.694 74.5003 106.551 82.176 108.877 89.4626C111.203 96.7493 114.951 103.502 119.905 109.33C124.825 115.187 130.859 120.009 137.657 123.518C144.454 127.026 151.88 129.152 159.505 129.77C166.984 130.401 174.511 129.426 181.583 126.909C188.654 124.393 195.105 120.394 200.505 115.18C211.675 104.416 218.486 89.911 219.635 74.4402C222.365 41.9302 200.715 15.4403 169.295 12.7903C167.395 12.6303 165.515 12.55 163.635 12.55Z" fill="#A03B29"/>
<path d="M215.325 41.4102C223.805 54.5702 222.915 73.0099 218.865 91.1699C215.435 106.57 215.575 116.96 214.235 121.6C212.895 126.24 209.345 146.09 203.035 154.46C198.645 160.28 188.035 171.92 179.035 176.71C173.545 179.63 158.035 178.48 149.655 172.55C144.175 168.64 124.005 153.9 119.445 140.98C115.195 128.98 116.875 103.69 116.555 87.73" fill="#EF7154"/>
<path d="M206.115 49.0898C221.655 61.0898 216.445 88.5198 214.415 102.09C212.985 111.61 213.795 117.19 212.985 121.3C211.715 127.6 205.655 147.96 201.205 153.96C196.905 159.76 184.455 169.62 178.295 174.02C173.885 177.18 159.865 175.09 155.295 171.45C146.785 164.75 136.295 155.36 130.045 142.79C126.045 134.79 128.335 109.32 129.095 95.46C130.425 71 140.225 48.7501 155.355 43.1201C172.005 47.7001 180.725 49.3098 206.115 49.0898Z" fill="#FD9673"/>
<path opacity="0.5" d="M161.544 153.68C164.494 155.07 173.834 157.3 179.544 156.2C179.634 157.34 174.544 163.27 169.544 162.05C164.544 160.83 161.394 155.53 161.544 153.68Z" fill="#967463"/>
<path d="M167.394 77.2395C169.244 78.2395 172.144 84.6795 171.644 85.2395C171.144 85.7995 166.264 81.8297 165.084 81.4197C163.004 80.6997 145.004 77.5696 143.254 77.2996C141.024 76.9596 132.514 79.0196 132.644 77.8196C132.774 76.6196 140.424 71.4495 145.294 72.1995C150.164 72.9495 165.554 76.2295 167.394 77.2395Z" fill="#422622"/>
<path d="M147.294 73.9898C145.962 73.5955 144.552 73.5429 143.194 73.8365C141.836 74.1301 140.574 74.7606 139.524 75.67C137.934 76.84 142.124 76 145.974 76.67C149.824 77.34 164.904 80.6102 165.574 79.1002C166.244 77.5902 149.394 74.6398 147.294 73.9898Z" fill="#211515"/>
<path d="M193.545 81.7698C192.075 82.3898 188.615 87.2596 188.955 88.1096C189.295 88.9596 192.875 86.2296 194.725 86.1096C196.575 85.9896 211.575 86.7699 212.725 86.8499C214.365 86.9699 217.795 90.0995 217.975 89.2795C218.215 88.1695 215.645 81.7095 212.065 81.4495C208.485 81.1895 195.015 81.1498 193.545 81.7698Z" fill="#422622"/>
<path d="M194.554 83.7098C193.854 84.9498 209.704 85.0298 211.344 85.1698C212.984 85.3098 215.754 87.0596 215.834 86.4696C215.914 85.8796 213.834 82.7796 210.964 82.4696C208.094 82.1596 194.984 82.9398 194.554 83.7098Z" fill="#211515"/>
<path d="M189.583 123.74C187.583 122.28 182.424 123.37 180.384 124.65C178.344 125.93 174.903 125.36 173.583 123.79C172.263 122.22 167.234 120.42 165.114 120.67C162.994 120.92 161.484 122.46 162.314 122.99C163.144 123.52 171.314 126.36 172.984 128.06C174.654 129.76 174.314 133.16 175.784 132.89C176.224 132.81 178.914 129.57 180.144 128.6C181.904 127.2 191.953 127.59 189.583 123.74Z" fill="#EF7154"/>
<path d="M182.395 125.46C182.685 124.74 186.915 123.09 188.515 123.87C190.115 124.65 188.465 125.96 186.645 125.62C184.825 125.28 182.035 126.42 182.395 125.46Z" fill="#9E422A"/>
<path d="M170.933 124.28C170.473 122.89 167.783 121.38 165.933 121.28C164.083 121.18 163.403 123.34 164.823 123.46C166.243 123.58 171.173 125.03 170.933 124.28Z" fill="#9E422A"/>
<path d="M182.123 116.49C182.123 116.49 185.543 118.49 183.323 120.75C178.863 125.38 178.563 114.08 182.123 116.49Z" fill="#FFB797"/>
<path d="M203.943 92.2499C207.113 92.9399 214.113 97.9399 214.943 101.02C211.733 104.85 208.233 105.61 200.443 105.12C192.653 104.63 189.923 103.01 188.003 103.19C182.943 103.67 186.503 101.12 188.573 98.0599C190.643 94.9999 199.393 91.2499 203.943 92.2499Z" fill="#D35A3F"/>
<path d="M188.003 99.9397C194.733 92.2797 206.703 93.4196 213.583 101.05C211.193 103.96 199.583 106.53 189.223 101.51C187.893 101.94 186.693 101.29 188.003 99.9397Z" fill="#F9C0C0"/>
<path d="M189.795 101.2C193.795 95.2696 207.095 95.75 211.425 101.56C208.195 103.45 196.085 105.4 189.795 101.2Z" fill="#FFFCF8"/>
<path d="M204.473 95.4102C206.473 97.8702 204.873 103.72 198.803 103.82C192.733 103.92 190.603 97.72 193.163 95.25C195.483 93.01 203.543 94.2802 204.473 95.4102Z" fill="#4A665C"/>
<path d="M200.054 98.04C201.343 98.9196 202.496 99.9841 203.474 101.2C203.724 101.95 201.244 103.93 197.654 103.53C194.064 103.13 192.894 100.58 192.914 100.02C192.934 99.46 196.604 98.02 196.604 98.02" fill="#6D897D"/>
<path d="M198.815 95.0801C202.815 95.0201 203.275 100.59 198.885 100.91C194.495 101.23 193.975 95.1501 198.815 95.0801Z" fill="#101C23"/>
<path d="M194.614 99.4302C194.164 98.6302 196.434 97.68 196.514 98.96C196.594 100.24 195.394 100.74 194.614 99.4302Z" fill="#FFFCF8"/>
<path d="M186.104 100.39C188.554 97.9099 190.104 95.7199 193.594 94.1399C197.084 92.5599 203.704 93.0696 206.914 94.2996C210.21 95.6934 213.23 97.6646 215.834 100.12C213.332 96.4288 209.576 93.771 205.264 92.6399C202.504 91.8399 197.534 91.1299 194.154 92.8899C190.811 94.5728 188.018 97.1747 186.104 100.39Z" fill="#9E422A"/>
<path d="M213.584 101.08C213.584 101.08 209.584 97.0797 206.854 96.1497C204.124 95.2197 196.244 94.8596 193.164 96.3196C191.09 97.5103 189.134 98.8967 187.324 100.46C187.324 100.46 190.684 95.4596 192.324 94.2796C194.874 92.4996 202.954 92.2799 206.414 93.8099C209.595 95.3008 212.137 97.8792 213.584 101.08Z" fill="#160907"/>
<path d="M189.395 102.76C192.595 101.04 206.395 101.83 210.005 103.38C206.615 106.62 189.395 102.76 189.395 102.76Z" fill="#D35A3F"/>
<path d="M207.085 104.04C203.175 102.79 192.525 101.27 188.565 104.04C184.605 106.81 204.285 111.19 207.945 109.04C211.605 106.89 207.885 104.3 207.085 104.04Z" fill="#FD9673"/>
<path d="M151.014 85.2397C142.734 84.5497 138.684 88.47 137.014 91.35C140.546 95.8026 145.634 98.7507 151.254 99.6C159.854 100.72 162.784 99.3401 165.074 99.6601C170.304 100.39 167.144 96.9999 165.584 93.4999C164.024 89.9999 159.604 85.9397 151.014 85.2397Z" fill="#D35A3F"/>
<path d="M166.394 97.2196C168.294 97.6696 167.274 99.6496 165.394 98.9496C163.514 98.2496 159.284 99.3797 152.584 98.5097C145.034 97.5097 138.584 91.6298 138.584 91.6298C138.584 91.6298 143.314 87.6298 153.144 88.9198C162.974 90.2098 166.394 97.2196 166.394 97.2196Z" fill="#F9C0C0"/>
<path d="M164.864 97.5897C160.864 90.2797 144.414 87.9199 140.414 91.8299C144.244 97.3899 160.274 99.5797 164.864 97.5897Z" fill="#FFFCF8"/>
<path d="M157.643 90.0803C159.413 92.7903 157.193 98.4901 151.083 97.9001C144.973 97.3101 143.473 90.8201 146.303 88.6301C148.883 86.6301 156.833 88.8303 157.643 90.0803Z" fill="#4A665C"/>
<path d="M152.933 92.23C154.14 93.2668 155.191 94.4727 156.053 95.8101C156.223 96.5901 153.523 98.29 149.963 97.48C146.403 96.67 145.483 93.9599 145.563 93.3999C145.643 92.8399 149.463 91.8198 149.463 91.8198" fill="#6D897D"/>
<path d="M151.774 88.7999C155.834 89.1999 155.684 94.85 151.234 94.69C146.784 94.53 146.914 88.3199 151.774 88.7999Z" fill="#101C23"/>
<path d="M147.334 93.0098C146.964 92.1398 149.334 91.45 149.334 92.75C149.334 94.05 147.944 94.3998 147.334 93.0098Z" fill="#FFFCF8"/>
<path d="M168.254 96.06C166.213 93.1704 163.636 90.6988 160.664 88.7797C157.374 86.6997 150.984 85.6098 147.544 86.3198C142.334 87.3998 134.834 89.2499 134.834 89.2499C138.974 85.3099 146.544 85.3199 149.464 84.9599C153.515 84.7502 157.532 85.798 160.964 87.9599C164.017 90.0264 166.519 92.807 168.254 96.06Z" fill="#9E422A"/>
<path d="M166.394 97.2195C166.394 97.2195 162.684 92.7595 159.554 91.2195C156.424 89.6795 149.894 88.3099 146.174 88.8899C143.426 89.438 140.761 90.3385 138.244 91.5696C140.332 89.9262 142.527 88.4229 144.814 87.0696C148.644 85.3096 156.564 86.1399 160.154 88.4099C163.744 90.6799 166.394 97.2195 166.394 97.2195Z" fill="#160907"/>
<path d="M141.943 95.02C145.533 94.29 160.113 97.1802 162.493 99.4302C153.753 100.41 144.673 96.86 141.943 95.02Z" fill="#D35A3F"/>
<path d="M141.935 96.0899C146.025 95.5499 159.825 97.74 163.265 101.17C166.705 104.6 142.115 103.56 138.875 100.8C135.635 98.0399 141.095 96.1999 141.935 96.0899Z" fill="#FD9673"/>
<path d="M152.654 123.29C150.484 123.84 141.534 126.43 140.574 130.5C139.614 134.57 144.894 143.71 144.894 143.71C144.894 143.71 141.704 134.06 143.394 131.22C145.084 128.38 152.654 123.29 152.654 123.29Z" fill="#EF7154"/>
<path d="M193.625 128.39C195.625 129.33 202.955 134.39 203.155 138.55C203.355 142.71 197.505 149.9 197.505 149.9C197.505 149.9 202.325 141.9 201.185 138.83C200.045 135.76 193.625 128.39 193.625 128.39Z" fill="#EF7154"/>
<path d="M193.215 141.19C189.095 139.79 180.795 136.11 178.645 135.78C176.495 135.45 175.215 136.02 173.885 135.78C172.555 135.54 170.975 134.46 169.205 134.24C161.775 133.34 151.295 133.95 148.625 133.59C151.165 135.59 166.915 138.17 168.705 139.08C171.387 140.291 174.314 140.863 177.255 140.75C179.905 140.44 190.295 142.52 193.215 141.19Z" fill="#DB4E48"/>
<path d="M192.393 143.76C189.173 145.14 182.253 153.43 170.553 151.51C158.853 149.59 151.483 137.41 148.613 135.82C153.863 138.06 161.763 142.87 171.613 144.68C181.463 146.49 192.393 143.76 192.393 143.76Z" fill="#EC685D"/>
<path d="M162.904 145.33C165.384 144.54 169.554 147.27 168.904 148.33C168.124 149.65 160.254 146.18 162.904 145.33Z" fill="#F47973"/>
<path d="M145.653 133.33C145.403 132.93 146.503 132.69 149.553 133.74C152.273 134.68 165.283 136.74 173.963 138.35C180.328 139.62 186.753 140.568 193.213 141.19C196.273 141.36 197.213 141.36 197.123 141.73C197.053 142.58 193.363 143.4 190.033 144.52C185.813 145.93 181.713 148.34 172.373 147.02C163.033 145.7 147.033 135.47 145.653 133.33Z" fill="#A5312B"/>
<path d="M158.685 141.72C157.962 141.102 157.349 140.365 156.875 139.54C162.955 142.27 176.735 144.81 184.075 144.7C183.458 145.295 182.758 145.798 181.995 146.19C177.595 147.5 168.795 147.24 158.685 141.72Z" fill="#FFCBBE"/>
<path d="M154.215 135.99C154.576 136.887 155.153 137.68 155.895 138.3C161.835 141.3 178.585 144.21 185.805 143.3C186.262 143.193 186.682 142.964 187.019 142.636C187.355 142.308 187.596 141.894 187.715 141.44C180.635 140.32 168.875 137.74 154.215 135.99Z" fill="#FFCBBE"/>
<path d="M153.294 135.28C153.294 135.28 150.064 134.35 148.794 133.82C147.794 133.39 146.494 132.89 146.434 133.53C146.374 134.17 147.013 134.33 148.523 135.14C150.033 135.95 155.393 139.99 155.393 139.99C155.393 139.99 150.744 135.94 153.294 135.28Z" fill="#721614"/>
<path d="M188.393 141.53C191.313 141.66 194.133 141.53 195.393 141.53C197.003 141.53 196.043 141.79 195.113 142.35C193.183 143.52 191.623 143.42 186.113 145.15C188.793 143.54 188.393 141.53 188.393 141.53Z" fill="#721614"/>
<path d="M159.684 137.67C159.818 138.397 160.195 139.056 160.754 139.54C164.104 141.54 179.394 143.68 182.114 143.03C182.59 142.701 182.942 142.223 183.114 141.67C176.864 140.63 159.684 137.67 159.684 137.67Z" fill="#F9EFED"/>
<path d="M147.324 38.37C137.784 42.37 125.234 62.7196 124.404 68.1996C121.934 84.4996 122.924 104.64 122.404 106C121.884 107.36 120.834 106.2 120.034 106C118.374 105.53 116.474 91.5 111.734 87.12C106.994 82.74 104.574 81.7499 104.574 81.7499C104.574 81.7499 100.574 62.5498 103.064 45.4198C105.364 29.4698 121.504 17.7099 128.154 18.5199C133.154 17.5699 150.704 36.94 147.324 38.37Z" fill="#211515"/>
<path d="M216.033 60.3301C218.383 63.7901 221.183 79.8401 219.303 89.1401C217.423 98.4401 214.983 112.3 215.303 114.23C218.003 110.74 222.783 92.0898 222.783 92.0898C222.783 92.0898 233.533 67.0099 226.783 44.9199C220.033 22.8299 198.633 8.24001 176.503 7.27001C181.543 5.20425 187.174 5.10406 192.283 6.98974C178.853 0.989738 159.493 1.08993 150.913 9.68993C152.273 7.48968 154.054 5.58038 156.155 4.07177C158.255 2.56316 160.634 1.48502 163.153 0.899894C148.893 0.739894 129.383 13.8099 130.503 18.4399C131.623 23.0699 149.313 34.9101 153.253 37.6201C164.693 41.8701 182.313 46.7001 200.253 45.0801C210.733 44.0801 215.253 49.6899 215.253 49.6899C209.253 46.0199 204.953 47.6899 204.953 47.6899C211.113 47.3799 219.173 59.9698 220.663 67.7798C219.543 64.2898 216.033 60.3301 216.033 60.3301Z" fill="#211515"/>
<path d="M129.744 18.7099C120.384 15.7099 109.844 24.7099 107.794 26.4199C116.114 23.4199 122.334 20.7898 127.694 22.6498C113.234 23.8398 105.854 29.4198 102.004 37.6498C106.754 29.8698 127.464 25.1699 127.464 25.1699" fill="#211515"/>
<path d="M176.645 6.08008C191.895 5.37008 203.375 10.23 206.055 19C208.835 14 196.265 5.54 180.865 3.75" fill="#211515"/>
<path d="M131.835 20.6899C126.835 17.4599 125.835 14.2097 133.115 6.98975C128.705 11.5797 128.245 19.0599 133.275 19.6299" fill="#211515"/>
<path d="M144.594 27.6299C144.594 27.6299 151.734 24.83 158.704 25.79C158.704 25.79 148.534 26.9001 147.134 33.3101C156.554 43.7301 182.384 44.7801 205.134 37.6001C191.954 40.2301 171.714 40.5999 160.254 32.1699C178.074 38.1699 198.804 33.1699 207.104 22.8799C207.104 22.8799 191.854 24.3299 178.684 20.1099C188.984 20.1099 201.684 20.2898 207.994 18.5498C199.574 7.0398 171.244 6.22978 157.824 13.0298C163.783 8.10633 171.044 5.01847 178.724 4.14014C158.454 1.25014 148.384 2.39986 144.964 18.3599C143.224 13.9299 144.134 4.46 156.214 0C137.964 4.13 133.344 13.5399 136.594 21.1299C136.594 21.1299 136.894 17.9201 139.894 12.8301C139.894 12.8301 138.994 15.7501 141.004 22.8301C146.914 17.9401 155.224 18.2397 155.224 18.2397C152.849 18.8824 150.655 20.0643 148.811 21.6929C146.968 23.3214 145.525 25.3529 144.594 27.6299Z" fill="#422622"/>
<path d="M198.824 33.4698C211.694 34.1998 223.564 48.6801 224.554 53.5601C225.294 40.6501 216.314 31.2902 207.244 30.1402C219.774 30.6102 226.244 37.7399 228.824 43.3999C225.454 32.3999 213.714 25.6999 210.504 26.0899C207.244 30.1399 198.824 33.4698 198.824 33.4698Z" fill="#422622"/>
<path d="M188.504 24.1099C199.724 25.5099 211.444 19.4998 216.154 18.0498C208.424 24.2598 198.284 26.8799 198.284 26.8799" fill="#422622"/>
<path d="M130.243 20.5402C126.793 17.4402 118.703 18.39 113.243 22.4C119.763 20.7 127.693 22.65 127.693 22.65C117.573 23.04 113.283 26.8503 109.483 30.3903C114.138 28.9649 118.873 27.8158 123.663 26.9498C108.313 32.2298 103.063 44.4201 102.663 53.2101C102.263 62.0001 105.443 77.9999 107.033 80.4899C107.033 66.9999 105.153 51.0502 117.423 39.5602C110.813 50.4002 110.193 52.6701 110.203 68.5001C112.253 51.9201 120.523 43.05 143.663 36.38C140.363 32.43 127.863 32.8099 122.663 35.5499C127.825 33.1756 133.432 31.9282 139.113 31.8903C136.673 28.0303 127.283 26.4498 127.283 26.4498C132.223 24.6698 134.743 25.0499 134.743 25.0499C133.651 23.1884 132.102 21.6364 130.243 20.5402Z" fill="#422622"/>
<path d="M218.725 48.7397C222.625 59.0097 225.315 70.5901 222.895 80.1201C227.995 69.5401 229.615 60.9397 218.725 48.7397Z" fill="#422622"/>
<path d="M124.393 52.0498C119.323 52.8098 109.903 64.8802 109.693 79.9302C112.563 69.4602 124.013 62.4497 124.013 62.4497C121.463 60.3497 116.593 64.8701 116.593 64.8701C118.89 60.4194 121.496 56.1352 124.393 52.0498Z" fill="#422622"/>
<path d="M117.843 73.5801C115.023 80.9001 112.683 86.77 118.473 97.75C117.963 82.35 117.843 73.5801 117.843 73.5801Z" fill="#422622"/>
<path d="M200.925 14.07C179.745 12.15 170.805 18.07 170.805 18.07C177.695 21.35 183.065 23.41 195.545 24.26C177.835 30.49 159.985 23.9103 154.415 22.8103C156.859 19.0543 160.133 15.9102 163.985 13.6203C155.125 14.9203 146.295 19.4402 146.295 19.4402C162.915 3.75016 192.705 8.69004 200.925 14.07Z" fill="#5E3733"/>
<path d="M196.305 16.0098C208.405 17.7398 215.975 15.3701 215.975 15.3701C209.485 19.9701 196.565 19.7197 196.565 19.7197" fill="#422622"/>
<path d="M172.223 0.75003C164.583 0.15003 151.543 2.75017 147.613 15.8902C158.393 6.82017 164.593 0.0400297 172.223 0.75003Z" fill="#5E3733"/>
<path d="M146.955 1.56006C138.525 8.15006 139.155 16.9998 143.955 19.8398C141.675 13.1798 142.275 5.54006 146.955 1.56006Z" fill="#5E3733"/>
<path d="M132.624 21.6C128.284 17.18 122.384 15.6901 116.164 20.6601C122.974 19.2501 132.624 21.6 132.624 21.6Z" fill="#5E3733"/>
<path d="M131.803 23.6997C125.283 20.4197 121.393 22.2897 115.943 27.5097C121.124 25.8325 126.426 24.5587 131.803 23.6997Z" fill="#5E3733"/>
<path d="M132.394 29.0402C124.574 25.5702 109.944 31.3602 105.494 47.2302C115.394 35.5002 121.494 33.2299 124.594 31.9499C116.444 39.5599 114.804 44.06 112.044 54.3C117.114 43.03 133.334 33.21 139.604 34.3C128.544 33.71 123.824 37.6403 123.824 37.6403C125.509 33.8056 128.565 30.7383 132.394 29.0402Z" fill="#5E3733"/>
<path d="M146.854 28.8799C153.854 39.0299 197.664 38.0201 215.674 11.5601C201.284 31.7801 167.324 39.0997 148.674 27.7397C146.484 27.2897 146.854 28.8799 146.854 28.8799Z" fill="#663E35"/>
<path d="M144.254 26.94C139.784 16.62 181.194 8.34017 198.394 15.6202C179.464 8.55017 139.394 12.6801 142.924 26.2901C143.584 27.5601 144.254 26.94 144.254 26.94Z" fill="#7C4F41"/>
<path d="M141.534 30.3397C142.924 26.3397 113.534 25.21 101.254 40.64C110.674 31.34 128.154 25.9397 141.534 30.3397Z" fill="#7C4F41"/>
<path d="M137.074 24.8303C137.314 22.0603 126.614 14.9502 117.564 15.5402C124.984 14.8002 135.884 25.9403 137.074 24.8303Z" fill="#7C4F41"/>
<path d="M116.685 98.2099C114.685 86.0599 107.685 78.4997 99.2446 81.0497C95.5446 82.7797 94.7646 97.7297 97.6046 103.55C100.445 109.37 103.365 111.18 106.035 117.08C108.705 122.98 116.825 125.93 118.775 118.4" fill="#EF7154"/>
<path d="M100.884 81.9397C102.884 81.2497 110.004 80.6999 113.884 91.6199C113.474 93.0699 111.724 94.7799 110.604 93.1399C105.834 84.7699 100.024 82.1497 100.884 81.9397Z" fill="#FD9673"/>
<path d="M103.335 86.6997C107.335 87.9897 114.015 99.55 111.945 102.48C109.875 105.41 109.445 104.02 108.825 106.59C108.205 109.16 112.115 112.59 112.115 112.59C112.115 112.59 105.565 107.51 106.045 104.59C106.525 101.67 110.755 98.6697 108.195 95.1997C105.635 91.7297 102.115 93.4601 102.365 96.1201C102.615 98.7801 103.485 105.55 103.485 105.55C103.485 105.55 98.955 96.8198 99.095 92.0898C99.235 87.3598 102.335 86.3797 103.335 86.6997Z" fill="#CC503B"/>
<path d="M33.4832 227.72C23.3032 230.58 5.38317 240.34 -2.62683 262.52C-9.62683 281.91 -12.4568 312.73 -15.9668 321.39C-3.5568 319.52 25.2432 318.77 48.1932 338.23C51.7032 334.74 67.4532 297.94 63.6532 277.48C59.8532 257.02 38.9232 228.66 33.4832 227.72Z" fill="#2A669B"/>
</g>
<defs>
<clipPath id="clip0_8_14322">
<rect width="246.68" height="246.68" fill="white" transform="translate(33 82)"/>
</clipPath>
</defs>
</svg>
