<svg width="313" height="329" viewBox="0 0 313 329" fill="none" xmlns="http://www.w3.org/2000/svg">
<g clip-path="url(#clip0_8_14324)">
<path d="M243.56 292.551C291.727 244.383 291.727 166.289 243.56 118.122C195.393 69.9544 117.298 69.9541 69.1305 118.121C20.9633 166.289 20.9635 244.383 69.1308 292.551C117.298 340.718 195.392 340.718 243.56 292.551Z" fill="#FBAE17"/>
<path d="M156.341 316.38C217.666 316.38 267.381 266.665 267.381 205.34C267.381 144.014 217.666 94.2998 156.341 94.2998C95.0151 94.2998 45.3008 144.014 45.3008 205.34C45.3008 266.665 95.0151 316.38 156.341 316.38Z" fill="#1B1464"/>
</g>
<mask id="mask0_8_14324" style="mask-type:alpha" maskUnits="userSpaceOnUse" x="0" y="-19" width="313" height="336">
<path fill-rule="evenodd" clip-rule="evenodd" d="M24 -19H292V162H258.64C264.224 175.249 267.31 189.809 267.31 205.09C267.31 266.415 217.596 316.13 156.27 316.13C94.9448 316.13 45.2305 266.415 45.2305 205.09C45.2305 189.809 48.3171 175.249 53.9008 162H24V-19Z" fill="#22B573"/>
</mask>
<g mask="url(#mask0_8_14324)">
<path d="M208.612 123.611C207.212 129.241 206.512 138.431 205.672 140.071C204.832 141.711 199.572 144.251 199.562 144.071C199.552 143.891 198.802 118.021 198.872 117.541" fill="#110A07"/>
<path d="M201.051 159.981C204.051 160.761 215.241 168.041 217.101 174.371C218.961 180.701 220.531 212.771 193.511 221.901C166.491 231.031 116.561 222.301 113.041 210.111C109.521 197.921 117.241 179.631 125.911 172.261C134.581 164.891 188.431 156.761 201.051 159.981Z" fill="#CCC8C0"/>
<path d="M202.001 113.43C201.361 142.25 203.221 173.21 209.921 183.66C216.621 194.11 244.471 219.661 281.091 228.811C244.671 290.341 72.011 275.341 74.671 221.061C86.111 216.161 119.511 207.21 124.451 198.37C129.391 189.53 128.741 177.541 129.721 156.971C130.701 136.401 198.991 87.4505 202.001 113.43Z" fill="#F57E5B"/>
<path d="M198.922 114.051C198.362 147.051 201.842 175.131 206.922 183.751C217.492 201.511 243.532 216.931 252.002 220.751C234.352 216.161 180.262 231.331 171.362 228.551C181.472 213.341 187.482 167.551 184.742 166.321C182.002 165.091 152.352 194.031 145.572 192.461C138.342 190.791 128.972 167.651 128.972 167.651C126.782 137.341 196.672 90.1508 198.922 114.051Z" fill="#E96B46"/>
<path d="M171.671 186.461C173.861 187.931 166.541 219.631 160.931 223.461C146.571 227.341 133.241 223.461 131.151 213.211C130.041 210.581 129.741 188.791 130.751 186.661C131.761 184.531 140.521 200.241 143.811 200.801C147.101 201.361 169.491 184.981 171.671 186.461Z" fill="#FD9F76"/>
<path d="M271.113 244.631C284.703 260.211 284.393 297.421 270.283 334.631C256.283 371.521 222.503 404.201 223.103 425.321C226.053 431.111 231.343 462.001 225.333 474.691C217.043 492.191 151.943 500.431 124.103 496.481C97.5629 492.711 77.2329 481.881 73.7429 467.791C70.2029 453.511 65.4129 429.481 73.7429 402.791C69.7429 379.391 68.2029 325.171 62.4029 313.611C58.6129 305.611 55.1029 297.081 53.8529 288.611C49.1129 256.331 56.023 224.971 75.253 218.511C80.7229 216.681 95.253 229.771 102.573 229.321" fill="#F57E5B"/>
<path d="M140.532 499.001C134.969 499.05 129.409 498.716 123.892 498.001C95.6121 494.001 75.8321 482.56 72.2721 468.18C68.3821 452.53 64.1621 428.74 72.1721 402.68C70.6321 393.49 69.4822 380.051 68.2622 365.821C66.3822 343.821 64.4321 321.071 61.0221 314.281C57.6821 307.281 53.6921 298.031 52.3321 288.791C49.9021 272.281 50.5221 256.17 54.0821 243.43C58.0021 229.38 65.1421 220.261 74.7521 217.031C78.1721 215.891 83.2721 218.8 89.1821 222.18C93.9221 224.89 99.2822 227.951 102.452 227.761C102.651 227.747 102.851 227.773 103.04 227.837C103.229 227.901 103.404 228.002 103.553 228.135C103.703 228.267 103.825 228.427 103.913 228.607C104 228.786 104.051 228.981 104.062 229.18C104.076 229.38 104.05 229.58 103.985 229.769C103.921 229.958 103.82 230.132 103.688 230.282C103.556 230.432 103.396 230.554 103.216 230.641C103.037 230.728 102.841 230.779 102.642 230.791C98.5821 231.051 93.0321 227.881 87.6421 224.791C83.0421 222.151 77.8121 219.171 75.6421 219.881C64.7621 223.531 59.4621 235.13 56.9221 244.22C53.4821 256.55 52.9222 272.221 55.2622 288.311C56.5522 297.151 60.4321 306.1 63.6721 312.91C67.3321 320.2 69.3021 343.251 71.2121 365.531C72.4421 379.881 73.6021 393.431 75.1421 402.531C75.2018 402.76 75.2018 403.001 75.1421 403.231C67.2221 428.711 71.3721 452.08 75.1421 467.45C78.3521 480.4 97.6221 491.22 124.232 494.99C138.232 496.99 161.302 495.831 181.702 492.151C205.052 487.941 220.432 481.341 223.882 474.061C229.542 462.111 224.652 431.881 221.672 426.061C221.567 425.863 221.509 425.644 221.502 425.421C221.162 413.481 231.042 398.49 242.502 381.14C251.862 366.95 262.502 350.87 268.802 334.14C275.562 316.3 279.362 297.621 279.512 281.531C279.652 265.651 276.242 252.911 269.912 245.651C269.78 245.5 269.678 245.325 269.614 245.136C269.549 244.947 269.522 244.746 269.535 244.547C269.548 244.347 269.601 244.151 269.689 243.972C269.778 243.792 269.901 243.632 270.052 243.501C270.358 243.237 270.755 243.104 271.158 243.133C271.561 243.161 271.936 243.347 272.202 243.651C286.202 259.721 285.982 297.37 271.642 335.22C265.182 352.22 254.482 368.491 245.042 382.811C233.992 399.571 224.432 414.071 224.552 425.011C227.802 432.011 232.672 462.66 226.652 475.39C221.342 486.59 196.562 492.591 182.262 495.171C168.487 497.636 154.526 498.917 140.532 499.001Z" fill="#994126"/>
<path d="M229.052 235.64C242.052 243.23 241.152 287.37 225.822 301.64C206.612 319.5 196.512 324.06 171.712 323.91C200.582 338.47 228.582 320.581 236.302 328.031C245.792 337.191 222.052 383.09 214.302 399.35C206.682 415.35 204.402 419.351 210.032 427.571C215.662 435.791 221.542 458.571 210.892 471.571C202.502 481.801 162.892 497.571 124.762 492.261C86.6318 486.951 78.2318 471.731 74.6318 457.261C70.9918 442.541 72.2917 424.651 76.3317 416.261C80.3717 407.871 74.6918 393.181 69.7418 379.481C63.0818 361.021 59.8618 339.14 58.4518 318.62C63.3718 318.78 79.9418 325.62 99.1218 313.62C77.7818 312.26 65.3618 311.511 57.0218 297.731C48.5718 283.791 51.5818 233.651 74.3718 220.921C86.9618 218.151 116.032 223.621 123.322 231.591C130.612 239.561 131.112 258.231 134.222 260.981C137.332 263.731 136.792 244.68 149.992 237.66C163.192 230.64 213.672 226.67 229.052 235.64Z" fill="#FD9F76"/>
<path d="M182.953 303.051C190.823 303.711 192.073 312.571 183.253 312.321C174.433 312.071 170.743 302.021 182.953 303.051Z" fill="#F57E5B"/>
<path d="M56.8323 287.571C63.5023 289.801 64.3323 298.9 56.7423 296.87C49.1523 294.84 46.4823 284.111 56.8323 287.571Z" fill="#F57E5B"/>
<path d="M245.602 225.831C252.292 220.031 271.822 222.631 284.092 226.531C308.212 234.211 328.702 268.361 309.392 307.221C307.392 311.301 307.272 318.651 307.392 322.381C308.742 356.611 245.862 342.381 251.062 322.781C251.732 320.241 251.712 296.581 250.752 292.931" fill="#F57E5B"/>
<path d="M283.303 344.621C272.853 344.621 261.763 341.031 255.303 335.791C250.403 331.791 248.383 327.041 249.613 322.401C250.233 320.051 250.193 296.691 249.303 293.311C249.252 293.118 249.239 292.917 249.267 292.719C249.294 292.521 249.36 292.331 249.462 292.158C249.563 291.986 249.697 291.836 249.857 291.717C250.017 291.597 250.199 291.51 250.393 291.461C250.585 291.41 250.786 291.397 250.983 291.424C251.18 291.45 251.37 291.516 251.542 291.616C251.714 291.716 251.865 291.85 251.985 292.009C252.105 292.167 252.193 292.349 252.243 292.541C253.243 296.361 253.243 320.401 252.543 323.171C251.383 327.561 254.453 331.171 257.223 333.431C266.083 340.641 285.303 344.551 296.813 338.791C303.143 335.631 306.193 330.131 305.893 322.441C305.763 319.211 305.713 311.191 308.023 306.551C316.763 288.951 317.883 270.551 311.173 254.681C305.673 241.681 295.373 231.681 283.623 227.981C270.183 223.701 252.203 222.101 246.623 226.981C246.317 227.245 245.92 227.377 245.517 227.349C245.114 227.321 244.739 227.135 244.473 226.831C244.21 226.524 244.08 226.126 244.11 225.723C244.14 225.32 244.328 224.946 244.633 224.681C252.193 218.121 273.143 221.451 284.573 225.091C297.163 229.091 308.163 239.711 314.003 253.501C321.063 270.171 319.923 289.501 310.773 307.901C308.723 312.021 308.863 319.981 308.953 322.321C309.303 331.181 305.593 337.821 298.203 341.511C293.541 343.679 288.442 344.743 283.303 344.621Z" fill="#994126"/>
<path d="M308.482 311.631C317.042 338.541 301.182 388.901 285.712 410.871C274.132 427.341 265.182 440.941 248.672 412.341C234.212 387.341 221.252 358.931 256.672 308.251" fill="#F57E5B"/>
<path d="M266.292 430.461H265.842C259.912 430.201 254.032 424.68 247.342 413.1C231.652 385.92 220.462 357.391 255.342 307.381C255.575 307.052 255.929 306.829 256.326 306.76C256.723 306.691 257.131 306.781 257.462 307.011C257.626 307.124 257.766 307.268 257.874 307.436C257.982 307.603 258.056 307.791 258.091 307.987C258.127 308.183 258.123 308.384 258.08 308.578C258.037 308.773 257.956 308.957 257.842 309.12C242.072 331.7 234.752 351.56 235.442 369.85C236.062 386.25 242.942 399.461 249.942 411.581C255.942 422.031 261.212 427.221 265.942 427.431H266.252C272.172 427.431 277.582 419.74 283.842 410.85L284.442 410.001C292.192 399.001 299.922 380.881 304.612 362.731C309.952 342.031 310.812 324.05 307.002 312.1C306.883 311.715 306.921 311.298 307.108 310.94C307.296 310.582 307.617 310.313 308.002 310.191C308.388 310.072 308.805 310.11 309.163 310.297C309.521 310.485 309.79 310.806 309.912 311.191C318.862 339.321 302.012 390.361 286.912 411.761L286.312 412.611C279.612 422.171 273.782 430.461 266.292 430.461Z" fill="#994126"/>
<path d="M226.302 195.811C231.512 205.441 248.612 214.581 266.022 219.881C283.432 225.181 266.772 293.151 255.642 326.401C244.512 359.651 236.422 411.641 237.242 424.951C238.062 438.261 247.592 488.551 245.622 495.421C243.652 502.291 245.422 503.161 248.182 505.731C250.942 508.301 255.422 516.861 250.922 519.911C254.812 525.911 260.922 541.911 250.332 538.431C242.332 535.801 231.042 540.301 191.332 549.651C151.622 559.001 97.4218 563.421 52.1618 530.711C49.8518 525.921 50.0418 519.161 52.9518 517.391C52.4318 511.751 51.3318 507.971 56.6018 502.341C61.8718 496.711 57.7618 458.181 63.9118 397.541C70.0618 336.901 55.2518 319.041 51.9118 291.881C48.5718 264.721 53.2918 228.731 65.5418 217.881C90.3418 210.271 109.942 207.201 116.762 200.601C115.152 222.511 139.032 229.601 165.272 228.951C191.512 228.301 217.232 208.411 226.302 195.811Z" fill="#093251"/>
<path d="M137.321 557.941C104.071 557.941 75.3211 549.261 51.3211 531.941C51.1174 531.792 50.9526 531.596 50.841 531.37C48.491 526.49 48.361 519.57 51.411 516.701L51.3211 515.811C50.8011 511.001 50.321 506.811 55.551 501.301C57.831 498.861 58.121 485.931 58.481 469.561C58.881 451.691 59.421 427.221 62.481 397.381C66.761 355.191 60.9111 334.151 55.7511 315.581C53.5711 307.731 51.501 300.311 50.491 292.061C48.8151 277.567 49.1516 262.912 51.491 248.511C52.961 239.701 56.631 223.851 64.641 216.751C64.8026 216.608 64.9939 216.502 65.2011 216.441C72.9811 214.051 80.2911 212.1 86.7511 210.37C100.531 206.69 111.411 203.781 115.821 199.521C116.042 199.306 116.323 199.165 116.627 199.115C116.931 199.065 117.243 199.108 117.521 199.241C117.799 199.37 118.031 199.581 118.187 199.845C118.342 200.109 118.413 200.415 118.391 200.721C117.931 207.001 119.691 212.271 123.621 216.401C130.861 224.001 145.681 227.931 165.341 227.401C190.601 226.781 215.951 207.63 225.131 194.89C225.28 194.68 225.48 194.512 225.713 194.401C225.946 194.291 226.204 194.242 226.461 194.261C226.718 194.276 226.967 194.356 227.184 194.494C227.401 194.633 227.579 194.824 227.701 195.051C232.221 203.421 247.461 212.581 266.521 218.381C267.793 218.807 268.963 219.491 269.958 220.391C270.952 221.291 271.75 222.388 272.301 223.611C281.951 242.321 264.631 304.48 257.141 326.85C250.141 347.61 237.591 404.85 238.821 424.85C239.131 429.94 240.761 440.71 242.491 452.12C245.971 475.06 248.341 491.631 247.141 495.831C245.581 501.251 246.411 502.001 248.621 504.011L249.281 504.611C251.581 506.751 254.721 512.231 254.391 516.531C254.32 517.878 253.807 519.164 252.931 520.191C255.521 524.701 259.851 534.681 256.691 538.771C255.751 539.981 253.821 541.16 249.911 539.87C244.461 538.07 236.631 540.031 217.711 544.771C210.821 546.501 202.251 548.65 191.791 551.12C173.958 555.488 155.68 557.777 137.321 557.941ZM53.421 529.711C88.841 555.141 135.131 561.351 191.031 548.171C201.471 545.711 210.031 543.561 216.911 541.841C237.001 536.841 244.521 534.921 250.811 536.991C252.031 537.391 253.611 537.711 254.221 536.921C255.881 534.781 253.051 525.991 249.641 520.741C249.424 520.406 249.347 519.999 249.428 519.608C249.508 519.217 249.739 518.873 250.071 518.651C250.448 518.384 250.755 518.032 250.969 517.624C251.183 517.215 251.297 516.762 251.301 516.301C251.541 513.171 248.961 508.531 247.151 506.841L246.521 506.271C243.691 503.701 242.181 501.901 244.161 495.001C245.271 491.111 242.031 469.751 239.431 452.591C237.691 441.111 236.041 430.271 235.721 425.051C234.861 411.051 243.141 358.941 254.201 325.921C264.451 295.301 277.681 240.831 269.541 225.041C269.17 224.178 268.622 223.402 267.933 222.763C267.244 222.124 266.43 221.636 265.541 221.331C243.621 214.661 231.111 205.501 226.141 198.481C215.641 211.651 190.451 229.871 165.321 230.481C153.431 230.771 131.901 229.611 121.321 218.481C117.499 214.516 115.314 209.256 115.201 203.751C109.551 207.391 99.9711 209.951 87.431 213.301C81.091 214.991 73.9211 216.911 66.3111 219.241C61.0111 224.131 56.781 234.681 54.391 249.001C52.0866 263.113 51.75 277.476 53.391 291.68C54.391 299.68 56.3911 307.021 58.5611 314.761C63.7911 333.581 69.721 354.92 65.391 397.68C62.391 427.4 61.8411 451.8 61.4411 469.62C61.0111 489.26 60.771 500.08 57.681 503.37C53.441 507.89 53.7711 510.911 54.2611 515.481C54.3211 516.041 54.3811 516.631 54.4411 517.231C54.4669 517.515 54.4121 517.801 54.283 518.055C54.1539 518.31 53.9557 518.523 53.711 518.671C51.921 519.821 51.451 525.341 53.421 529.711Z" fill="#001623"/>
<path d="M215.821 189.541C219.821 198.761 187.721 234.361 142.821 226.461C116.821 221.881 124.471 193.051 126.581 189.831C127.491 185.721 121.451 188.971 116.111 196.831C110.771 204.691 108.921 233.181 140.361 240.271C177.831 248.711 226.991 222.711 227.921 197.171C228.151 192.751 222.711 180.681 213.421 181.171C212.501 183.661 214.431 186.341 215.821 189.541Z" fill="#093251"/>
<path d="M155.421 243.41C150.25 243.442 145.092 242.899 140.041 241.791C123.491 238.061 116.621 228.731 113.781 221.551C111.953 216.858 111.218 211.81 111.631 206.791C111.981 202.461 113.161 198.531 114.861 196.021C117.861 191.531 123.581 185.341 126.791 186.731C127.351 186.971 128.601 187.79 128.071 190.16C128.033 190.339 127.962 190.508 127.861 190.66C126.931 192.09 123.161 203.99 127.361 213.66C130.001 219.76 135.291 223.55 143.101 224.93C157.037 227.397 171.391 225.693 184.361 220.031C194.581 215.581 203.831 208.751 209.741 201.291C213.991 195.931 215.161 191.81 214.431 190.1C214.121 189.38 213.781 188.681 213.431 188.001C212.211 185.491 211.051 183.121 211.991 180.611C212.093 180.33 212.276 180.085 212.516 179.907C212.756 179.729 213.043 179.626 213.341 179.611C215.202 179.558 217.053 179.906 218.768 180.631C220.483 181.355 222.022 182.44 223.281 183.811C227.281 187.811 229.611 193.911 229.431 197.231C229.101 206.331 222.931 215.98 212.061 224.35C196.481 236.43 174.881 243.41 155.421 243.41ZM124.831 189.93C123.301 190.79 120.421 193.221 117.381 197.721C114.891 201.391 112.931 211.15 116.611 220.43C119.181 226.93 125.451 235.431 140.711 238.831C166.051 244.541 194.501 234.111 210.211 222.011C220.361 214.191 226.111 205.361 226.411 197.151C226.531 194.861 224.721 189.611 221.141 186.021C219.46 184.184 217.174 183.012 214.701 182.72C214.952 184.13 215.449 185.484 216.171 186.72C216.521 187.431 216.881 188.16 217.221 188.95C218.611 192.19 216.751 197.391 212.131 203.231C205.911 211.071 196.231 218.23 185.571 222.87C172.051 228.761 157.094 230.535 142.571 227.971C133.701 226.41 127.641 221.97 124.571 214.91C120.531 205.56 123.081 193.88 124.831 189.93Z" fill="#001623"/>
<path d="M172.672 227.451C161.112 231.451 143.052 230.051 130.092 223.801C131.302 227.451 133.912 235.471 134.742 236.301C142.252 237.971 155.212 241.201 166.742 238.491C169.219 235.103 171.215 231.387 172.672 227.451Z" fill="#10496B"/>
<path d="M162.672 244.341C156.832 260.071 147.042 279.341 147.042 279.341C144.296 266.71 140.493 254.333 135.672 242.341C135.672 242.341 150.672 246.431 162.672 244.341Z" fill="#10496B"/>
<path d="M75.2415 223.081C50.7615 216.861 23.0614 240.561 18.6414 282.291C18.1814 286.661 10.4615 292.721 8.35147 295.681C-11.0785 322.911 49.6615 343.931 55.7515 325.221C56.5415 322.791 60.1815 313.911 62.9415 311.421C84.5115 292.051 119.521 234.341 75.2415 223.081Z" fill="#F57E5B"/>
<path d="M41.9022 333.87C29.2222 333.87 12.1022 326.671 5.62218 315.581C1.69218 308.861 2.20217 301.671 7.11217 294.801C8.15629 293.479 9.29248 292.232 10.5122 291.071C13.1922 288.341 16.8722 284.601 17.1322 282.131C19.6522 258.351 29.8322 238.641 45.0622 228.031C54.6922 221.331 65.5322 219.031 75.6122 221.611C87.5422 224.611 94.8122 231.141 97.2322 240.931C102.652 262.931 81.0022 297.251 63.9622 312.551C61.6721 314.601 58.1422 322.791 57.2022 325.691C55.7422 330.171 51.4321 333.021 45.0821 333.691C44.0261 333.807 42.9646 333.867 41.9022 333.87ZM67.4122 223.631C59.9987 223.762 52.8044 226.168 46.8022 230.521C32.2922 240.631 22.5822 259.521 20.1522 282.451C19.7822 285.981 16.0022 289.811 12.6722 293.201C11.5748 294.257 10.5429 295.379 9.58214 296.561C5.37214 302.481 4.91218 308.361 8.24218 314.041C14.6122 324.941 33.1022 331.931 44.7522 330.681C48.3522 330.291 52.9422 328.951 54.3122 324.751C54.7622 323.341 58.5722 313.301 61.9322 310.291C70.3522 302.731 79.5422 290.601 85.9322 278.651C95.8222 260.071 95.9322 248.281 94.3222 241.651C92.1922 233.041 85.6622 227.281 74.9122 224.551C72.4602 223.933 69.9407 223.624 67.4122 223.631Z" fill="#994126"/>
<path d="M12.7929 287.691C-1.39708 300.171 -17.7871 333.811 -19.9671 358.451C-21.9671 380.951 -19.1671 402.131 10.0329 387.341C35.6229 374.391 53.4029 346.421 58.7829 310.481" fill="#F57E5B"/>
<path d="M-6.24718 393.801C-9.08439 393.878 -11.8769 393.082 -14.2472 391.521C-20.8072 387.081 -23.1072 376.521 -21.4872 358.321C-20.4872 346.641 -16.0772 331.89 -9.48717 317.87C-3.03717 304.18 4.70283 292.761 11.7628 286.551C11.9124 286.418 12.0867 286.315 12.2758 286.25C12.4649 286.184 12.6651 286.157 12.8648 286.169C13.0646 286.181 13.26 286.232 13.4398 286.32C13.6197 286.408 13.7804 286.53 13.9128 286.681C14.1777 286.985 14.3116 287.382 14.2854 287.785C14.2592 288.187 14.0749 288.563 13.7728 288.831C0.702778 300.341 -16.2272 333.321 -18.4772 358.591C-19.9572 375.351 -18.0272 385.301 -12.5572 389.011C-8.02718 392.071 -0.657185 391.061 9.37282 386.011C34.5428 373.281 52.0128 345.681 57.3128 310.291C57.3745 309.893 57.5908 309.535 57.9147 309.295C58.2387 309.056 58.644 308.953 59.0428 309.011C59.2405 309.04 59.4305 309.108 59.6019 309.211C59.7733 309.314 59.9228 309.45 60.0417 309.61C60.1606 309.771 60.2466 309.953 60.2948 310.147C60.3431 310.341 60.3526 310.543 60.3228 310.741C54.8728 347.111 36.8028 375.541 10.7428 388.741C4.03281 392.101 -1.60718 393.801 -6.24718 393.801Z" fill="#994126"/>
<path d="M65.9629 226.991C56.3929 221.991 33.4529 231.361 24.8829 254.311C16.8829 275.751 21.5129 282.391 9.51292 296.311C-2.48708 310.231 -21.9271 332.141 -19.3871 366.951C-18.2671 377.831 -9.38711 386.351 9.98289 366.041C29.3529 345.731 35.2729 325.751 36.1429 313.251C37.6129 292.251 53.8129 283.961 62.5429 269.841C71.2729 255.721 81.0329 234.841 65.9629 226.991Z" fill="#FD9F76"/>
<path d="M66.8413 215.341C58.0713 217.481 47.7613 222.201 37.0313 232.511C29.1913 240.041 -32.4586 343.821 -25.0586 381.961C-2.49864 393.601 28.2714 380.261 40.3814 363.521C52.4914 346.781 65.3814 314.261 65.3814 314.261" fill="#CCC8C0"/>
<path d="M134.363 613.341H288.733C285.213 579.091 267.513 462.341 266.733 450.221C265.793 436.311 287.283 231.751 285.553 226.821C283.823 221.891 233.153 200.431 227.963 197.181C227.963 197.181 154.433 275.311 141.863 306.721C131.193 333.411 127.763 514.931 133.243 603.271C133.413 606.471 133.823 609.881 134.363 613.341Z" fill="#CCC8C0"/>
<path d="M280.501 225.691C275.001 233.151 254.181 276.691 249.131 290.351C244.081 304.011 238.511 341.811 238.511 341.811C238.511 341.811 192.371 342.211 187.721 341.911C183.071 341.611 150.721 335.231 150.721 335.231C150.721 335.231 150.371 302.371 153.721 296.851C170.361 283.181 209.231 262.741 227.991 254.511C224.714 244.2 219.467 234.623 212.541 226.311C232.251 225.311 254.141 229.071 254.141 229.071C257.451 218.761 252.851 211.551 252.851 211.551L280.501 225.691Z" fill="#FCF8EB"/>
<path d="M208.093 171.631C212.093 178.131 210.633 195.631 194.443 208.631C175.933 223.471 148.113 278.381 139.643 310.561C152.093 293.711 205.313 258.561 226.643 248.741C224.103 242.811 213.043 225.011 213.043 225.011C213.043 225.011 226.853 222.211 252.833 225.731C251.643 217.781 248.213 207.231 244.013 203.171C226.853 186.591 213.233 164.081 207.333 163.421" fill="#CCC8C0"/>
<path d="M48.1127 508.831C44.2227 535.411 38.4027 587.231 35.3027 613.371H135.673C138.853 560.031 141.003 470.161 143.293 403.431C144.893 356.571 150.553 319.171 149.073 309.711C144.883 283.061 120.843 237.901 106.443 201.831C100.043 200.711 76.4427 211.551 62.1727 216.701L51.9927 291.881C51.4127 318.591 51.6228 352.231 54.8228 377.881C57.2428 386.301 60.4827 388.881 56.9327 399.481C53.3827 410.081 53.1927 474.111 48.1127 508.831Z" fill="#CCC8C0"/>
<path d="M53.9926 226.841C50.3526 230.621 56.9926 298.931 61.8026 326.241C90.0126 332.771 142.803 347.611 142.803 347.611C142.803 347.611 145.263 327.871 145.903 316.611C140.793 301.361 107.033 269.831 85.1226 252.381C86.8426 246.091 106.403 225.691 106.403 225.691C106.403 225.691 88.5326 219.631 75.4026 220.571C65.3726 221.341 53.9926 226.841 53.9926 226.841Z" fill="#FCF8EB"/>
<path d="M126.153 179.951C121.033 186.811 117.943 206.731 125.043 222.211C134.933 243.771 152.313 288.371 148.993 321.481C143.223 301.341 103.103 261.371 86.5826 244.741C91.0426 240.071 108.923 223.401 108.923 223.401C97.9165 218.839 86.0457 216.74 74.1426 217.251C78.0326 210.251 93.7226 201.631 99.1426 197.251C114.643 184.821 121.823 172.971 127.943 171.371" fill="#CCC8C0"/>
<path d="M211.042 168.211C218.792 172.841 230.512 195.921 243.042 204.441C246.352 209.671 251.122 221.831 249.212 222.551C247.302 223.271 220.212 218.601 209.682 223.551C217.192 231.871 222.972 244.831 221.782 246.331C220.592 247.831 166.502 280.761 149.782 295.551C149.272 291.021 148.982 287.681 148.982 287.681C157.852 263.861 178.102 227.081 196.242 210.611C214.382 194.141 213.242 177.541 211.302 173.941C209.362 170.341 207.942 166.341 211.042 168.211Z" fill="#FCF8EB"/>
<path d="M124.673 177.951C118.013 190.191 115.223 200.461 122.743 220.241C130.263 240.021 148.833 280.581 147.563 308.891C137.773 286.631 90.2427 246.891 89.5627 243.781C94.4127 235.401 112.563 225.151 111.743 222.441C110.923 219.731 91.7427 212.001 79.3027 215.441C87.7027 207.331 99.0827 199.811 106.393 192.941C113.703 186.071 120.573 176.361 125.983 174.681C127.443 174.341 124.673 177.951 124.673 177.951Z" fill="#FCF8EB"/>
<path d="M141.592 330.081C140.412 330.121 139.245 329.838 138.215 329.261C137.185 328.685 136.334 327.837 135.752 326.811C135.068 325.578 134.709 324.191 134.709 322.781C134.709 321.371 135.068 319.984 135.752 318.751C136.332 317.726 137.178 316.877 138.201 316.293C139.223 315.709 140.384 315.411 141.562 315.431C144.752 315.431 148.192 317.681 148.192 322.621C148.192 326.241 145.862 330.081 141.562 330.081H141.592ZM141.592 318.471C140.947 318.448 140.309 318.604 139.747 318.921C139.186 319.239 138.723 319.706 138.412 320.271C137.998 321.039 137.782 321.898 137.782 322.771C137.782 323.643 137.998 324.502 138.412 325.271C138.732 325.831 139.202 326.291 139.769 326.6C140.336 326.909 140.977 327.055 141.622 327.021C144.082 327.021 145.212 324.721 145.212 322.591C145.182 320.711 144.242 318.471 141.592 318.471Z" fill="#565553"/>
<path d="M218.202 243.781C195.752 252.481 159.842 287.611 159.842 287.611C191.542 266.011 221.782 246.341 221.782 246.341L218.202 242.341" fill="white"/>
<path d="M247.222 218.341C232.802 217.071 212.932 222.471 212.932 222.471C225.009 221.551 237.14 221.588 249.212 222.581L247.222 218.341Z" fill="white"/>
<path d="M254.671 375.391C245.577 368.07 235.308 362.343 224.301 358.451C185.091 344.831 130.691 342.501 96.3613 327.681C76.8913 315.091 40.6813 321.871 40.3613 337.851C40.3613 338.551 53.8313 338.961 57.8713 342.321C80.2813 360.941 150.261 410.451 184.511 419.231C224.941 429.591 267.131 430.781 271.651 426.741" fill="#F57E5B"/>
<path d="M263.341 274.021C260.051 282.661 245.991 330.691 238.501 361.691C235.501 373.621 259.501 436.911 272.851 431.051C311.941 406.201 324.851 273.411 320.581 259.711C315.861 244.481 291.991 227.981 279.981 222.551" fill="#CCC8C0"/>
<path d="M278.872 224.991C290.872 230.791 310.232 245.611 312.592 259.791C314.952 273.971 298.452 389.791 269.342 411.791C265.982 390.991 261.742 359.081 245.602 351.841C252.602 330.581 258.802 294.701 264.542 285.711C270.282 276.721 283.422 268.921 282.972 266.811C282.522 264.701 269.972 271.061 267.762 266.811C265.552 262.561 278.872 224.991 278.872 224.991Z" fill="#FCF8EB"/>
<path d="M212.803 328.951C219.253 324.601 228.803 321.511 236.053 318.711C243.303 315.911 264.883 315.121 269.673 315.261C274.463 315.401 276.063 322.881 264.393 325.581C253.663 328.071 244.023 328.391 240.573 329.491C237.123 330.591 226.623 337.491 226.623 337.491" fill="#F57E5B"/>
<path d="M226.671 338.981C226.419 338.981 226.171 338.917 225.949 338.797C225.727 338.676 225.539 338.503 225.401 338.291C225.291 338.124 225.215 337.936 225.177 337.739C225.14 337.543 225.142 337.341 225.183 337.145C225.223 336.949 225.303 336.762 225.416 336.597C225.529 336.431 225.673 336.29 225.841 336.181C226.931 335.471 236.621 329.181 240.161 328.041C242.724 327.414 245.332 326.986 247.961 326.761C253.382 326.165 258.766 325.277 264.091 324.101C269.671 322.811 271.981 320.361 271.801 318.511C271.734 318.005 271.476 317.545 271.08 317.223C270.684 316.902 270.18 316.743 269.671 316.781C265.201 316.641 243.741 317.401 236.671 320.131C235.321 320.651 233.881 321.181 232.401 321.731C226.041 324.091 218.831 326.731 213.731 330.211C213.396 330.434 212.987 330.516 212.592 330.439C212.197 330.362 211.848 330.133 211.621 329.801C211.508 329.636 211.429 329.45 211.389 329.254C211.348 329.058 211.347 328.857 211.385 328.66C211.423 328.464 211.5 328.277 211.611 328.111C211.722 327.945 211.865 327.802 212.031 327.691C217.431 324.051 224.821 321.301 231.341 318.881C232.811 318.341 234.231 317.811 235.581 317.291C243.191 314.361 265.041 313.601 269.791 313.741C271.037 313.732 272.242 314.184 273.176 315.008C274.109 315.833 274.706 316.974 274.851 318.211C275.161 321.291 272.681 325.211 264.851 327.061C259.42 328.257 253.929 329.161 248.401 329.771C245.961 329.991 243.538 330.378 241.151 330.931C238.491 331.781 230.441 336.851 227.571 338.731C227.305 338.907 226.99 338.994 226.671 338.981Z" fill="#994126"/>
<path d="M269.602 316.071C271.602 315.811 272.652 320.071 267.332 321.551C262.012 323.031 246.472 324.031 243.012 324.771C239.552 325.511 221.662 331.121 219.362 331.771C217.062 332.421 218.042 335.721 220.952 334.551C223.862 333.381 239.732 328.551 243.952 328.631C248.172 328.711 273.222 336.721 275.632 337.831C278.042 338.941 276.632 343.091 270.372 341.111C264.112 339.131 250.772 335.731 246.602 335.311C242.432 334.891 227.062 339.591 224.432 339.511C221.802 339.431 222.892 343.061 225.912 342.071C228.932 341.081 242.262 338.331 247.362 338.851C252.462 339.371 267.362 343.361 270.512 344.591C273.662 345.821 270.972 349.201 265.262 347.991C259.552 346.781 249.722 345.171 246.822 344.991C243.922 344.811 230.702 347.931 228.092 348.061C225.482 348.191 226.972 350.871 229.252 350.581C231.532 350.291 244.412 348.981 247.972 349.581C251.532 350.181 262.042 355.631 263.182 357.461C264.322 359.291 260.412 360.771 257.432 358.931C254.22 356.982 250.611 355.783 246.872 355.421C243.972 355.331 238.122 355.421 236.542 355.591C222.102 349.651 201.462 342.981 200.342 340.231C205.733 335.223 211.69 330.86 218.092 327.231C222.972 324.411 236.162 319.741 241.942 318.431C247.722 317.121 269.602 316.071 269.602 316.071Z" fill="#FD9F76"/>
<path d="M264.111 315.341C264.481 316.341 264.361 319.29 264.671 319.49C264.981 319.69 270.251 319.681 271.081 318.541C271.911 317.401 271.941 315.54 270.911 315.24C269.071 314.68 264.111 315.341 264.111 315.341Z" fill="#E8ADAA"/>
<path d="M266.281 321.121C265.459 321.178 264.634 321.059 263.861 320.771C263.041 320.261 262.991 319.451 262.861 317.831C262.839 317.16 262.768 316.492 262.651 315.831C262.571 315.618 262.54 315.389 262.561 315.162C262.582 314.935 262.654 314.716 262.771 314.521C262.888 314.326 263.047 314.159 263.238 314.034C263.429 313.909 263.645 313.83 263.871 313.801C264.751 313.681 269.261 313.121 271.311 313.751C271.708 313.877 272.068 314.098 272.361 314.394C272.653 314.69 272.87 315.053 272.991 315.451C273.183 316.128 273.218 316.841 273.093 317.534C272.969 318.228 272.687 318.883 272.271 319.451C271.431 320.641 268.481 321.121 266.281 321.121ZM265.861 316.681C265.861 316.981 265.911 317.301 265.931 317.681C265.931 317.801 265.931 317.951 265.931 318.101C267.266 318.13 268.598 317.958 269.881 317.591C270.047 317.309 270.137 316.988 270.141 316.661C268.718 316.516 267.283 316.523 265.861 316.681Z" fill="#AF4A2F"/>
<path d="M109.603 92.8111C107.203 88.9911 103.823 82.9311 98.6029 85.8111C93.3829 88.6911 94.7029 105.021 98.5529 111.391C102.403 117.761 103.783 121.491 105.733 123.681C107.683 125.871 112.923 125.621 113.613 122.081" fill="#F5845B"/>
<path d="M106.132 98.9706C105.132 94.5506 101.262 91.071 99.6616 91.581C98.0616 92.091 97.9316 99.0307 97.9316 99.0307C97.9316 99.0307 98.7916 95.5507 100.592 97.0307C102.392 98.5107 106.272 103.431 104.012 105.771C101.752 108.111 104.552 112.371 106.362 114.021C104.242 109.071 108.152 107.891 106.132 98.9706Z" fill="#D65736"/>
<path d="M221.252 69.3411C221.275 77.3281 219.726 85.2415 216.691 92.6296C213.656 100.018 209.196 106.736 203.565 112.4C197.934 118.065 191.243 122.564 183.873 125.643C176.503 128.721 168.599 130.317 160.612 130.341C127.012 130.451 101.702 102.291 101.612 68.6912C101.522 35.0912 126.612 8.79116 160.252 8.69116C176.383 8.646 191.872 15.0102 203.311 26.384C214.751 37.7578 221.204 53.2097 221.252 69.3411Z" fill="#F5845B"/>
<path d="M160.421 131.861C152.353 131.89 144.366 130.247 136.964 127.033C129.563 123.82 122.909 119.106 117.421 113.191C106.189 101.107 99.9809 85.1985 100.061 68.7007C100.001 51.9807 106.061 36.4908 117.171 25.0708C122.768 19.3505 129.461 14.8164 136.848 11.7392C144.236 8.66211 152.168 7.10492 160.171 7.16062H160.371C168.542 7.13632 176.637 8.73026 184.189 11.8506C191.741 14.9709 198.6 19.5559 204.371 25.3408C210.195 31.0941 214.82 37.9454 217.978 45.498C221.137 53.0506 222.766 61.1544 222.771 69.3408C222.819 77.5261 221.244 85.6395 218.138 93.2124C215.031 100.785 210.454 107.668 204.671 113.461C198.919 119.286 192.068 123.911 184.515 127.069C176.962 130.228 168.858 131.856 160.671 131.861H160.421ZM160.421 10.2007H160.231C152.626 10.1431 145.088 11.6192 138.066 14.54C131.043 17.4609 124.682 21.7666 119.361 27.2007C108.831 38.0507 103.061 52.7909 103.111 68.7109C103.047 84.4344 108.967 99.5932 119.671 111.111C124.877 116.719 131.188 121.188 138.207 124.236C145.225 127.284 152.799 128.845 160.451 128.821H160.621C168.414 128.819 176.129 127.272 183.32 124.268C190.51 121.264 197.033 116.863 202.511 111.321C208.02 105.808 212.381 99.2578 215.34 92.0483C218.299 84.8389 219.799 77.1138 219.751 69.3208C219.749 61.5281 218.201 53.8134 215.197 46.623C212.193 39.4326 207.793 32.9092 202.251 27.4306C196.759 21.9456 190.237 17.5999 183.06 14.643C175.884 11.6862 168.193 10.1764 160.431 10.2007H160.421Z" fill="#994126"/>
<path d="M106.172 46.811C98.7922 56.461 100.782 71.3107 102.972 86.9907C105.162 102.671 103.632 110.271 104.482 115.041C107.022 129.331 110.962 145.551 114.982 151.681C123.402 164.511 129.982 170.841 135.082 174.931C140.182 179.021 156.082 178.511 163.352 174.511C170.622 170.511 188.632 160.021 196.122 144.861C201.432 134.121 203.352 104.991 204.972 89.061" fill="#F5845B"/>
<path d="M190.392 97.3407C190.122 111.211 189.492 138.091 185.152 145.931C180.812 153.771 167.152 166.77 158.932 171.37C152.432 175.01 140.662 175.121 136.032 172.261C130.192 168.651 121.542 159.261 116.852 151.261C113.602 145.771 106.522 121.181 105.762 114.781C105.282 110.601 106.542 105.081 105.882 95.4505C104.942 81.7405 99.1523 60.2207 113.022 50.1307C127.092 53.8507 138.422 55.9904 156.712 51.6004C171.182 48.1304 171.972 49.3707 176.912 53.1307C180.262 55.7307 190.732 79.6507 190.392 97.3407Z" fill="#FD9F76"/>
<path d="M150.853 153.411C148.583 154.281 141.503 155.411 137.333 154.241C136.443 155.241 137.423 158.531 143.753 158.291C150.083 158.051 151.903 155.571 150.853 153.411Z" fill="#F5845B"/>
<path d="M129.382 87.8208C131.322 89.6608 135.922 94.8207 136.292 97.2407C136.662 99.6607 133.932 105.241 133.562 116.161C132.262 110.891 133.852 102.161 130.342 98.0308C126.832 93.9008 114.512 94.3308 109.342 96.8408C112.542 92.5508 117.222 90.701 117.342 89.521C117.612 87.201 112.212 81.791 112.212 81.791L129.382 87.8208Z" fill="#EC7348"/>
<path d="M153.942 80.4307C151.992 81.2607 149.412 88.7407 151.032 89.1007C152.652 89.4607 160.772 85.5307 165.152 84.3907C169.532 83.2507 175.412 82.8407 177.642 82.3907C179.872 81.9407 189.032 84.9707 188.972 83.3907C188.912 81.8107 179.702 76.511 176.042 76.691C171.102 76.971 158.042 78.6807 153.942 80.4307Z" fill="#332220"/>
<path d="M130.333 81.2407C132.093 81.9007 135.333 90.1709 133.863 90.6709C132.393 91.1709 124.863 87.1809 120.983 86.4009C117.103 85.6209 111.873 85.7107 109.893 85.4707C107.913 85.2307 101.893 88.4709 101.893 86.9209C101.893 85.3709 107.893 79.8106 111.103 79.6806C115.433 79.5206 126.673 79.8407 130.333 81.2407Z" fill="#332220"/>
<path d="M131.233 125.101C134.063 123.661 136.303 125.731 137.973 127.101C138.834 127.745 139.892 128.071 140.966 128.021C142.041 127.972 143.065 127.552 143.863 126.831C145.103 125.431 148.543 123.491 150.803 124.041C152.593 124.481 153.293 126.681 152.603 127.241C151.913 127.801 145.133 130.001 143.603 131.491C142.073 132.981 138.943 131.971 137.953 130.931C136.963 129.891 132.243 129.241 130.393 127.601C129.353 126.741 130.293 125.591 131.233 125.101Z" fill="#EC7348"/>
<path d="M135.202 125.991C134.782 125.391 131.712 124.881 130.592 126.051C129.472 127.221 131.222 128.431 132.592 127.601C133.962 126.771 135.752 126.761 135.202 125.991Z" fill="#9E422A"/>
<path d="M145.903 126.241C146.633 125.101 149.243 124.511 150.733 124.941C152.223 125.371 152.293 127.591 151.093 127.281C149.893 126.971 145.503 126.861 145.903 126.241Z" fill="#9E422A"/>
<path d="M126.802 143.081C125.432 142.581 124.593 139.841 123.123 140.161C122.828 140.226 122.552 140.357 122.316 140.543C122.079 140.73 121.888 140.969 121.756 141.24C121.624 141.511 121.555 141.808 121.555 142.11C121.554 142.411 121.622 142.709 121.753 142.981C122.243 143.981 124.352 143.931 126.972 143.751" fill="#EC7348"/>
<path d="M163.672 139.851C165.002 139.241 165.672 136.451 167.132 136.651C167.431 136.693 167.716 136.803 167.967 136.971C168.217 137.14 168.426 137.363 168.578 137.624C168.73 137.884 168.821 138.176 168.845 138.477C168.868 138.777 168.823 139.08 168.712 139.361C168.292 140.361 166.182 140.511 163.562 140.521" fill="#EC7348"/>
<path d="M124.412 142.821C128.472 141.621 135.872 138.201 137.972 138.091C140.072 137.981 141.182 138.921 142.502 138.771C143.822 138.621 145.592 137.351 147.312 137.291C150.922 137.151 163.972 139.751 166.572 139.571C162.252 141.771 149.572 142.761 147.822 143.571C145.148 144.626 142.236 144.927 139.402 144.441C136.862 143.821 127.182 144.631 124.412 142.821Z" fill="#DB5C56"/>
<path d="M125.982 143.981C129.982 146.131 133.912 153.471 144.382 152.691C155.862 151.831 162.382 140.841 165.862 139.611C157.812 142.131 150.812 142.181 147.542 143.701C144.272 145.221 142.692 144.871 138.542 144.701C134.392 144.531 125.982 143.981 125.982 143.981Z" fill="#E87262"/>
<path d="M151.413 146.47C149.413 145.55 145.793 147.571 146.253 148.571C146.813 149.801 153.553 147.46 151.413 146.47Z" fill="#F98478"/>
<path d="M125.982 143.981C130.862 144.191 135.982 146.481 138.872 146.931C142.426 147.31 146.019 146.911 149.402 145.761C152.772 144.651 157.052 142.621 164.842 140.761C168.212 139.981 166.572 138.241 165.242 139.321C162.052 140.811 150.992 141.071 148.182 141.691C145.372 142.311 143.652 143.611 139.512 142.811C136.372 142.811 127.582 143.051 124.982 142.361C123.002 141.061 122.402 143.821 125.982 143.981Z" fill="#A5312B"/>
<path d="M157.243 141.081C153.708 141.168 150.197 141.695 146.793 142.651C144.648 143.555 142.272 143.762 140.003 143.241C138.633 143.011 132.003 143.141 130.213 143.241C130.213 143.631 130.333 144.131 130.613 144.241C134.766 145.783 139.189 146.463 143.613 146.241C146.723 146.021 153.793 143.721 156.683 142.571C156.977 142.121 157.168 141.613 157.243 141.081Z" fill="#E5D6D1"/>
<path d="M161.213 140.641C163.113 140.141 165.943 139.151 166.023 138.281C166.103 137.411 168.023 137.821 167.253 139.491C166.823 140.341 163.343 140.621 161.213 140.641Z" fill="#7A1715"/>
<path d="M129.352 143.681C127.422 143.331 124.522 142.561 124.352 141.681C124.182 140.801 122.292 141.381 123.232 142.971C123.732 143.841 127.232 143.821 129.352 143.681Z" fill="#7A1715"/>
<path d="M116.602 88.9507C113.532 89.5607 106.652 95.1208 105.752 98.0508C108.182 100.301 112.172 102.541 119.752 102.201C127.332 101.861 129.962 100.351 131.812 100.561C136.702 101.101 133.302 98.5609 131.352 95.6509C129.402 92.7409 121.052 88.0807 116.602 88.9507Z" fill="#EC7348"/>
<path d="M131.881 97.4812C125.491 90.0612 113.881 90.9508 107.111 98.1408C109.291 100.391 120.511 103.591 130.671 98.9709C131.951 99.3409 133.121 98.7612 131.881 97.4812Z" fill="#F9C0C0"/>
<path d="M130.121 98.6204C126.331 92.9004 113.491 93.1404 109.191 98.6204C112.291 100.48 123.971 102.55 130.121 98.6204Z" fill="#FFFCF8"/>
<path d="M116.021 92.8606C114.021 95.1706 115.491 100.791 121.361 100.981C127.231 101.171 129.361 95.2904 126.971 92.8904C124.751 90.7104 116.941 91.7906 116.021 92.8606Z" fill="#332220"/>
<path d="M120.251 95.4409C118.989 96.2734 117.854 97.2839 116.881 98.4409C116.631 99.1509 119.001 101.081 122.481 100.761C125.961 100.441 127.131 98.021 127.121 97.481C127.111 96.941 123.591 95.481 123.591 95.481" fill="#63473E"/>
<path d="M121.502 92.6407C117.602 92.5207 117.092 97.821 121.332 98.211C125.572 98.601 126.182 92.7807 121.502 92.6407Z" fill="#110908"/>
<path d="M125.492 96.861C125.942 96.101 123.762 95.161 123.662 96.381C123.562 97.601 124.752 98.101 125.492 96.861Z" fill="#FFFCF8"/>
<path d="M135.063 98.421C132.733 96.011 130.403 93.3309 127.063 91.7609C123.723 90.1909 116.823 90.6309 113.693 91.7609C110.486 93.0331 107.53 94.8651 104.963 97.171C107.453 93.6631 111.13 91.1762 115.313 90.171C118.003 89.441 124.003 89.171 127.233 90.861C130.495 92.6035 133.207 95.2217 135.063 98.421Z" fill="#9E422A"/>
<path d="M107.111 98.1406C107.111 98.1406 111.111 94.3707 113.711 93.5307C116.311 92.6907 123.991 92.4609 126.951 93.9209C128.933 95.0757 130.801 96.4149 132.531 97.9209C132.531 97.9209 129.361 93.0809 127.771 91.9209C125.341 90.1809 117.521 89.8607 114.151 91.2407C111.054 92.624 108.557 95.0722 107.111 98.1406Z" fill="#160907"/>
<path d="M137.303 118.561C137.303 118.561 133.853 120.181 135.823 122.561C139.763 127.391 140.933 116.511 137.303 118.561Z" fill="#FFB797"/>
<path d="M170.792 87.5812C178.792 88.0912 182.032 92.3409 183.202 95.2809C179.19 98.9666 173.94 101.012 168.492 101.011C160.172 100.841 157.592 99.131 155.372 99.111C150.302 99.051 153.792 96.3209 155.772 93.2609C157.752 90.2009 162.542 87.0512 170.792 87.5812Z" fill="#E96B46"/>
<path d="M154.471 96.6408C152.611 96.7908 153.291 98.791 155.161 98.401C157.031 98.011 160.901 99.6712 167.381 99.7912C174.691 99.9312 181.631 95.3112 181.631 95.3112C181.631 95.3112 177.721 90.8711 168.201 90.7111C158.681 90.5511 154.471 96.6408 154.471 96.6408Z" fill="#F9C0C0"/>
<path d="M155.883 97.1908C160.713 90.9208 176.683 91.0209 179.883 95.2509C175.473 99.9209 159.953 99.7208 155.883 97.1908Z" fill="#FFFCF8"/>
<path d="M163.802 91.1806C161.742 93.4706 163.032 99.1306 168.912 99.4306C174.792 99.7306 177.152 93.8706 174.782 91.4306C172.672 89.1806 164.762 90.1206 163.802 91.1806Z" fill="#332220"/>
<path d="M167.972 93.8608C166.68 94.6574 165.511 95.6378 164.502 96.771C164.222 97.481 166.502 99.4607 170.032 99.2007C173.562 98.9407 174.782 96.531 174.792 96.001C174.802 95.471 171.322 94.001 171.322 94.001" fill="#63473E"/>
<path d="M169.561 90.8112C165.661 90.6112 164.981 95.931 169.231 96.401C173.481 96.871 174.241 91.0412 169.561 90.8112Z" fill="#110908"/>
<path d="M173.173 95.3408C173.653 94.5808 171.503 93.5907 171.353 94.8207C171.203 96.0507 172.403 96.6008 173.173 95.3408Z" fill="#FFFCF8"/>
<path d="M152.871 95.3406C155.232 92.9147 158.036 90.9629 161.131 89.5906C165.249 88.1271 169.718 87.9665 173.931 89.1307C178.721 90.8707 185.571 93.6707 185.571 93.6707C182.211 89.4007 175.031 88.3406 172.311 87.5906C168.502 86.8044 164.544 87.2057 160.971 88.7405C157.771 90.2431 154.989 92.5098 152.871 95.3406Z" fill="#9E422A"/>
<path d="M154.473 96.6407C154.473 96.6407 158.643 92.9807 161.833 91.9507C165.023 90.9207 171.433 90.5909 174.833 91.6509C177.358 92.5544 179.758 93.7778 181.973 95.2911C180.224 93.454 178.357 91.7333 176.383 90.1407C173.003 87.9507 165.383 87.611 161.633 89.231C157.883 90.851 154.473 96.6407 154.473 96.6407Z" fill="#160907"/>
<path d="M102.302 78.1606C103.522 85.5906 104.962 100.881 104.092 107.031C102.622 95.3908 98.0918 76.6606 98.0918 76.6606" fill="#020900"/>
<path d="M155.353 81.1805C152.713 82.2505 151.743 87.5105 153.053 87.6405C154.363 87.7705 166.053 81.5108 177.733 81.2108C181.413 81.9408 179.923 79.4406 175.213 78.9906C170.503 78.5406 157.673 80.2505 155.353 81.1805Z" fill="#160907"/>
<path d="M128.463 81.9706C130.593 82.6306 132.463 88.1607 131.313 88.5707C130.163 88.9807 126.883 86.4109 121.313 85.4609C115.743 84.5109 109.083 84.4609 108.693 83.4609C108.303 82.4609 120.453 79.5106 128.463 81.9706Z" fill="#160907"/>
<path d="M222.672 36.8311C231.062 41.6711 232.772 52.5109 225.132 58.2109C231.082 52.7309 231.292 43.8208 221.832 38.0308" fill="#211515"/>
<path d="M209.532 15.8706C212.702 16.3006 220.232 18.9507 214.732 24.4907C217.022 19.7807 214.462 16.3506 209.092 16.4106" fill="#211515"/>
<path d="M163.352 4.14046C168.272 -0.239542 183.012 -1.20915 183.952 1.54085C184.892 4.29085 175.662 -2.16956 164.202 4.12044" fill="#211515"/>
<path d="M199.602 79.9409C200.382 87.0009 196.912 101.941 196.602 104.001C196.412 105.231 199.082 107.001 199.852 106.101C201.392 103.561 208.852 81.4507 220.532 91.9507C223.912 78.4807 228.362 50.8807 221.792 38.0307C215.222 25.1807 191.532 -1.87913 150.362 3.92087C109.192 9.72087 97.812 42.711 97.362 51.771C97.122 57.101 95.8519 71.6207 99.6619 82.2007C101.972 88.6207 102.792 90.4606 103.732 93.1206C101.732 77.4506 102.682 58.0706 107.972 50.6406C112.142 44.7706 124.912 46.8507 139.162 51.0307C153.672 45.2507 173.872 44.2608 183.522 45.3008C187.582 45.7408 192.412 45.9907 192.412 45.9907C192.412 45.9907 189.162 47.2406 188.262 47.6006C189.387 47.5863 190.498 47.8435 191.503 48.3501C192.507 48.8566 193.375 49.5977 194.032 50.5107C192.495 50.0023 190.879 49.7785 189.262 49.8506C194.172 54.7906 196.932 63.7807 198.122 68.5107C196.432 64.8207 194.472 63.9809 194.472 63.9809C196.782 69.0891 198.503 74.4435 199.602 79.9409Z" fill="#020900"/>
<path d="M148.422 0.960738C153.552 2.37074 148.422 7.87076 134.352 12.7308C120.282 17.5908 114.642 29.7307 119.552 40.9607C114.662 27.7007 117.202 20.2107 129.612 12.8807C142.022 5.55066 146.752 0.0207376 148.422 0.960738Z" fill="#211515"/>
<path d="M142.352 2.83082C145.182 4.73082 137.032 6.02074 125.902 13.0007C114.772 19.9807 109.902 28.7403 119.582 42.1003C108.872 29.8203 111.942 20.5404 120.442 13.1804C128.942 5.82043 139.672 0.990816 142.352 2.83082Z" fill="#211515"/>
<path d="M93.6724 52.1108C93.1624 55.6008 95.6724 63.3009 97.6724 65.9209C95.8301 61.0513 95.0328 55.8487 95.3323 50.6509" fill="#020900"/>
<path d="M127.391 50.7909C112.611 49.9709 106.871 22.4608 135.971 13.9608C171.871 3.47084 180.791 3.35058 178.191 0.700584C182.921 -0.809416 186.691 1.26082 187.821 4.94082C195.741 4.68082 202.721 11.1008 202.501 13.6508C207.931 12.7908 218.321 23.0105 219.941 28.4105C224.511 30.3005 230.101 46.001 223.701 53.081C227.301 42.811 225.051 34.6507 212.391 38.8407C199.731 43.0307 189.131 46.2909 174.841 47.4809C160.551 48.6709 159.341 42.3105 146.841 52.1405C141.411 50.9805 143.071 39.7806 152.411 33.6806C140.731 40.8706 138.851 51.8206 143.611 53.6806C134.121 50.8106 126.371 35.5206 153.121 27.4906C129.211 32.0206 126.201 48.1208 133.571 52.6508C124.281 47.8408 119.121 30.3008 128.301 22.1708C115.241 31.8308 120.351 45.5109 127.391 50.7909Z" fill="#211515"/>
<path d="M103.862 36.341C106.352 34.731 109.301 34.901 109.921 37.091C110.542 39.281 102.672 41.591 102.672 41.591C102.672 41.591 108.671 40.7111 110.981 42.0011C106.751 43.0011 102.841 46.901 102.841 46.901C107.841 44.151 110.752 45.461 111.122 46.361C104.372 53.621 97.4015 64.2311 97.3015 71.7311C95.1715 63.6311 95.9415 56.791 100.502 52.901C95.9415 56.111 93.4115 61.8509 95.6015 66.5509C91.8415 61.0209 96.0415 51.9609 100.921 48.8009C94.9215 52.4009 93.9215 55.8009 93.9215 55.8009C92.5615 46.5409 96.9315 40.841 103.862 36.341Z" fill="#211515"/>
<path d="M109.402 31.111C108.342 25.521 99.4019 32.5308 96.1719 45.1808C101.012 33.0208 109.352 33.701 109.402 31.111Z" fill="#211515"/>
<path d="M206.672 43.2511C217.992 40.5611 227.812 50.111 225.122 55.821C226.962 59.681 228.012 65.8212 224.612 67.5812C222.922 61.1712 212.042 56.4211 212.042 56.4211C220.172 60.2411 228.302 72.8311 223.542 76.4211C221.212 69.3211 209.602 59.891 200.172 57.821C214.032 65.201 224.102 80.0409 221.672 82.4909C209.352 73.0109 196.122 61.9512 193.372 56.2712C197.162 54.3412 208.212 58.9211 208.212 58.9211C201.602 54.7011 192.442 53.851 191.792 52.651C191.142 51.451 200.042 48.751 207.412 50.071C202.283 48.5453 196.952 47.8069 191.602 47.881C197.562 44.631 206.672 43.2511 206.672 43.2511Z" fill="#211515"/>
<path d="M163.602 42.6204C179.602 42.4404 189.182 44.5408 198.132 39.9608C212.222 32.7608 215.862 33.0309 219.762 35.5609C214.462 31.8309 202.962 39.3209 194.832 43.2909C184.242 48.4609 174.802 42.9304 163.602 42.6204Z" fill="#422622"/>
<path d="M145.361 47.3408C147.721 37.2408 161.451 31.8308 177.911 30.3408C194.371 28.8508 206.651 26.4909 209.401 17.9609C212.061 21.0509 201.121 28.5006 188.271 31.3506C209.561 33.6406 217.731 23.2307 215.981 19.4507C218.221 24.3607 209.061 33.6707 185.541 36.2407C162.021 38.8107 153.071 50.121 147.221 50.541C149.491 44.891 160.371 38.6309 160.371 38.6309C150.751 41.6809 146.671 45.1408 145.361 47.3408Z" fill="#422622"/>
<path d="M139.023 46.9209C131.263 41.1009 134.813 28.4107 155.873 26.9707C176.933 25.5307 186.873 26.1809 190.733 21.6909C180.373 29.8109 163.123 29.091 152.023 31.001C140.923 32.911 138.033 40.9809 139.023 46.9209Z" fill="#422622"/>
<path d="M179.212 18.9106C169.332 24.7406 169.082 25.4211 149.382 28.3311C129.682 31.2411 120.562 39.8908 127.502 46.1108C115.502 40.5808 125.792 25.9808 146.422 25.8608C167.052 25.7408 174.812 21.9606 179.212 18.9106Z" fill="#422622"/>
<path d="M137.152 14.6006C120.532 24.8806 121.452 44.3909 130.222 48.7109C121.942 43.7109 119.952 31.791 119.952 31.791C118.242 41.031 121.172 45.9906 124.952 46.8506C110.372 41.7006 115.692 29.1806 120.542 24.6006C125.392 20.0206 137.152 14.6006 137.152 14.6006Z" fill="#422622"/>
<path d="M184.493 0.940918C187.823 4.94092 178.193 6.94102 154.713 10.041C164.946 8.1192 174.934 5.06707 184.493 0.940918Z" fill="#422622"/>
<path d="M201.962 14.3408C198.512 19.9508 188.592 23.2407 173.612 24.1807C181.002 22.8107 184.452 20.4206 188.462 11.3506C188.312 14.1006 177.992 19.6706 158.162 18.3506C180.562 16.0306 187.852 9.77074 188.162 5.01074C190.692 5.20074 191.892 11.461 191.382 13.291C190.872 15.121 200.622 14.6907 200.502 10.9507C201.862 11.8107 201.962 14.3408 201.962 14.3408Z" fill="#020900"/>
<path d="M202.981 14.251C204.981 16.981 193.151 26.081 176.201 28.521C198.761 27.621 212.671 20.111 202.981 14.251Z" fill="#020900"/>
<path d="M219.942 28.4106C214.722 26.2406 210.442 31.2306 203.152 33.4106C214.152 28.4106 217.002 23.0007 215.232 21.2007C217 23.4687 218.576 25.8803 219.942 28.4106Z" fill="#020900"/>
<path d="M159.222 1.77095C168.632 0.420949 166.302 3.30097 152.882 7.04097C139.462 10.781 130.252 14.4609 130.252 14.4609C139.658 9.68017 149.33 5.44326 159.222 1.77095Z" fill="#211515"/>
<path d="M200.452 68.2007C210.992 73.9807 212.702 82.2708 211.802 84.5308C210.902 86.7908 205.672 91.6108 205.672 91.6108C206.342 86.7508 202.162 77.7007 202.162 77.7007C205.542 87.7007 200.702 98.3306 198.422 102.351C199.431 91.2177 199.062 80.0032 197.322 68.9609C199.822 71.5609 205.762 81.1108 205.762 81.1108C202.272 72.6908 200.452 68.2007 200.452 68.2007Z" fill="#211515"/>
<path d="M101.671 64.811C97.6712 73.941 96.2612 78.1609 102.581 92.7109C101.981 73.5409 101.671 64.811 101.671 64.811Z" fill="#211515"/>
<path d="M199.771 45.0208C208.211 39.9508 217.241 47.6405 219.071 51.7405C212.901 46.8605 211.071 47.0408 211.071 47.0408C215.811 49.5408 218.071 55.6306 218.071 55.6306C213.071 52.0906 200.771 51.2708 200.771 51.2708C201.881 47.9308 210.901 49.8606 210.901 49.8606C207.557 47.5114 203.771 45.8651 199.771 45.0208Z" fill="#422622"/>
<path d="M201.091 57.5908C206.421 59.5908 211.091 64.511 210.811 67.061C202.751 64.741 198.671 58.7308 201.091 57.5908Z" fill="#422622"/>
<path d="M110.381 46.4007C109.441 49.6107 105.331 52.6806 103.191 53.3206C104.121 49.2606 105.731 45.2807 110.381 46.4007Z" fill="#422622"/>
<path d="M109.422 40.7009C106.242 43.3309 104.252 44.6312 102.422 45.0212C104.112 36.4512 105.782 36.021 109.282 36.281C107.455 37.3507 105.928 38.864 104.842 40.6809C107.672 38.9009 109.422 40.7009 109.422 40.7009Z" fill="#422622"/>
<path d="M202.721 102.071C205.361 92.3207 216.781 82.1806 223.211 85.4906C226.781 87.6206 226.041 102.881 222.571 108.491C219.101 114.101 215.931 115.641 212.621 121.361C209.311 127.081 200.761 129.251 199.541 121.361" fill="#F5845B"/>
<path d="M218.472 90.8007C214.292 91.7007 206.312 102.801 208.112 105.941C209.912 109.081 210.502 107.771 210.862 110.441C211.222 113.111 206.912 116.161 206.912 116.161C206.912 116.161 214.082 111.681 213.912 108.651C213.742 105.621 209.732 102.161 212.692 98.8905C215.652 95.6205 219.052 97.7505 218.522 100.431C217.992 103.111 216.412 109.891 216.412 109.891C216.412 109.891 221.912 101.491 222.252 96.6805C222.592 91.8705 219.522 90.5807 218.472 90.8007Z" fill="#D65736"/>
<path d="M52.6722 226.841C44.6722 228.491 19.1822 264.331 0.812222 302.971C-17.5578 341.611 -23.1278 374.821 -21.7178 380.531C-19.4178 366.961 -5.96777 338.191 -0.807774 335.831C4.35223 333.471 25.8222 333.831 29.2622 332.771C32.7022 331.711 47.6622 303.001 47.4822 295.671C47.3022 288.341 33.5522 274.791 33.3422 272.981C33.1322 271.171 48.8222 281.251 49.9922 278.981C51.1622 276.711 59.3722 225.461 52.6722 226.841Z" fill="#FCF8EB"/>
</g>
<defs>
<clipPath id="clip0_8_14324">
<rect width="246.68" height="246.68" fill="white" transform="translate(33 82)"/>
</clipPath>
</defs>
</svg>
