<svg viewBox="0 0 375 267" fill="none" xmlns="http://www.w3.org/2000/svg">
<path fill-rule="evenodd" clip-rule="evenodd" d="M1.63918e-05 187.5L1.65521e-05 185.667L0.00880561 185.667C0.99264 82.9575 84.5584 -2.53912e-05 187.5 -1.63918e-05C290.442 -7.39233e-06 374.007 82.9576 374.991 185.667L375 185.667L375 187.444C375 187.462 375 187.481 375 187.5C375 187.519 375 187.538 375 187.556L375 280L350.633 280C318.395 336.732 257.416 375 187.5 375C117.584 375 56.6054 336.732 24.3675 280L8.30516e-06 280L1.63918e-05 187.5Z" fill="#1B1464"/>
</svg>
