<svg viewBox="0 0 375 485" fill="none" xmlns="http://www.w3.org/2000/svg">
<path fill-rule="evenodd" clip-rule="evenodd" d="M375 0H0V297.5V299H0.00587487C0.811864 401.863 84.4471 485 187.5 485C290.553 485 374.188 401.863 374.994 299H375V297.5V0Z" fill="#1B1464"/>
<g clip-path="url(#clip0_0_1)">
<path d="M345.109 140.37C347.388 140.37 349.235 138.523 349.235 136.245C349.235 133.967 347.388 132.12 345.109 132.12C342.831 132.12 340.984 133.967 340.984 136.245C340.984 138.523 342.831 140.37 345.109 140.37Z" fill="#FBAE17"/>
<path d="M142.551 76.5801C145.079 76.5801 147.128 74.5311 147.128 72.0034C147.128 69.4758 145.079 67.4268 142.551 67.4268C140.024 67.4268 137.975 69.4758 137.975 72.0034C137.975 74.5311 140.024 76.5801 142.551 76.5801Z" fill="#FBAE17"/>
<path d="M12.1279 97.9672C16.0645 97.9672 19.2558 94.776 19.2558 90.8393C19.2558 86.9027 16.0645 83.7114 12.1279 83.7114C8.19127 83.7114 5 86.9027 5 90.8393C5 94.776 8.19127 97.9672 12.1279 97.9672Z" fill="#FBAE17"/>
<path d="M65.3169 106.507C67.8446 106.507 69.8936 104.458 69.8936 101.931C69.8936 99.4031 67.8446 97.354 65.3169 97.354C62.7893 97.354 60.7402 99.4031 60.7402 101.931C60.7402 104.458 62.7893 106.507 65.3169 106.507Z" fill="#FBAE17"/>
<path d="M357.224 266.105C363.913 266.105 369.336 260.682 369.336 253.993C369.336 247.303 363.913 241.88 357.224 241.88C350.534 241.88 345.111 247.303 345.111 253.993C345.111 260.682 350.534 266.105 357.224 266.105Z" fill="#88A80D"/>
<path d="M229.63 29.5561C233.566 29.5561 236.758 26.3648 236.758 22.4282C236.758 18.4916 233.566 15.3003 229.63 15.3003C225.693 15.3003 222.502 18.4916 222.502 22.4282C222.502 26.3648 225.693 29.5561 229.63 29.5561Z" fill="#7F47DD"/>
<path d="M71.9279 33.5398C72.8157 33.5398 73.5354 32.8201 73.5354 31.9323C73.5354 31.0444 72.8157 30.3247 71.9279 30.3247C71.04 30.3247 70.3203 31.0444 70.3203 31.9323C70.3203 32.8201 71.04 33.5398 71.9279 33.5398Z" fill="#7F47DD"/>
<path d="M179.727 39.869C180.615 39.869 181.334 39.1492 181.334 38.2614C181.334 37.3735 180.615 36.6538 179.727 36.6538C178.839 36.6538 178.119 37.3735 178.119 38.2614C178.119 39.1492 178.839 39.869 179.727 39.869Z" fill="#FBAE17"/>
<path d="M315.225 218.842C316.113 218.842 316.832 218.122 316.832 217.234C316.832 216.346 316.113 215.626 315.225 215.626C314.337 215.626 313.617 216.346 313.617 217.234C313.617 218.122 314.337 218.842 315.225 218.842Z" fill="#FBAE17"/>
<path d="M239.94 228.925C240.827 228.925 241.547 228.205 241.547 227.318C241.547 226.43 240.827 225.71 239.94 225.71C239.052 225.71 238.332 226.43 238.332 227.318C238.332 228.205 239.052 228.925 239.94 228.925Z" fill="#ED1E79"/>
<path d="M280.852 259.725C281.74 259.725 282.459 259.006 282.459 258.118C282.459 257.23 281.74 256.51 280.852 256.51C279.964 256.51 279.244 257.23 279.244 258.118C279.244 259.006 279.964 259.725 280.852 259.725Z" fill="#FBAE17"/>
<path d="M315.225 308.421C316.113 308.421 316.832 307.701 316.832 306.813C316.832 305.925 316.113 305.206 315.225 305.206C314.337 305.206 313.617 305.925 313.617 306.813C313.617 307.701 314.337 308.421 315.225 308.421Z" fill="#FBAE17"/>
<path d="M19.2599 213.705C25.1658 213.705 29.9535 208.918 29.9535 203.012C29.9535 197.106 25.1658 192.318 19.2599 192.318C13.3541 192.318 8.56641 197.106 8.56641 203.012C8.56641 208.918 13.3541 213.705 19.2599 213.705Z" fill="#7F47DD"/>
<path d="M139.45 205.3C143.387 205.3 146.578 202.109 146.578 198.172C146.578 194.236 143.387 191.044 139.45 191.044C135.514 191.044 132.322 194.236 132.322 198.172C132.322 202.109 135.514 205.3 139.45 205.3Z" fill="#7F47DD"/>
<path d="M300.966 97.9672C304.902 97.9672 308.094 94.776 308.094 90.8393C308.094 86.9027 304.902 83.7114 300.966 83.7114C297.029 83.7114 293.838 86.9027 293.838 90.8393C293.838 94.776 297.029 97.9672 300.966 97.9672Z" fill="#88A80D"/>
<path d="M105.068 232.841C107.037 232.841 108.633 231.245 108.633 229.276C108.633 227.306 107.037 225.71 105.068 225.71C103.098 225.71 101.502 227.306 101.502 229.276C101.502 231.245 103.098 232.841 105.068 232.841Z" fill="#88A80D"/>
<path d="M332.173 7.25581C336.109 7.25581 339.301 4.06454 339.301 0.127904C339.301 -3.80873 336.109 -7 332.173 -7C328.236 -7 325.045 -3.80873 325.045 0.127904C325.045 4.06454 328.236 7.25581 332.173 7.25581Z" fill="#88A80D"/>
<path d="M315.225 51.924C317.503 51.924 319.35 50.0771 319.35 47.7989C319.35 45.5207 317.503 43.6738 315.225 43.6738C312.946 43.6738 311.1 45.5207 311.1 47.7989C311.1 50.0771 312.946 51.924 315.225 51.924Z" fill="#88A80D"/>
<path d="M123.872 33.54C127.809 33.54 131 30.3487 131 26.4121C131 22.4755 127.809 19.2842 123.872 19.2842C119.935 19.2842 116.744 22.4755 116.744 26.4121C116.744 30.3487 119.935 33.54 123.872 33.54Z" fill="#88A80D"/>
<path d="M282.46 180.951C286.397 180.951 289.588 177.759 289.588 173.823C289.588 169.886 286.397 166.695 282.46 166.695C278.523 166.695 275.332 169.886 275.332 173.823C275.332 177.759 278.523 180.951 282.46 180.951Z" fill="#88A80D"/>
<path d="M275.331 47.7988C279.268 47.7988 282.459 44.6075 282.459 40.6709C282.459 36.7342 279.268 33.543 275.331 33.543C271.394 33.543 268.203 36.7342 268.203 40.6709C268.203 44.6075 271.394 47.7988 275.331 47.7988Z" fill="#ED1E79"/>
<path d="M36.4834 258.107C40.42 258.107 43.6113 254.916 43.6113 250.979C43.6113 247.043 40.42 243.852 36.4834 243.852C32.5467 243.852 29.3555 247.043 29.3555 250.979C29.3555 254.916 32.5467 258.107 36.4834 258.107Z" fill="#ED1E79"/>
<path d="M36.4834 7.25581C40.42 7.25581 43.6113 4.06454 43.6113 0.127904C43.6113 -3.80873 40.42 -7 36.4834 -7C32.5467 -7 29.3555 -3.80873 29.3555 0.127904C29.3555 4.06454 32.5467 7.25581 36.4834 7.25581Z" fill="#ED1E79"/>
<path d="M213.117 83.1183C215.396 83.1183 217.242 81.2715 217.242 78.9933C217.242 76.715 215.396 74.8682 213.117 74.8682C210.839 74.8682 208.992 76.715 208.992 78.9933C208.992 81.2715 210.839 83.1183 213.117 83.1183Z" fill="#ED1E79"/>
<path d="M50.8618 176.252C53.3895 176.252 55.4385 174.203 55.4385 171.676C55.4385 169.148 53.3895 167.099 50.8618 167.099C48.3342 167.099 46.2852 169.148 46.2852 171.676C46.2852 174.203 48.3342 176.252 50.8618 176.252Z" fill="#ED1E79"/>
<path d="M60.7353 348C64.672 348 67.8632 344.809 67.8632 340.872C67.8632 336.935 64.672 333.744 60.7353 333.744C56.7987 333.744 53.6074 336.935 53.6074 340.872C53.6074 344.809 56.7987 348 60.7353 348Z" fill="#ED1E79"/>
<path d="M202.988 182.959C205.267 182.959 207.113 181.112 207.113 178.834C207.113 176.556 205.267 174.709 202.988 174.709C200.71 174.709 198.863 176.556 198.863 178.834C198.863 181.112 200.71 182.959 202.988 182.959Z" fill="#ED1E79"/>
</g>
<defs>
<clipPath id="clip0_0_1">
<rect width="375" height="397" fill="white"/>
</clipPath>
</defs>
</svg>
