<svg width="874" height="650" viewBox="0 0 874 650" fill="none" xmlns="http://www.w3.org/2000/svg">
<path d="M740.239 33.706C740.239 33.706 671.091 -15.1325 581.78 33.706C502.847 76.861 437.751 74.117 437 74.2082C436.25 74.0909 371.154 76.861 292.221 33.706C202.851 -15.1325 133.762 33.706 133.762 33.706C133.762 33.706 27.5619 74.117 37.6796 217.296C47.7973 360.474 66.3367 557.53 66.3367 557.53C66.3367 557.53 81.5035 619.847 150.619 621.535C219.733 623.224 237.568 567.632 237.568 567.632L282.103 416.052C282.103 416.052 349.535 437.946 354.591 358.786H519.41C524.466 437.946 591.897 416.052 591.897 416.052L636.432 567.632C636.432 567.632 654.267 623.217 723.382 621.535C792.497 619.854 807.664 557.53 807.664 557.53C807.664 557.53 826.21 360.468 836.321 217.296C846.432 74.1235 740.239 33.706 740.239 33.706Z" fill="#1B1464"/>
</svg>
