<svg width="1152" height="700" viewBox="0 0 1152 700" fill="none" xmlns="http://www.w3.org/2000/svg">
<g clip-path="url(#clip0_44_15846)">
<path d="M1000.73 504.91C1006.05 504.91 1010.36 500.596 1010.36 495.274C1010.36 489.952 1006.05 485.638 1000.73 485.638C995.416 485.638 991.105 489.952 991.105 495.274C991.105 500.596 995.416 504.91 1000.73 504.91Z" fill="#88A80D"/>
<path d="M1030.33 647.394C1035.65 647.394 1039.96 643.08 1039.96 637.759C1039.96 632.437 1035.65 628.123 1030.33 628.123C1025.02 628.123 1020.71 632.437 1020.71 637.759C1020.71 643.08 1025.02 647.394 1030.33 647.394Z" fill="#7F47DD"/>
<path d="M1061.44 462.129C1066.75 462.129 1071.06 457.815 1071.06 452.493C1071.06 447.172 1066.75 442.857 1061.44 442.857C1056.12 442.857 1051.81 447.172 1051.81 452.493C1051.81 457.815 1056.12 462.129 1061.44 462.129Z" fill="#FBAE17"/>
<path d="M125.889 137.813C131.205 137.813 135.516 133.499 135.516 128.177C135.516 122.856 131.205 118.542 125.889 118.542C120.572 118.542 116.262 122.856 116.262 128.177C116.262 133.499 120.572 137.813 125.889 137.813Z" fill="#FBAE17"/>
<path d="M47.7832 306.048C53.1 306.048 57.4101 301.734 57.4101 296.412C57.4101 291.09 53.1 286.776 47.7832 286.776C42.4664 286.776 38.1562 291.09 38.1562 296.412C38.1562 301.734 42.4664 306.048 47.7832 306.048Z" fill="white"/>
<path d="M84.8339 97.2673C90.1507 97.2673 94.4609 92.9531 94.4609 87.6314C94.4609 82.3097 90.1507 77.9956 84.8339 77.9956C79.5171 77.9956 75.207 82.3097 75.207 87.6314C75.207 92.9531 79.5171 97.2673 84.8339 97.2673Z" fill="white"/>
<path d="M244.346 225.578C249.662 225.578 253.973 221.264 253.973 215.942C253.973 210.62 249.662 206.306 244.346 206.306C239.029 206.306 234.719 210.62 234.719 215.942C234.719 221.264 239.029 225.578 244.346 225.578Z" fill="#FBAE17"/>
<path d="M986.949 478.218C988.082 478.218 989 477.299 989 476.165C989 475.032 988.082 474.113 986.949 474.113C985.817 474.113 984.898 475.032 984.898 476.165C984.898 477.299 985.817 478.218 986.949 478.218Z" fill="white"/>
<path d="M101.793 321.101C102.926 321.101 103.844 320.182 103.844 319.048C103.844 317.915 102.926 316.996 101.793 316.996C100.66 316.996 99.7422 317.915 99.7422 319.048C99.7422 320.182 100.66 321.101 101.793 321.101Z" fill="white"/>
<path d="M1010.36 463.918C1011.49 463.918 1012.41 462.999 1012.41 461.866C1012.41 460.732 1011.49 459.813 1010.36 459.813C1009.23 459.813 1008.31 460.732 1008.31 461.866C1008.31 462.999 1009.23 463.918 1010.36 463.918Z" fill="white"/>
<path d="M59.461 399.75C60.5936 399.75 61.5118 398.831 61.5118 397.698C61.5118 396.564 60.5936 395.645 59.461 395.645C58.3283 395.645 57.4102 396.564 57.4102 397.698C57.4102 398.831 58.3283 399.75 59.461 399.75Z" fill="white"/>
<path d="M33.4336 30.1054C34.5663 30.1054 35.4844 29.1864 35.4844 28.0527C35.4844 26.919 34.5663 26 33.4336 26C32.301 26 31.3828 26.919 31.3828 28.0527C31.3828 29.1864 32.301 30.1054 33.4336 30.1054Z" fill="white"/>
<path d="M300.871 257.58C302.004 257.58 302.922 256.661 302.922 255.527C302.922 254.394 302.004 253.475 300.871 253.475C299.738 253.475 298.82 254.394 298.82 255.527C298.82 256.661 299.738 257.58 300.871 257.58Z" fill="white"/>
<path d="M267.008 188.396C268.14 188.396 269.059 187.477 269.059 186.344C269.059 185.21 268.14 184.291 267.008 184.291C265.875 184.291 264.957 185.21 264.957 186.344C264.957 187.477 265.875 188.396 267.008 188.396Z" fill="white"/>
<path d="M57.4102 608.362C58.5428 608.362 59.461 607.442 59.461 606.309C59.461 605.175 58.5428 604.256 57.4102 604.256C56.2776 604.256 55.3594 605.175 55.3594 606.309C55.3594 607.442 56.2776 608.362 57.4102 608.362Z" fill="white"/>
<path d="M28.0782 182.427C29.2108 182.427 30.129 181.508 30.129 180.374C30.129 179.24 29.2108 178.321 28.0782 178.321C26.9455 178.321 26.0273 179.24 26.0273 180.374C26.0273 181.508 26.9455 182.427 28.0782 182.427Z" fill="white"/>
<path d="M82.7774 576.403C83.91 576.403 84.8282 575.484 84.8282 574.351C84.8282 573.217 83.91 572.298 82.7774 572.298C81.6447 572.298 80.7266 573.217 80.7266 574.351C80.7266 575.484 81.6447 576.403 82.7774 576.403Z" fill="white"/>
<path d="M991.113 593.785C992.246 593.785 993.164 592.866 993.164 591.733C993.164 590.599 992.246 589.68 991.113 589.68C989.981 589.68 989.062 590.599 989.062 591.733C989.062 592.866 989.981 593.785 991.113 593.785Z" fill="white"/>
<path d="M1006.25 387.748C1007.38 387.748 1008.3 386.829 1008.3 385.695C1008.3 384.562 1007.38 383.643 1006.25 383.643C1005.12 383.643 1004.2 384.562 1004.2 385.695C1004.2 386.829 1005.12 387.748 1006.25 387.748Z" fill="white"/>
<path d="M1030.82 40.9023C1031.96 40.9023 1032.88 39.9833 1032.88 38.8496C1032.88 37.7159 1031.96 36.7969 1030.82 36.7969C1029.69 36.7969 1028.77 37.7159 1028.77 38.8496C1028.77 39.9833 1029.69 40.9023 1030.82 40.9023Z" fill="white"/>
<path d="M925.154 307.855C926.287 307.855 927.205 306.936 927.205 305.803C927.205 304.669 926.287 303.75 925.154 303.75C924.022 303.75 923.104 304.669 923.104 305.803C923.104 306.936 924.022 307.855 925.154 307.855Z" fill="white"/>
<path d="M177.586 426.467C181.555 426.467 184.773 423.247 184.773 419.273C184.773 415.3 181.555 412.08 177.586 412.08C173.616 412.08 170.398 415.3 170.398 419.273C170.398 423.247 173.616 426.467 177.586 426.467Z" fill="white"/>
<path d="M29.726 497.39C31.7731 497.39 33.4326 495.729 33.4326 493.68C33.4326 491.631 31.7731 489.97 29.726 489.97C27.679 489.97 26.0195 491.631 26.0195 493.68C26.0195 495.729 27.679 497.39 29.726 497.39Z" fill="#FBAE17"/>
<path d="M1113.57 572.461C1115.84 572.461 1117.69 570.617 1117.69 568.343C1117.69 566.069 1115.84 564.225 1113.57 564.225C1111.3 564.225 1109.46 566.069 1109.46 568.343C1109.46 570.617 1111.3 572.461 1113.57 572.461Z" fill="#FBAE17"/>
<path d="M896.536 612.957C901.631 612.957 905.762 608.822 905.762 603.723C905.762 598.623 901.631 594.489 896.536 594.489C891.441 594.489 887.311 598.623 887.311 603.723C887.311 608.822 891.441 612.957 896.536 612.957Z" fill="#FBAE17"/>
<path d="M830.491 530.923C835.586 530.923 839.717 526.789 839.717 521.689C839.717 516.589 835.586 512.455 830.491 512.455C825.396 512.455 821.266 516.589 821.266 521.689C821.266 526.789 825.396 530.923 830.491 530.923Z" fill="#7F47DD"/>
<path d="M146.478 488.237C150.014 488.237 152.881 485.367 152.881 481.828C152.881 478.288 150.014 475.418 146.478 475.418C142.941 475.418 140.074 478.288 140.074 481.828C140.074 485.367 142.941 488.237 146.478 488.237Z" fill="#FBAE17"/>
<path d="M150.591 379.701C152.863 379.701 154.705 377.857 154.705 375.583C154.705 373.309 152.863 371.465 150.591 371.465C148.319 371.465 146.477 373.309 146.477 375.583C146.477 377.857 148.319 379.701 150.591 379.701Z" fill="#FBAE17"/>
<path d="M185.745 588.199C191.754 588.199 196.626 583.322 196.626 577.307C196.626 571.292 191.754 566.416 185.745 566.416C179.735 566.416 174.863 571.292 174.863 577.307C174.863 583.322 179.735 588.199 185.745 588.199Z" fill="#88A80D"/>
<path d="M1020.71 222.351C1024.24 222.351 1027.11 219.482 1027.11 215.942C1027.11 212.402 1024.24 209.533 1020.71 209.533C1017.17 209.533 1014.3 212.402 1014.3 215.942C1014.3 219.482 1017.17 222.351 1020.71 222.351Z" fill="#7F47DD"/>
<path d="M1050.11 533.748C1050.91 533.748 1051.55 533.102 1051.55 532.304C1051.55 531.507 1050.91 530.86 1050.11 530.86C1049.31 530.86 1048.67 531.507 1048.67 532.304C1048.67 533.102 1049.31 533.748 1050.11 533.748Z" fill="#7F47DD"/>
<path d="M1146.98 539.442C1147.78 539.442 1148.42 538.795 1148.42 537.998C1148.42 537.201 1147.78 536.554 1146.98 536.554C1146.18 536.554 1145.54 537.201 1145.54 537.998C1145.54 538.795 1146.18 539.442 1146.98 539.442Z" fill="#FBAE17"/>
<path d="M156.087 86.7152C156.884 86.7152 157.529 86.0688 157.529 85.2714C157.529 84.474 156.884 83.8276 156.087 83.8276C155.29 83.8276 154.645 84.474 154.645 85.2714C154.645 86.0688 155.29 86.7152 156.087 86.7152Z" fill="#FBAE17"/>
<path d="M1073.78 262.181C1074.58 262.181 1075.23 261.535 1075.23 260.737C1075.23 259.94 1074.58 259.293 1073.78 259.293C1072.99 259.293 1072.34 259.94 1072.34 260.737C1072.34 261.535 1072.99 262.181 1073.78 262.181Z" fill="#FBAE17"/>
<path d="M1073.78 179.759C1074.58 179.759 1075.23 179.112 1075.23 178.315C1075.23 177.518 1074.58 176.871 1073.78 176.871C1072.99 176.871 1072.34 177.518 1072.34 178.315C1072.34 179.112 1072.99 179.759 1073.78 179.759Z" fill="#FBAE17"/>
<path d="M839.716 156.005C840.513 156.005 841.158 155.359 841.158 154.561C841.158 153.764 840.513 153.118 839.716 153.118C838.919 153.118 838.273 153.764 838.273 154.561C838.273 155.359 838.919 156.005 839.716 156.005Z" fill="#FBAE17"/>
<path d="M1006.14 271.252C1006.94 271.252 1007.58 270.606 1007.58 269.809C1007.58 269.011 1006.94 268.365 1006.14 268.365C1005.34 268.365 1004.7 269.011 1004.7 269.809C1004.7 270.606 1005.34 271.252 1006.14 271.252Z" fill="#ED1E79"/>
<path d="M1042.9 298.954C1043.69 298.954 1044.34 298.308 1044.34 297.51C1044.34 296.713 1043.69 296.066 1042.9 296.066C1042.1 296.066 1041.46 296.713 1041.46 297.51C1041.46 298.308 1042.1 298.954 1042.9 298.954Z" fill="#FBAE17"/>
<path d="M1073.78 342.745C1074.58 342.745 1075.23 342.099 1075.23 341.302C1075.23 340.504 1074.58 339.858 1073.78 339.858C1072.99 339.858 1072.34 340.504 1072.34 341.302C1072.34 342.099 1072.99 342.745 1073.78 342.745Z" fill="#FBAE17"/>
<path d="M146.479 430.321C151.786 430.321 156.087 426.016 156.087 420.704C156.087 415.393 151.786 411.087 146.479 411.087C141.173 411.087 136.871 415.393 136.871 420.704C136.871 426.016 141.173 430.321 146.479 430.321Z" fill="#7F47DD"/>
<path d="M1138.89 445.343C1142.43 445.343 1145.29 442.474 1145.29 438.934C1145.29 435.394 1142.43 432.525 1138.89 432.525C1135.35 432.525 1132.49 435.394 1132.49 438.934C1132.49 442.474 1135.35 445.343 1138.89 445.343Z" fill="#7F47DD"/>
<path d="M874.009 263.531C877.545 263.531 880.412 260.661 880.412 257.122C880.412 253.582 877.545 250.712 874.009 250.712C870.472 250.712 867.605 253.582 867.605 257.122C867.605 260.661 870.472 263.531 874.009 263.531Z" fill="#7F47DD"/>
<path d="M119.485 616.541C123.022 616.541 125.889 613.672 125.889 610.132C125.889 606.592 123.022 603.723 119.485 603.723C115.949 603.723 113.082 606.592 113.082 610.132C113.082 613.672 115.949 616.541 119.485 616.541Z" fill="#88A80D"/>
<path d="M221.017 343.423C224.553 343.423 227.42 340.554 227.42 337.014C227.42 333.475 224.553 330.605 221.017 330.605C217.48 330.605 214.613 333.475 214.613 337.014C214.613 340.554 217.48 343.423 221.017 343.423Z" fill="#88A80D"/>
<path d="M1102.62 466.913C1104.39 466.913 1105.83 465.476 1105.83 463.705C1105.83 461.933 1104.39 460.497 1102.62 460.497C1100.85 460.497 1099.42 461.933 1099.42 463.705C1099.42 465.476 1100.85 466.913 1102.62 466.913Z" fill="#88A80D"/>
<path d="M952.021 376.003C953.791 376.003 955.226 374.567 955.226 372.796C955.226 371.024 953.791 369.588 952.021 369.588C950.251 369.588 948.816 371.024 948.816 372.796C948.816 374.567 950.251 376.003 952.021 376.003Z" fill="#88A80D"/>
<path d="M73.1689 352.325C76.7054 352.325 79.5722 349.455 79.5722 345.916C79.5722 342.376 76.7054 339.506 73.1689 339.506C69.6325 339.506 66.7656 342.376 66.7656 345.916C66.7656 349.455 69.6325 352.325 73.1689 352.325Z" fill="#88A80D"/>
<path d="M95.4409 456.31C97.4879 456.31 99.1474 454.649 99.1474 452.6C99.1474 450.551 97.4879 448.89 95.4409 448.89C93.3938 448.89 91.7344 450.551 91.7344 452.6C91.7344 454.649 93.3938 456.31 95.4409 456.31Z" fill="#88A80D"/>
<path d="M278.425 259.237C280.472 259.237 282.132 257.576 282.132 255.527C282.132 253.478 280.472 251.817 278.425 251.817C276.378 251.817 274.719 253.478 274.719 255.527C274.719 257.576 276.378 259.237 278.425 259.237Z" fill="#88A80D"/>
<path d="M304.578 308.345C306.625 308.345 308.284 306.684 308.284 304.635C308.284 302.586 306.625 300.925 304.578 300.925C302.531 300.925 300.871 302.586 300.871 304.635C300.871 306.684 302.531 308.345 304.578 308.345Z" fill="#88A80D"/>
<path d="M1096.79 533.748C1100.32 533.748 1103.19 530.879 1103.19 527.339C1103.19 523.799 1100.32 520.93 1096.79 520.93C1093.25 520.93 1090.38 523.799 1090.38 527.339C1090.38 530.879 1093.25 533.748 1096.79 533.748Z" fill="#88A80D"/>
<path d="M1059.29 299.978C1062.83 299.978 1065.7 297.108 1065.7 293.568C1065.7 290.029 1062.83 287.159 1059.29 287.159C1055.76 287.159 1052.89 290.029 1052.89 293.568C1052.89 297.108 1055.76 299.978 1059.29 299.978Z" fill="#88A80D"/>
<path d="M76.376 242.301C79.9124 242.301 82.7793 239.431 82.7793 235.892C82.7793 232.352 79.9124 229.482 76.376 229.482C72.8395 229.482 69.9727 232.352 69.9727 235.892C69.9727 239.431 72.8395 242.301 76.376 242.301Z" fill="#ED1E79"/>
<path d="M10.4033 673C13.9398 673 16.8066 670.131 16.8066 666.591C16.8066 663.051 13.9398 660.182 10.4033 660.182C6.86686 660.182 4 663.051 4 666.591C4 670.131 6.86686 673 10.4033 673Z" fill="#ED1E79"/>
<path d="M1046.36 492.838C1049.9 492.838 1052.77 489.969 1052.77 486.429C1052.77 482.89 1049.9 480.02 1046.36 480.02C1042.83 480.02 1039.96 482.89 1039.96 486.429C1039.96 489.969 1042.83 492.838 1046.36 492.838Z" fill="#ED1E79"/>
<path d="M254.652 649.014C260.343 649.014 264.956 644.396 264.956 638.7C264.956 633.004 260.343 628.386 254.652 628.386C248.961 628.386 244.348 633.004 244.348 638.7C244.348 644.396 248.961 649.014 254.652 649.014Z" fill="#ED1E79"/>
<path d="M1145.29 187.794C1147.34 187.794 1149 186.133 1149 184.084C1149 182.035 1147.34 180.374 1145.29 180.374C1143.25 180.374 1141.59 182.035 1141.59 184.084C1141.59 186.133 1143.25 187.794 1145.29 187.794Z" fill="#ED1E79"/>
<path d="M1027.12 118.548C1029.17 118.548 1030.83 116.887 1030.83 114.838C1030.83 112.789 1029.17 111.128 1027.12 111.128C1025.07 111.128 1023.41 112.789 1023.41 114.838C1023.41 116.887 1025.07 118.548 1027.12 118.548Z" fill="#ED1E79"/>
<path d="M1059.29 419.223C1061.56 419.223 1063.41 417.38 1063.41 415.105C1063.41 412.831 1061.56 410.987 1059.29 410.987C1057.02 410.987 1055.18 412.831 1055.18 415.105C1055.18 417.38 1057.02 419.223 1059.29 419.223Z" fill="#ED1E79"/>
<path d="M891.94 330.297C894.213 330.297 896.055 328.454 896.055 326.18C896.055 323.905 894.213 322.062 891.94 322.062C889.668 322.062 887.826 323.905 887.826 326.18C887.826 328.454 889.668 330.297 891.94 330.297Z" fill="#ED1E79"/>
<path d="M1068.16 573.692C1071.7 573.692 1074.56 570.822 1074.56 567.282C1074.56 563.743 1071.7 560.873 1068.16 560.873C1064.62 560.873 1061.76 563.743 1061.76 567.282C1061.76 570.822 1064.62 573.692 1068.16 573.692Z" fill="#ED1E79"/>
<path d="M1119.74 321.327C1121.78 321.327 1123.44 319.666 1123.44 317.617C1123.44 315.568 1121.78 313.907 1119.74 313.907C1117.69 313.907 1116.03 315.568 1116.03 317.617C1116.03 319.666 1117.69 321.327 1119.74 321.327Z" fill="#ED1E79"/>
<path d="M928.855 213.236C930.902 213.236 932.561 211.575 932.561 209.526C932.561 207.477 930.902 205.816 928.855 205.816C926.808 205.816 925.148 207.477 925.148 209.526C925.148 211.575 926.808 213.236 928.855 213.236Z" fill="#ED1E79"/>
<g clip-path="url(#clip1_44_15846)">
<path d="M975.342 516.805C975.601 520.376 975.772 523.942 975.856 527.502C975.958 531.064 975.992 534.621 975.992 538.183C975.992 545.295 975.821 552.402 975.468 559.474C974.817 573.676 973.562 587.844 971.611 602C971.097 605.545 970.572 609.078 969.945 612.617L968.964 617.934C968.81 618.82 968.598 619.712 968.393 620.604L967.788 623.274C967.577 624.166 967.4 625.047 967.161 625.95L966.362 628.666C966.088 629.575 965.843 630.467 965.546 631.382C965.249 632.297 964.873 633.247 964.468 634.144C962.917 637.697 960.948 641.049 958.603 644.128C958.032 644.905 957.422 645.607 956.829 646.35C956.235 647.092 955.59 647.765 954.974 648.473C953.691 649.837 952.367 651.149 950.981 652.392C949.594 653.635 948.208 654.832 946.765 655.954C945.321 657.076 943.843 658.158 942.337 659.176C939.344 661.207 936.229 663.048 933.009 664.689C929.815 666.341 926.507 667.759 923.111 668.93C922.912 668.998 922.695 668.99 922.502 668.907C922.308 668.825 922.151 668.674 922.06 668.484C921.969 668.293 921.95 668.075 922.007 667.871C922.064 667.667 922.193 667.491 922.369 667.376H922.403C928.213 663.604 933.715 659.371 938.857 654.717C943.889 650.079 948.476 645.032 951.916 639.473C953.623 636.759 955.029 633.865 956.11 630.841C956.389 630.105 956.578 629.351 956.823 628.609C957.068 627.866 957.194 626.997 957.393 626.197L957.964 623.786C958.141 622.969 958.278 622.106 958.432 621.266L958.894 618.734C959.048 617.894 959.208 617.054 959.322 616.19L960.109 611.011C960.394 609.285 960.583 607.559 960.822 605.832L961.541 600.653C963.315 586.733 964.924 572.715 966.847 558.715C967.788 551.712 968.787 544.708 969.899 537.705C971.012 530.702 972.181 523.699 973.642 516.707C973.676 516.493 973.788 516.301 973.956 516.166C974.124 516.031 974.336 515.965 974.55 515.979C974.764 515.993 974.965 516.088 975.113 516.244C975.262 516.4 975.348 516.606 975.353 516.822L975.342 516.805Z" fill="#ED1E79"/>
</g>
</g>
<g clip-path="url(#clip2_44_15846)">
<path d="M160.468 251.866C160.552 257.116 160.909 262.438 161.295 267.699C161.68 272.96 162.16 278.243 162.668 283.493C163.752 294.004 164.768 304.637 165.566 315.242C166.365 325.847 167.041 336.492 167.482 347.141C167.923 357.791 168.163 368.468 167.884 379.184C167.903 379.405 167.833 379.625 167.69 379.794C167.546 379.964 167.341 380.07 167.119 380.089C166.897 380.108 166.676 380.039 166.505 379.896C166.334 379.754 166.228 379.55 166.208 379.329C164.081 368.785 162.523 358.24 161.149 347.668C159.776 337.096 158.692 326.486 157.799 315.858C157.336 310.547 156.967 305.225 156.643 299.898C156.319 294.57 156.085 289.242 156.018 283.848C155.951 278.454 156.068 273.082 156.47 267.699C156.66 265.007 156.933 262.316 157.296 259.641C157.486 258.298 157.693 256.961 157.927 255.623C158.162 254.286 158.436 252.97 158.804 251.622C158.832 251.401 158.946 251.2 159.122 251.063C159.299 250.926 159.523 250.865 159.745 250.892C159.967 250.919 160.169 251.033 160.307 251.208C160.445 251.384 160.507 251.606 160.479 251.827L160.468 251.866Z" fill="#F7931E"/>
</g>
<defs>
<clipPath id="clip0_44_15846">
<rect width="1145" height="647" fill="white" transform="translate(4 26)"/>
</clipPath>
<clipPath id="clip1_44_15846">
<rect width="54" height="153" fill="white" transform="translate(922 516)"/>
</clipPath>
<clipPath id="clip2_44_15846">
<rect width="12" height="129" fill="white" transform="translate(156 251)"/>
</clipPath>
</defs>
</svg>
