<svg width="47" height="35" viewBox="0 0 47 35" fill="none" xmlns="http://www.w3.org/2000/svg">
<g clip-path="url(#clip0_31_10558)">
<path d="M47.0047 9.83322V31.275C46.9831 31.2975 46.9645 31.3226 46.9495 31.3498C46.3273 33.8431 44.817 34.9999 42.248 34.9999H4.29471C3.72263 34.9947 3.15726 34.877 2.63125 34.6534C2.10523 34.4298 1.62902 34.1048 1.23012 33.6973C0.831214 33.2897 0.517538 32.8077 0.307199 32.279C0.0968604 31.7502 -0.00597669 31.1853 0.00465382 30.6168C0.00465382 23.8087 0.00465382 16.9938 0.00465382 10.1723C0.0098828 10.0554 0.0216121 9.93886 0.0397808 9.82324L0.205371 9.91303L19.2422 22.5288C22.0922 24.4137 24.9121 24.4187 27.7722 22.5288L44.7818 11.2793C45.5144 10.7807 46.2621 10.3119 47.0047 9.83322Z" fill="white"/>
<path d="M47.0059 4.90662C46.8806 5.38734 46.6969 5.85116 46.459 6.28788C46.0997 6.84921 45.6406 7.34092 45.1042 7.73896C38.7218 12.0007 32.326 16.2426 25.9169 20.4644C25.215 20.9723 24.3691 21.2459 23.5009 21.2459C22.6327 21.2459 21.7868 20.9723 21.0849 20.4644C14.6691 16.2359 8.25821 11.9907 1.85238 7.72897C1.11518 7.25083 0.552935 6.549 0.249191 5.72788C-0.0545535 4.90675 -0.0835741 4.01016 0.166472 3.17134C0.411144 2.28954 0.932198 1.50815 1.65399 0.940577C2.37579 0.373001 3.26078 0.0487923 4.18056 0.0149281C4.32106 0.0149281 4.45654 0.0149281 4.59703 0.0149281C17.2147 0.0149281 29.8357 0.0149281 42.46 0.0149281C43.4071 -0.0310741 44.3434 0.231361 45.1267 0.76235C45.9101 1.29334 46.4976 2.06388 46.8002 2.95695C46.8855 3.21625 46.9557 3.45557 47.031 3.73481L47.0059 4.90662Z" fill="white"/>
</g>
<defs>
<clipPath id="clip0_31_10558">
<rect width="47" height="35" fill="white"/>
</clipPath>
</defs>
</svg>
