<?xml version="1.0" standalone="no"?>
<!DOCTYPE svg PUBLIC "-//W3C//DTD SVG 20010904//EN"
 "http://www.w3.org/TR/2001/REC-SVG-20010904/DTD/svg10.dtd">
<svg version="1.0" xmlns="http://www.w3.org/2000/svg"
 width="880.000000pt" height="681.000000pt" viewBox="0 0 880.000000 681.000000"
 preserveAspectRatio="xMidYMid meet">
<metadata>
Created by potrace 1.16, written by Peter Selinger 2001-2019
</metadata>
<g transform="translate(0.000000,681.000000) scale(0.100000,-0.100000)"
fill="#000000" stroke="none">
<path d="M4260 6403 c-610 -32 -1188 -245 -1689 -621 -139 -104 -397 -358
-510 -500 -355 -450 -570 -975 -642 -1567 -18 -146 -15 -503 5 -660 47 -366
133 -650 301 -990 154 -312 314 -536 559 -781 245 -245 469 -405 781 -559 341
-168 621 -253 993 -301 171 -23 512 -22 687 0 549 71 1039 270 1484 604 139
104 397 358 510 500 296 375 506 829 600 1297 74 366 74 786 0 1156 -93 469
-303 925 -601 1301 -104 132 -334 362 -466 466 -487 386 -1077 612 -1700 652
-141 9 -192 10 -312 3z m325 -247 c511 -22 1067 -229 1514 -564 126 -93 384
-344 473 -457 294 -376 478 -772 568 -1225 37 -188 50 -323 50 -534 0 -932
-472 -1805 -1252 -2316 -763 -500 -1720 -597 -2558 -258 -988 400 -1638 1278
-1741 2353 -14 148 -6 459 16 605 76 500 285 984 592 1370 93 116 298 321 413
414 453 363 1042 588 1610 615 74 4 149 6 165 4 17 -1 84 -5 150 -7z"/>
<path d="M3812 4938 l-232 -233 662 -662 663 -663 -658 -658 -657 -657 235
-235 235 -235 890 890 890 890 -898 898 -897 897 -233 -232z"/>
</g>
</svg>
