<svg width="45" height="45" viewBox="0 0 45 45" fill="none" xmlns="http://www.w3.org/2000/svg">
<g clip-path="url(#clip0_31_10556)">
<path d="M38.405 6.58111C35.2588 3.43448 31.25 1.29152 26.8858 0.423224C22.5216 -0.445073 17.998 0.000272225 13.8869 1.70299C9.77582 3.40571 6.262 6.28934 3.7898 9.98912C1.3176 13.6889 -0.00195312 18.0387 -0.00195312 22.4884C-0.00195312 26.9382 1.3176 31.288 3.7898 34.9878C6.262 38.6876 9.77582 41.5711 13.8869 43.2739C17.998 44.9766 22.5216 45.422 26.8858 44.5537C31.25 43.6854 35.2588 41.5424 38.405 38.3958C40.4949 36.3073 42.1528 33.8275 43.2839 31.098C44.4151 28.3686 44.9972 25.443 44.9972 22.4884C44.9972 19.5339 44.4151 16.6083 43.2839 13.8788C42.1528 11.1494 40.4949 8.66957 38.405 6.58111ZM37.4642 35.1897C36.4239 34.2568 35.2985 33.4235 34.1027 32.7005C34.9177 29.8418 35.3779 26.8936 35.4729 23.9225H42.0861C41.7954 28.0746 40.1801 32.0239 37.4779 35.1897H37.4642ZM2.92292 23.9362H9.53613C9.6311 26.9074 10.0913 29.8555 10.9063 32.7143C9.71055 33.4372 8.58517 34.2706 7.54486 35.2034C4.83764 32.0394 3.21753 28.0899 2.92292 23.9362ZM7.53115 9.80554C8.57262 10.7356 9.6979 11.5673 10.8926 12.29C10.0783 15.1489 9.6181 18.097 9.52244 21.0681H2.92292C3.21175 16.9155 4.82721 12.9657 7.53115 9.80096V9.80554ZM21.0636 12.5869C18.7534 12.4266 16.4905 11.8543 14.3819 10.897C15.5967 7.76398 17.8392 4.0098 21.0636 3.08267V12.5869ZM21.0636 15.4596V21.0681H12.386C12.4696 18.5583 12.8342 16.0658 13.473 13.6373C15.8772 14.6832 18.4464 15.2985 21.0636 15.4551V15.4596ZM21.0636 23.9362V29.5447C18.4521 29.7063 15.8892 30.3246 13.4913 31.3715C12.8518 28.9416 12.4872 26.4475 12.4043 23.9362H21.0636ZM21.0636 32.4174V41.9262C17.8392 41.0128 15.583 37.2403 14.3819 34.1118C16.4907 33.1536 18.7532 32.5784 21.0636 32.4129V32.4174ZM23.9317 32.4174C26.2419 32.5814 28.5044 33.1552 30.6135 34.1118C29.3986 37.2403 27.1561 40.9945 23.9317 41.9262V32.4174ZM23.9317 29.5447V23.9362H32.6093C32.5238 26.4458 32.1592 28.9381 31.5223 31.367C29.1244 30.32 26.5615 29.7017 23.95 29.5401L23.9317 29.5447ZM23.9317 21.0681V15.4596C26.5432 15.298 29.1061 14.6797 31.504 13.6327C32.1406 16.0617 32.5052 18.5539 32.591 21.0635L23.9317 21.0681ZM23.9317 12.5869V3.08267C27.1561 3.99609 29.4123 7.76398 30.6135 10.897C28.5045 11.8527 26.2417 12.4235 23.9317 12.5823V12.5869ZM30.3714 4.51218C32.2216 5.32627 33.9347 6.42162 35.4501 7.75941C34.725 8.39808 33.9542 8.98275 33.1437 9.50866C32.4461 7.72579 31.5138 6.04391 30.3714 4.50761V4.51218ZM11.8517 9.50866C11.0411 8.98275 10.2703 8.39808 9.54527 7.75941C11.0606 6.42162 12.7737 5.32627 14.6239 4.51218C13.4819 6.04707 12.5496 7.72738 11.8517 9.50866ZM11.8517 35.5002C12.5496 37.28 13.4819 38.9588 14.6239 40.4921C12.7739 39.6797 11.0607 38.5859 9.54527 37.2494C10.269 36.6078 11.0399 36.0216 11.8517 35.4957V35.5002ZM33.1437 35.5002C33.9552 36.0246 34.7262 36.6094 35.4501 37.2494C33.9346 38.5859 32.2214 39.6797 30.3714 40.4921C31.5134 38.9588 32.4457 37.28 33.1437 35.5002ZM35.4592 21.0681C35.3635 18.097 34.9034 15.1489 34.0891 12.29C35.2837 11.5673 36.409 10.7356 37.4505 9.80554C40.1535 12.9691 41.7689 16.9171 42.0587 21.0681H35.4592Z" fill="white"/>
</g>
<defs>
<clipPath id="clip0_31_10556">
<rect width="45" height="45" fill="white"/>
</clipPath>
</defs>
</svg>
