<svg width="313" height="329" viewBox="0 0 313 329" fill="none" xmlns="http://www.w3.org/2000/svg">
<g clip-path="url(#clip0_8_14317)">
<path d="M243.56 292.551C291.727 244.383 291.727 166.289 243.56 118.122C195.393 69.9544 117.298 69.9541 69.1305 118.121C20.9633 166.289 20.9635 244.383 69.1308 292.551C117.298 340.718 195.392 340.718 243.56 292.551Z" fill="#FBAE17"/>
<path d="M156.341 316.38C217.666 316.38 267.381 266.665 267.381 205.34C267.381 144.014 217.666 94.2998 156.341 94.2998C95.0151 94.2998 45.3008 144.014 45.3008 205.34C45.3008 266.665 95.0151 316.38 156.341 316.38Z" fill="#A748F9"/>
</g>
<mask id="mask0_8_14317" style="mask-type:alpha" maskUnits="userSpaceOnUse" x="0" y="0" width="313" height="317">
<path d="M312.63 0H0V290.22H84.67C104.687 307.173 130.079 316.459 156.31 316.42C182.546 316.458 207.941 307.168 227.96 290.21H312.63V0Z" fill="#FF0000"/>
</mask>
<g mask="url(#mask0_8_14317)">
<path d="M104.369 196.279C86.7492 205.089 75.8692 213.169 67.2992 224.469C58.7292 235.769 61.2992 246.069 67.4992 248.959C78.2492 253.959 102.149 250.669 121.039 226.959" fill="#683C1B"/>
<path d="M112.081 180.879C107.531 183.479 102.811 187.299 97.6006 191.709C93.6906 195.029 87.8107 199.829 85.8607 202.539C83.9107 205.249 86.2806 205.479 95.2506 213.009C110.731 226.009 111.581 240.339 115.251 240.469C118.921 240.599 127.381 231.749 132.401 228.009" fill="#E02D2D"/>
<path d="M130.599 178.389C126.339 175.459 111.689 180.509 102.069 189.959C92.1895 199.659 88.3495 201.639 87.2295 203.649C86.1095 205.659 91.0395 205.929 99.9395 214.749C109.049 223.749 109.649 228.559 111.629 229.189C113.609 229.819 128.629 217.579 134.629 206.569C138.129 198.139 140.479 185.189 130.599 178.389Z" fill="#F74646"/>
<path d="M87.6006 200.519C84.8706 199.269 83.4006 204.24 81.2106 205.92C79.0206 207.6 77.6706 210.28 79.4906 210.92C85.8906 211.04 93.4406 217.729 98.3206 230.429C103.371 243.569 100.611 249.019 103.851 249.839C107.091 250.659 116.111 245.339 116.311 242.769C116.511 240.199 110.801 206.989 87.6006 200.519Z" fill="#E5E4CF"/>
<path d="M88.3998 201.71C85.1698 201.05 84.1999 205.219 82.6999 206.309C81.1999 207.399 80.6999 208.849 84.5999 209.989C88.4999 211.129 98.7898 218.74 102.34 233.94C103.68 236.61 111.65 236.39 111.55 230.48C111.45 224.57 100.91 204.27 88.3998 201.71Z" fill="#FFFEF3"/>
<path d="M176.599 283.569C193.799 294.959 204.319 317.569 207.689 338.569C210.269 354.679 183.819 380.569 163.399 383.569C142.979 386.569 115.939 369.569 110.219 353.399C104.499 337.229 111.479 298.659 125.909 287.249" fill="#FAA181"/>
<path d="M195 153.139C188.37 158.039 185.54 176.459 193.19 180.679C202.33 186.489 198.85 199.789 174.19 198.379C149.53 196.969 148.66 179.379 157.38 175.379C164.81 172.049 163.5 153.199 160.38 149.759" fill="#683C1B"/>
<path d="M175.98 187.459C173.57 182.929 167.14 170.879 164.77 170.969C161.38 171.099 160.41 182.389 160.41 182.389C160.41 182.389 163.35 188.459 175.98 187.459Z" fill="#7F4C29"/>
<path d="M113.881 219.739C113.051 228.459 111.881 255.359 109.571 277.139C107.891 293.259 103.761 319.339 102.571 332.279C102.151 336.829 100.571 341.649 101.121 342.959C103.211 347.959 115.481 357.959 148.041 357.609C180.601 357.259 212.131 341.769 219.041 344.609C226.801 347.789 217.661 316.539 219.971 292.929C220.321 289.369 227.781 249.519 231.661 238.439C236.091 213.289 231.441 202.439 226.121 194.619C222.901 189.879 213.281 185.289 206.561 183.009C202.561 180.299 197.951 178.899 196.271 179.129C191.681 179.249 190.381 188.129 176.681 189.069C161.831 190.069 155.351 182.219 155.591 174.169C154.591 172.789 147.821 172.689 144.471 173.599C135.241 173.769 126.471 174.119 122.601 176.169" fill="#E02D2D"/>
<path d="M204.249 185.699C207.679 185.499 220.039 190.189 221.309 193.199C222.889 204.669 205.759 262.959 201.869 271.639C196.589 283.459 188.359 301.4 179.869 312.71C181.919 315.45 191.709 301.9 196.109 296.71C197.109 307.53 196.709 317.709 202.799 332.999C186.649 338.909 172.659 348.76 143.249 347.9C113.839 347.04 105.579 336.709 104.689 334.159C105.759 324.259 111.689 278.8 113.399 263.98C114.469 254.65 113.879 230.269 115.699 209.119C116.969 194.369 122.119 183.119 119.699 178.639C126.609 172.449 143.219 175.21 143.219 175.21C142.329 187 147.809 195.919 164.109 200.769C179.089 205.219 197.809 198.849 204.249 185.699Z" fill="#F74646"/>
<path d="M162.329 241.679C164.039 239.243 166.532 237.468 169.393 236.649C172.254 235.83 175.31 236.017 178.049 237.179C185.049 240.179 183.119 268.339 173.949 273.799C164.779 279.259 158.259 270.11 159.269 265.46C160.279 260.81 165.599 256.029 166.699 258.109C167.799 260.189 167.639 264.909 171.899 265.319C176.159 265.729 181.169 247.239 174.369 243.929C167.569 240.619 168.999 247.599 166.589 248.019C164.179 248.439 160.339 244.689 162.329 241.679Z" fill="#FFFEF3"/>
<path d="M151.941 266.429C156.941 268.279 160.211 263.079 161.691 257.099C163.691 248.969 159.971 240.849 154.691 242.099C142.151 245.049 144.661 263.749 151.941 266.429ZM149.141 256.919C147.621 252.189 149.461 247.6 152.531 247.44C156.041 247.24 158.891 253.8 155.791 257.73C154.261 259.66 150.231 260.289 149.141 256.919Z" fill="#FFFEF3"/>
<path d="M146.961 254.479C147.361 249.329 148.321 244.199 143.181 241.779C137.661 239.179 129.021 247.239 129.611 256.659C130.301 267.659 136.781 274.349 144.031 270.379C148.691 267.829 146.341 262.479 146.961 254.479ZM135.911 261.109C134.461 254.279 137.991 250.739 141.811 251.769C143.731 252.279 143.681 262.019 142.491 264.099C140.511 267.559 136.491 263.829 135.911 261.109Z" fill="#FFFEF3"/>
<path d="M135.66 235.089C135.91 237.819 130.5 240.36 128.66 252.46C127.45 260.41 130.4 265.079 128.82 266.749C127.24 268.419 118.56 267.17 116.04 263.96C113.52 260.75 113.22 251.149 115.27 250.409C117.32 249.669 117.15 254.469 118.15 256.489C119.15 258.509 123.72 261.18 124.47 258.94C125.22 256.7 122.23 239.38 125.05 235.94C127.87 232.5 135.52 233.539 135.66 235.089Z" fill="#FFFEF3"/>
<path d="M157.96 287.059C156.25 286.359 149.1 286.249 148.45 287.859C147.8 289.469 146.63 293.429 148.39 295.119C150.15 296.809 156.39 297.649 157.62 294.719C158.85 291.789 159.08 287.509 157.96 287.059Z" fill="#FFFEF3"/>
<path d="M144.45 286.709C144.9 288.099 144.33 293.639 142.83 294.789C141.33 295.939 133.3 293.269 132.83 290.849C132.36 288.429 132.36 283.719 134.9 283.679C137.44 283.639 143.87 284.989 144.45 286.709Z" fill="#FFFEF3"/>
<path d="M172.23 278.309C165.79 290.619 131.51 287.049 121.93 270.249C117.39 270.669 115.76 267.54 119.88 266.07C124 264.6 125.2 267.569 124.79 269.719C124.38 271.869 131.92 280.59 149.12 282.9C166.32 285.21 171.12 279.019 170.41 277.179C169.7 275.339 169.91 269.839 174.85 273.869C179.79 277.899 174.04 279.439 172.23 278.309Z" fill="#FFFEF3"/>
<path d="M194.37 180.88C195.59 179.49 203.3 181.729 203.11 184.599C202.77 189.479 192.04 203.27 166.43 199.19C142.7 195.41 143.43 177.62 145.22 175.55C147.01 173.48 154.88 173.63 155.14 175.55C155.46 177.89 154.79 187.55 169.66 189.67C184.95 191.83 189.6 186.25 194.37 180.88Z" fill="#F74646"/>
<path d="M153.92 176.989C154.36 193.159 185.37 195.719 195.65 180.749C202.84 179.829 196.65 194.309 177.75 197.819C162.52 200.649 152.2 194.299 149.91 187.499C146.6 177.689 153.81 172.989 153.92 176.989Z" fill="#FF635F"/>
<path d="M124.469 84.5895C121.269 84.1395 115.399 73.5896 107.329 78.7296C102.389 81.8996 104.409 103.04 117.219 105.94C122.559 107.15 126.039 99.6195 126.059 99.3995" fill="#683C1B"/>
<path d="M119.411 94.3291C119.251 86.1891 112.031 82.6194 108.811 81.5894C113.031 86.9694 114.691 100.679 113.911 103.079" fill="#471F1D"/>
<path d="M164.6 166.589C183.6 166.589 203.74 160.019 219.91 148.589C236.96 136.529 247.61 120.589 249.91 103.809C253.2 79.8091 248.11 59.2494 235.18 44.4194C222.48 29.8694 202.92 21.519 181.51 21.519C162.09 21.519 144.29 28.7093 133.9 40.7593C117.44 57.6093 114.12 82.4594 112.53 94.3994C112.26 96.3994 112.04 98.0694 111.82 99.1094C110.121 106.843 110.052 114.845 111.617 122.606C113.182 130.368 116.347 137.719 120.91 144.189C129.28 155.989 142.08 164.329 154.3 165.939C157.715 166.38 161.156 166.597 164.6 166.589Z" fill="#683C1B"/>
<path d="M232.11 119.989C237.11 117.439 254.33 107.619 260.54 117.429C265.3 124.929 250.31 144.069 236.99 143.309C230.14 142.929 228.4 133.449 228.44 133.199" fill="#683C1B"/>
<path d="M221.361 91.0894C221.181 117.149 198.361 169.089 148.181 160.269C125.721 156.339 105.981 124.039 114.501 93.499C117.101 84.189 117.061 74.3692 125.781 58.4292C130.041 55.7692 135.501 52.6694 135.501 52.6694C132.611 56.5594 134.921 63.3094 138.351 63.6694C143.351 64.1894 153.851 60.0393 158.661 55.0693C156.901 62.4893 158.121 68.3894 163.251 70.8794C172.431 75.3394 199.531 61.2894 206.741 59.8794C216.101 66.2294 221.411 83.2994 221.361 91.0894Z" fill="#7F4C29"/>
<path d="M155.491 107.739C154.571 105.279 150.971 105.629 151.881 109.249C152.791 112.869 156.681 110.919 155.491 107.739Z" fill="#CE9474"/>
<path d="M142.42 99.8194C145.42 96.5394 146.53 75.4792 132.42 74.0992C119.28 72.8192 114.63 87.3992 116.07 93.0992C118.88 104.059 136.53 106.249 142.42 99.8194Z" fill="#381A12"/>
<path d="M142.299 100.259C145.129 97.1792 145.399 76.159 132.069 76.059C120.549 75.979 116.379 88.729 117.789 94.059C120.599 104.589 136.749 106.299 142.299 100.259Z" fill="#FCCACA"/>
<path d="M140.66 99.1391C143.34 96.1391 145.66 79.6693 134.6 77.6093C122.21 75.2993 117.19 88.409 119.41 94.329C122.46 102.519 135.41 105.099 140.66 99.1391Z" fill="white"/>
<path d="M198.529 68.139C195.469 66.749 187.449 69.5291 187.109 71.4291C186.769 73.3291 197.779 71.6593 210.359 83.9193C211.169 78.5293 201.689 69.559 198.529 68.139Z" fill="#381A12"/>
<path d="M174.03 106.679C171.77 102.349 176.93 80.769 194.9 84.469C209.9 87.549 213.18 106.229 208.36 110.999C199.6 119.619 178.44 115.159 174.03 106.679Z" fill="#381A12"/>
<path d="M173.87 106.589C171.87 102.679 177.03 83.1593 193.28 86.5893C207.4 89.5893 210.14 106.169 205.78 110.479C197.87 118.269 177.86 114.279 173.87 106.589Z" fill="#FCCACA"/>
<path d="M175.6 107.63C172.6 102.89 176.31 85.3596 190.69 87.1096C205.92 88.9696 207.09 105.779 203.01 109.909C195.6 117.369 179.86 114.46 175.6 107.63Z" fill="white"/>
<path d="M148.9 111.139C146.26 111.499 145.95 112.709 143.11 113.249C139.31 113.979 141.55 116.719 145.34 117.599C149.168 118.618 153.081 119.287 157.03 119.599C160.93 119.789 160.08 116.669 157.22 115.389C155.1 114.409 152.02 110.739 148.9 111.139Z" fill="#683C1B"/>
<path d="M146.331 114.73C145.791 113.85 141.471 113.969 141.821 114.889C142.411 116.499 147.391 116.53 146.331 114.73Z" fill="black"/>
<path d="M161.189 110.989C164.659 114.039 164.239 120.049 157.729 119.509C155.659 119.509 158.119 117.809 158.119 117.809C161.399 117.229 161.809 115.359 161.189 110.989Z" fill="#683C1B"/>
<path d="M154.17 116.089C155.12 115.359 159.5 117.299 158.77 118.089C157.65 119.379 152.52 117.379 154.17 116.089Z" fill="black"/>
<path d="M236.99 126.299C246.46 119.299 255.82 119.079 258.48 123.749C252.75 123.879 242.06 127.64 241.17 130.44C243.42 134.84 237.78 136.919 235.41 136.159C242.76 132.399 236.99 126.299 236.99 126.299Z" fill="#471F1D"/>
<path d="M238.82 121.309C244.16 114.549 252.97 109.709 259.25 115.739C261.12 118.399 260.11 120.449 260.11 120.449C258.54 117.419 248.26 117.229 238.82 121.309Z" fill="#CE9474"/>
<path d="M177.37 130.539C180.47 133.919 175.74 135.449 170.77 133.539C173.08 132.679 173.8 126.669 177.37 130.539Z" fill="#683C1B"/>
<path d="M127.021 120.309C123.851 123.639 126.721 124.979 131.971 124.219C129.901 122.859 129.931 117.269 127.021 120.309Z" fill="#FAA181"/>
<path d="M130.88 124.039C130.2 124.039 131.96 127.359 134.41 133.849C135.66 137.149 138.41 139.309 142.27 141.099C149.34 144.429 158.27 143.839 162.84 140.399C166.13 137.949 171.48 134.159 173.75 133.149C174.44 132.839 173.14 133.079 172.37 132.659C163.31 129.189 147.6 130.269 130.88 124.039Z" fill="#A02727"/>
<path d="M140.351 128.839C138.351 131.839 148.351 142.949 156.411 141.309C164.471 139.669 168.071 133.169 167.171 131.249C163.021 131.209 142.121 126.189 140.351 128.839Z" fill="#631111"/>
<path d="M136.66 125.329C136.66 128.239 139.43 131.819 148.66 133.329C159.77 135.149 163.25 134.119 167.66 132.129C159.6 129.659 146.28 127.729 136.66 125.329Z" fill="#E2D0D0"/>
<path d="M146.73 141.039C154.27 142.569 161.6 141.259 167.3 137.119C163.08 140.839 155.74 146.899 146.82 145.029C137.9 143.159 133.6 134.449 132.6 129.579C133.85 131.639 139.17 139.499 146.73 141.039Z" fill="#F27F7C"/>
<path d="M145.939 125.609C148.789 127.399 148.499 125.789 153.389 126.789C157.029 127.529 165.389 131.169 172.639 132.029C165.639 133.109 156.439 131.359 147.639 129.799C141.783 128.766 136.124 126.822 130.869 124.039C136.599 125.399 142.349 123.339 145.939 125.609Z" fill="#E8524A"/>
<path d="M175.739 131.119C177.509 133.559 171.049 133.819 167.279 132.419C168.509 132.309 171.379 132.529 173.429 131.629C175.099 130.899 175.219 130.419 175.739 131.119Z" fill="#C13A36"/>
<path d="M134.6 125.989C132.18 124.759 130.38 124.049 129.8 122.499C129.45 121.499 128.8 120.909 128.3 121.569C126.84 123.499 129.91 123.229 132.41 127.359" fill="#C13A36"/>
<path d="M138.18 127.839C137.67 131.759 156.09 136.669 161.23 132.339C154.77 132.989 140.78 129.369 138.18 127.839Z" fill="#F2E2E2"/>
<path d="M136.829 57.2689C139.419 57.7189 143.679 66.749 141.409 65.829C130.409 61.339 123.519 65.689 123.199 64.349C122.529 61.589 133.599 56.6889 136.829 57.2689Z" fill="#381A12"/>
<path d="M255.41 84.4795C258.6 95.4795 259.82 106.529 252.12 112.359C247.462 113.058 243.001 114.727 239.027 117.257C235.053 119.788 231.655 123.123 229.05 127.049C229.05 127.049 225.97 128.479 221.62 125.959C230.3 110.549 234.62 79.8095 221.48 65.9595C227.91 68.1995 237.48 80.7694 237.48 90.3994" fill="#160F13"/>
<path d="M226.7 128.989C224.642 128.957 222.63 128.377 220.87 127.309C220.538 127.111 220.296 126.792 220.193 126.419C220.091 126.047 220.136 125.649 220.32 125.309C228.74 110.379 232.95 80.2594 220.4 67.0694C220.172 66.8248 220.031 66.5113 220.001 66.1782C219.97 65.8452 220.05 65.5117 220.23 65.2295C220.411 64.9469 220.683 64.7339 221 64.625C221.318 64.5161 221.663 64.5176 221.98 64.6294C229.23 67.1594 238.98 80.3995 238.98 90.4795C238.98 90.8747 238.823 91.2533 238.543 91.5327C238.264 91.8122 237.885 91.9693 237.49 91.9693C237.295 91.9706 237.101 91.9332 236.92 91.8594C236.74 91.7856 236.575 91.6771 236.437 91.5396C236.298 91.402 236.188 91.2383 236.113 91.0581C236.038 90.8779 236 90.6845 236 90.4893C236 84.3993 231.88 77.1394 227.47 72.3594C234.64 87.7494 230.91 111.439 223.66 125.359C225.045 125.998 226.6 126.166 228.09 125.839C230.782 121.898 234.248 118.545 238.278 115.987C242.308 113.429 246.817 111.718 251.53 110.959C257.06 106.499 257.83 98.2095 253.97 84.9595C253.913 84.7724 253.894 84.5754 253.914 84.3809C253.933 84.1863 253.991 83.9977 254.084 83.8257C254.177 83.6537 254.303 83.5019 254.455 83.3789C254.607 83.2559 254.782 83.1644 254.97 83.1094C255.348 82.9975 255.755 83.0397 256.101 83.2271C256.448 83.4145 256.706 83.7319 256.82 84.1094C259.54 93.4694 262.11 106.699 252.99 113.599C252.766 113.768 252.499 113.872 252.22 113.899C247.784 114.585 243.538 116.183 239.752 118.592C235.965 121.002 232.719 124.171 230.22 127.899C230.067 128.124 229.856 128.304 229.61 128.419C228.687 128.801 227.698 128.995 226.7 128.989Z" fill="black"/>
<path d="M173.94 38.3193C164.67 40.2093 161.94 56.8091 163.57 63.0791C158.57 56.0091 158.16 42.6291 172.29 36.8291" fill="#160F13"/>
<path d="M160.769 5.20957C205.959 -8.07043 249.599 15.3895 251.239 38.8595C270.819 36.7695 274.299 92.6495 255.149 109.15C255.149 109.15 238.849 104.31 221.619 125.96C245.009 91.1296 227.849 61.8296 216.479 50.9596C216.479 50.9596 218.929 48.7196 225.359 46.9596C211.049 47.3096 182.499 67.6796 174.739 65.9596C168.739 64.6096 162.889 47.5994 170.019 38.2794C170.019 38.2794 147.519 59.8496 142.299 57.9796C137.079 56.1096 137.509 44.7593 149.759 37.6993C149.759 37.6993 127.279 40.9195 119.409 63.6495C108.269 50.7795 118.229 17.7096 160.769 5.20957Z" fill="#160F13"/>
<path d="M221.6 127.459C221.284 127.458 220.975 127.357 220.72 127.169C220.418 126.943 220.213 126.611 220.146 126.24C220.079 125.869 220.156 125.486 220.36 125.169C242.43 92.3094 227.64 63.7591 215.43 52.0791C215.153 51.8179 214.988 51.4594 214.97 51.0791C209.23 53.2191 202.81 56.4194 196.86 59.3794C185.54 65.0094 178.4 68.3792 174.39 67.5092C171.49 66.8492 168.7 63.5091 166.91 58.5991C165.17 54.0286 164.782 49.0542 165.79 44.269C163.79 46.029 161.48 48.0693 159.04 50.0693C147.33 59.6993 143.67 60.1492 141.78 59.4692C139.46 58.6392 137.92 56.3892 137.66 53.4692C137.38 50.2492 138.66 45.7293 142.57 41.5293C137.52 43.5259 132.96 46.5895 129.203 50.5107C125.446 54.4319 122.579 59.118 120.8 64.249C120.715 64.4996 120.566 64.724 120.368 64.8994C120.17 65.0748 119.929 65.1951 119.67 65.249C119.413 65.2965 119.148 65.2763 118.9 65.1904C118.653 65.1045 118.433 64.9561 118.26 64.7592C113.64 59.4192 112.44 50.9691 115.03 42.1391C120.03 25.0491 137.03 10.7494 160.33 3.89938C173.979 -0.109346 188.347 -1.0417 202.4 1.1694C214.81 3.1694 226.62 7.6992 235.64 13.9692C245.47 20.7992 251.42 29.0792 252.56 37.4292C257.74 37.5692 262.19 41.4291 265.21 48.3491C268.85 56.7791 270.21 68.989 268.78 81.019C267.24 94.259 262.78 104.689 256.11 110.399C255.922 110.565 255.695 110.68 255.449 110.732C255.204 110.785 254.95 110.774 254.71 110.699C254.08 110.529 239.09 106.499 222.77 127.009C222.619 127.164 222.436 127.284 222.234 127.361C222.032 127.439 221.816 127.473 221.6 127.459ZM218.79 51.1694C230.04 62.8294 242.31 87.389 228.79 116.289C241.11 105.869 251.67 106.929 254.7 107.529C260.37 102.249 264.41 92.4793 265.8 80.5293C267.13 69.1693 265.8 57.2394 262.45 49.3994C260.51 44.9294 257.01 39.7193 251.36 40.3193C251.16 40.3406 250.958 40.3216 250.766 40.2631C250.573 40.2047 250.395 40.1083 250.24 39.9795C249.941 39.7274 249.75 39.3689 249.71 38.9795C249.17 31.1795 243.41 22.9193 233.92 16.3193C225.25 10.3193 213.92 5.91924 201.92 4.00924C188.304 1.87149 174.384 2.7764 161.16 6.65914C138.8 13.2291 122.63 26.7694 117.89 42.8794C115.89 49.5894 116.34 55.9893 118.98 60.5493C122.512 52.161 128.793 45.2243 136.79 40.8794C140.748 38.6427 145.05 37.0778 149.52 36.249C149.864 36.2005 150.215 36.2744 150.511 36.457C150.806 36.6396 151.029 36.9195 151.14 37.249C151.254 37.5761 151.251 37.9329 151.13 38.2578C151.01 38.5826 150.78 38.8556 150.48 39.0293C145.22 42.0293 140.14 47.5894 140.63 53.1294C140.78 54.8994 141.57 56.1291 142.78 56.5991C143.03 56.6891 145.57 57.2092 157.13 47.7192C163.29 42.6592 168.9 37.2895 168.95 37.2295C169.224 36.9814 169.581 36.8437 169.95 36.8437C170.32 36.8437 170.676 36.9814 170.95 37.2295C171.226 37.4791 171.398 37.8223 171.433 38.1923C171.468 38.5624 171.364 38.9325 171.14 39.2295C167.09 44.5295 167.82 52.3993 169.68 57.5293C171.05 61.3093 173.19 64.1293 175.01 64.5293C178.19 65.2393 187.01 60.8691 195.49 56.6391C205.78 51.5091 217.44 45.7092 225.26 45.5092C225.625 45.5047 225.979 45.6317 226.258 45.8667C226.537 46.1017 226.723 46.4288 226.78 46.789C226.832 47.151 226.75 47.5199 226.549 47.8256C226.348 48.1313 226.043 48.3529 225.69 48.4492C223.288 49.052 220.975 49.9666 218.81 51.1694H218.79Z" fill="black"/>
<path d="M246.34 40.5592C252.62 35.4992 251.34 26.7392 249.79 24.2492C254.52 23.5092 256.46 32.0794 253.85 35.4694C263.1 31.1594 266.85 38.5895 267.47 42.8195C263.26 38.6995 254.24 39.2295 252.12 41.8195" fill="#160F13"/>
<path d="M267.47 44.3195C267.077 44.3192 266.7 44.1646 266.42 43.8893C264.26 41.7693 260.61 41.1693 257.91 41.3093C255.43 41.4393 253.77 42.1392 253.27 42.7492C253.017 43.0523 252.655 43.2435 252.261 43.2809C251.868 43.3184 251.476 43.1992 251.17 42.9494C250.864 42.6959 250.671 42.3313 250.634 41.9357C250.596 41.5401 250.717 41.146 250.97 40.8395C252.16 39.4095 254.63 38.4893 257.75 38.3293C260.132 38.1847 262.518 38.546 264.75 39.3893C264.087 38.1315 263.077 37.0903 261.84 36.3893C259.84 35.3393 257.41 35.4993 254.48 36.8693C254.178 37.0114 253.837 37.0471 253.512 36.9709C253.187 36.8946 252.898 36.711 252.69 36.4494C252.484 36.187 252.372 35.8631 252.372 35.5295C252.372 35.1959 252.484 34.872 252.69 34.6095C253.9 33.0395 253.82 29.4792 252.52 27.2892L252.26 26.8893C253.07 31.0993 252.55 37.5292 247.26 41.7692C247.108 41.893 246.933 41.9857 246.745 42.0417C246.557 42.0977 246.36 42.1158 246.165 42.0954C245.969 42.0749 245.78 42.0163 245.608 41.9225C245.436 41.8288 245.283 41.7022 245.16 41.5495C244.914 41.2399 244.8 40.8452 244.843 40.4518C244.886 40.0585 245.083 39.6983 245.39 39.4494C251 34.9294 249.69 26.9895 248.51 25.0895C248.382 24.8791 248.308 24.6401 248.294 24.3942C248.28 24.1483 248.327 23.9029 248.43 23.6794C248.53 23.4543 248.684 23.2582 248.88 23.1095C249.076 22.9609 249.307 22.8643 249.55 22.8293C250.661 22.6836 251.789 22.889 252.777 23.4162C253.765 23.9433 254.563 24.7658 255.06 25.7692C256.274 27.9863 256.734 30.538 256.37 33.0392C258.67 32.4117 261.121 32.6688 263.24 33.7594C266.72 35.6194 268.46 39.5696 268.93 42.6496C268.979 42.9583 268.929 43.2745 268.787 43.5529C268.645 43.8313 268.419 44.0575 268.14 44.1994C267.929 44.2895 267.7 44.3307 267.47 44.3195Z" fill="black"/>
<path d="M239.329 40.4196C209.009 38.5896 181.679 55.9492 171.819 58.0792C174.059 46.8592 191.189 32.4193 202.269 32.1393C184.119 30.1893 167.789 47.5096 167.729 51.1896C170.349 29.7196 195.109 19.6093 211.879 24.3493C180.099 15.2593 159.689 45.0794 144.039 52.1994C143.819 42.5494 160.619 8.96943 204.279 5.77943C232.079 3.77943 245.539 28.3892 247.189 32.5592C240.919 26.4192 223.919 27.4293 216.399 30.9293C226.789 31.0493 237.439 38.0496 239.329 40.4196Z" fill="#2D2025"/>
<path d="M221.18 52.8794C235.82 61.3794 242.86 97.1892 233.54 115.739C242.22 107.449 251.6 87.7394 250.37 76.1294C255.31 83.3194 259.76 94.6193 255.37 103.029C260.02 97.6293 276.97 72.8094 256.62 48.4194C251.39 45.6094 243.56 48.3393 243.56 48.3393C252.21 53.6793 255.38 63.2693 256.78 75.6093C251.62 63.0793 243.21 53.3493 237.09 51.6093C230.97 49.8693 221.18 52.8794 221.18 52.8794Z" fill="#2D2025"/>
<path d="M178.75 6.53906C162.75 10.6091 148.9 19.9194 132.12 38.8794C122.85 26.2194 146.74 7.33906 178.75 6.53906Z" fill="#2D2025"/>
<path d="M190.44 87.2689C203 88.6889 205.86 111.019 196.68 114.599C189.56 116.329 177.38 112.039 175.89 107.429C174.6 103.509 176.79 85.7089 190.44 87.2689Z" fill="#559AC4"/>
<path d="M187.67 90.4094C199.78 91.4694 201.73 113.56 191.14 114.9C187.34 115.39 177.36 112.289 175.97 108.239C173.67 101.539 180.21 89.7494 187.67 90.4094Z" fill="#001826"/>
<path d="M203.391 100.69C201.291 97.6297 194.191 102.159 195.161 105.079C196.131 107.999 206.601 105.35 203.391 100.69Z" fill="white"/>
<path d="M179.81 103.15C181.98 102.92 181.52 106.759 179.81 106.929C178.1 107.099 177.6 103.36 179.81 103.15Z" fill="white"/>
<path d="M138.351 79.4493C127.251 70.9193 115.831 90.1795 120.031 98.1695C122.811 103.08 135.501 105.04 141.531 100.17C145.301 95.6995 143.241 83.2293 138.351 79.4493Z" fill="#559AC4"/>
<path d="M135.09 81.0693C124.89 77.8293 119.51 92.9292 122.58 99.7992C123.99 102.939 135.06 104.519 138.35 101.559C142.94 97.409 142.13 83.3093 135.09 81.0693Z" fill="#001826"/>
<path d="M122.6 83.1294C126.01 82.2494 128.25 89.8391 125.77 91.3091C123.29 92.7791 117.47 84.4594 122.6 83.1294Z" fill="white"/>
<path d="M137.519 95.2395C135.629 94.3095 134.769 97.9194 136.239 98.6594C137.709 99.3994 139.389 96.1595 137.519 95.2395Z" fill="white"/>
<path d="M148.85 244.299C152.29 234.719 181.91 216.029 186.85 210.239C200.97 212.419 209.96 226.599 210.28 235.809C204.43 248.279 175.28 273.959 149.89 273.959" fill="#683C1B"/>
<path d="M201.6 194.319C197.05 196.909 192.33 200.739 187.13 205.149C183.21 208.469 177.33 213.269 175.38 215.969C173.43 218.669 175.8 218.969 184.77 226.449C200.25 239.449 201.11 253.779 204.82 253.909C208.53 254.039 216.94 245.179 221.96 241.449" fill="#E02D2D"/>
<path d="M204.901 255.399H204.781C202.441 255.319 201.261 252.799 199.471 248.989C196.941 243.569 193.101 235.379 183.831 227.589C181.371 225.529 179.441 224.049 177.891 222.849C173.891 219.789 171.891 218.249 174.181 215.099C175.991 212.589 180.771 208.559 184.611 205.329L186.171 204.009C190.931 200.009 195.991 195.809 200.871 193.009C201.212 192.826 201.611 192.783 201.983 192.887C202.356 192.991 202.674 193.236 202.871 193.569C203.051 193.911 203.093 194.309 202.989 194.681C202.885 195.053 202.642 195.371 202.311 195.569C198.101 197.959 193.741 201.429 188.061 206.239L186.491 207.559C182.971 210.559 178.151 214.559 176.561 216.799C176.394 216.982 176.27 217.201 176.201 217.439C176.321 217.859 177.951 219.109 179.671 220.439C181.161 221.589 183.201 223.149 185.671 225.259C195.461 233.469 199.621 242.359 202.111 247.669C203.051 249.669 204.221 252.179 204.821 252.369C206.821 252.429 212.101 247.789 215.611 244.719C217.611 242.999 219.431 241.369 221.001 240.199C221.318 239.964 221.716 239.863 222.107 239.919C222.499 239.976 222.852 240.184 223.091 240.499C223.209 240.656 223.294 240.834 223.343 241.024C223.392 241.214 223.403 241.412 223.375 241.606C223.347 241.801 223.281 241.988 223.181 242.156C223.08 242.325 222.948 242.472 222.791 242.589C221.311 243.699 219.491 245.279 217.581 246.959C211.871 252.069 207.841 255.399 204.901 255.399Z" fill="#8E1A1A"/>
<path d="M220.14 191.829C216.53 188.129 201.23 193.949 191.61 203.389C181.73 213.089 177.89 215.079 176.77 217.089C175.65 219.099 180.58 219.369 189.48 228.179C198.59 237.179 199.19 241.989 201.17 242.629C203.15 243.269 218.17 231.019 224.17 220.009C227.66 211.579 228.44 200.319 220.14 191.829Z" fill="#F74646"/>
<path d="M177.149 213.989C174.419 212.739 172.949 217.709 170.759 219.389C168.569 221.069 167.219 223.749 169.039 224.389C175.439 224.509 182.989 231.199 187.869 243.889C192.919 257.039 190.159 262.489 193.399 263.309C196.639 264.129 205.659 258.8 205.859 256.23C206.059 253.66 200.329 220.369 177.149 213.989Z" fill="#E5E4CF"/>
<path d="M177.929 215.15C174.699 214.49 173.729 218.659 172.229 219.749C170.729 220.839 170.229 222.279 174.129 223.429C178.029 224.579 188.319 232.179 191.879 247.429C193.219 250.099 201.179 249.87 201.079 243.96C200.979 238.05 190.439 217.71 177.929 215.15Z" fill="#FFFEF3"/>
<path d="M76.3709 250.839C68.7009 250.519 61.6809 248.679 57.2409 241.999C49.0509 229.699 53.1409 181.999 55.4509 171.589L75.4509 169.649C75.4509 169.649 89.8909 206.029 86.2809 221.339" fill="#683C1B"/>
<path d="M57.6006 173.82C55.0606 176.26 52.6006 209.539 55.7506 224.929C58.0906 236.439 61.6006 241.339 66.5706 240.749C75.3406 239.749 79.0206 221.36 76.1606 203.11C73.3006 184.86 69.1606 174.96 68.1006 173.92C67.0406 172.88 59.7806 171.69 57.6006 173.82Z" fill="#7F4C29"/>
<path d="M80.9799 170.199C80.6499 170.949 90.6899 141.369 77.8599 136.429C72.9999 134.549 61.7499 127.759 55.6799 134.909C47.1599 144.909 49.4799 158.189 55.2599 172.549" fill="#683C1B"/>
<path d="M142.669 152.819C129.919 165.229 92.3294 118.709 106.599 109.369C121.799 99.409 153.929 141.859 142.669 152.819Z" fill="#D1F2F2"/>
<path d="M137.321 156.4C135.668 156.375 134.031 156.067 132.481 155.489C119.831 151.029 103.631 131.069 102.051 118.019C101.361 112.309 103.701 109.479 105.791 108.119C109.791 105.509 114.971 105.829 120.791 109.039C125.671 111.709 130.881 116.329 135.481 122.039C144.111 132.809 150.361 147.359 143.671 153.869C142.832 154.689 141.839 155.335 140.749 155.769C139.659 156.203 138.494 156.418 137.321 156.4ZM111.781 109.4C110.237 109.375 108.721 109.806 107.421 110.639C105.421 111.959 104.611 114.33 105.021 117.69C106.431 129.39 122.121 148.69 133.471 152.69C136.981 153.93 139.721 153.619 141.621 151.769C144.431 149.049 143.621 144.059 142.461 140.349C140.358 134.381 137.22 128.829 133.191 123.949C127.011 116.229 118.431 109.369 111.781 109.369V109.4Z" fill="#678C8C"/>
<path d="M139.91 149.429C130.26 158.819 98.2696 119.649 109.3 112.799C121.04 105.509 148.44 141.119 139.91 149.429Z" fill="#A2CCCC"/>
<path d="M136.159 152.359C134.828 152.334 133.512 152.077 132.269 151.599C121.649 147.759 106.689 129.359 105.589 118.779C105.149 114.559 106.929 112.509 108.509 111.529C115.419 107.249 126.239 115.199 133.889 124.989C141.039 134.139 145.999 145.579 140.949 150.489C140.315 151.103 139.565 151.585 138.743 151.906C137.92 152.227 137.042 152.381 136.159 152.359ZM112.909 113.319C111.917 113.295 110.939 113.555 110.089 114.069C109.629 114.359 108.229 115.229 108.569 118.469C109.569 128.019 123.659 145.309 133.289 148.799C135.769 149.699 137.649 149.549 138.879 148.359C141.949 145.359 138.799 136.109 131.549 126.829C125.839 119.539 118.219 113.319 112.899 113.319H112.909Z" fill="#678C8C"/>
<path d="M130.52 152.829C128.65 149.179 62.32 162.959 62.06 165.739C61.8 168.519 76.63 186.319 83.2 185.929C89.77 185.539 131.81 155.359 130.52 152.829Z" fill="#007982"/>
<g opacity="0.8">
<path opacity="0.8" d="M106.6 109.369C120.67 98.0893 156.19 141.959 141.89 153.489C141.89 153.489 95.3205 184.849 86.6205 188.909C75.5305 194.079 51.0505 162.829 58.9105 153.749" fill="#C3DCDD"/>
<path opacity="0.8" d="M83.8898 190.989C77.4898 190.989 69.5398 184.329 63.7998 176.709C58.0598 169.089 53.0298 158.269 57.7998 152.789C57.9272 152.64 58.0828 152.518 58.2577 152.43C58.4325 152.342 58.6232 152.29 58.8185 152.276C59.0138 152.262 59.21 152.287 59.3956 152.349C59.5812 152.412 59.7526 152.51 59.8998 152.639C60.1979 152.898 60.3811 153.264 60.4092 153.658C60.4373 154.052 60.3081 154.441 60.0498 154.739C57.1898 158.039 59.7198 166.339 66.1898 174.909C73.1898 184.149 81.6698 189.589 85.9998 187.569C94.3598 183.669 139.16 153.569 141 152.299C147.18 147.229 142 134.159 133.74 123.839C129.29 118.309 124.06 113.709 119.37 111.209C115.9 109.359 111.03 107.739 107.54 110.539C107.387 110.662 107.211 110.754 107.023 110.81C106.835 110.865 106.637 110.882 106.442 110.861C106.247 110.839 106.058 110.78 105.886 110.685C105.714 110.59 105.562 110.462 105.44 110.309C105.193 109.999 105.079 109.605 105.122 109.212C105.166 108.819 105.362 108.458 105.67 108.209C113.75 101.739 127.09 110.799 136.06 121.969C145.03 133.139 150.96 148.099 142.83 154.659L142.72 154.729C140.82 156.019 95.9598 186.209 87.2498 190.279C86.1958 190.761 85.0485 191.003 83.8898 190.989Z" fill="#678C8C"/>
</g>
<path d="M86.221 184.759C78.661 192.119 53.601 161.429 62.221 156.059C71.441 150.359 92.911 178.259 86.221 184.759Z" fill="#77C6C4"/>
<path opacity="0.5" d="M125.94 119.299C123.94 121.299 77.2004 158.249 76.4304 157.619C75.4304 156.809 75.0804 155.329 70.1504 153.619C72.7104 150.799 114.94 112.769 117.15 112.169C119.36 111.569 127.75 117.519 125.94 119.299Z" fill="white"/>
<path d="M59.1097 147.309C70.9497 148.679 74.6597 145.519 85.8797 135.739C97.0997 125.959 83.6797 120.469 76.3197 121.849C68.9597 123.229 61.0497 129.099 55.6797 134.909" fill="#683C1B"/>
<path d="M164.77 241.469C163.35 225.139 139.22 191.059 138.63 186.369C138.2 183.059 141.4 162.479 137.63 153.249C135.11 147.019 120.08 141.879 112.97 143.249C105.86 144.619 96.8001 151.909 97.4101 159.059C98.0201 166.209 109.82 168.989 107.89 176.939C106.68 181.939 103.68 185.429 117.01 195.809C123.01 218.069 126.33 263.489 146.61 274.069C151.45 274.859 159.31 272.879 159.31 272.879" fill="#683C1B"/>
<path d="M136.97 190.299C140.59 191.299 161.05 226.819 163.06 238.579C165.07 250.339 159.53 258.459 154.19 260.249C144.8 263.399 133.54 244.449 130.35 225.919C127.16 207.389 125.61 196.769 126.29 195.299C126.97 193.829 133.81 189.379 136.97 190.299Z" fill="#7F4C29"/>
<path d="M164.049 230.389L168.869 226.389C178.109 228.629 183.459 236.229 185.869 247.049C183.639 250.339 168.689 261.759 151.279 260.649C153.679 256.459 162.779 237.349 162.779 237.349C164.489 240.889 164.779 252.409 164.779 252.409C171.129 246.559 168.009 234.329 164.049 230.389Z" fill="#7F4C29"/>
<path d="M117.82 144.32C122.36 143.24 134.4 147.89 136.66 152.96C137.14 154.86 134.15 155.69 132.74 153.57C131.33 151.45 125.9 146.55 117.82 144.32Z" fill="#CE9474"/>
<path d="M113.35 145.379C111.41 145.119 108.35 145.179 108.35 147.089C109.07 147.979 116.5 148.979 124.77 157.979C126.84 159.879 130.51 157.629 129.77 154.979C128.81 151.599 119.98 146.259 113.35 145.379Z" fill="#CE9474"/>
<path d="M105.76 149.489C103.86 148.989 101.51 150.87 102.06 152.13C102.69 153.13 108.38 153.869 115.69 163.659C118.06 165.809 121.84 163.969 121.35 161.269C120.73 157.799 111.6 151.049 105.76 149.489Z" fill="#CE9474"/>
<path d="M101.131 155.989C99.7108 155.359 98.2908 157.459 99.9908 159.119C101.691 160.779 108.081 167.65 109.131 168.88C110.181 170.11 113.591 169.649 112.371 166.179C111.241 162.989 104.541 157.509 101.131 155.989Z" fill="#CE9474"/>
<path d="M77.7595 122.23C81.6595 122.07 86.5795 122.649 88.6395 126.809C89.9295 129.399 87.4795 129.959 85.8795 128.269C83.7095 125.989 78.8795 123.989 76.8795 123.639C74.8795 123.289 76.0795 122.3 77.7595 122.23Z" fill="#CE9474"/>
<path d="M72.4595 124.989C68.7295 124.679 65.3795 127.259 68.9995 128.329C71.8895 129.179 75.4495 129.399 80.7195 134.529C82.1095 135.879 86.7995 133.759 84.4095 130.439C82.0195 127.119 76.2495 125.299 72.4595 124.989Z" fill="#CE9474"/>
<path d="M65.7899 130.329C61.9699 130.009 58.5399 132.649 62.2499 133.749C65.2499 134.619 67.7699 135.599 73.9699 139.749C76.2399 141.269 80.4599 139.279 78.0199 135.889C75.5799 132.499 69.6699 130.649 65.7899 130.329Z" fill="#CE9474"/>
<path d="M70.8206 141.759C72.5706 142.829 72.5206 144.759 68.5306 144.869C64.5406 144.979 58.7406 143.739 58.4406 140.869C58.1406 137.999 64.0706 137.649 70.8206 141.759Z" fill="#CE9474"/>
</g>
<defs>
<clipPath id="clip0_8_14317">
<rect width="246.68" height="246.68" fill="white" transform="translate(33 82)"/>
</clipPath>
</defs>
</svg>
