<svg width="313" height="329" viewBox="0 0 313 329" fill="none" xmlns="http://www.w3.org/2000/svg">
<g clip-path="url(#clip0_8_14316)">
<path d="M243.56 292.551C291.727 244.383 291.727 166.289 243.56 118.122C195.393 69.9544 117.298 69.9541 69.1305 118.121C20.9633 166.289 20.9635 244.383 69.1308 292.551C117.298 340.718 195.392 340.718 243.56 292.551Z" fill="#FBAE17"/>
<path d="M156.341 316.38C217.666 316.38 267.381 266.665 267.381 205.34C267.381 144.014 217.666 94.2998 156.341 94.2998C95.0151 94.2998 45.3008 144.014 45.3008 205.34C45.3008 266.665 95.0151 316.38 156.341 316.38Z" fill="#72EF50"/>
</g>
<mask id="mask0_8_14316" style="mask-type:alpha" maskUnits="userSpaceOnUse" x="0" y="0" width="313" height="317">
<path d="M312.63 0H0V290.22H84.67C104.687 307.173 130.079 316.459 156.31 316.42C182.546 316.458 207.941 307.168 227.96 290.21H312.63V0Z" fill="#FF0000"/>
</mask>
<g mask="url(#mask0_8_14316)">
<path d="M120.182 162.999C124.942 142.419 143.792 145.369 168.612 150.839C197.552 151.459 220.002 158.649 229.402 177.259C242.972 204.089 219.482 258.569 194.332 262.769" fill="#393944"/>
<path d="M201.333 181.429C231.333 178.619 231.463 232.319 242.333 284.179C241.273 296.819 234.133 319.749 220.143 289.379C206.153 259.009 201.273 222.379 193.723 219.819" fill="#FFC688"/>
<path d="M235.262 275.979C235.262 275.979 244.632 281.839 250.152 290.709C255.672 299.579 268.872 349.929 272.152 355.209C275.432 360.489 264.152 371.289 259.102 359.209C253.102 344.919 224.312 307.689 219.262 284.839" fill="#FFC688"/>
<path d="M256.842 310.649C259.842 320.839 269.842 351.919 270.782 354.359C269.652 356.269 263.082 357.449 262.782 357.019C260.202 352.499 243.002 318.109 243.002 318.109C244.592 312.239 254.152 309.489 256.842 310.649Z" fill="#FFE0A9"/>
<path d="M125.132 29.3692C95.1319 33.3692 120.352 178.719 152.202 235.669C112.202 222.009 87.7519 171.669 89.4719 98.669C91.1919 25.669 120.762 11.6688 128.852 20.4088" fill="#56331B"/>
<path d="M95.5925 51.8291C84.6625 108.139 81.9725 152.949 99.5925 194.299C76.8325 164.919 70.1425 77.8488 99.9425 43.2988" fill="#56331B"/>
<path d="M89.0422 181.129C83.5122 178.329 73.2122 147.979 82.1522 86.7188C87.2822 51.5387 101.482 20.9888 121.882 18.7788C121.882 18.7788 109.442 21.8591 104.382 37.8491C108.052 30.7591 115.492 24.8491 121.102 25.5591C118.272 28.1491 106.852 31.6889 101.432 75.8789C96.0122 120.069 117.562 183.029 135.432 204.009C135.432 204.009 135.152 218.189 122.032 204.639C112.242 193.519 96.6722 141.839 96.0322 100.559C95.2622 125.019 97.1122 177.559 114.742 203.299C86.7422 183.949 80.3222 85.6989 99.6022 40.6689C99.6022 40.6689 92.4022 53.0489 88.0322 78.6089C82.6422 110.199 76.3222 171.369 89.0422 181.129Z" fill="#845434"/>
<path d="M106.293 27.8789C81.6231 53.5289 86.0331 146.429 101.973 178.879C92.6631 137.649 86.2931 53.7289 106.293 27.8789Z" fill="#C18257"/>
<path d="M103.343 45.0991C89.3431 78.4091 87.7431 131.039 111.763 168.899C101.693 134.079 94.3531 65.5791 103.343 45.0991Z" fill="#C18257"/>
<path d="M111.953 327.069C102.263 345.219 108.023 405.069 124.483 470.359C132.483 485.729 148.333 486.279 154.213 469.029C161.513 447.609 168.483 391.299 165.003 372.449C161.523 353.599 120.673 310.729 111.953 327.069Z" fill="#FFC688"/>
<path d="M122.952 274.849C120.182 243.689 104.062 197.969 118.062 177.259C123.652 168.999 145.622 172.449 149.872 168.019C154.122 163.589 154.762 135.349 149.772 133.019L182.772 139.589C174.852 151.109 175.422 163.519 176.912 165.979C180.192 171.409 197.272 177.309 203.162 181.189C218.292 191.189 196.332 246.069 189.222 261.899C182.112 277.729 188.222 284.829 196.012 301.629C203.802 318.429 208.132 329.079 205.142 336.829C202.152 344.579 159.422 365.549 154.012 365.579C148.602 365.609 113.762 346.699 111.812 332.899C108.662 310.699 123.442 288.199 122.952 274.849Z" fill="#FFC688"/>
<path d="M153.043 139.649C153.043 139.649 156.213 152.509 159.963 153.479C163.713 154.449 168.033 152.089 168.033 152.089C168.033 152.089 167.553 165.319 171.123 168.609C175.983 171.029 177.123 167.159 177.123 167.159C171.463 164.159 176.453 146.809 180.013 139.389" fill="#FFA255"/>
<path d="M133.412 16.649C123.182 13.309 115.832 37.2292 127.192 40.5792C138.552 43.9292 144.862 20.409 133.412 16.649Z" fill="#E2036E"/>
<path d="M133.412 16.649C127.642 15.949 121.352 22.859 122.622 31.649C123.892 40.439 126.492 35.7791 125.892 30.8291C125.292 25.8791 127.942 20.3289 131.332 20.6289C134.722 20.9289 136.332 22.079 137.122 21.149C137.912 20.219 136.182 17.009 133.412 16.649Z" fill="#FF318D"/>
<path d="M117.973 61.3588C120.423 0.968803 188.433 -8.98133 201.433 8.21867C223.573 5.63867 260.133 42.2186 245.003 90.6786C230.673 136.679 203.593 128.049 200.683 127.419" fill="#56331B"/>
<path d="M126.592 64.8289C123.592 63.9889 119.172 52.9285 110.672 56.9285C105.452 59.3785 104.672 80.1985 116.802 84.6585C121.802 86.5285 126.182 79.6585 126.242 79.4485" fill="#FFBD7B"/>
<path d="M119.832 67.9888C120.732 60.0488 113.832 61.6187 110.832 60.1987C114.242 65.9687 116.832 79.6687 115.782 81.9087" fill="#FFA255"/>
<path d="M137.592 31.5888C153.432 12.7088 184.592 -0.891113 218.802 26.7289C259.862 59.9189 216.412 118.939 204.802 132.219C190.242 148.839 154.802 147.279 140.442 141.449C128.082 136.449 110.962 112.449 112.292 94.9686C112.462 91.6486 124.202 47.4688 137.592 31.5888Z" fill="#FFC688"/>
<path d="M195.503 127.169C183.283 142.889 148.803 141.329 139.993 138.289C131.183 135.249 111.073 110.129 114.583 91.8988C119.703 65.3088 128.853 45.9686 142.043 36.2186C159.723 23.1386 192.773 24.979 207.393 60.369C219.983 90.829 203.493 116.909 195.503 127.169Z" fill="#FFE0A9"/>
<path d="M191.201 62.1191C195.451 59.1191 216.351 67.119 214.801 77.269C210.961 67.189 188.741 63.8591 191.201 62.1191Z" fill="#763400"/>
<path d="M152.592 47.649C151.942 41.649 135.692 38.9189 132.342 45.8389C139.202 41.1489 152.812 49.889 152.592 47.649Z" fill="#763400"/>
<path d="M216.152 107.069C220.702 105.459 235.002 99.5589 239.512 108.459C243.212 115.769 227.512 129.459 216.282 127.349C210.492 126.259 210.072 117.979 210.132 117.779" fill="#FFC688"/>
<path d="M218.773 111.649C227.613 106.739 235.623 107.649 237.363 111.889C232.463 111.369 222.933 113.369 221.863 115.639C223.293 119.639 218.242 120.789 216.312 119.879C223.003 117.509 218.773 111.649 218.773 111.649Z" fill="#FFA255"/>
<path d="M146.022 93.1987C143.022 91.3687 145.752 97.3791 151.472 99.8091C157.192 102.239 164.321 101.239 164.311 99.8091C164.301 98.3791 155.562 97.3588 152.832 96.5488C150.418 95.7518 148.126 94.6243 146.022 93.1987Z" fill="#FFC688"/>
<path d="M152.402 89.5791C149.722 89.8291 148.163 93.7889 151.123 94.6889C154.083 95.5889 155.592 89.2891 152.402 89.5791Z" fill="#FFE9C7"/>
<path d="M163.902 91.769C164.402 93.029 165.722 94.4491 166.092 96.0991C166.562 98.0991 163.652 100.529 163.652 100.529L161.502 98.3989C162.126 98.33 162.724 98.1122 163.246 97.7642C163.768 97.4161 164.198 96.948 164.502 96.3989C165.492 94.5889 163.902 91.769 163.902 91.769Z" fill="#FFC688"/>
<path d="M156.641 98.3089C158.241 98.3589 162.391 100.769 160.411 100.869C158.431 100.969 154.411 98.2389 156.641 98.3089Z" fill="#ED8B43"/>
<path d="M146.773 95.3588C147.833 94.8288 151.273 96.679 150.063 97.119C148.853 97.559 145.593 95.9588 146.773 95.3588Z" fill="#ED8B43"/>
<path d="M146.362 80.8189C149.872 78.2889 153.422 61.4891 140.472 57.2491C129.362 53.6091 123.582 61.2489 122.242 65.7989C121.592 79.9189 139.492 85.7889 146.362 80.8189Z" fill="#7C3505"/>
<path d="M146.362 80.8189C150.242 78.0589 151.572 64.8188 140.562 60.5488C130.492 56.6888 124.962 62.9389 123.732 67.1489C123.142 80.2189 139.972 85.3789 146.362 80.8189Z" fill="#FCCACA"/>
<path d="M139.732 61.1786C133.002 59.0286 125.802 64.0288 125.352 69.3188C124.992 73.5988 129.462 81.0589 139.282 80.7089C149.102 80.3589 149.272 64.2286 139.732 61.1786Z" fill="white"/>
<path d="M140.593 60.5487C131.723 59.2887 125.683 70.6388 128.773 78.3988C132.083 81.8388 141.133 83.7088 144.893 81.3988C146.683 80.2988 148.803 75.9589 149.113 71.4989C149.353 67.5789 147.003 61.4687 140.593 60.5487Z" fill="#4A7456"/>
<path d="M139.182 64.739C130.942 63.819 127.182 72.3489 129.772 78.9289C132.572 81.8389 140.232 83.4192 143.422 81.4592C146.612 79.4992 151.532 66.119 139.182 64.739Z" fill="#74B287"/>
<path d="M144.143 63.6489C133.303 59.0189 126.263 77.6489 137.023 80.6489C147.783 83.6489 151.153 66.6489 144.143 63.6489Z" fill="#1C270A"/>
<path d="M129.052 64.9888C131.642 63.1788 136.312 68.7488 134.722 70.7588C133.132 72.7688 125.132 67.7388 129.052 64.9888Z" fill="white"/>
<path d="M145.591 75.3588C143.771 74.0888 142.291 77.529 143.711 78.539C145.131 79.549 147.411 76.6488 145.591 75.3588Z" fill="white"/>
<path d="M207.832 99.5087C209.322 86.5787 204.682 76.669 191.582 76.289C179.812 75.949 174.302 86.919 174.432 90.809C174.672 97.749 196.312 109.089 207.832 99.5087Z" fill="#7C3505"/>
<path d="M205.452 99.019C208.092 87.919 201.682 80.5389 189.982 79.9189C180.382 79.9189 174.892 87.919 174.702 91.479C174.352 97.829 195.082 107.649 205.452 99.019Z" fill="#FCCACA"/>
<path d="M204.662 98.3889C205.532 89.8889 201.192 80.8587 190.932 80.6887C182.782 80.5487 176.252 88.9585 176.482 92.1585C176.852 97.5285 196.952 105.329 204.662 98.3889Z" fill="white"/>
<path d="M188.932 79.9486C182.422 82.7086 178.832 92.3088 182.602 98.2088C186.012 101.699 196.052 103.479 198.722 101.339C201.722 98.8887 204.832 90.1387 201.722 84.3387C199.592 81.2487 190.872 79.1186 188.932 79.9486Z" fill="#4A7456"/>
<path d="M193.821 84.0088C183.821 81.2588 179.221 92.0089 183.451 98.6489C186.451 101.649 195.101 103.199 197.401 101.359C201.011 98.4589 205.431 87.1888 193.821 84.0088Z" fill="#74B287"/>
<path d="M195.592 82.069C186.272 78.909 178.952 95.579 189.742 99.359C200.532 103.139 204.442 85.059 195.592 82.069Z" fill="#1C270A"/>
<path d="M180.482 86.649C182.702 84.649 187.732 89.6991 186.482 91.7891C185.232 93.8791 177.102 89.649 180.482 86.649Z" fill="white"/>
<path d="M199.702 94.1787C197.652 92.9787 196.552 96.819 198.162 97.769C199.772 98.719 201.762 95.3687 199.702 94.1787Z" fill="white"/>
<path d="M167.902 116.369C174.212 117.549 174.422 113.589 175.462 114.369C176.502 115.149 174.962 118.659 173.222 119.559C171.482 120.459 170.632 117.999 167.492 117.749" fill="#F4B373"/>
<path d="M135.933 104.239C130.203 101.489 132.823 98.1492 131.223 97.6192C130.513 97.3892 129.123 101.269 129.723 102.939C130.323 104.609 132.413 103.499 134.663 105.279" fill="#F4B373"/>
<path d="M132.453 102.279C131.113 101.849 132.773 104.279 134.893 107.579C137.013 110.879 139.963 115.519 147.573 118.329C155.183 121.139 162.743 119.759 166.353 119.029C169.963 118.299 172.203 117.309 171.293 117.139C168.553 116.929 156.463 111.609 150.363 109.309C144.263 107.009 135.163 104.149 132.453 102.279Z" fill="#7A1606"/>
<path d="M134.152 106.439C136.342 111.749 140.002 117.309 146.302 119.969C152.152 122.449 159.422 120.849 166.302 119.029C154.912 118.979 142.072 115.519 134.152 106.439Z" fill="#F4716E"/>
<path d="M139.281 112.169C139.871 113.999 142.181 116.759 146.561 118.489C150.941 120.219 156.271 120.429 156.641 119.189C156.891 118.359 150.641 117.509 147.021 116.329C142.461 114.819 139.641 111.969 139.281 112.169Z" fill="#FF9A8D"/>
<path d="M137.732 104.979C137.616 106.77 137.903 108.564 138.572 110.229C139.752 112.439 142.312 114.229 148.082 116.469C152.281 118.211 156.858 118.845 161.372 118.309C162.21 118.121 162.992 117.742 163.66 117.203C164.328 116.664 164.862 115.978 165.222 115.199" fill="#EFC7B9"/>
<path d="M139.492 107.039C138.942 108.509 138.942 112.909 147.662 116.039C156.382 119.169 159.782 117.789 161.522 115.199C156.732 114.539 143.802 110.379 139.492 107.039Z" fill="#FFEEEB"/>
<path d="M132.393 102.249C138.328 103.831 144.179 105.713 149.923 107.889C160.293 111.669 167.923 115.889 171.293 117.139C163.933 115.501 156.669 113.461 149.533 111.029C143.484 108.808 137.729 105.86 132.393 102.249Z" fill="#F4716E"/>
<path d="M180.683 28.219C224.293 47.109 226.103 88.699 211.253 115.029C214.653 116.249 224.143 103.609 228.933 102.789C254.323 65.1393 237.683 28.0193 204.193 12.7893C170.703 -2.44071 127.643 16.6089 124.643 55.4289C129.553 43.2089 144.263 19.6793 177.823 27.5593C179.83 25.1136 182.042 22.8421 184.433 20.7693C181.933 22.9993 180.123 27.199 180.683 28.219Z" fill="#56331B"/>
<path d="M218.502 72.9591C219.502 83.6191 228.752 85.7888 236.232 81.4688C228.012 88.1889 222.562 87.7592 221.002 90.3692C219.442 92.9792 232.192 94.7492 234.712 92.8092C221.842 95.8892 216.912 105.809 215.112 109.809C217.502 110.599 228.492 102.059 235.422 100.159C242.352 98.2588 249.372 75.1591 247.602 56.4391C245.832 37.7191 228.052 7.98891 203.062 10.0289C211.822 11.0289 221.632 17.7189 225.182 24.0289C214.922 15.7989 201.412 8.33914 192.452 17.7691C201.522 18.8991 214.572 28.9889 214.572 28.9889C205.322 22.2589 193.972 20.7789 190.332 20.9889C186.692 21.1989 183.602 25.2289 182.922 27.0689C193.692 27.6989 224.192 45.8292 224.192 45.8292C211.322 39.4492 196.882 35.0989 196.452 36.0689C196.022 37.0389 212.212 53.229 215.542 55.169C218.872 57.109 230.642 61.9791 230.642 61.9791C222.702 62.9791 215.742 57.6289 214.642 59.0689C213.052 61.1489 220.052 71.1689 224.022 73.2789C221.952 75.0689 218.502 72.9591 218.502 72.9591Z" fill="#845434"/>
<path d="M248.453 66.459C249.683 58.389 237.453 43.3491 237.453 43.3491C241.173 52.2991 241.683 59.9387 241.203 61.4087C240.723 62.8787 230.653 56.6191 230.653 56.6191C230.653 56.6191 240.873 65.2389 240.033 66.6689C239.193 68.0989 229.293 67.4487 229.293 67.4487C229.293 67.4487 235.563 70.0592 238.243 71.1392C237.66 72.9872 236.675 74.6831 235.36 76.106C234.044 77.5288 232.43 78.6434 230.633 79.3691C230.633 79.3691 239.263 76.519 241.393 78.439C243.523 80.359 238.223 89.8389 238.223 89.8389C243.353 87.0689 249.233 77.649 248.453 66.459Z" fill="#56331B"/>
<path d="M244.793 60.6988C234.043 60.3788 233.733 85.3988 245.573 85.4088C257.413 85.4188 256.833 61.0688 244.793 60.6988Z" fill="#E2036E"/>
<path d="M176.161 25.5793C172.531 25.8792 150.501 15.2189 150.501 15.2189C153.501 18.4389 160.601 24.2191 160.151 25.1491C159.701 26.0791 142.511 27.2989 136.411 23.9889C138.411 27.9889 143.301 30.3493 143.301 30.3493C137.491 34.1793 130.191 28.7091 130.191 28.7091C129.691 34.0191 133.851 39.589 133.851 39.589C127.311 46.589 124.631 41.6492 127.271 31.7492C124.431 42.3192 125.611 51.4092 125.331 52.2492C120.071 52.9992 118.851 37.3889 131.131 21.1789C143.411 4.96886 183.321 -8.9511 196.691 7.4689C189.791 2.4689 177.351 3.02896 177.351 3.02896C182.581 2.86896 189.771 7.21896 190.561 9.02896C191.351 10.839 183.381 13.8991 182.891 13.6691C177.331 9.71909 167.601 8.66892 165.661 8.98892C175.141 9.84892 179.461 14.489 180.811 16.779C182.161 19.069 176.161 25.5793 176.161 25.5793Z" fill="#845434"/>
<path d="M192.421 22.1088C204.421 20.9988 219.601 32.019 227.601 37.579C218.911 25.449 201.511 17.1689 201.511 17.1689C214.071 15.2689 235.261 32.4689 239.771 55.1689C224.651 40.4489 186.781 23.6988 192.421 22.1088Z" fill="#C18257"/>
<path d="M238.302 58.009C226.782 44.119 208.252 39.6993 204.402 42.3293C206.232 47.7593 228.682 60.3293 235.932 63.5793C230.572 59.9106 225.68 55.602 221.362 50.7492C227.56 51.5994 233.413 54.1075 238.302 58.009Z" fill="#C18257"/>
<path d="M235.932 63.5791C229.402 64.9291 220.262 62.4787 215.352 59.6987C220.412 66.6487 228.862 70.2891 235.932 63.5791Z" fill="#C18257"/>
<path d="M221.592 66.4888C224.592 70.1888 229.982 72.4189 229.982 72.4189C224.862 77.4189 219.572 76.6587 219.572 76.6587C225.082 83.7087 231.462 81.3187 236.572 71.9287C232.652 71.4487 221.592 66.4888 221.592 66.4888Z" fill="#C18257"/>
<path d="M235.592 79.9888C231.927 83.6416 227.811 86.8108 223.342 89.4189C228.792 92.4089 233.762 92.4988 235.592 79.9888Z" fill="#C18257"/>
<path d="M237.112 83.3091C234.712 92.8091 223.012 100.439 223.012 100.439C232.932 99.219 235.592 96.6491 237.112 83.3091Z" fill="#C18257"/>
<path d="M202.182 15.2988C216.552 18.3988 234.832 31.2188 243.872 48.2988C239.682 26.0688 219.882 17.9788 202.182 15.2988Z" fill="#C18257"/>
<path d="M183.663 11.3988C178.6 8.4095 172.921 6.61763 167.059 6.16006C161.197 5.70249 155.309 6.59121 149.843 8.75869C164.843 6.75869 175.433 10.519 178.683 19.309C171.633 13.219 162.323 11.3891 162.323 11.3891C171.253 14.4791 175.823 21.3887 174.973 22.9687C164.363 17.5187 146.603 11.4887 146.603 11.4887C148.423 16.6087 157.603 23.2489 157.603 23.2489C150.443 23.1589 138.343 20.9987 135.453 18.0287C139.713 8.14871 167.803 -6.43117 183.663 11.3988Z" fill="#C18257"/>
<path d="M134.453 20.1787C133.403 25.5887 139.013 29.8989 139.013 29.8989C130.193 28.7089 129.643 25.1087 134.453 20.1787Z" fill="#C18257"/>
<path d="M129.812 25.8892C126.172 33.1492 126.812 38.6689 130.352 39.1289C128.682 33.8989 129.812 25.8892 129.812 25.8892Z" fill="#C18257"/>
<path d="M213.592 11.1787C224.252 16.2787 242.682 40.6691 247.012 56.3691C245.182 27.4691 222.592 13.7287 213.592 11.1787Z" fill="#C18257"/>
<path d="M187.833 9.64887C181.623 3.64887 162.833 2.32887 155.143 4.64887C170.273 -2.11113 183.393 -0.700976 190.643 3.80902C179.443 0.809024 172.093 1.80902 172.093 1.80902C179.233 2.14902 187.833 6.61902 188.263 10.059" fill="#C18257"/>
<path d="M244.793 60.6985C239.063 61.6985 234.973 70.0587 238.683 78.1487C242.393 86.2387 243.563 81.0185 241.583 76.4285C239.603 71.8385 240.583 65.7789 243.923 65.1189C247.263 64.4589 249.153 65.1188 249.623 63.9788C250.093 62.8388 247.593 60.2385 244.793 60.6985Z" fill="#FF318D"/>
<path d="M121.742 174.459C101.742 170.189 94.122 222.189 79.832 266.129C80.832 278.779 90.2721 297.669 105.422 275.419C121.012 252.509 121.642 214.419 129.202 211.889" fill="#FFC688"/>
<path d="M99.1215 267.419C96.3115 242.229 79.8315 239.419 56.9115 182.149C45.2815 180.219 43.0215 187.639 43.0215 187.639C54.1615 227.469 68.9215 288.559 92.0215 286.709" fill="#FFC688"/>
<path d="M51.2121 187.649C48.5421 189.649 46.7522 192.179 39.4322 190.449C32.6522 188.859 28.8221 186.369 25.5321 184.969C22.2421 183.569 16.8022 181.369 13.3722 179.169C6.89217 175.009 3.60216 173.609 4.30216 172.249C5.21216 170.479 8.25216 171.499 11.8022 172.669C16.2822 174.139 16.4621 174.409 16.4621 174.409C16.4621 174.409 14.2321 172.249 13.0721 171.109C11.9121 169.969 10.5421 168.289 7.01213 164.589C3.48213 160.889 -2.51787 154.519 1.14213 153.659C3.29213 153.149 10.6921 161.509 10.6921 161.509C8.87536 159.475 6.89911 157.589 4.78214 155.869C0.902144 152.639 -1.32784 149.249 1.48216 148.869C4.29216 148.489 9.98216 153.059 16.0522 158.209C11.2022 153.989 6.21217 149.589 8.43217 148.489C10.9922 147.229 18.7321 154.409 20.7121 156.079C23.5055 158.129 26.4394 159.98 29.4922 161.619C31.5922 162.819 35.1522 164.129 39.2322 166.619C35.4522 162.729 31.8122 154.619 35.0522 153.539C38.2922 152.459 42.0521 160.199 47.7521 164.759C53.4521 169.319 59.5121 174.499 57.2221 182.609C56.9622 183.489 53.8821 185.649 51.2121 187.649Z" fill="#FFC688"/>
<path d="M35.5924 153.499C33.6724 153.369 38.5424 160.899 40.5924 163.229C42.7765 165.423 45.1828 167.383 47.7724 169.079C43.5524 167.669 39.9724 167.579 38.1624 166.559C36.3524 165.539 33.7324 163.849 31.6624 163.649C29.1224 163.419 24.7724 169.649 23.7724 172.379C22.7724 175.109 22.5824 180.379 28.5924 182.759C34.6024 185.139 40.3024 189.029 46.7224 187.469C52.6624 186.039 51.4124 181.609 53.3424 180.779C55.2724 179.949 57.8924 176.279 53.6024 171.399C49.3124 166.519 45.4223 162.769 43.5023 160.609C41.5823 158.449 38.0824 153.649 35.5924 153.499Z" fill="#FFE0A9"/>
<path d="M36.7031 163.009C37.0757 162.369 37.5942 161.826 38.2164 161.425C38.8385 161.023 39.5466 160.775 40.2831 160.699C41.9531 160.539 38.4431 161.569 37.5231 163.849" fill="#FFA255"/>
<path d="M33.923 154.739C35.103 159.149 39.023 164.559 39.843 164.739C41.4202 165.511 42.9467 166.383 44.413 167.349C42.7018 166.986 40.9728 166.712 39.233 166.529C39.233 166.529 33.203 160.219 33.923 154.739Z" fill="#FFA255"/>
<path d="M29.4325 162.429C28.9925 161.379 23.9925 159.339 20.4325 156.429C16.8725 153.519 11.9225 148.349 9.68253 148.879C7.18253 149.469 12.5425 153.599 15.9125 156.589C19.2825 159.579 25.7425 164.489 27.2025 164.769C28.0025 164.879 29.8625 163.489 29.4325 162.429Z" fill="#FFE0A9"/>
<path d="M25.7223 166.459C25.9323 165.789 19.0023 161.549 14.4923 157.269C9.98232 152.989 3.02227 147.889 1.81227 149.359C0.602267 150.829 5.93227 153.879 11.1323 158.359C16.3323 162.839 22.9423 169.069 23.4523 168.879C24.4076 168.285 25.1904 167.45 25.7223 166.459Z" fill="#FFE0A9"/>
<path d="M21.7921 171.129C21.7221 170.569 9.0121 158.679 5.0321 155.919C1.0521 153.159 1.18208 155.569 4.63208 158.689C8.08208 161.809 19.8421 174.509 20.5021 174.089C21.2476 173.272 21.7013 172.231 21.7921 171.129Z" fill="#FFE0A9"/>
<path d="M20.1813 176.259C19.1813 176.009 11.7012 172.029 6.98124 171.679C4.90124 171.529 4.05122 172.249 7.46122 173.679C10.8712 175.109 18.1812 179.119 19.4612 178.889C20.7412 178.659 21.1513 176.499 20.1813 176.259Z" fill="#FFE0A9"/>
<path d="M48.6628 182.769C52.5828 177.539 50.1727 175.519 39.9027 176.499C33.4227 177.109 28.6827 177.769 28.7527 179.269C28.8227 180.769 45.9428 186.399 48.6628 182.769Z" fill="#FFE9C7"/>
<path d="M48.453 177.739C49.113 181.739 55.773 179.739 52.713 172.849C51.043 169.059 46.933 168.579 43.623 167.989C48.783 171.769 47.913 174.399 48.453 177.739Z" fill="#FFE9C7"/>
<path d="M45.6719 189.649C48.8819 204.729 57.2118 237.089 59.5718 238.349C67.4518 239.349 74.2319 233.629 75.3619 231.209C70.6819 224.109 54.2718 187.279 53.7518 186.479C51.4618 188.929 45.6719 189.649 45.6719 189.649Z" fill="#FFE0A9"/>
<path d="M115.383 175.089C103.043 177.089 94.3828 202.309 86.7328 231.639C79.4028 261.279 89.1228 293.259 98.7928 286.479C108.463 279.699 116.713 252.559 120.183 245.479" fill="#160F13"/>
<path d="M142.322 337.289C132.942 339.289 113.322 331.679 104.512 324.499C104.052 318.349 107.912 307.799 111.372 306.719C110.092 300.719 111.112 297.789 115.372 294.229C112.092 282.279 114.122 267.019 110.792 242.019C107.462 217.019 105.052 180.759 113.792 172.829C122.532 164.899 144.972 169.099 144.972 169.099C141.482 174.099 147.882 184.099 153.192 189.419C160.652 182.249 174.002 171.159 179.282 171.319C184.562 171.479 215.022 177.839 209.642 182.089C198.192 191.139 194.252 222.199 203.072 235.259C205.892 239.449 198.872 255.159 197.692 267.139C196.612 278.079 202.952 280.989 197.752 285.189C202.112 287.999 204.752 296.379 202.212 299.829C208.332 306.499 211.772 320.989 211.772 327.959C209.312 332.899 199.022 328.859 146.942 337.559C145.232 336.829 144.692 334.419 144.692 334.419C144.692 334.419 143.592 337.019 142.322 337.289Z" fill="#160F13"/>
<path d="M149.593 199.049C144.453 223.869 140.263 287.679 143.263 334.989C143.671 335.291 144.165 335.454 144.673 335.454C145.18 335.454 145.675 335.291 146.083 334.989C144.323 301.549 144.543 231.989 153.803 199.049C151.863 196.249 149.593 199.049 149.593 199.049Z" fill="#E2036E"/>
<path d="M208.373 178.879C216.893 179.089 226.583 188.279 232.373 211.749C238.163 235.219 242.223 278.079 246.013 279.749C249.803 281.419 256.153 290.339 256.013 296.749C259.013 297.609 261.523 307.469 256.613 305.669C251.703 303.869 236.003 312.669 233.843 316.979C231.243 318.499 226.293 313.549 226.293 310.319C226.293 307.089 224.783 303.859 220.913 297.179C217.043 290.499 202.193 238.899 198.913 235.419C186.963 229.409 185.593 178.299 208.373 178.879Z" fill="#160F13"/>
<path d="M124.142 173.259C123.972 186.179 143.302 201.749 151.492 201.639C155.142 195.869 145.012 188.819 145.012 188.819" fill="#E2036E"/>
<path d="M122.812 158.999C110.952 167.999 138.692 196.459 151.252 199.449C152.842 194.279 153.342 192.569 150.052 184.069C146.762 175.569 144.242 168.269 148.912 164.159" fill="#393944"/>
<path d="M151.203 202.059C158.543 202.929 163.303 193.349 172.873 189.629C182.443 185.909 201.573 188.909 203.603 184.679C205.633 180.449 170.193 178.999 154.773 190.369" fill="#E2036E"/>
<path d="M178.462 167.989C173.822 168.299 149.913 182.169 149.613 191.459C149.588 194.11 149.945 196.75 150.673 199.299C151.673 199.449 154.172 199.479 157.212 196.779C168.612 186.669 179.023 183.599 196.673 185.959C209.623 187.689 213.092 184.559 215.392 179.869" fill="#393944"/>
<path d="M102.803 278.149C104.903 268.409 97.9025 249.639 93.8025 245.149C93.8025 238.569 89.7425 240.448 89.8025 237.908C89.8625 235.368 84.5025 228.449 82.6725 231.249C80.3325 234.819 65.3325 245.049 59.3425 242.499C56.6525 242.649 59.3425 250.289 61.4425 251.779C60.0925 255.379 62.6625 259.019 64.2825 259.419C66.2025 266.629 78.4225 292.509 95.3425 289.069C101.032 287.119 103.342 279.379 103.342 279.379" fill="#160F13"/>
<path d="M113.442 176.649C110.082 184.119 110.572 205.989 111.442 219.649C112.662 237.739 115.182 260.999 115.372 272.299C115.562 283.599 116.372 291.039 118.372 294.299C120.372 297.559 134.152 302.049 134.152 302.049C124.892 302.269 117.362 296.669 115.632 297.959C113.902 299.249 113.912 305.279 116.062 307.859C118.212 310.439 135.132 317.449 141.642 316.319C140.832 302.479 142.122 278.319 142.552 253.809C142.982 229.299 146.712 206.529 146.252 203.579C135.662 198.259 123.052 179.299 121.622 172.989C117.842 172.129 113.442 176.649 113.442 176.649Z" fill="#231B21"/>
<path d="M155.091 206.369C166.291 202.499 179.531 192.319 192.781 189.579C214.181 191.939 215.661 184.579 215.661 184.579C209.201 199.009 196.011 218.489 194.661 230.859C193.311 243.229 192.661 260.259 187.661 265.859C182.661 271.459 167.991 276.619 168.211 278.559C168.431 280.499 183.261 275.429 188.211 275.169C193.161 274.909 192.411 282.409 188.701 285.759C184.991 289.109 170.701 294.279 165.881 295.569C161.061 296.859 169.691 296.859 177.661 294.709C185.631 292.559 188.661 289.969 192.091 290.399C195.521 290.829 198.871 298.799 195.161 303.539C191.451 308.279 167.101 315.949 147.621 316.419C146.911 290.569 147.591 222.949 155.091 206.369Z" fill="#231B21"/>
<path d="M111.722 308.059C109.782 306.459 105.382 322.159 106.212 324.269C107.042 326.379 130.382 338.809 141.872 336.549C143.282 334.639 142.232 318.729 141.602 318.779C139.162 318.939 121.272 315.909 111.722 308.059Z" fill="#231B21"/>
<path d="M147.423 319.749C144.893 319.879 146.003 335.449 148.233 336.219C150.463 336.989 158.373 333.799 172.593 331.859C186.813 329.919 200.693 330.569 203.433 328.789C206.173 327.009 201.253 308.179 197.663 307.579C185.353 316.029 159.723 319.099 147.423 319.749Z" fill="#231B21"/>
<path d="M109.003 180.249C100.003 187.419 93.9331 211.319 89.2031 228.549C97.2031 232.859 104.113 254.549 104.943 261.349C109.443 245.559 109.083 223.129 108.083 214.959C107.083 206.789 101.153 197.049 102.173 195.569C103.193 194.089 107.783 200.739 107.783 200.739C108.063 192.829 109.003 180.249 109.003 180.249Z" fill="#231B21"/>
<path d="M60.9916 244.649C58.6316 246.579 61.3516 250.349 63.4316 250.649C65.5116 250.949 80.9415 249.999 85.7615 236.759C85.8615 233.859 84.1615 232.889 84.1615 232.889C80.6915 240.769 67.5916 246.329 60.9916 244.649Z" fill="#231B21"/>
<path d="M63.593 252.149C62.143 254.659 63.913 257.729 67.793 258.369C71.673 259.009 76.513 255.259 76.513 255.259C73.123 259.499 69.083 259.019 68.763 262.089C68.443 265.159 80.063 282.919 92.343 282.759C97.993 282.109 102.643 264.419 97.503 252.759C92.363 241.099 91.693 245.669 85.723 250.629C89.433 246.709 89.923 240.569 87.823 239.439C85.723 238.309 82.173 250.649 63.593 252.149Z" fill="#231B21"/>
<path d="M215.982 184.719C224.432 183.539 232.612 209.809 235.412 231.239C238.212 252.669 239.772 277.589 243.002 279.849C246.232 282.109 251.572 283.279 253.502 294.389C236.502 297.619 231.222 305.229 229.762 304.239C225.242 301.169 233.762 295.359 232.512 293.239C231.262 291.119 226.152 296.949 224.972 295.339C223.792 293.729 226.532 289.689 225.402 286.619C224.272 283.549 210.072 248.339 209.342 241.399C208.612 234.459 216.792 225.729 216.462 223.789C216.132 221.849 209.572 226.379 206.182 232.679C202.952 214.929 208.352 187.769 215.982 184.719Z" fill="#231B21"/>
<path d="M255.012 297.029C258.142 297.219 260.072 304.559 256.952 303.809C253.832 303.059 241.872 305.959 234.342 313.929C230.342 314.469 229.532 311.729 231.212 307.259C232.892 302.789 244.462 296.379 255.012 297.029Z" fill="#231B21"/>
<path d="M233.032 316.919C232.182 318.589 234.582 321.599 235.592 319.919C237.092 317.369 248.862 307.689 257.792 308.999C260.092 307.899 257.792 305.529 257.792 305.529C251.952 303.709 236.862 309.379 233.032 316.919Z" fill="#E2036E"/>
<path d="M59.4612 243.359C57.6512 242.889 57.0112 238.949 58.9412 239.479C63.0712 240.609 75.9412 237.179 80.8412 229.619C83.1912 228.619 83.6013 231.829 83.6013 231.829C81.7713 238.779 67.6612 245.469 59.4612 243.359Z" fill="#E2036E"/>
<path d="M178.322 160.509C176.662 160.509 176.502 163.079 178.162 163.079C179.822 163.079 179.982 160.509 178.322 160.509Z" fill="#4B4B59"/>
<path d="M224.702 174.179V174.129C224.417 173.809 224.018 173.615 223.591 173.589C223.164 173.563 222.743 173.706 222.422 173.989L222.262 174.149C221.944 174.435 221.752 174.834 221.726 175.26C221.7 175.687 221.842 176.106 222.122 176.429C222.398 176.734 222.78 176.923 223.19 176.958C223.6 176.993 224.008 176.872 224.332 176.619C224.59 176.558 224.824 176.421 225.004 176.226C225.184 176.031 225.301 175.786 225.341 175.524C225.381 175.262 225.341 174.993 225.227 174.754C225.114 174.514 224.931 174.314 224.702 174.179Z" fill="#4B4B59"/>
<path d="M226.932 178.589C225.272 178.589 225.112 181.169 226.782 181.169C228.452 181.169 228.592 178.589 226.932 178.589Z" fill="#4B4B59"/>
<path d="M224.181 177.139C223.841 177.12 223.506 177.236 223.252 177.463C222.997 177.69 222.842 178.009 222.821 178.349V178.519C222.807 178.858 222.926 179.19 223.152 179.443C223.377 179.697 223.693 179.853 224.031 179.879C224.373 179.898 224.708 179.782 224.965 179.555C225.221 179.329 225.378 179.01 225.401 178.669V178.509C225.418 178.166 225.299 177.831 225.071 177.575C224.843 177.319 224.524 177.162 224.181 177.139Z" fill="#4B4B59"/>
<path d="M228.592 183.919C228.422 183.91 228.252 183.934 228.092 183.99C227.932 184.046 227.785 184.133 227.658 184.247C227.532 184.36 227.429 184.497 227.356 184.65C227.283 184.804 227.241 184.97 227.232 185.139V185.299C227.218 185.638 227.336 185.97 227.562 186.224C227.788 186.477 228.103 186.633 228.442 186.659C228.783 186.678 229.119 186.562 229.375 186.336C229.632 186.109 229.788 185.79 229.812 185.449V185.289C229.825 184.947 229.706 184.613 229.478 184.357C229.251 184.102 228.933 183.945 228.592 183.919Z" fill="#4B4B59"/>
<path d="M229.512 191.999C229.171 191.98 228.837 192.097 228.582 192.323C228.327 192.55 228.173 192.869 228.152 193.209V193.369C228.135 193.71 228.253 194.044 228.479 194.3C228.705 194.556 229.022 194.713 229.362 194.739C229.704 194.758 230.039 194.642 230.295 194.416C230.552 194.189 230.709 193.87 230.732 193.529V193.359C230.746 193.018 230.626 192.685 230.398 192.431C230.17 192.177 229.852 192.022 229.512 191.999Z" fill="#4B4B59"/>
<path d="M226.771 174.069C226.428 174.05 226.091 174.167 225.835 174.396C225.578 174.625 225.422 174.946 225.401 175.289V175.449C225.388 175.788 225.506 176.12 225.732 176.374C225.957 176.627 226.273 176.784 226.612 176.809C226.953 176.828 227.289 176.712 227.545 176.485C227.802 176.259 227.958 175.941 227.982 175.599V175.439C227.998 175.098 227.881 174.764 227.655 174.508C227.429 174.252 227.112 174.095 226.771 174.069Z" fill="#4B4B59"/>
<path d="M223.382 170.029C223.122 170.021 222.867 170.094 222.65 170.237C222.434 170.38 222.267 170.587 222.172 170.829C221.924 170.633 221.618 170.524 221.302 170.519H221.242C221.42 170.313 221.519 170.051 221.522 169.779V169.579C221.522 169.342 221.464 169.108 221.352 168.899V168.649C221.366 168.31 221.247 167.978 221.022 167.725C220.796 167.471 220.48 167.315 220.142 167.289C219.8 167.27 219.465 167.386 219.208 167.612C218.952 167.839 218.795 168.158 218.772 168.499V168.709C218.772 168.946 218.831 169.18 218.942 169.389V169.589C218.927 169.705 218.927 169.823 218.942 169.939C218.799 169.866 218.642 169.828 218.482 169.829H218.322C217.994 169.828 217.675 169.941 217.422 170.149C217.732 169.829 217.91 169.404 217.922 168.959C217.941 168.532 217.793 168.114 217.509 167.795C217.225 167.475 216.828 167.28 216.402 167.249C216.219 167.242 216.037 167.266 215.862 167.319C216.05 167.022 216.128 166.668 216.082 166.319C216.192 166.479 216.342 166.607 216.518 166.69C216.694 166.773 216.888 166.807 217.082 166.789C218.742 166.789 218.902 164.209 217.232 164.209C217.034 164.21 216.839 164.254 216.661 164.339C216.482 164.424 216.325 164.547 216.2 164.7C216.074 164.853 215.985 165.031 215.937 165.223C215.888 165.415 215.884 165.615 215.922 165.809C215.812 165.649 215.662 165.521 215.486 165.438C215.31 165.355 215.115 165.321 214.922 165.339C214.634 165.333 214.352 165.425 214.122 165.599C214.166 165.488 214.19 165.369 214.192 165.249C214.209 164.914 214.095 164.585 213.875 164.331C213.655 164.078 213.346 163.92 213.012 163.889C213.11 163.731 213.175 163.554 213.202 163.369C213.292 163.379 213.382 163.379 213.472 163.369C215.132 163.369 215.292 160.789 213.632 160.789C213.386 160.783 213.143 160.849 212.933 160.978C212.724 161.108 212.557 161.296 212.452 161.519C212.231 161.373 211.976 161.286 211.712 161.269H211.592C211.667 161.09 211.696 160.894 211.676 160.701C211.656 160.508 211.589 160.322 211.48 160.162C211.371 160.001 211.223 159.87 211.051 159.78C210.878 159.691 210.686 159.646 210.492 159.649C210.316 159.648 210.142 159.681 209.979 159.748C209.816 159.815 209.669 159.914 209.545 160.039C209.421 160.164 209.323 160.312 209.257 160.475C209.192 160.638 209.159 160.813 209.162 160.989C208.913 160.822 208.656 160.669 208.392 160.529C208.57 160.358 208.695 160.14 208.75 159.899C208.805 159.659 208.789 159.408 208.702 159.177C208.616 158.946 208.464 158.745 208.265 158.6C208.066 158.454 207.828 158.371 207.582 158.359C207.254 158.355 206.936 158.476 206.693 158.697C206.45 158.917 206.3 159.222 206.272 159.549C205.571 159.264 204.84 159.063 204.092 158.949C203.622 158.899 203.092 158.869 202.622 158.849C202.83 158.694 202.986 158.479 203.067 158.232C203.148 157.985 203.152 157.72 203.076 157.471C203.001 157.223 202.85 157.003 202.645 156.844C202.44 156.684 202.191 156.592 201.932 156.579C201.67 156.578 201.413 156.654 201.194 156.797C200.974 156.94 200.801 157.143 200.695 157.383C200.588 157.622 200.554 157.887 200.597 158.146C200.639 158.405 200.755 158.645 200.932 158.839H200.532C200.535 158.426 200.381 158.027 200.1 157.724C199.82 157.421 199.434 157.237 199.022 157.209C198.822 157.195 198.621 157.223 198.432 157.289C198.413 156.974 198.279 156.677 198.056 156.455C197.833 156.232 197.537 156.098 197.222 156.079H197.062C196.721 156.065 196.389 156.183 196.134 156.408C195.878 156.634 195.72 156.95 195.692 157.289C195.675 157.631 195.794 157.965 196.023 158.219C196.251 158.474 196.57 158.628 196.912 158.649H197.072C197.155 158.659 197.239 158.659 197.322 158.649C197.322 158.649 197.322 158.709 197.322 158.739V158.909C197.317 158.989 197.317 159.069 197.322 159.149C196.712 159.229 196.102 159.319 195.472 159.429C195.593 159.247 195.662 159.036 195.673 158.818C195.684 158.6 195.635 158.383 195.533 158.19C195.43 157.998 195.277 157.837 195.091 157.724C194.904 157.611 194.69 157.55 194.472 157.549C194.265 157.547 194.06 157.591 193.872 157.679C193.877 157.612 193.877 157.545 193.872 157.479C193.886 157.228 193.837 156.977 193.732 156.749H193.782C193.907 156.642 194.008 156.51 194.08 156.362C194.153 156.214 194.194 156.053 194.202 155.889C194.221 155.546 194.103 155.209 193.875 154.952C193.646 154.695 193.325 154.54 192.982 154.519C192.625 154.492 192.272 154.601 191.992 154.823C191.712 155.046 191.526 155.365 191.472 155.719C191.215 155.799 190.982 155.944 190.795 156.138C190.608 156.332 190.473 156.569 190.402 156.829C190.322 156.589 190.171 156.378 189.97 156.225C189.768 156.071 189.525 155.982 189.272 155.969H189.112C188.769 155.952 188.434 156.071 188.178 156.299C187.921 156.527 187.765 156.847 187.742 157.189C187.735 157.389 187.772 157.588 187.852 157.771C187.931 157.954 188.051 158.118 188.202 158.249C188.119 158.456 188.075 158.676 188.072 158.899C187.889 158.998 187.733 159.142 187.62 159.316C187.506 159.491 187.438 159.691 187.422 159.899C187.409 160.183 187.488 160.463 187.647 160.699C187.805 160.934 188.035 161.113 188.302 161.209C187.452 161.469 186.612 161.759 185.752 162.059C185.738 161.75 185.61 161.458 185.392 161.239C185.442 161.243 185.492 161.243 185.542 161.239C185.97 161.263 186.39 161.117 186.711 160.832C187.032 160.548 187.226 160.147 187.252 159.719V159.069C187.259 158.764 187.183 158.463 187.034 158.197C186.884 157.932 186.666 157.711 186.402 157.559C186.429 157.392 186.418 157.222 186.371 157.06C186.324 156.897 186.241 156.748 186.129 156.622C186.017 156.496 185.879 156.396 185.724 156.33C185.568 156.263 185.4 156.232 185.232 156.239C184.987 156.244 184.748 156.316 184.54 156.446C184.332 156.577 184.164 156.761 184.052 156.979C183.94 157.197 183.89 157.442 183.905 157.686C183.921 157.931 184.003 158.167 184.142 158.369C184.121 158.414 184.104 158.461 184.092 158.509C184.007 158.277 183.855 158.075 183.656 157.929C183.457 157.783 183.219 157.7 182.972 157.689H182.812C182.642 157.69 182.474 157.717 182.312 157.769C182.472 157.602 182.584 157.395 182.634 157.169C182.684 156.944 182.672 156.709 182.597 156.49C182.523 156.271 182.39 156.076 182.213 155.928C182.035 155.78 181.82 155.683 181.592 155.649C179.932 155.649 179.772 158.229 181.432 158.229C181.585 158.229 181.738 158.202 181.882 158.149C181.662 158.363 181.53 158.652 181.512 158.959C181.505 159.247 181.589 159.531 181.752 159.769C181.586 159.905 181.451 160.074 181.355 160.265C181.258 160.456 181.203 160.665 181.192 160.879C181.183 161.147 181.237 161.413 181.35 161.656C181.463 161.899 181.631 162.113 181.842 162.279C181.628 162.294 181.42 162.36 181.237 162.472C181.053 162.583 180.899 162.736 180.785 162.918C180.672 163.101 180.604 163.307 180.586 163.521C180.568 163.735 180.601 163.95 180.682 164.149L179.542 164.669C178.282 164.579 177.352 164.889 176.082 166.359C166.532 171.359 157.662 178.359 153.152 186.359C152.644 187.397 152.248 188.487 151.972 189.609C151.838 189.462 151.676 189.343 151.496 189.259C151.316 189.175 151.121 189.128 150.922 189.119C150.625 189.104 150.331 189.173 150.072 189.319V189.249C150.087 188.85 149.956 188.46 149.704 188.15C149.452 187.841 149.095 187.634 148.702 187.569C148.541 186.914 148.33 186.272 148.072 185.649C147.832 185.069 147.602 184.499 147.362 183.949C147.645 183.842 147.891 183.654 148.069 183.409C148.246 183.163 148.348 182.871 148.362 182.569V182.139C148.384 181.714 148.238 181.298 147.955 180.979C147.673 180.661 147.276 180.467 146.852 180.439C146.526 180.424 146.203 180.504 145.922 180.669C145.282 179.279 144.662 177.979 144.102 176.769C144.524 176.783 144.936 176.632 145.249 176.349C145.563 176.065 145.754 175.671 145.782 175.249C145.797 174.888 145.684 174.534 145.462 174.249C145.368 173.943 145.182 173.674 144.93 173.477C144.678 173.28 144.371 173.166 144.052 173.149C143.807 173.141 143.563 173.186 143.337 173.281C143.111 173.376 142.908 173.518 142.742 173.699C142.319 172.683 141.984 171.632 141.742 170.559C143.742 170.559 143.982 167.339 141.902 167.339H141.702C141.79 166.994 141.914 166.658 142.072 166.339C142.234 166.403 142.407 166.437 142.582 166.439H142.792C143.218 166.456 143.634 166.307 143.953 166.023C144.272 165.74 144.469 165.344 144.502 164.919C144.505 164.558 144.389 164.207 144.172 163.919C144.934 162.843 145.393 161.583 145.502 160.269C145.761 160.51 146.098 160.652 146.452 160.669C146.719 160.68 146.984 160.626 147.226 160.513C147.468 160.4 147.679 160.231 147.842 160.019C148.003 159.885 148.133 159.719 148.224 159.531C148.316 159.343 148.366 159.138 148.372 158.929C148.389 158.562 148.284 158.201 148.072 157.902C147.859 157.603 147.553 157.383 147.202 157.279C147.48 157.17 147.722 156.984 147.899 156.744C148.076 156.503 148.181 156.217 148.202 155.919C148.224 155.491 148.077 155.072 147.792 154.752C147.508 154.432 147.109 154.237 146.682 154.209H146.472C146.187 154.204 145.905 154.27 145.652 154.401C145.399 154.532 145.182 154.724 145.022 154.959C144.845 154.378 144.621 153.813 144.352 153.269C144.487 153.317 144.629 153.344 144.772 153.349H144.982C145.409 153.368 145.826 153.22 146.146 152.936C146.465 152.653 146.661 152.255 146.692 151.829C146.716 151.401 146.57 150.98 146.285 150.66C146 150.339 145.6 150.145 145.172 150.119H144.942C144.911 149.771 144.771 149.442 144.542 149.179C144.376 149 144.175 148.857 143.951 148.759C143.727 148.661 143.486 148.61 143.242 148.609C142.937 148.602 142.636 148.678 142.37 148.827C142.105 148.977 141.884 149.195 141.732 149.459C141.706 149.069 141.537 148.702 141.259 148.428C140.981 148.153 140.612 147.99 140.222 147.969C139.636 147.944 139.064 148.153 138.632 148.549C135.902 147.969 132.342 148.679 127.852 151.549C120.492 156.219 122.852 167.469 131.452 180.339C132.202 181.469 132.982 182.519 133.782 183.499C133.765 183.904 133.84 184.307 134.002 184.679C134.147 184.96 134.363 185.2 134.627 185.375C134.891 185.55 135.196 185.654 135.512 185.679C135.575 185.684 135.639 185.684 135.702 185.679C136.492 186.509 137.282 187.269 138.072 187.949C137.806 188.241 137.658 188.623 137.658 189.019C137.658 189.415 137.806 189.796 138.072 190.089L138.282 190.309C138.57 190.623 138.97 190.812 139.395 190.836C139.821 190.86 140.239 190.718 140.562 190.439C140.681 190.329 140.782 190.2 140.862 190.059C141.455 190.455 142.073 190.813 142.712 191.129C142.621 191.313 142.57 191.514 142.562 191.719C142.537 192.145 142.682 192.564 142.965 192.885C143.248 193.205 143.645 193.4 144.072 193.429H144.352C144.726 193.44 145.094 193.325 145.395 193.102C145.696 192.878 145.913 192.56 146.012 192.199C146.41 192.259 146.814 192.259 147.212 192.199C147.056 192.33 146.931 192.494 146.844 192.679C146.758 192.864 146.713 193.065 146.712 193.269C146.673 193.761 146.827 194.249 147.142 194.629C147.307 194.809 147.508 194.951 147.732 195.048C147.956 195.144 148.198 195.192 148.442 195.189H148.722C148.672 195.402 148.673 195.623 148.723 195.836C148.773 196.049 148.872 196.247 149.011 196.415C149.15 196.584 149.327 196.718 149.526 196.807C149.726 196.896 149.943 196.937 150.162 196.929C152.242 196.929 152.442 193.709 150.352 193.709H150.142C150.15 193.443 150.096 193.178 149.983 192.936C149.87 192.695 149.702 192.483 149.492 192.319C149.355 192.161 149.189 192.033 149.001 191.942C148.814 191.851 148.61 191.799 148.402 191.789H148.162C148.392 191.606 148.582 191.378 148.722 191.119C148.918 191.089 149.108 191.024 149.282 190.929V191.149C149.263 191.575 149.411 191.991 149.695 192.309C149.979 192.627 150.377 192.821 150.802 192.849C151.196 192.871 151.584 192.746 151.892 192.499C152.352 194.059 154.332 193.909 159.242 189.199C159.602 188.849 159.962 188.519 160.332 188.199C160.472 188.366 160.644 188.503 160.838 188.601C161.032 188.699 161.245 188.756 161.462 188.769C161.728 188.786 161.994 188.735 162.235 188.622C162.477 188.508 162.685 188.335 162.842 188.119C163.122 188.016 163.366 187.833 163.544 187.593C163.721 187.353 163.825 187.067 163.842 186.769C163.845 186.41 163.733 186.06 163.522 185.769C164.364 185.201 165.235 184.677 166.132 184.199C166.181 184.568 166.357 184.908 166.632 185.161C166.906 185.413 167.26 185.561 167.632 185.579H167.792C168.218 185.598 168.634 185.45 168.952 185.165C169.27 184.881 169.464 184.484 169.492 184.059C169.503 183.842 169.47 183.625 169.396 183.421C169.322 183.217 169.209 183.029 169.062 182.869C169.602 182.659 170.152 182.459 170.712 182.289C170.759 182.632 170.933 182.944 171.2 183.164C171.467 183.385 171.806 183.497 172.152 183.479C172.394 183.478 172.634 183.424 172.853 183.321C173.073 183.218 173.268 183.069 173.424 182.884C173.58 182.698 173.693 182.481 173.757 182.247C173.821 182.013 173.833 181.768 173.792 181.529L174.722 181.359C174.894 181.656 175.153 181.892 175.465 182.035C175.776 182.178 176.125 182.221 176.462 182.159C176.641 182.129 176.814 182.068 176.972 181.979L177.122 181.889C177.499 181.713 177.792 181.397 177.942 181.009H178.642C178.772 181.229 178.956 181.414 179.176 181.545C179.396 181.676 179.646 181.749 179.902 181.759H180.062C180.359 181.763 180.652 181.691 180.913 181.549C181.174 181.407 181.394 181.2 181.552 180.949H181.862C181.953 181.262 182.14 181.54 182.396 181.743C182.652 181.945 182.966 182.063 183.292 182.079H183.612C183.945 182.088 184.273 181.997 184.554 181.819C184.835 181.641 185.057 181.384 185.192 181.079L186.052 181.139C186.115 181.347 186.228 181.536 186.382 181.689C186.432 181.749 186.492 181.799 186.542 181.849V181.899C186.83 182.213 187.23 182.401 187.656 182.426C188.081 182.45 188.499 182.308 188.822 182.029C189.007 181.866 189.148 181.66 189.232 181.429L190.572 181.579C191.162 181.649 191.742 181.699 192.322 181.739C192.382 182.07 192.56 182.367 192.823 182.577C193.086 182.787 193.416 182.894 193.752 182.879C194.078 182.891 194.399 182.801 194.671 182.622C194.944 182.442 195.154 182.183 195.272 181.879C196.172 181.879 197.062 181.879 197.922 181.819C198.185 182.088 198.545 182.243 198.922 182.249H199.122C199.397 182.255 199.67 182.194 199.917 182.072C200.164 181.95 200.379 181.771 200.542 181.549C201.646 181.391 202.738 181.161 203.812 180.859C204.104 181.053 204.453 181.144 204.803 181.117C205.153 181.089 205.483 180.946 205.742 180.709L205.902 180.549C206.067 180.386 206.2 180.192 206.292 179.979L207.122 179.589C207.373 179.748 207.665 179.832 207.962 179.829C208.197 179.829 208.429 179.779 208.644 179.683C208.858 179.587 209.05 179.446 209.206 179.27C209.362 179.095 209.479 178.888 209.549 178.664C209.619 178.439 209.64 178.202 209.612 177.969C210.079 177.589 210.517 177.175 210.922 176.729C211.154 176.858 211.416 176.924 211.682 176.919C211.907 176.919 212.13 176.874 212.337 176.785C212.544 176.696 212.731 176.565 212.885 176.401C213.04 176.237 213.159 176.043 213.236 175.831C213.313 175.619 213.345 175.394 213.332 175.169C213.541 175.064 213.727 174.919 213.879 174.741C214.031 174.564 214.146 174.358 214.218 174.135C214.29 173.913 214.316 173.678 214.296 173.445C214.276 173.212 214.21 172.986 214.102 172.779C214.173 172.635 214.214 172.479 214.222 172.319C214.232 172.074 214.174 171.831 214.056 171.616C213.938 171.401 213.764 171.222 213.552 171.099C213.552 170.789 213.622 170.469 213.652 170.099C213.718 170.339 213.864 170.549 214.066 170.695C214.268 170.84 214.513 170.912 214.762 170.899C215.021 170.903 215.275 170.829 215.492 170.689C215.704 170.824 215.95 170.897 216.202 170.899C216.659 170.92 217.109 170.779 217.472 170.499C217.252 170.713 217.12 171.002 217.102 171.309C217.102 171.309 217.102 171.369 217.102 171.399C216.802 171.435 216.524 171.575 216.316 171.794C216.108 172.013 215.983 172.298 215.962 172.599C215.952 172.769 215.976 172.938 216.033 173.098C216.089 173.258 216.176 173.406 216.29 173.532C216.403 173.659 216.54 173.761 216.693 173.834C216.846 173.908 217.012 173.95 217.182 173.959H217.342C217.681 173.973 218.013 173.855 218.266 173.629C218.52 173.403 218.676 173.088 218.702 172.749C218.707 172.716 218.707 172.682 218.702 172.649C219.019 172.604 219.309 172.448 219.522 172.209V172.259C219.505 172.522 219.56 172.785 219.682 173.019C219.499 173.118 219.343 173.262 219.23 173.436C219.116 173.611 219.048 173.811 219.032 174.019C219.013 174.361 219.129 174.696 219.355 174.953C219.582 175.209 219.9 175.366 220.242 175.389H220.572C220.913 175.403 221.246 175.283 221.5 175.055C221.754 174.827 221.909 174.509 221.932 174.169C221.951 174.046 221.951 173.921 221.932 173.799C222.175 173.715 222.393 173.573 222.567 173.384C222.742 173.196 222.867 172.967 222.932 172.719C223.079 172.772 223.235 172.799 223.392 172.799C224.882 172.649 225.042 170.029 223.382 170.029ZM183.002 163.159C182.955 162.948 182.851 162.755 182.702 162.599H182.832C182.994 162.596 183.155 162.572 183.312 162.529C183.326 162.688 183.366 162.843 183.432 162.989L183.002 163.159ZM191.822 160.259C191.674 160.072 191.465 159.945 191.232 159.899C191.415 159.599 191.499 159.249 191.472 158.899C191.705 158.99 191.952 159.04 192.202 159.049C192.556 159.058 192.904 158.96 193.202 158.769C193.168 158.966 193.181 159.169 193.24 159.36C193.299 159.551 193.403 159.725 193.542 159.869C192.942 159.989 192.392 160.119 191.822 160.259ZM215.062 167.929L214.902 168.099H214.822C214.647 168.095 214.473 168.128 214.311 168.195C214.149 168.262 214.003 168.362 213.882 168.489C213.856 168.233 213.751 167.992 213.582 167.799C213.547 167.336 213.471 166.877 213.352 166.429L213.422 166.369C213.54 166.325 213.651 166.264 213.752 166.189C213.659 166.372 213.616 166.577 213.625 166.782C213.634 166.988 213.695 167.187 213.804 167.362C213.912 167.536 214.064 167.68 214.244 167.78C214.424 167.879 214.626 167.93 214.832 167.929C214.918 167.938 215.005 167.938 215.092 167.929H215.062Z" fill="#4B4B59"/>
<path d="M150.022 151.139C147.942 151.139 147.742 154.359 149.832 154.359C151.922 154.359 152.102 151.139 150.022 151.139Z" fill="#4B4B59"/>
<path d="M183.493 170.309H183.223C183.035 170.309 182.847 170.329 182.663 170.369C182.777 169.856 182.685 169.319 182.406 168.874C182.127 168.428 181.684 168.11 181.173 167.989C181.221 167.84 181.247 167.685 181.253 167.529C181.286 166.931 181.081 166.346 180.685 165.898C180.288 165.45 179.73 165.178 179.133 165.139H178.703C178.107 165.112 177.524 165.317 177.077 165.713C176.631 166.109 176.357 166.664 176.313 167.259C176.28 167.855 176.483 168.439 176.878 168.887C177.273 169.334 177.828 169.608 178.423 169.649V169.729C178.244 169.679 178.059 169.655 177.873 169.659C177.467 169.645 177.065 169.745 176.712 169.946C176.359 170.148 176.068 170.443 175.873 170.799C175.815 170.27 175.571 169.779 175.184 169.413C174.798 169.046 174.294 168.829 173.763 168.799H173.553C172.957 168.771 172.374 168.978 171.927 169.374C171.481 169.77 171.207 170.324 171.163 170.919C171.149 171.334 171.244 171.746 171.438 172.112C171.633 172.479 171.921 172.788 172.273 173.009C172.109 173.291 172.023 173.612 172.023 173.939C172.023 174.009 172.023 174.069 172.023 174.139C171.922 174.112 171.818 174.095 171.713 174.089C171.721 173.817 171.674 173.546 171.574 173.293C171.474 173.04 171.323 172.811 171.131 172.618C170.94 172.425 170.71 172.273 170.458 172.172C170.205 172.071 169.935 172.022 169.663 172.029C166.763 172.029 166.483 176.539 169.403 176.539C169.483 176.818 169.623 177.076 169.813 177.295C170.003 177.514 170.238 177.69 170.503 177.809C170.298 178.027 170.161 178.3 170.108 178.594C170.055 178.888 170.088 179.191 170.203 179.467C170.318 179.743 170.511 179.979 170.757 180.148C171.004 180.317 171.294 180.411 171.593 180.419C171.931 180.412 172.259 180.303 172.534 180.107C172.81 179.912 173.02 179.638 173.139 179.322C173.257 179.005 173.278 178.661 173.199 178.332C173.119 178.004 172.943 177.706 172.693 177.479C173.056 177.19 173.298 176.776 173.373 176.319C173.686 176.464 174.028 176.539 174.373 176.539C174.833 176.554 175.287 176.432 175.678 176.19C176.069 175.949 176.38 175.597 176.573 175.179C176.481 175.446 176.456 175.731 176.497 176.01C176.539 176.289 176.648 176.554 176.813 176.782C176.979 177.011 177.197 177.196 177.449 177.323C177.702 177.449 177.981 177.513 178.263 177.509C178.558 177.513 178.85 177.453 179.119 177.331C179.387 177.209 179.626 177.03 179.817 176.805C180.008 176.581 180.147 176.317 180.224 176.032C180.301 175.748 180.315 175.449 180.263 175.159C180.52 174.822 180.664 174.412 180.673 173.989V173.769C180.67 173.301 180.542 172.841 180.303 172.439H180.433C180.586 172.449 180.74 172.449 180.893 172.439C180.86 173.036 181.064 173.622 181.461 174.07C181.858 174.517 182.416 174.79 183.013 174.829H183.293C183.888 174.854 184.47 174.647 184.916 174.251C185.362 173.856 185.637 173.303 185.683 172.709C185.7 172.407 185.657 172.104 185.556 171.819C185.455 171.534 185.298 171.271 185.094 171.047C184.889 170.824 184.643 170.643 184.368 170.517C184.093 170.39 183.795 170.319 183.493 170.309Z" fill="#616170"/>
<path d="M199.402 168.429C199.635 168.101 199.764 167.711 199.772 167.309V167.099C199.8 166.503 199.594 165.92 199.198 165.473C198.802 165.027 198.247 164.753 197.652 164.709C197.055 164.676 196.469 164.88 196.021 165.277C195.574 165.674 195.301 166.232 195.262 166.829V167.049C195.26 167.475 195.367 167.895 195.572 168.269C195.34 168.191 195.097 168.151 194.852 168.149C192.202 168.149 191.742 171.889 193.852 172.559C193.842 172.645 193.842 172.733 193.852 172.819V173.089C193.837 173.598 194.018 174.094 194.356 174.475C194.694 174.856 195.165 175.094 195.672 175.139C196.177 175.156 196.668 174.975 197.042 174.635C197.415 174.295 197.641 173.823 197.672 173.319V173.049C197.68 172.534 197.502 172.034 197.172 171.639C197.303 171.675 197.437 171.695 197.572 171.699H197.842C198.351 171.714 198.847 171.534 199.228 171.195C199.609 170.857 199.847 170.386 199.892 169.879C199.928 169.35 199.751 168.828 199.402 168.429Z" fill="#616170"/>
<path d="M201.293 162.009C198.803 162.009 198.563 165.879 201.063 165.879C203.563 165.879 203.793 162.009 201.293 162.009Z" fill="#616170"/>
<path d="M205.593 167.179C203.113 167.179 202.863 171.049 205.373 171.049C207.883 171.049 208.103 167.179 205.593 167.179Z" fill="#616170"/>
<path d="M165.762 175.579C165.478 175.577 165.196 175.635 164.937 175.751C164.677 175.866 164.445 176.035 164.256 176.247C164.066 176.459 163.924 176.708 163.839 176.98C163.754 177.251 163.728 177.537 163.762 177.819C163.465 177.624 163.117 177.52 162.762 177.519C160.272 177.519 160.032 181.389 162.532 181.389C162.816 181.391 163.097 181.333 163.357 181.217C163.617 181.102 163.849 180.933 164.038 180.721C164.227 180.509 164.369 180.259 164.454 179.988C164.54 179.717 164.566 179.431 164.532 179.149C164.829 179.344 165.176 179.448 165.532 179.449C168.022 179.449 168.262 175.579 165.762 175.579Z" fill="#616170"/>
<path d="M159.512 180.319C159.048 180.31 158.596 180.469 158.24 180.767C157.883 181.064 157.646 181.481 157.572 181.939C157.18 181.965 156.811 182.132 156.533 182.409C156.255 182.687 156.088 183.057 156.062 183.449V183.669C156.045 184.094 156.194 184.509 156.478 184.826C156.762 185.143 157.157 185.338 157.582 185.369C157.952 185.384 158.316 185.275 158.616 185.059C158.917 184.844 159.137 184.534 159.242 184.179C161.772 184.189 162.012 180.319 159.512 180.319Z" fill="#616170"/>
<path d="M193.363 174.509C193.022 174.126 192.544 173.893 192.033 173.861C191.521 173.829 191.018 174.001 190.633 174.339C190.638 173.807 190.442 173.292 190.083 172.899C191.503 171.989 191.313 169.339 189.243 169.339H189.133C189.125 169.21 189.101 169.082 189.063 168.959C189.349 169.183 189.699 169.31 190.063 169.319H190.273C190.773 169.321 191.256 169.135 191.627 168.798C191.997 168.461 192.228 167.998 192.273 167.499C192.287 167.222 192.239 166.945 192.133 166.689C194.203 165.899 194.133 162.329 191.553 162.329C191.165 162.335 190.784 162.435 190.444 162.623C190.104 162.81 189.815 163.077 189.603 163.402C189.39 163.727 189.261 164.099 189.226 164.486C189.191 164.872 189.252 165.262 189.403 165.619C189.062 165.746 188.765 165.969 188.55 166.263C188.335 166.556 188.211 166.906 188.193 167.269C188.181 167.475 188.204 167.681 188.263 167.879C188.006 167.691 187.707 167.571 187.393 167.529C188.243 166.199 187.753 164.049 185.733 164.049C182.963 164.049 182.593 168.159 185.103 168.529C184.253 169.859 184.743 172.009 186.763 172.009C186.927 172.007 187.091 171.991 187.253 171.959C187.314 172.192 187.423 172.41 187.573 172.599C187.311 172.755 187.092 172.973 186.936 173.235C186.781 173.497 186.694 173.795 186.683 174.099V174.379C186.668 174.888 186.848 175.384 187.186 175.765C187.524 176.146 187.995 176.383 188.503 176.429C188.934 176.442 189.359 176.316 189.713 176.069C189.717 176.519 189.884 176.952 190.183 177.289C190.533 177.66 191.011 177.883 191.521 177.913C192.03 177.943 192.532 177.777 192.923 177.449L193.133 177.229C193.508 176.889 193.741 176.419 193.784 175.914C193.826 175.409 193.676 174.907 193.363 174.509Z" fill="#616170"/>
<path d="M202.151 170.349C201.651 170.347 201.167 170.533 200.797 170.87C200.427 171.207 200.196 171.67 200.151 172.169V172.449C200.136 172.958 200.317 173.454 200.655 173.835C200.993 174.216 201.464 174.453 201.971 174.499C202.472 174.501 202.955 174.315 203.325 173.978C203.696 173.641 203.926 173.177 203.971 172.679V172.399C203.986 171.89 203.806 171.394 203.468 171.013C203.129 170.632 202.659 170.395 202.151 170.349Z" fill="#616170"/>
<path d="M183.592 175.149H183.372C182.872 175.147 182.389 175.333 182.018 175.67C181.648 176.007 181.418 176.47 181.372 176.969C181.342 177.482 181.517 177.986 181.858 178.371C182.2 178.755 182.679 178.988 183.192 179.019H183.402C183.912 179.034 184.407 178.854 184.788 178.516C185.169 178.177 185.407 177.706 185.452 177.199C185.467 176.941 185.431 176.684 185.345 176.441C185.259 176.198 185.126 175.975 184.952 175.784C184.779 175.593 184.57 175.439 184.336 175.33C184.103 175.221 183.85 175.159 183.592 175.149Z" fill="#616170"/>
<path d="M167.092 179.349H166.812C166.386 179.33 165.97 179.478 165.652 179.762C165.334 180.047 165.14 180.444 165.112 180.869C165.1 181.081 165.13 181.292 165.199 181.492C165.269 181.692 165.378 181.877 165.519 182.035C165.66 182.193 165.831 182.321 166.022 182.413C166.213 182.505 166.42 182.558 166.632 182.569H166.902C167.327 182.586 167.741 182.439 168.06 182.157C168.379 181.876 168.576 181.483 168.612 181.059C168.634 180.632 168.487 180.213 168.202 179.893C167.918 179.573 167.519 179.378 167.092 179.349Z" fill="#616170"/>
<path d="M143.133 185.589C141.053 185.589 140.853 188.819 142.943 188.819C145.033 188.819 145.213 185.589 143.133 185.589Z" fill="#616170"/>
<path d="M141.592 175.899C141.291 175.907 140.997 175.995 140.74 176.154C140.483 176.312 140.273 176.536 140.131 176.802C139.989 177.068 139.92 177.367 139.931 177.669C139.941 177.97 140.031 178.264 140.192 178.519C139.965 178.569 139.75 178.664 139.561 178.8C139.372 178.936 139.213 179.109 139.093 179.308C138.974 179.507 138.896 179.729 138.865 179.96C138.833 180.19 138.85 180.425 138.912 180.649C138.587 180.687 138.274 180.792 137.992 180.959C138.334 180.58 138.542 180.098 138.582 179.589C138.607 179.25 138.552 178.91 138.419 178.597C138.287 178.284 138.083 178.007 137.822 177.789C137.764 177.708 137.701 177.631 137.632 177.559C137.889 177.349 138.097 177.087 138.242 176.789C138.325 176.741 138.402 176.684 138.472 176.619C138.918 176.22 139.188 175.66 139.223 175.063C139.259 174.465 139.057 173.878 138.662 173.429L138.452 173.209C138.132 172.875 137.72 172.642 137.269 172.538C136.818 172.435 136.346 172.467 135.912 172.629C135.969 172.424 136 172.212 136.002 171.999V171.829C136.013 171.316 135.847 170.814 135.532 170.409C135.825 170.244 136.075 170.014 136.264 169.736C136.454 169.459 136.576 169.142 136.622 168.809C136.763 168.546 136.845 168.256 136.862 167.959C136.862 167.879 136.862 167.799 136.862 167.709H137.062C137.658 167.737 138.241 167.531 138.688 167.135C139.134 166.739 139.408 166.184 139.452 165.589C139.485 164.991 139.281 164.405 138.884 163.958C138.487 163.51 137.929 163.237 137.332 163.199H137.112C136.517 163.174 135.935 163.381 135.489 163.776C135.043 164.172 134.768 164.725 134.722 165.319C134.717 165.402 134.717 165.485 134.722 165.569C134.524 165.561 134.326 165.578 134.132 165.619C134.167 165.448 134.187 165.274 134.192 165.099C134.466 164.914 134.694 164.667 134.857 164.379C135.02 164.091 135.114 163.769 135.132 163.439C135.146 163.018 135.048 162.601 134.847 162.23C134.647 161.859 134.352 161.548 133.992 161.329C134.344 161.273 134.682 161.154 134.992 160.979C135.141 161.424 135.415 161.816 135.782 162.109C136.157 162.501 136.67 162.734 137.212 162.759C137.809 162.792 138.396 162.587 138.843 162.19C139.291 161.793 139.563 161.236 139.602 160.639C139.644 159.976 139.434 159.322 139.012 158.809C138.79 158.565 138.52 158.369 138.219 158.235C137.918 158.1 137.592 158.03 137.262 158.029C136.897 158.031 136.536 158.11 136.202 158.259C136.123 157.919 135.98 157.597 135.782 157.309C135.969 157.354 136.16 157.378 136.352 157.379C139.252 157.379 139.532 152.859 136.612 152.859C136.092 152.849 135.584 153.02 135.175 153.343C134.767 153.666 134.483 154.12 134.372 154.629C134.366 154.445 134.323 154.265 134.246 154.098C134.17 153.931 134.061 153.781 133.926 153.657C133.792 153.532 133.633 153.436 133.461 153.372C133.289 153.309 133.105 153.281 132.922 153.289C132.728 153.289 132.535 153.323 132.352 153.389C132.18 153.073 131.923 152.812 131.61 152.635C131.297 152.458 130.941 152.373 130.582 152.389C127.682 152.389 127.402 156.909 130.322 156.909C130.62 156.915 130.917 156.861 131.194 156.749C131.471 156.638 131.722 156.471 131.932 156.259C132.03 156.324 132.138 156.371 132.252 156.399C131.807 156.575 131.422 156.875 131.143 157.263C130.863 157.651 130.699 158.111 130.672 158.589C130.655 159.087 130.776 159.581 131.021 160.015C131.266 160.449 131.627 160.806 132.062 161.049C131.55 161.121 131.079 161.368 130.728 161.746C130.376 162.125 130.166 162.613 130.132 163.129C130.125 163.386 130.159 163.643 130.232 163.889C130.232 163.889 130.082 163.759 130.002 163.709C129.746 163.537 129.456 163.421 129.152 163.369C129.235 163.159 129.279 162.935 129.282 162.709V162.489C129.284 161.998 129.142 161.518 128.872 161.109C130.662 160.109 130.502 156.869 128.022 156.869C127.618 156.885 127.225 157.003 126.88 157.213C126.534 157.423 126.248 157.718 126.048 158.069C125.848 158.42 125.74 158.816 125.736 159.221C125.731 159.625 125.83 160.023 126.022 160.379C125.674 160.55 125.378 160.812 125.167 161.138C124.956 161.464 124.836 161.841 124.822 162.229V162.439C124.801 162.983 124.973 163.518 125.308 163.948C125.643 164.378 126.119 164.676 126.652 164.789C126.461 165.292 126.422 165.84 126.541 166.365C126.66 166.89 126.932 167.368 127.322 167.739C127.598 168.024 127.941 168.237 128.32 168.357C128.699 168.478 129.102 168.502 129.492 168.429C129.496 168.458 129.496 168.489 129.492 168.519H129.362H129.092C128.666 168.502 128.25 168.651 127.931 168.934C127.612 169.218 127.415 169.614 127.382 170.039C127.36 170.466 127.507 170.885 127.792 171.205C128.076 171.525 128.475 171.721 128.902 171.749H129.172C129.324 171.745 129.475 171.725 129.622 171.689C129.466 171.963 129.383 172.273 129.382 172.589C129.345 173.249 129.559 173.899 129.982 174.409C130.201 174.653 130.469 174.85 130.769 174.984C131.069 175.119 131.394 175.188 131.722 175.189H131.822C131.859 175.362 131.916 175.529 131.992 175.689C132.062 175.829 132.132 175.979 132.212 176.119C132.417 176.514 132.735 176.839 133.124 177.055C133.514 177.27 133.958 177.365 134.402 177.329C134.276 177.447 134.162 177.578 134.062 177.719C133.741 178.231 133.624 178.844 133.732 179.439C133.847 180.034 134.156 180.574 134.61 180.975C135.064 181.377 135.638 181.617 136.242 181.659C136.663 181.702 137.086 181.611 137.452 181.399C137.12 181.759 136.931 182.229 136.922 182.719V183.149C136.897 183.744 137.104 184.326 137.499 184.772C137.895 185.218 138.448 185.493 139.042 185.539C139.641 185.572 140.229 185.366 140.677 184.967C141.124 184.568 141.396 184.007 141.432 183.409V182.979C141.435 182.468 141.281 181.969 140.992 181.549C141.219 181.448 141.422 181.301 141.587 181.116C141.752 180.931 141.875 180.713 141.949 180.476C142.023 180.239 142.046 179.989 142.015 179.743C141.984 179.497 141.902 179.26 141.772 179.049C143.522 178.779 143.592 175.899 141.592 175.899ZM133.772 156.199C134.057 155.979 134.264 155.675 134.362 155.329C134.361 155.676 134.44 156.018 134.592 156.329C134.367 156.249 134.131 156.205 133.892 156.199H133.772Z" fill="#616170"/>
<path d="M137.743 169.009C135.673 169.009 135.473 172.239 137.553 172.239C139.633 172.239 139.833 169.009 137.743 169.009Z" fill="#616170"/>
<path d="M141.832 155.449C139.762 155.449 139.562 158.669 141.642 158.669C143.722 158.669 143.922 155.449 141.832 155.449Z" fill="#616170"/>
<path d="M136.881 149.419C134.811 149.419 134.611 152.639 136.691 152.639C138.771 152.639 138.971 149.419 136.881 149.419Z" fill="#616170"/>
<path d="M154.971 185.809H154.751C154.326 185.79 153.909 185.938 153.591 186.222C153.274 186.506 153.08 186.904 153.052 187.329C153.027 187.755 153.172 188.173 153.455 188.491C153.738 188.81 154.136 189.003 154.561 189.029H154.781C155.206 189.046 155.621 188.899 155.94 188.617C156.258 188.336 156.456 187.943 156.492 187.519C156.513 187.092 156.366 186.673 156.082 186.353C155.798 186.033 155.399 185.838 154.971 185.809Z" fill="#616170"/>
<path d="M217.263 187.209C209.743 186.099 211.883 216.929 211.603 222.089C216.033 219.289 221.603 219.089 220.123 220.799C218.643 222.509 216.463 227.469 215.393 232.859C214.323 238.249 228.143 277.329 231.993 281.859C232.613 284.069 228.993 288.859 229.253 290.529C229.513 292.199 236.703 285.669 245.583 285.529C249.923 285.439 243.163 281.529 239.933 280.219C236.703 278.909 233.353 189.569 217.263 187.209Z" fill="#2D242B"/>
<path d="M241.982 288.839C235.762 290.529 232.532 296.489 233.382 297.889C234.232 299.289 239.302 295.089 244.462 294.009C249.622 292.929 252.462 292.789 252.212 290.829C251.962 288.869 247.152 287.439 241.982 288.839Z" fill="#2D242B"/>
<path d="M246.042 298.169C236.222 301.069 235.502 307.279 246.992 304.429C258.482 301.579 257.162 294.899 246.042 298.169Z" fill="#2D242B"/>
<path d="M90.9228 227.259C93.8328 232.989 98.6728 238.599 100.613 236.589C102.553 234.579 102.173 207.319 101.043 199.349C99.6428 192.869 89.8428 221.649 90.9228 227.259Z" fill="#2D242B"/>
<path d="M114.093 180.419C112.253 192.609 113.093 222.119 114.523 232.659C115.953 243.199 116.713 283.439 120.183 289.369C123.653 295.299 134.833 299.529 139.043 298.169C139.163 265.589 142.513 214.769 143.303 207.019C126.453 197.799 120.183 176.809 120.183 176.809L114.093 180.419Z" fill="#2D242B"/>
<path d="M145.723 211.289C144.423 212.479 140.093 219.979 139.013 220.409C137.933 220.839 126.463 221.709 125.633 223.109C124.803 224.509 134.013 234.759 134.473 235.559C134.933 236.359 128.953 247.759 129.873 250.019C130.793 252.279 142.873 248.079 142.873 248.079L143.283 243.929C143.283 243.929 136.433 246.589 136.103 245.669C135.773 244.749 139.863 235.869 139.753 235.029C139.643 234.189 132.533 226.979 133.183 225.799C133.833 224.619 140.073 224.069 140.823 223.429C141.573 222.789 145.533 217.849 145.683 217.159C145.833 216.469 146.463 210.649 145.723 211.289Z" fill="#E5D82C"/>
<path d="M156.493 208.519C151.133 223.309 147.493 286.809 149.603 296.979C165.923 295.519 187.013 283.329 186.603 279.359C176.033 283.569 163.663 284.219 160.803 282.759C175.063 274.849 181.203 264.759 184.113 257.849C187.023 250.939 186.692 214.499 196.702 195.569C186.882 191.249 161.683 207.169 156.493 208.519Z" fill="#2D242B"/>
<path d="M152.792 211.999C153.792 213.409 156.662 221.599 157.642 222.229C158.622 222.859 170.342 226.129 170.892 227.659C171.442 229.189 160.332 237.379 159.732 238.069C159.132 238.759 163.332 251.399 162.002 253.449C160.672 255.499 148.682 248.449 148.682 248.449L148.842 244.229C148.842 244.229 156.192 248.739 156.692 247.899C157.192 247.059 153.842 236.699 154.102 235.899C154.362 235.099 163.332 230.389 162.922 229.099C162.512 227.809 155.242 226.249 154.622 225.479C153.398 223.003 152.417 220.414 151.692 217.749C151.682 217.069 152.192 211.179 152.792 211.999Z" fill="#E5D82C"/>
<path d="M149.981 301.979C147.071 303.279 149.172 310.379 152.242 311.349C155.312 312.319 189.242 309.729 188.742 295.349C181.792 298.749 152.511 300.849 149.981 301.979Z" fill="#2D242B"/>
<path d="M118.172 299.399C114.462 302.619 117.282 312.589 139.042 312.779C139.042 312.779 137.702 307.629 139.042 304.429C132.212 304.889 118.172 299.399 118.172 299.399Z" fill="#2D242B"/>
<path d="M127.312 318.039C124.612 321.449 123.972 326.459 123.312 330.629C123.002 332.689 126.222 332.859 126.542 330.819C127.092 327.209 127.652 322.819 129.982 319.819C131.302 318.199 128.592 316.419 127.312 318.039Z" fill="#2D242B"/>
<path d="M121.982 316.429C120.036 320.279 118.745 324.425 118.162 328.699C117.882 330.759 121.102 330.929 121.392 328.879C121.888 325.169 122.996 321.566 124.672 318.219C125.592 316.379 122.922 314.569 121.982 316.429Z" fill="#2D242B"/>
<path d="M116.653 314.329C114.463 317.889 113.573 321.969 112.113 325.849C111.373 327.799 114.433 328.849 115.173 326.849C116.533 323.249 117.313 319.379 119.343 316.079C120.433 314.339 117.743 312.549 116.653 314.329Z" fill="#2D242B"/>
<path d="M112.243 312.079C109.243 314.929 109.023 319.329 108.073 323.079C107.573 325.079 110.623 326.139 111.133 324.079C111.893 321.079 112.003 316.729 114.393 314.429C115.893 313.049 113.753 310.649 112.243 312.079Z" fill="#2D242B"/>
<path d="M185.313 327.969C184.773 324.129 184.693 319.969 182.193 316.729C180.903 315.089 178.503 317.249 179.783 318.879C181.783 321.479 181.713 325.509 182.153 328.639C182.443 330.699 185.593 330.019 185.313 327.969Z" fill="#2D242B"/>
<path d="M191.131 326.649C190.581 322.779 189.271 319.069 188.861 315.179C188.651 313.109 185.491 313.799 185.701 315.849C186.111 319.749 187.411 323.449 187.971 327.319C188.261 329.409 191.421 328.729 191.131 326.649Z" fill="#2D242B"/>
<path d="M195.652 312.459C195.082 310.459 191.912 311.129 192.492 313.139C193.492 316.429 194.492 319.749 194.552 323.199C194.552 325.269 197.832 325.479 197.782 323.389C197.548 319.669 196.832 315.995 195.652 312.459Z" fill="#2D242B"/>
<path d="M149.591 204.799C147.321 212.919 139.181 287.599 143.591 313.529C145.651 271.199 149.591 204.799 149.591 204.799Z" fill="#FF318D"/>
<path d="M249.192 306.649C240.852 309.039 240.802 311.819 249.192 309.449C257.582 307.079 258.322 303.989 249.192 306.649Z" fill="#FF318D"/>
<path d="M67.4516 239.409C58.0616 242.009 58.5416 244.759 67.4516 242.219C76.3616 239.679 76.8116 236.809 67.4516 239.409Z" fill="#FF318D"/>
<path d="M64.8632 245.449C61.3932 246.299 63.1732 249.869 69.9232 248.579C76.6732 247.289 78.3932 242.699 77.4632 241.759C76.5332 240.819 71.9732 243.729 64.8632 245.449Z" fill="#2D242B"/>
<path d="M67.4428 252.799C65.2928 254.279 65.8328 259.129 75.5228 255.469C74.8024 257.658 73.615 259.664 72.0429 261.349C75.0429 268.489 83.2828 272.259 86.4028 270.539C89.5228 268.819 87.5828 250.839 83.6028 246.749C79.4028 251.159 67.4428 252.799 67.4428 252.799Z" fill="#2D242B"/>
<path d="M149.213 199.159C147.273 200.749 145.643 203.249 146.213 204.819C146.283 204.979 146.993 205.879 147.093 205.999C148.163 207.289 152.693 208.149 153.983 206.759C155.273 205.369 154.983 201.049 153.983 199.969C153.913 199.889 153.193 198.859 153.103 198.789C152.043 197.839 150.353 198.239 149.213 199.159Z" fill="#363644"/>
<path d="M148.333 198.239C146.193 199.989 145.193 203.779 146.263 205.079C147.333 206.379 151.863 207.229 153.153 205.829C154.443 204.429 154.153 200.119 153.153 199.049C152.153 197.979 149.593 197.239 148.333 198.239Z" fill="#616170"/>
<path d="M150.382 204.279C146.202 203.799 143.782 219.539 143.922 222.039C144.062 224.539 151.332 225.239 151.802 223.229C152.272 221.219 154.242 204.719 150.382 204.279ZM150.252 222.399C149.542 223.689 145.782 222.809 145.252 221.949C144.722 221.089 145.352 216.949 146.162 216.299C146.652 215.919 149.772 216.429 150.572 216.909C151.372 217.389 150.962 221.109 150.252 222.399Z" fill="#363644"/>
<path d="M149.732 203.879C145.562 203.399 143.132 219.139 143.282 221.639C143.432 224.139 150.692 224.839 151.152 222.829C151.612 220.819 153.592 204.319 149.732 203.879ZM149.602 221.989C148.902 223.289 145.132 222.409 144.602 221.549C144.072 220.689 144.712 216.549 145.522 215.899C146.002 215.519 149.132 216.029 149.922 216.509C150.712 216.989 150.312 220.699 149.592 221.989H149.602Z" fill="#616170"/>
<path d="M148.033 198.779C146.913 199.999 145.943 202.839 147.423 202.159C148.903 201.479 152.423 199.259 151.703 198.779C150.983 198.299 149.243 197.439 148.033 198.779Z" fill="#83839E"/>
<path d="M148.983 203.869C147.713 204.089 145.153 209.289 144.233 214.869C143.313 220.449 142.813 222.759 146.673 223.479C145.053 222.709 144.123 222.629 144.363 219.359C144.603 216.089 147.363 205.738 149.233 205.428C151.103 205.118 151.233 212.619 151.233 212.619C151.493 206.089 151.013 203.499 148.983 203.869Z" fill="#83839E"/>
<path d="M250.982 66.9089C276.472 68.9089 300.472 183.979 281.482 234.429C285.562 201.159 267.842 145.499 267.842 145.499C277.042 204.679 277.502 228.499 273.542 258.499C271.732 272.159 265.222 289.179 274.852 294.319C246.962 285.609 239.342 240.099 242.852 188.319C246.362 136.539 253.942 87.3192 245.262 76.7092C243.762 70.2492 248.442 66.3189 250.982 66.9089Z" fill="#56331B"/>
<path d="M252.592 68.6987C286.462 72.8287 295.952 201.859 286.192 222.589C291.482 175.589 279.432 113.919 267.832 95.2188C278.912 127.479 282.892 179.649 283.222 189.839C277.062 149.839 264.672 104.249 261.402 98.1191C271.662 162.479 273.052 201.059 268.402 238.349C265.582 260.929 267.142 280.409 280.162 283.209C262.592 279.589 248.602 256.859 248.582 206.969C248.562 157.079 263.892 104.479 251.122 73.9688C256.312 75.3587 264.862 93.019 264.862 93.019C261.392 72.519 252.592 68.6987 252.592 68.6987Z" fill="#845434"/>
<path d="M257.271 70.8491C279.011 87.8491 294.401 155.509 289.151 208.329C290.501 154.739 278.051 115.089 273.511 103.509C277.511 130.579 277.932 160.639 277.932 160.639C274.032 127.889 271.181 89.2191 257.271 70.8491Z" fill="#C18257"/>
<path d="M254.302 76.3989C266.092 88.8289 271.582 125.899 268.302 162.469C265.022 199.039 254.172 246.039 263.642 266.029C240.642 212.759 255.462 167.349 259.402 137.169C263.342 106.989 260.932 88.1589 254.302 76.3989Z" fill="#C18257"/>
</g>
<defs>
<clipPath id="clip0_8_14316">
<rect width="246.68" height="246.68" fill="white" transform="translate(33 82)"/>
</clipPath>
</defs>
</svg>
