<svg width="313" height="329" viewBox="0 0 313 329" fill="none" xmlns="http://www.w3.org/2000/svg">
<g clip-path="url(#clip0_8_14315)">
<path d="M243.56 292.551C291.727 244.383 291.727 166.289 243.56 118.122C195.393 69.9544 117.298 69.9541 69.1305 118.121C20.9633 166.289 20.9635 244.383 69.1308 292.551C117.298 340.718 195.392 340.718 243.56 292.551Z" fill="#FBAE17"/>
<path d="M156.341 316.38C217.666 316.38 267.381 266.665 267.381 205.34C267.381 144.014 217.666 94.2998 156.341 94.2998C95.0151 94.2998 45.3008 144.014 45.3008 205.34C45.3008 266.665 95.0151 316.38 156.341 316.38Z" fill="#6C67DB"/>
</g>
<mask id="mask0_8_14315" style="mask-type:alpha" maskUnits="userSpaceOnUse" x="0" y="0" width="313" height="317">
<path d="M312.63 0H0V290.22H84.67C104.687 307.173 130.079 316.459 156.31 316.42C182.546 316.458 207.941 307.168 227.96 290.21H312.63V0Z" fill="#FF0000"/>
</mask>
<g mask="url(#mask0_8_14315)">
<path d="M140.382 272.76C122.867 283.308 111.677 307.391 108.339 328.225C105.77 344.183 131.985 369.882 152.215 372.821C172.445 375.759 199.234 358.964 204.897 342.928C210.56 326.892 204.206 290.489 190.398 278.588" fill="#FAA181"/>
<path d="M99.4064 188.609C88.7026 214.171 135.984 301.543 170.207 291.268C198.163 282.87 218.014 185.845 190.924 170.383C168.913 157.821 108.329 167.376 99.4064 188.609Z" fill="#FAA181"/>
<path d="M126.389 144.168C132.88 149.121 136.198 162.978 132.539 168.884C123.392 174.499 121.835 190.292 146.298 189.319C170.761 188.346 171.871 172.358 163.278 168.349C155.98 164.933 154.521 146.241 157.713 142.874" fill="#FAA181"/>
<path d="M153.645 148.08C151.582 156.837 141.501 158.18 140.995 159.756C139.506 165.128 135.39 172.631 131.177 171.356C136.149 166.062 132.841 153.149 130.428 148.255" fill="#F26E4E"/>
<path d="M113.808 308.014C111.294 314.535 109.461 321.298 108.339 328.195C105.77 344.154 131.985 369.853 152.215 372.791C172.445 375.73 199.234 358.935 204.897 342.899C206.61 338.034 207.223 331.368 206.843 324.06" fill="#0C0C11"/>
<path d="M259.379 173.234C252.753 178.031 278.199 204.538 282.86 197.356C287.715 189.864 268.721 166.461 259.379 173.234Z" fill="#AFA798"/>
<path d="M188.705 171.959C195.818 163.124 238.39 202.66 254.757 210.551C265.714 215.845 260.284 235.277 247.654 237.554C235.023 239.831 197.56 215.612 195.556 213.461" fill="#FAA181"/>
<path d="M238.342 209.977C236.172 192.54 269.344 169.488 277.897 151.914C282.918 140.549 309.396 146.261 292.922 164.039C284.864 191.207 263.077 236.124 245.416 237.554" fill="#FAA181"/>
<path d="M283.561 135.596C288.708 131.509 297.096 127.519 301.64 129.095C306.651 130.837 310.301 147.915 307.994 156.04C302.438 163.717 296.687 167.396 289.817 164.301" fill="#FAA181"/>
<path d="M292.562 134.126C294.82 139.965 294.304 150.747 292.562 154.328C298.401 154.96 299.977 157.704 302.595 159.086C307.519 158.716 306.828 147.477 303.568 140.831C300.308 134.185 295.015 133.805 292.562 134.126Z" fill="#F26E4E"/>
<path d="M278.491 155.008C276.71 148.255 277.995 136.793 280.904 132.9C286.295 125.67 283.921 117.516 287.229 115.482C289.672 113.983 295.393 123.004 291.122 133.173C295.763 139.167 294.274 149.598 292.601 152.264" fill="#FAA181"/>
<path d="M308.266 149.015C316.605 152.031 312.441 159.29 306.515 160.847C301.834 162.073 295.675 157.928 305.386 155.125" fill="#FAA181"/>
<path d="M305.066 141.375C316.344 142.533 313.425 152.828 306.564 156.584C301.135 159.562 292.221 156.351 303.392 149.841" fill="#FAA181"/>
<path d="M301.767 134.126C314.417 134.554 311.926 146.212 304.589 150.902C298.751 154.619 288.65 151.729 300.551 143.652" fill="#FAA181"/>
<path d="M297.33 128.901C309.912 127.782 308.9 139.653 302.195 145.219C296.892 149.617 287.23 148.323 297.33 138.515C298.346 137.411 299.195 136.166 299.85 134.817" fill="#FAA181"/>
<path d="M231.51 193.678C233.908 195.466 236.524 196.94 239.294 198.067C243.556 188.336 254.863 179.16 259.349 173.234C258.25 180.542 277.322 196.412 282.829 197.356C277.964 212.05 259.203 236.133 250.436 239.014C241.668 241.894 226.742 234.557 220.582 230.762" fill="#D8D6CE"/>
<path d="M258.99 176.98C252.714 182.079 240.502 194.214 239.441 202.096C238.38 209.977 240.151 218.92 240.151 218.92C236.843 215.368 235.091 208.683 235.091 208.683C232.571 216.195 230.08 226.023 230.08 226.023C233.642 230.528 243.022 232.903 248.345 231.122C253.667 229.342 267.427 215.621 273.469 194.418C265.072 188.852 260.654 181.924 258.99 176.98Z" fill="#F0EAEC"/>
<path d="M222.336 231.784C227.318 227.055 236.193 202.981 236.017 196.529C236.806 196.828 237.567 197.193 238.294 197.619C240.941 201.842 235.55 228.193 227.591 234.518C225.67 233.977 223.881 233.046 222.336 231.784Z" fill="#1D1D27"/>
<path d="M196.209 168.359C206.689 169.167 222.608 184.181 226.773 187.645C230.938 191.109 234.237 191.323 235.035 196.403C235.832 201.482 228.019 230.635 224.506 233.301C220.176 236.59 205.444 223.707 201.152 224.067" fill="#C98211"/>
<path d="M199.419 169.964C204.946 169.701 225.166 188.394 232.104 190.876C236.191 200.12 228.63 220.924 225.565 225.273C218.948 222.685 204.878 216.857 200.372 191.586C196.957 172.572 199.419 169.964 199.419 169.964Z" fill="#F2AF08"/>
<path d="M222.617 221.674C222.16 224.408 220.953 229.342 220.953 229.342C223.872 229.692 227.453 225.595 230.781 212.692" fill="#F2AF08"/>
<path d="M201.482 172.582C204.528 168.524 224.301 187.178 228.728 189.222C227.755 197.259 224.417 208.352 221.128 208.683C210.463 203.769 197.395 178.021 201.482 172.582Z" fill="#FFC648"/>
<path d="M232.629 190.973C235.548 192.364 234.089 209.461 226.158 215.562C230.897 203.934 229.418 189.426 232.629 190.973Z" fill="#FFC648"/>
<path d="M238.001 200.383C236.872 209.646 237.66 228.816 232.766 236.737C235.301 237.832 237.956 238.626 240.677 239.101C244.384 234.547 239.47 208.469 239.285 197.376" fill="#1D1D27"/>
<path d="M251.129 238.77C251.227 234.401 244.503 223.999 242.518 213.879C245.758 220.291 252.492 226.792 257.464 234.313C255.766 236.313 253.585 237.847 251.129 238.77Z" fill="#1D1D27"/>
<path d="M239.18 197.658C239.987 204.168 244.473 214.278 263.312 228.388C264.898 227.366 267.409 223.522 267.409 223.522C257.279 215.923 243.383 203.681 241.252 194.437C240.309 195.325 239.597 196.431 239.18 197.658Z" fill="#1D1D27"/>
<path d="M271.261 218.375C272.744 216.746 273.998 214.923 274.988 212.955C265.092 209.763 248.335 194.991 246.623 187.022C245.2 188.622 243.899 190.327 242.73 192.121C244.287 198.028 260.207 213.042 271.261 218.375Z" fill="#1D1D27"/>
<path d="M278.276 207.36C265.101 203.925 252.889 189.484 250.787 182.575C252.11 180.947 253.565 179.43 255.137 178.041C260.794 188.666 270.248 196.769 281.614 200.733C281.614 200.733 278.889 206.464 278.276 207.36Z" fill="#1D1D27"/>
<path d="M255.975 179.588C255.148 178.265 252.715 182.663 252.53 184.366C252.346 186.069 260.617 200.023 270.96 203.214C271.933 202.485 273.257 197.483 273.257 197.483C265.677 195.615 259.06 184.561 255.975 179.588Z" fill="#363642"/>
<path d="M246.75 189.192C245.679 189.99 243.344 193.6 243.344 193.6C246.263 198.787 255.186 210.415 264.518 213.879C265.676 212.293 267.437 209.714 267.437 209.714C260.908 206.455 249.416 195.848 246.75 189.192Z" fill="#363642"/>
<path d="M241.535 196.529C240.865 197.599 240.32 198.742 239.91 199.935C241.243 208.109 251.305 219.572 257.425 222.598C259.235 221.888 260.617 218.375 260.617 218.375C254.555 214.415 244.931 205.199 241.535 196.529Z" fill="#363642"/>
<path d="M236.055 198.583C236.153 197.493 237.398 197.921 238.235 200.178C239.072 202.436 237.437 215.835 234.966 221.79C233.019 223.162 230.781 219.601 230.781 219.601C232.805 211.904 235.822 201.258 236.055 198.583Z" fill="#363642"/>
<path d="M239.907 208.235C239.246 204.343 237.835 208.235 237.718 213.879C237.601 219.523 235.188 230.236 240.326 229.73C244.111 229.321 240.151 209.646 239.907 208.235Z" fill="#363642"/>
<path d="M242.516 213.266C241.689 213.85 246.068 228.611 248.909 230.626C252.169 230.207 252.529 228.134 252.529 228.134C249.737 223.571 242.935 212.974 242.516 213.266Z" fill="#363642"/>
<path d="M280.155 150.503C276.155 159.445 260.693 176.484 260.693 176.484C263.467 182.147 270.998 188.511 275.484 190.584C279.221 183.441 287.57 165.42 287.57 165.42C279.804 158.288 280.155 150.503 280.155 150.503Z" fill="#FFC599"/>
<path d="M287.453 116.514C285.906 116.864 286.656 121.574 285.323 126.108C283.989 130.643 281.946 132.511 280.963 135.576C279.98 138.641 276.351 151.642 283.279 158.249C292.669 167.211 299.539 161.333 299.987 159.776C300.434 158.219 296.464 156.283 294.314 156.157C292.299 156.114 290.302 156.533 288.475 157.383C291.54 150.96 293.341 139.342 288.261 133.396C291.852 125.719 290.198 115.891 287.453 116.514Z" fill="#FFC599"/>
<path d="M293.34 130.935C297.952 128.745 302.516 129.281 305.017 131.703C307.517 134.126 305.192 140.276 300.648 143.906C296.103 147.535 293.437 146.513 293.35 144.791C293.262 143.069 300.414 135.245 301.776 134.087C300.103 134.418 292.921 133.893 293.34 130.935Z" fill="#FFC599"/>
<path d="M307.79 136.773C307.79 140.15 303.703 146.893 296.678 148.362C295.024 149.822 297.524 152.186 304.141 147.827C310.758 143.468 310.184 137.795 307.79 136.773Z" fill="#FFC599"/>
<path d="M310.496 144.898C308.19 149.958 303.928 152.809 299.792 153.208C298.06 154.921 299.909 157.519 306.837 154.006C313.766 150.493 312.053 144.723 310.496 144.898Z" fill="#FFC599"/>
<path d="M311.342 153.471C309.96 154.716 306.768 158.404 302.584 158.336C306.116 160.934 314.232 156.263 311.342 153.471Z" fill="#FFC599"/>
<path d="M296.735 142.933C295.373 142.641 293.223 144.927 293.816 146.212C294.41 147.496 298.302 146.562 298.341 145.462C298.387 144.923 298.255 144.383 297.965 143.926C297.675 143.469 297.243 143.12 296.735 142.933Z" fill="#FF9A92"/>
<path d="M299.665 149.015C298.371 148.489 295.442 149.987 296.104 151.281C296.59 152.206 300.473 152.371 300.697 151.281C300.858 150.844 300.84 150.36 300.647 149.936C300.454 149.511 300.101 149.181 299.665 149.015Z" fill="#FF9A92"/>
<path d="M302.468 153.987C301.174 153.471 298.245 154.96 298.907 156.254C299.393 157.178 303.266 157.344 303.49 156.254C303.651 155.818 303.635 155.335 303.444 154.911C303.253 154.486 302.902 154.154 302.468 153.987Z" fill="#FF9A92"/>
<path d="M304.055 157.947C303.082 157.489 301.068 158.774 301.515 159.776C301.836 160.506 304.074 160.895 304.61 160.243C304.792 159.854 304.837 159.415 304.736 158.998C304.635 158.58 304.395 158.209 304.055 157.947Z" fill="#FF9A92"/>
<path d="M286.276 116.241C287.249 116.592 287.249 119.501 286.996 120.572C286.935 120.763 286.825 120.935 286.678 121.071C286.531 121.208 286.351 121.305 286.156 121.353C285.961 121.4 285.757 121.397 285.564 121.344C285.37 121.291 285.193 121.189 285.05 121.048C284.807 119.267 285.839 116.533 286.276 116.241Z" fill="#FF9A92"/>
<path d="M207.66 224.349C208.108 233.01 206.989 252.13 208.322 273.781C209.655 295.432 214.501 326.035 212.438 331.017C210.375 335.999 199.72 347.356 167.462 347.034C135.205 346.713 112.056 327.757 97.956 327.631C98.2576 312.169 106.587 286.159 106.869 282.617C107.152 279.075 104.057 251.78 100.69 240.648C96.7298 214.483 92.1272 187.995 95.8249 182.03C99.3961 176.318 122.254 167.833 126.457 168.573C130.982 168.884 130.787 177.72 144.303 179.199C158.968 180.805 166.324 173.428 165.01 164.233C177.281 163.26 193.025 165.547 198.377 168.709C203.456 171.677 196.207 195.401 207.66 224.349Z" fill="#C98211"/>
<path d="M117.661 173.068C116.562 169.964 98.8323 177.691 97.8592 182.935C95.8061 194.223 105.478 231.307 108.962 240.074C113.701 251.984 121.086 270.093 129.036 281.644C126.896 284.271 117.768 270.453 113.633 265.102C112.154 275.757 111.434 305.085 105.401 320.187C121.398 326.025 143.078 338.237 172.221 337.381C201.365 336.525 209.529 326.298 210.424 323.758C209.354 313.95 204.868 270.726 203.807 255.974C203.136 246.701 204.167 222.608 203.807 201.58C203.603 189.173 198.543 175.55 201.141 171.239C194.563 164.827 177.875 165.352 177.875 165.352C180.921 191.021 127.1 199.546 117.661 173.068Z" fill="#F2AF08"/>
<path d="M100.622 181.116C100.476 197.201 121.056 250.904 127.313 261.881C133.57 272.857 139.37 288.397 135.818 291.248C126.574 290.888 118.575 280.272 118.575 280.272C121.942 292.756 116.726 310.272 119.285 317.988C135.429 333.265 190.174 343.57 205.451 320.119C205.451 308.043 196.411 282.938 197.579 242.39C198.396 213.977 200.848 183.033 199.612 171.424C191.662 166.89 179.859 166.685 179.859 166.685C174.186 193.931 129.863 196.977 115.86 174.052C109.457 174.09 100.622 181.116 100.622 181.116Z" fill="#FFC648"/>
<path d="M128.443 170.684C127.382 168.359 119.685 170.382 119.802 173.234C119.919 178.099 130.379 193.668 155.222 189.182C177.544 185.154 177.155 166.753 175.501 164.758C173.846 162.763 165.683 161.839 166.12 165.021C166.558 168.203 167.298 177.506 152.497 179.851C137.697 182.196 130.924 176.085 128.443 170.684Z" fill="#F2AF08"/>
<path d="M168.144 166.676C167.064 182.751 137.152 186.419 127.879 171.92C121.009 171.258 126.39 185.426 144.421 188.219C158.939 190.486 169.117 183.802 171.608 176.971C175.15 167.123 168.417 162.696 168.144 166.676Z" fill="#FFC648"/>
<path d="M146.981 217.548C145.067 214.988 142.332 213.164 139.233 212.383C136.134 211.602 132.86 211.91 129.962 213.257C122.547 216.721 125.583 246.828 135.596 252.384C145.609 257.94 152.294 247.898 151.048 242.945C149.803 237.992 143.945 233.049 142.845 235.316C141.746 237.583 142.067 242.633 137.513 243.217C132.959 243.801 126.965 224.145 134.136 220.369C141.308 216.594 139.975 224.116 142.622 224.486C145.268 224.855 149.2 220.71 146.981 217.548Z" fill="#2D2D3A"/>
<path d="M155.163 217.742C149.471 216.584 145.734 225.42 148.177 234.061C149.967 240.425 153.636 245.884 158.939 243.733C166.655 240.619 168.738 220.486 155.163 217.742ZM154.521 234.537C151.067 230.431 153.898 223.308 157.664 223.396C160.972 223.474 163.103 228.32 161.624 233.448C160.573 237.107 156.234 236.561 154.521 234.537Z" fill="#2D2D3A"/>
<path d="M167.561 247.703C175.463 251.722 182.157 244.307 182.556 232.513C182.868 222.393 173.341 214.025 167.513 217.012C162.073 219.776 163.29 225.245 163.883 230.752C164.846 239.305 162.472 245.124 167.561 247.703ZM169.001 240.891C167.659 238.702 167.269 228.241 169.313 227.648C173.371 226.412 177.273 230.09 175.949 237.456C175.424 240.434 171.24 244.56 169.001 240.92V240.891Z" fill="#2D2D3A"/>
<path d="M175.344 209.588C175.169 212.507 181.056 215.066 183.43 227.969C184.996 236.454 181.99 241.592 183.741 243.305C185.493 245.017 194.756 243.402 197.364 239.88C199.972 236.357 199.962 226.043 197.744 225.284C195.525 224.525 195.856 229.701 194.825 231.9C193.793 234.099 188.986 237.116 188.13 234.732C187.274 232.348 189.872 213.684 186.738 210.065C183.605 206.445 175.441 207.914 175.344 209.588Z" fill="#2D2D3A"/>
<path d="M153.169 266.055C154.989 265.248 162.647 264.888 163.406 266.6C164.165 268.313 165.537 272.507 163.707 274.385C161.878 276.263 155.174 277.372 153.802 274.268C152.43 271.164 152.001 266.581 153.169 266.055Z" fill="#2D2D3A"/>
<path d="M167.658 265.238C167.22 266.727 168.018 272.653 169.662 273.84C171.307 275.027 179.841 271.894 180.22 269.276C180.6 266.659 180.493 261.618 177.758 261.657C175.024 261.696 168.222 263.379 167.658 265.238Z" fill="#2D2D3A"/>
<path d="M137.601 257.152C144.908 270.142 181.535 265.16 191.246 246.818C196.111 247.119 197.775 243.704 193.309 242.273C188.842 240.843 187.655 244.054 188.171 246.35C188.687 248.647 180.883 258.241 162.521 261.297C144.159 264.352 138.817 257.881 139.508 255.877C140.199 253.872 139.8 247.995 134.642 252.481C129.485 256.967 135.654 258.426 137.601 257.152Z" fill="#2D2D3A"/>
<path d="M67.1684 294.819C71.3429 301.845 97.5769 281.692 94.2392 273.801C90.9016 265.909 61.2716 284.884 67.1684 294.819Z" fill="#AFA798"/>
<path d="M97.5758 186.75C90.7643 185.553 87.9229 191.8 81.6174 198.427C68.5393 212.235 46.509 228.835 44.9812 243.032C43.8914 253.162 59.1103 263.613 68.734 256.568C79.1945 248.9 91.28 236.416 97.9261 232.942" fill="#FAA181"/>
<path d="M72.8907 238.546C85.7255 248.19 100.078 298.643 108.135 309.581C110.87 316.713 99.8253 328.322 92.1964 320.401C77.8144 301.426 43.0563 264.635 45.0511 242.03" fill="#FAA181"/>
<path d="M62.1963 214.726C53.6916 221.44 42.7348 233.895 41.9661 244.18C40.5454 263.486 62.5952 288.844 67.1686 294.848C68.0833 285.76 88.9362 274.414 94.2394 273.83C90.8337 267.515 86.1532 253.658 82.8351 249.153C85.6523 247.732 88.0906 245.66 89.9483 243.11" fill="#D8D6CE"/>
<path d="M97.2862 180.805C86.9814 185.3 70.5755 205.774 65.9534 208.965C61.3313 212.157 59.9203 213.052 60.4457 216.75C60.9712 220.448 80.7051 244.648 87.8183 246.419C93.141 246.419 97.0528 235.939 105.402 234.343" fill="#C98211"/>
<path d="M82.8734 236.912C84.6804 239.504 86.9984 241.7 89.6849 243.364C87.2328 244.998 80.3532 241.009 71.5469 231.005" fill="#F2AF08"/>
<path d="M97.7035 182.488C90.7168 186.059 67.1393 209.948 62.2739 213.013C60.4348 219.825 75.1866 238.926 85.3163 239.14C92.1278 236.493 99.5329 223.571 101.489 205.082C103.445 186.594 97.7035 182.488 97.7035 182.488Z" fill="#F2AF08"/>
<path d="M98.6192 182.75C85.4146 188.871 70.7796 208.05 66.5078 210.541C68.2399 218.443 78.4377 231.472 81.7559 231.472C91.9634 225.556 103.095 200.392 98.6192 182.75Z" fill="#FFC648"/>
<path d="M62.9463 212.556C60.6304 214.765 70.001 232.017 79.4203 235.384C71.3536 225.76 65.5347 210.094 62.9463 212.556Z" fill="#FFC648"/>
<path d="M60.3367 219.591C53.7685 225.128 46.0714 233.943 44.9913 242.059C43.9599 249.746 57.4078 274.579 70.5734 285.419C76.186 279.956 82.9149 275.773 90.2976 273.158C88.3515 266.463 83.2817 253.395 79.4186 250.388C75.5555 247.382 61.5142 243.752 61.5142 243.752C67.1969 242.409 78.0564 246.496 78.0564 246.496L79.8371 245.436C73.7165 241.193 63.4408 224.777 60.3367 219.591Z" fill="#F0EAEC"/>
<path d="M57.2331 219.026C59.3835 225.556 78.2611 245.747 84.1676 248.355C83.321 248.832 82.8345 249.124 82.8345 249.124C77.8913 249.707 55.355 233.262 53.0391 223.366C54.339 221.828 55.7402 220.378 57.2331 219.026Z" fill="#1D1D27"/>
<path d="M78.0379 246.457C69.65 242.38 53.6041 237.359 47.7072 230.149C45.2843 232.513 43.9609 236.795 43.9609 236.795C47.065 241.787 69.9128 245.212 80.4609 248.647" fill="#1D1D27"/>
<path d="M41.8984 246.136C45.9951 247.645 56.5723 244.19 66.7798 245.601C59.6667 246.574 51.7751 251.926 43.0175 254.174C41.8985 251.42 41.8984 246.136 41.8984 246.136Z" fill="#1D1D27"/>
<path d="M82.0167 248.19C75.5944 246.828 64.7641 247.761 45.2832 260.976C45.9126 262.808 46.7072 264.581 47.6574 266.27C58.1374 259.166 74.816 250.418 84.245 251.42C83.925 250.106 83.1316 248.956 82.0167 248.19Z" fill="#1D1D27"/>
<path d="M50.9102 272.137C52.0081 274.188 53.2502 276.158 54.6272 278.034C62.1102 270.677 80.0342 257.658 87.8674 258.952C87.8674 258.952 86.0282 254.962 85.3665 253.629C79.2848 253.152 59.5608 263.379 50.9102 272.137Z" fill="#1D1D27"/>
<path d="M59.3926 284.787C66.9339 273.441 82.7463 263.963 90.0735 264.528C91.0466 266.912 92.3895 269.948 92.3895 269.948C85.2374 270.921 73.1712 277.732 63.4794 290.119C63.4794 290.149 60.0348 285.682 59.3926 284.787Z" fill="#1D1D27"/>
<path d="M88.9463 270.424C90.4643 270.103 88.4696 265.909 86.9321 265.15C85.3947 264.391 71.2851 270.113 64.7266 278.773C65.0671 279.95 69.1054 283.152 69.1054 283.152C75.3233 275.932 83.2928 271.631 88.9463 270.424Z" fill="#363642"/>
<path d="M84.7819 258.893C84.4024 257.619 81.8626 254.174 81.8626 254.174C75.9756 255.147 62.5764 260.732 56.1055 268.293C57.1461 269.731 58.2602 271.115 59.4432 272.438C64.6977 267.447 77.6103 259.098 84.7819 258.893Z" fill="#363642"/>
<path d="M79.7506 251.031C78.9746 250.034 78.0864 249.13 77.1037 248.336C70.4187 246.39 55.4432 253.123 50.4902 257.872C50.4902 259.818 52.7381 262.134 52.7381 262.134C58.5571 257.765 70.4577 251.236 79.7506 251.031Z" fill="#363642"/>
<path d="M72.1412 239.14C72.9683 239.86 70.9249 241.086 68.5992 240.463C66.2736 239.841 57.1754 230.976 53.8086 225.478C54.8104 223.859 56.2746 222.578 58.0122 221.8C63.0527 227.95 70.1172 237.379 72.1412 239.14Z" fill="#363642"/>
<path d="M65.5332 243.704C69.4255 244.463 66.2826 241.758 61.028 239.656C55.7734 237.554 48.2515 229.361 45.6339 235.686C43.6294 240.522 64.132 243.431 65.5332 243.704Z" fill="#363642"/>
<path d="M66.9163 245.251C66.6536 244.278 48.4961 245.173 45.6255 247.149C45.4225 248.058 45.5073 249.009 45.8682 249.868C46.229 250.728 46.8482 251.454 47.6398 251.946C52.8847 250.895 67.0525 245.748 66.9163 245.251Z" fill="#363642"/>
<path d="M106.287 306.603C106.9 307.683 122.303 316.888 126.721 324.946C129.416 329.811 102.784 344.008 97.8404 338.929C94.7071 335.698 92.002 319.846 92.002 319.846" fill="#FAA181"/>
<path d="M92.0986 276.506C97.7035 287.035 104.408 305.007 105.401 307.216C106.393 309.425 100.068 315.205 96.5649 313.96C93.0619 312.714 76.0137 288.484 76.0137 288.484C81.891 280.194 90.7168 276.516 92.0986 276.506Z" fill="#FFC599"/>
<path d="M104.974 307.625C106.998 307.975 122.022 319.856 125.039 323.758C128.055 327.66 133.563 346.985 132.823 350.8C132.084 354.614 128.201 345.224 125.039 333.975C125.311 329.927 124.426 327.563 123.443 327.495C122.226 327.407 122.995 341.264 118.247 341.74C118.733 337.605 119.959 329.811 117.137 330.365C114.997 330.784 117.887 342.626 111.357 344.582C112.506 339.143 112.768 331.163 109.946 331.699C108.564 331.971 109.538 343.881 105.519 344.942C102.6 345.711 107.154 332.604 103.573 332.604C101.082 332.604 103.573 342.938 99.4857 344.018C97.9288 344.426 98.0164 341.098 98.5127 338.588C99.875 332.37 93.1802 321.19 96.9363 314.135" fill="#FFC599"/>
<path d="M93.2957 6.88736C88.4304 1.60358 77.7947 6.78967 80.6458 13.7958C83.4969 20.8019 96.3998 10.6629 93.2957 6.88736Z" fill="#C98211"/>
<path d="M86.027 5.00947C88.9462 4.08506 92.313 6.61504 87.3796 8.90176C82.4461 11.1885 80.3345 6.78046 86.027 5.00947Z" fill="#F2AF08"/>
<path d="M62.7402 94.191C62.7402 94.191 35.7472 134.739 46.3245 152.186C52.3868 162.18 63.3922 143.526 112.776 144.226C150.219 97.1102 101.332 62.8584 101.332 62.8584" fill="#376082"/>
<path d="M60.2208 101.48C46.0237 119.394 41.9563 142.903 46.8508 150.289C45.6053 142.806 54.2072 109.965 60.2208 101.48Z" fill="#457793"/>
<path d="M66.0804 102.647C52.9342 118.936 47.4266 144.09 50.5697 150.503C53.7127 156.915 79.2266 139.994 107.008 143.419C134.789 146.844 84.3547 102.686 82.3988 102.851" fill="#BF8D00"/>
<path d="M65.3679 102.716C42.6467 138.301 62.9157 148.781 96.2434 138.106C129.571 127.431 87.1745 110.685 87.1745 110.685" fill="#936900"/>
<path d="M179.15 77.279C181.962 76.7049 186.604 66.9547 194.058 71.0999C198.641 73.6494 198.028 92.5561 186.799 95.8548C182.118 97.2366 178.605 90.7365 178.566 90.5419" fill="#FFC599"/>
<path d="M184.21 85.6572C183.879 78.4078 190.107 74.8271 192.899 73.7275C189.455 78.7486 188.754 91.0384 189.581 93.1305" fill="#FAA181"/>
<path d="M167.883 39.281C186.069 55.687 188.697 83.4974 190.633 89.6374C200.782 122.012 177.01 146.708 157.101 150.639C121.02 157.752 76.1999 135.07 69.3592 101.275C54.2863 26.7478 137.513 8.24974 167.883 39.281Z" fill="#FAA181"/>
<path d="M85.4151 114.782C80.8319 112.835 64.9806 105.051 59.9985 114.1C56.184 121.048 70.5855 137.221 82.3791 135.8C88.4511 135.07 89.4728 126.536 89.4241 126.322" fill="#FAA181"/>
<path d="M93.4423 89.8614C92.7709 112.145 115.278 158.891 162.316 145.929C181.914 140.519 199.663 110.597 187.772 85.2003C185.728 80.841 187.11 73.5231 178.45 59.7931C174.48 59.5595 168.525 56.3389 168.525 56.3389C172.417 68.5217 169.352 69.5433 166.423 70.5163C163.494 71.4894 150.202 63.3842 145.988 57.0786C144.587 69.7286 135.966 73.7762 131.558 73.9805C127.15 74.1849 124.493 67.8407 123.676 61.1168C109.926 65.3399 93.6467 82.9136 93.4423 89.8614Z" fill="#FFC599"/>
<path d="M164.028 91.6907C161.109 88.7715 159.825 67.2471 172.28 65.1745C183.889 63.2283 188.015 78.6127 187.051 83.9645C185.212 94.2888 169.653 97.315 164.028 91.6907Z" fill="#7C3505"/>
<path d="M164.174 92.1191C161.469 89.414 160.282 69.466 171.958 67.2863C182.166 65.3402 186.554 79.9362 185.581 84.9864C183.703 94.8826 169.458 97.3737 164.174 92.1191Z" fill="#FCCACA"/>
<path d="M164.175 92.1184C161.616 89.5592 159.534 70.3508 169.43 68.7647C180.513 66.9645 185.972 81.7064 184.376 87.0972C182.119 94.4925 169.167 97.0908 164.175 92.1184Z" fill="white"/>
<path d="M167.989 70.8089C179.297 66.3522 185.855 86.7673 180.902 91.7299C177.253 94.5032 169.585 96.1867 166.306 93.2675C163.027 90.3482 160.176 73.8935 167.989 70.8089Z" fill="#559AC4"/>
<path d="M163.19 47.2796C160.865 47.6786 157.021 55.7355 159.055 54.9084C168.961 50.909 172.96 54.0035 173.252 52.8164C173.855 50.3642 166.129 46.7736 163.19 47.2796Z" fill="#7C3505"/>
<path d="M107.358 61.5054C109.995 60.1139 117.284 62.1281 117.702 63.8017C118.12 65.4754 108.214 64.5997 97.715 76.2084C96.7322 71.4598 104.624 62.9261 107.358 61.5054Z" fill="#7C3505"/>
<path d="M168.921 75.0708C180.014 71.957 185.347 92.4987 174.556 93.9972C163.764 95.4958 161.74 77.0948 168.921 75.0708Z" fill="#001826"/>
<path d="M183.003 79.07C180.882 77.0071 175.851 81.6877 177.038 83.809C178.225 85.9303 186.253 82.2033 183.003 79.07Z" fill="white"/>
<path d="M136.286 99.6404C138.009 95.5826 129.806 74.2625 113.779 77.5904C99.5237 80.5096 100.458 101.11 105.08 105.216C113.468 112.66 132.92 107.571 136.286 99.6404Z" fill="#7C3505"/>
<path d="M136.421 99.5531C137.978 95.8846 130.582 76.7636 116.103 79.7315C101.624 82.6993 103.988 100.886 108.173 104.603C115.763 111.337 133.375 106.715 136.421 99.5531Z" fill="#FCCACA"/>
<path d="M133.923 100.809C136.317 96.4297 129.379 78.5154 115.979 81.2497C102.58 83.984 105.801 100.935 109.664 104.37C116.67 110.607 130.459 107.124 133.923 100.809Z" fill="white"/>
<path d="M115.14 83.3608C125.669 80.3638 135.798 99.465 129.522 105.303C123.616 108.758 113.427 108.894 110.936 106.481C108.445 104.068 103.716 86.6206 115.14 83.3608Z" fill="#559AC4"/>
<path d="M114.849 88.5372C123.46 84.6449 133.6 104.71 122.098 108.135C110.596 111.56 105.974 92.5852 114.849 88.5372Z" fill="#001826"/>
<path d="M131.362 93.2769C129.104 91.0777 123.762 96.06 125.027 98.3175C126.292 100.575 134.787 96.6048 131.362 93.2769Z" fill="white"/>
<path d="M114.996 99.6993C117.156 98.5608 118.197 102.619 116.504 103.543C114.811 104.468 112.826 100.877 114.996 99.6993Z" fill="white"/>
<path d="M168.825 86.008C170.995 84.8793 172.036 88.9272 170.343 89.9003C168.65 90.8734 166.665 87.1465 168.825 86.008Z" fill="white"/>
<path d="M91.7196 69.3779C80.1595 82.0279 86.3871 106.968 94.4928 120.494C90.6005 122.829 87.837 121.622 87.837 121.622C85.4048 118.176 82.2783 115.277 78.6584 113.112C75.0385 110.947 71.0054 109.563 66.8187 109.05C59.7931 104.029 60.6689 94.1332 63.3157 84.3052" fill="#160F13"/>
<path d="M87.9736 75.0806C82.3784 86.8547 89.55 108.165 96.1669 115.473C88.8007 113.205 81.2204 103.504 79.8095 98.3853C80.9382 105.664 84.0132 109.469 84.0132 109.469C77.2601 107.114 71.3633 100.254 71.3633 100.254C76.5692 85.0347 87.9736 75.0806 87.9736 75.0806Z" fill="#3F2F39"/>
<path d="M158.356 43.8446C178.158 38.9792 195.128 53.2637 192.696 58.2069C190.263 63.1501 159.329 46.3162 148.577 42.9105C174.013 49.7998 168.904 62.7514 165.761 64.7851C162.618 66.8188 140.461 44.5059 140.461 44.5059C140.461 44.5059 138.914 67.5777 131.519 70.0006C124.123 72.4236 123.792 53.8574 125.855 48.671C104.642 55.4825 93.238 27.0589 119.637 18.1651C146.037 9.2712 178.353 25.7062 162.307 37.9377" fill="#160F13"/>
<path d="M113.215 34.5228C120.24 35.2818 126.896 41.169 126.896 41.169C128.628 34.8732 123.403 28.8208 123.403 28.8208C130.818 30.329 134.807 41.6166 134.807 41.6166C139.371 41.8112 150.377 39.8552 150.377 39.8552C148.644 27.8086 144.665 27.7502 142.67 26.0085C149.87 26.9329 154.765 36.8385 158.122 40.8963C157.645 26.6894 145.346 12.8233 124.337 23.0698C128.652 23.8525 132.655 25.8473 135.878 28.8208C128.512 24.2084 119.705 23.5173 114.169 29.0346" fill="#3F2F39"/>
<path d="M135.791 49.7026C136.482 60.0658 132.473 68.9985 128.415 68.765C124.377 64.9797 124.825 55.4438 128.542 50.2281" fill="#3F2F39"/>
<path d="M158.121 49.1282C171.511 52.7091 175.432 60.6886 174.731 62.8586C178.39 57.5845 177.077 48.3303 158.968 45.8198" fill="#160F13"/>
<path d="M139.107 46.8515C147.466 48.3305 150.22 63.0433 148.916 68.6482C153.256 62.2648 153.373 50.3352 140.567 45.4893" fill="#160F13"/>
<path d="M128.842 120.542C125.806 123.354 130.049 124.97 134.681 123.578C132.657 122.673 132.345 117.311 128.842 120.542Z" fill="#FAA181"/>
<path d="M178.566 113.254C181.485 116.173 178.867 117.389 174.041 116.776C175.929 115.55 175.89 110.607 178.566 113.254Z" fill="#FAA181"/>
<path d="M130.788 121.602C128.326 123.432 133.327 125.154 145.16 123.354C139.078 123.86 134.456 123.802 132.705 122.673C131.264 121.758 131.372 121.135 130.788 121.602Z" fill="#C13A36"/>
<path d="M170.471 117.953C172.962 117.574 175.336 116.358 175.891 115.034C176.26 114.197 176.727 113.692 177.214 114.247C178.382 115.57 176.406 116.854 170.626 118.353" fill="#C13A36"/>
<path d="M161.809 121.934L138.941 124.045C138.941 124.045 153.07 127.996 159.892 126.663C166.713 125.33 169.982 121.554 173.602 117.428C169.803 119.255 165.858 120.763 161.809 121.934Z" fill="#F27F7C"/>
<path d="M161.324 119.034C158.725 120.601 157.704 118.684 153.111 120.007C148.518 121.331 139.741 124.503 133.912 123.394C153.549 125.34 168.573 121.263 174.275 116.864C169.381 118.538 166.072 116.183 161.324 119.034Z" fill="#E8524A"/>
<path d="M158.919 102.268C161.284 102.433 161.634 103.494 164.193 103.815C167.599 104.253 165.779 106.812 162.451 107.814C159.102 108.923 155.66 109.727 152.166 110.218C148.712 110.597 149.247 107.785 151.757 106.491C153.597 105.518 156.088 102.073 158.919 102.268Z" fill="#FFAD8D"/>
<path d="M161.42 105.314C161.839 104.506 165.682 104.341 165.429 105.207C164.991 106.715 160.564 106.968 161.42 105.314Z" fill="#CE6C4E"/>
<path d="M147.973 102.822C145.053 105.741 145.783 111.064 151.544 110.208C153.383 110.12 151.106 108.709 151.106 108.709C148.148 108.378 147.671 106.715 147.973 102.822Z" fill="#FFAD8D"/>
<path d="M154.511 106.968C153.625 106.364 149.84 108.34 150.521 109.021C151.601 110.091 156.087 108.018 154.511 106.968Z" fill="#CE6C4E"/>
<path d="M81.4349 120.698C72.6772 114.996 64.2893 115.346 62.1777 119.637C67.2864 119.442 76.9976 122.187 77.9512 124.61C76.1899 128.658 81.3376 130.195 83.4005 129.387C76.6474 126.448 81.4349 120.698 81.4349 120.698Z" fill="#F26E4E"/>
<path d="M79.5277 116.378C74.3996 110.656 66.2939 106.851 61.0394 112.563C59.5311 115.044 60.5335 116.796 60.5335 116.796C61.7595 114.013 70.9063 113.264 79.5277 116.378Z" fill="#FFC599"/>
<path d="M175.152 45.6934C185.992 46.0924 193.29 54.383 190.643 57.9153C179.307 50.2085 169.303 46.7636 164.798 46.4912C173.332 48.5249 175.784 56.0276 174.023 58.762C173.254 52.8165 164.536 47.9508 159.913 46.7345C167.095 52.8551 167.464 59.1606 165.197 61.6128C161.597 57.6134 145.035 44.7788 145.035 44.7788C152.168 44.2242 160.896 53.001 160.896 53.001C158.944 49.6321 156.704 46.4387 154.202 43.4556C159.544 43.7475 175.152 45.6934 175.152 45.6934Z" fill="#3F2F39"/>
<path d="M62.7305 107.065C70.2134 77.1818 137.998 37.6753 179.82 45.4696C180.978 34.7659 147.855 -16.5539 94.8224 5.40836C41.79 27.3706 46.7429 79.5367 62.7305 107.065ZM131.702 21.6878C152.944 15.9467 162.081 34.8536 156.028 35.6515C134.514 38.4539 123.684 45.2168 119.743 46.1315C115.802 47.0462 112.231 26.923 131.702 21.6878Z" fill="#376082"/>
<path d="M90.7077 7.90941C63.7147 21.0556 62.5664 54.1694 71.2462 74.7206C78.554 65.1845 106.277 50.5786 116.222 46.3652C109.994 30.7961 123.695 21.3378 131.567 19.1192C139.439 16.9006 156.516 19.9757 160.564 33.4236C166.403 32.0321 174.324 34.1434 174.324 34.1434C160.214 7.77314 130.059 -11.2601 90.7077 7.90941Z" fill="#457793"/>
<path d="M121.35 45.5957C131.08 39.008 147.418 31.3304 152.877 32.6635C155.465 33.2863 156.254 42.7057 153.15 43.4452C141.054 45.8779 126.069 53.7794 126.069 53.7794C124.23 54.5286 123.062 52.3877 123.062 52.3877" fill="#F2AF08"/>
<path d="M152.255 32.6348C154.61 32.6348 155.865 41.0029 153.228 41.5867C150.591 42.1706 150.397 32.6445 152.255 32.6348Z" fill="#FFC648"/>
<path d="M121.857 45.4109C130.76 38.7259 147.37 32.2455 149.599 32.9753C151.827 33.7051 153.433 40.2049 151.136 41.1195C148.84 42.0342 133.923 47.367 124.007 52.6605C111.484 57.8081 87.3807 70.5551 72.9209 86.4842C70.9747 84.071 69.6416 80.0426 72.5608 76.1211C75.48 72.1996 94.4548 56.212 121.857 45.4109Z" fill="#457793"/>
<path d="M156.332 36.5074C163.679 35.3105 174.227 35.8357 176.124 37.0034C178.022 38.1711 178.79 43.3967 178.012 43.4842C171.677 41.6257 158.336 42.7351 155.758 43.1146C159.358 40.3121 156.332 36.5074 156.332 36.5074Z" fill="#457793"/>
<path d="M96.1371 7.46152C122.284 -7.07617 162.306 6.95567 157.197 23.1865C135.517 8.51259 106.549 24.218 113.049 44.8373C88.7515 55.6968 67.5385 23.3615 96.1371 7.46152Z" fill="#5086A3"/>
<path d="M148.401 33.5692C150.785 33.6957 151.174 37.8991 149.734 39.6409C148.294 41.3827 133.065 44.8278 132.219 42.7065C131.372 40.5852 144.596 33.3648 148.401 33.5692Z" fill="#5086A3"/>
</g>
<defs>
<clipPath id="clip0_8_14315">
<rect width="246.68" height="246.68" fill="white" transform="translate(33 82)"/>
</clipPath>
</defs>
</svg>
