<svg width="313" height="329" viewBox="0 0 313 329" fill="none" xmlns="http://www.w3.org/2000/svg">
<g clip-path="url(#clip0_8_14318)">
<path d="M243.56 292.551C291.727 244.383 291.727 166.289 243.56 118.122C195.393 69.9544 117.298 69.9541 69.1305 118.121C20.9633 166.289 20.9635 244.383 69.1308 292.551C117.298 340.718 195.392 340.718 243.56 292.551Z" fill="#FBAE17"/>
<path d="M156.341 316.38C217.666 316.38 267.381 266.665 267.381 205.34C267.381 144.014 217.666 94.2998 156.341 94.2998C95.0151 94.2998 45.3008 144.014 45.3008 205.34C45.3008 266.665 95.0151 316.38 156.341 316.38Z" fill="#9E005D"/>
</g>
<mask id="mask0_8_14318" style="mask-type:alpha" maskUnits="userSpaceOnUse" x="0" y="-19" width="313" height="336">
<path fill-rule="evenodd" clip-rule="evenodd" d="M24 -19H292.06V189.61H266.24C266.946 194.669 267.31 199.837 267.31 205.09C267.31 266.415 217.596 316.13 156.27 316.13C94.9448 316.13 45.2305 266.415 45.2305 205.09C45.2305 199.837 45.5952 194.669 46.3009 189.61H24V-19Z" fill="#22B573"/>
</mask>
<g mask="url(#mask0_8_14318)">
<path d="M247.933 201.067C258.933 199.347 305.143 207.957 318.683 212.337C332.223 216.717 328.753 236.787 319.073 236.837C305.623 236.917 250.673 242.837 243.793 242.027" fill="#FAA181"/>
<path d="M187.465 196.997C197.045 190.247 226.305 197.717 240.405 196.777C251.325 196.057 246.125 199.277 249.945 210.107C258.025 233.037 254.945 241.947 251.275 246.237C248.275 249.817 226.745 247.087 215.935 255.837" fill="#A4D33C"/>
<path d="M206.724 197.587C214.344 195.937 230.724 199.307 234.494 199.587C234.744 208.067 240.734 218.977 241.324 228.817C234.764 227.817 219.254 226.518 213.824 227.018C208.394 227.518 199.504 199.157 206.724 197.587Z" fill="#C7F25F"/>
<path d="M236.994 199.117C237.404 197.547 246.784 198.367 246.614 200.367C246.444 202.367 248.614 208.497 250.614 215.277C252.664 222.277 254.354 228.717 253.774 232.677C253.404 235.227 246.024 234.838 245.924 232.108C245.704 225.948 243.684 220.747 242.104 216.347C239.534 209.317 236.404 201.317 236.994 199.117Z" fill="#C7F25F"/>
<path d="M190.103 195.027C178.173 193.837 155.923 191.247 136.813 198.707C119.223 205.577 102.133 213.907 94.3729 218.877C88.8129 222.437 96.1029 229.067 95.3229 234.817C93.4329 248.617 126.943 311.357 127.373 344.127C127.703 369.637 142.523 382.817 150.053 369.627C157.583 356.437 221.683 332.137 241.953 330.257C262.223 328.377 247.053 314.077 240.953 298.467C235.723 284.967 228.803 259.797 225.453 239.467" fill="#A4D33C"/>
<path d="M121.805 210.998C132.675 230.178 154.935 239.317 170.055 239.317C178.445 232.587 182.695 215.697 183.825 199.887C192.645 195.027 212.415 198.018 212.415 198.018C222.195 225.518 226.415 263.787 224.885 273.617C222.885 286.787 187.245 299.888 168.545 318.058C187.225 308.248 216.975 300.317 225.975 301.617C234.975 302.917 244.715 315.178 243.795 320.458C220.845 321.458 181.045 335.617 156.875 354.597C147.145 355.267 144.685 342.307 143.995 330.967C143.225 318.427 128.425 275.778 114.885 258.788C106.085 247.788 98.8848 221.478 98.8848 221.478C98.8848 221.478 111.475 212.008 121.805 210.998Z" fill="#C7F25F"/>
<path d="M174.224 179.107L174.414 196.038C174.414 196.038 176.114 215.647 170.664 222.717C165.214 229.787 163.814 227.947 163.814 227.947C148.874 231.847 132.374 213.117 130.814 203.447C135.374 196.607 135.414 184.948 130.264 178.958" fill="#FAA181"/>
<path d="M159.663 230.077C155.213 230.077 150.503 228.517 145.793 225.447C137.623 220.127 130.343 210.578 129.233 203.708C129.174 203.307 129.263 202.898 129.483 202.558C133.823 196.058 133.613 185.307 129.053 180.007C128.916 179.847 128.812 179.66 128.747 179.459C128.681 179.258 128.656 179.046 128.673 178.835C128.69 178.624 128.748 178.419 128.844 178.231C128.94 178.042 129.072 177.875 129.233 177.737C129.393 177.6 129.578 177.495 129.778 177.429C129.978 177.363 130.189 177.337 130.398 177.353C130.608 177.369 130.813 177.426 131.001 177.521C131.189 177.616 131.356 177.747 131.493 177.907C136.843 184.137 137.273 196.047 132.493 203.777C133.663 209.057 139.553 217.567 147.493 222.777C151.383 225.307 157.293 227.997 163.373 226.407C163.752 226.31 164.153 226.352 164.503 226.527C164.943 226.367 166.423 225.527 169.353 221.757C173.503 216.367 173.233 201.477 172.773 196.197V196.077L172.573 179.148C172.571 178.936 172.61 178.726 172.688 178.53C172.767 178.334 172.883 178.154 173.031 178.003C173.178 177.852 173.354 177.731 173.549 177.648C173.743 177.564 173.952 177.52 174.163 177.518C174.586 177.518 174.991 177.685 175.291 177.983C175.591 178.28 175.761 178.685 175.763 179.108L175.963 195.987C176.228 199.591 176.284 203.207 176.133 206.817C175.773 214.817 174.343 220.517 171.873 223.717C168.683 227.857 166.293 229.788 164.353 229.788C164.085 229.788 163.819 229.748 163.563 229.668C162.282 229.946 160.974 230.083 159.663 230.077Z" fill="#A54A2F"/>
<path d="M164.574 197.117C151.414 198.737 142.394 205.587 136.844 210.377C134.988 208.575 133.613 206.337 132.844 203.867C139.184 195.577 136.084 183.297 136.084 183.297" fill="#F26E4E"/>
<path d="M121.923 206.768C132.443 228.168 156.703 236.237 166.783 235.667C181.423 228.917 181.033 195.047 181.033 195.047L169.173 197.047C172.073 209.387 166.743 222.567 164.173 225.327C152.013 222.227 136.353 214.328 131.173 199.998C126.723 198.318 120.813 204.508 121.923 206.768Z" fill="#3B3BB2"/>
<path d="M165.794 237.317C154.794 237.317 130.964 228.797 120.484 207.497C119.734 205.967 120.384 203.897 122.274 201.817C124.584 199.267 128.414 197.267 131.744 198.517C131.963 198.607 132.161 198.742 132.323 198.915C132.485 199.087 132.608 199.293 132.684 199.517C134.174 203.637 140.764 217.397 163.544 223.577C165.844 220.097 170.204 208.577 167.604 197.477C167.554 197.264 167.548 197.043 167.588 196.828C167.628 196.613 167.711 196.408 167.834 196.227C167.955 196.044 168.113 195.887 168.297 195.766C168.481 195.646 168.687 195.565 168.904 195.527L180.764 193.527C180.993 193.488 181.227 193.499 181.451 193.559C181.676 193.62 181.884 193.727 182.063 193.875C182.241 194.023 182.385 194.209 182.486 194.418C182.586 194.627 182.64 194.855 182.644 195.087C182.644 196.517 182.864 230.087 167.454 237.187C167.271 237.269 167.074 237.316 166.874 237.327C166.528 237.32 166.168 237.317 165.794 237.317ZM123.394 206.137C133.484 226.567 156.494 234.467 166.394 234.137C173.134 230.797 176.324 220.637 177.824 212.637C178.753 207.475 179.285 202.25 179.414 197.007L171.084 198.317C173.374 211.057 167.944 223.617 165.334 226.397C165.138 226.608 164.889 226.762 164.612 226.843C164.336 226.924 164.043 226.929 163.764 226.857C156.779 225.089 150.144 222.147 144.144 218.157C137.284 213.457 132.514 207.797 129.964 201.307C128.451 201.27 126.979 201.806 125.844 202.807C124.064 204.237 123.384 205.707 123.394 206.117V206.137Z" fill="#18187A"/>
<path d="M56.393 249.478C42.823 253.738 -6.77698 288.688 -19.367 295.308C-31.957 301.928 -17.077 318.307 -8.06698 314.737C13.023 306.457 77.423 289.637 85.013 284.377" fill="#FAA181"/>
<path d="M310.074 215.317C313.365 208.384 318.591 202.55 325.122 198.519C331.653 194.487 339.211 192.431 346.884 192.597C355.684 192.787 364.044 196.228 363.974 200.958C363.904 205.018 351.034 201.028 344.154 203.288C352.231 203.028 360.213 205.09 367.154 209.228C371.384 211.948 371.564 218.638 364.384 216.228C357.204 213.818 348.044 212.928 344.454 213.228C352.144 213.618 359.164 215.777 363.744 219.337C367.914 222.577 365.084 227.288 359.084 225.228C354.614 223.698 345.854 221.478 341.344 221.878C348.694 223.008 353.054 226.817 355.484 230.737C357.914 234.657 354.484 235.797 350.924 233.737C347.364 231.677 341.554 230.457 338.684 231.137C333.264 238.137 323.364 240.857 316.604 235.827" fill="#FAA181"/>
<path d="M310.074 215.318C311.984 200.748 321.194 195.858 330.014 190.418C336.794 186.248 340.464 182.008 342.194 184.358C344.994 188.168 342.994 195.268 333.834 199.608C336.134 204.608 334.604 211.708 326.724 219.028" fill="#FAA181"/>
<path d="M107.314 211.677C91.6537 219.537 69.1837 235.047 59.3137 241.117C51.1137 246.177 54.4437 248.377 59.4837 253.917C76.4837 272.577 72.0837 292.227 77.8737 292.487C89.5537 293.017 106.494 275.717 120.774 277.967" fill="#A4D33C"/>
<path d="M179.935 199.857C194.035 195.307 226.135 201.127 234.685 202.187C240.595 200.587 245.775 200.837 248.245 202.187C247.925 199.507 247.785 197.777 246.175 196.837C244.565 195.897 237.315 195.977 234.985 196.837C227.525 195.307 192.415 191.547 179.985 194.177C176.995 195.747 179.935 199.857 179.935 199.857Z" fill="#3B3BB2"/>
<path d="M197.864 197.137C207.104 196.477 225.574 200.518 232.984 200.838C233.14 199.807 233.14 198.758 232.984 197.728C223.194 195.428 198.724 193.388 197.184 193.608" fill="#5151CE"/>
<path d="M173.384 28.0275C171.434 20.2475 158.184 19.7073 157.314 28.1173C156.444 36.5273 174.434 33.3775 173.384 28.0275Z" fill="#F33B0C"/>
<path d="M167.223 22.3173C170.583 22.9573 172.563 27.2271 166.473 26.9071C160.383 26.5871 160.683 21.0473 167.223 22.3173Z" fill="#FF5F27"/>
<path d="M97.0242 97.6675C97.0242 97.6675 49.0242 123.228 50.1342 145.998C50.7942 158.998 71.5042 146.527 119.694 173.407C181.504 146.927 151.594 87.3174 151.594 87.3174" fill="#1A1A1A"/>
<path d="M90.684 103.498C67.214 113.578 50.754 134.557 51.684 144.407C54.394 136.387 80.224 108.658 90.684 103.498Z" fill="#666666"/>
<path d="M95.8139 107.748C74.2439 116.748 55.5039 138.617 55.1839 146.577C54.8639 154.537 88.9239 151.447 114.394 169.527C139.864 187.607 113.714 117.467 111.714 116.577" fill="#F33B0C"/>
<path d="M95.0846 107.438C53.8746 130.378 68.2446 151.437 106.685 158.627C145.125 165.817 112.315 126.857 112.315 126.857" fill="#C9331B"/>
<path d="M220.463 142.777C223.553 143.707 233.273 136.567 238.413 144.617C241.553 149.547 230.933 167.818 218.133 165.108C212.803 163.968 212.793 155.717 212.863 155.507" fill="#FAA181"/>
<path d="M220.994 153.697C224.524 146.397 232.544 146.177 235.884 146.587C229.824 149.687 222.614 161.397 222.324 163.897" fill="#FAA181"/>
<path d="M171.734 205.517C167.67 205.545 163.626 204.965 159.734 203.797C149.649 200.588 140.247 195.536 132.004 188.897C123.589 182.243 116.297 174.282 110.404 165.317C97.9938 146.317 93.9038 125.417 99.2038 108.007C104.654 90.0572 113.614 76.3272 125.824 67.1972C136.699 59.1664 149.895 54.898 163.414 55.0375C193.674 55.0375 222.964 74.4772 230.114 99.2772C237.964 121.337 230.624 145.167 227.114 156.617C226.504 158.617 226.024 160.137 225.784 161.177C222.874 174.607 215.166 186.515 204.104 194.667C194.704 201.56 183.389 205.353 171.734 205.517Z" fill="#FAA181"/>
<path d="M108.404 129.947C104.944 125.557 93.4644 109.508 83.7644 115.788C76.3344 120.598 81.9144 144.138 94.2844 148.998C100.634 151.508 106.154 143.658 106.224 143.418" fill="#FAA181"/>
<path d="M129.503 109.688C117.033 131.248 116.423 189.137 167.503 201.357C189.573 206.637 221.503 186.117 224.733 155.137C225.293 149.787 230.293 143.267 229.043 125.217C225.253 122.877 221.043 116.547 221.043 116.547C218.453 130.607 214.863 129.967 211.483 129.377C208.103 128.787 199.303 113.757 198.483 105.327C190.393 117.017 179.763 116.437 175.323 114.327C170.883 112.217 171.633 104.537 174.393 97.4873C158.733 94.3173 133.393 102.978 129.503 109.688Z" fill="#FFC599"/>
<path d="M197.965 148.927C196.665 144.587 205.965 122.417 219.305 126.987C231.745 131.247 228.475 148.787 224.695 153.537C217.415 162.727 200.505 157.447 197.965 148.927Z" fill="#381A12"/>
<path d="M197.884 149.387C196.664 145.307 205.644 125.387 218.274 129.447C229.334 132.997 226.334 149.318 222.734 153.748C215.614 162.498 200.274 157.397 197.884 149.387Z" fill="#FCCACA"/>
<path d="M199.773 149.197C198.613 145.327 207.833 127.197 216.343 129.907C228.293 133.757 225.463 149.267 220.993 153.697C214.823 159.827 202.033 156.767 199.773 149.197Z" fill="white"/>
<path d="M220.685 104.817C218.195 103.987 210.145 109.817 212.575 110.117C224.435 111.437 226.735 116.597 227.645 115.587C229.545 113.507 223.835 105.857 220.685 104.817Z" fill="#7C3505"/>
<path d="M158.224 89.1876C161.564 89.1876 167.664 95.0576 167.224 96.9176C166.784 98.7776 157.474 92.6777 140.994 98.5377C142.474 93.3177 154.774 89.1676 158.224 89.1876Z" fill="#381A12"/>
<path d="M166.464 142.027C170.314 138.967 173.814 112.637 156.024 108.407C141.214 104.887 130.454 124.468 132.824 130.978C137.114 142.728 158.934 148.047 166.464 142.027Z" fill="#381A12"/>
<path d="M166.634 142.018C170.114 139.248 173.024 116.528 157.184 111.748C141.344 106.968 134.044 126.127 136.184 132.007C140.074 142.657 159.824 147.478 166.634 142.018Z" fill="#FCCACA"/>
<path d="M164.684 142.318C169.374 139.318 172.044 117.988 157.414 113.568C142.784 109.148 136.974 127.567 138.944 132.967C142.534 142.827 157.944 146.728 164.684 142.318Z" fill="white"/>
<path d="M161.074 117.547C149.224 113.037 136.404 131.628 142.934 139.038C148.484 143.858 161.314 145.638 164.764 142.208C167.694 139.318 173.954 122.437 161.074 117.547Z" fill="#559AC4"/>
<path d="M162.105 121.617C150.815 116.997 138.915 135.788 147.745 141.858C150.905 144.048 161.225 145.858 164.315 142.858C169.455 137.988 169.055 124.467 162.105 121.617Z" fill="#001826"/>
<path d="M143.353 123.547C146.643 121.787 150.873 129.097 148.673 131.247C146.473 133.397 138.363 126.227 143.353 123.547Z" fill="white"/>
<path d="M163.224 136.587C161.404 135.387 160.044 139.017 161.474 139.957C162.904 140.897 165.074 137.777 163.224 136.587Z" fill="white"/>
<path d="M209.323 132.387C222.223 129.187 224.833 150.287 218.143 155.627C211.803 160.017 200.263 155.877 198.683 149.197C197.453 143.377 203.633 133.817 209.323 132.387Z" fill="#559AC4"/>
<path d="M211.534 135.367C221.624 136.567 220.534 152.417 214.534 156.367C210.164 159.317 199.534 154.887 199.034 149.577C198.524 143.767 204.574 134.527 211.534 135.367Z" fill="#001826"/>
<path d="M222.463 142.248C219.913 140.088 214.853 145.637 216.373 147.927C217.893 150.217 226.293 145.508 222.463 142.248Z" fill="white"/>
<path d="M203.224 146.317C205.224 146.227 204.594 149.687 203.044 149.777C201.494 149.867 201.224 146.437 203.224 146.317Z" fill="white"/>
<path d="M138.684 88.6372C120.614 94.9072 113.494 122.767 114.304 140.377C109.304 140.617 107.164 137.958 107.164 137.958C106.596 133.28 105.058 128.772 102.647 124.724C100.236 120.675 97.0062 117.175 93.1641 114.447C88.9241 105.777 95.034 96.5176 102.844 88.2476" fill="#160F13"/>
<path d="M131.994 92.2573C120.254 100.877 115.994 125.637 118.624 136.337C112.624 130.197 110.284 116.627 111.624 110.857C108.864 118.607 109.884 123.978 109.884 123.978C104.494 118.088 102.314 108.197 102.314 108.197C115.474 95.9873 131.994 92.2573 131.994 92.2573Z" fill="#3F2F39"/>
<path d="M217.753 98.867C239.833 104.557 248.933 127.647 243.913 131.207C238.893 134.767 217.403 101.817 208.633 92.7674C230.003 113.037 218.093 123.057 213.933 123.387C209.773 123.717 199.843 90.0472 199.843 90.0472C199.843 90.0472 186.093 111.917 177.523 110.387C168.953 108.857 178.523 90.387 183.273 86.387C158.793 81.847 162.653 47.8372 193.333 53.0872C224.013 58.3372 247.083 91.647 224.823 95.157" fill="#160F13"/>
<path d="M178.305 65.7572C184.815 70.2372 188.225 79.5575 188.225 79.5575C193.285 74.2875 191.355 65.5575 191.355 65.5575C197.845 70.9675 195.785 84.1874 195.785 84.1874C200.165 86.7974 212.015 90.7074 212.015 90.7074C216.705 77.9474 212.825 75.7972 211.785 73.0072C218.385 77.7372 217.935 90.0773 219.075 95.8573C226.145 81.6173 221.405 61.4571 195.305 60.3871C199.138 63.4444 202.02 67.5308 203.615 72.1674C198.805 63.7274 190.515 58.3771 182.145 60.8671" fill="#3F2F39"/>
<path d="M192.454 92.6572C187.634 103.227 178.964 109.877 175.094 107.487C173.094 101.637 178.644 92.4874 185.094 89.3374" fill="#3F2F39"/>
<path d="M214.725 103.938C225.985 114.568 225.615 124.498 223.725 126.248C230.115 122.998 233.725 113.247 217.265 101.137" fill="#160F13"/>
<path d="M197.224 91.6074C204.664 97.5174 199.564 113.437 195.314 118.257C202.964 114.257 209.394 102.617 199.384 91.0474" fill="#160F13"/>
<path d="M187.315 156.617C189.565 158.037 189.315 159.268 191.685 160.938C194.815 163.178 191.685 164.728 187.855 163.938C183.971 163.258 180.159 162.223 176.465 160.847C172.855 159.397 174.915 156.927 178.045 156.967C180.365 156.997 184.675 154.947 187.315 156.617Z" fill="#FFAD8D"/>
<path d="M188.154 160.937C189.004 160.367 192.864 162.267 192.154 162.937C190.964 164.167 186.454 162.127 188.154 160.937Z" fill="#CE6C4E"/>
<path d="M176.223 151.377C171.813 152.687 169.693 158.298 175.803 160.518C177.673 161.418 176.163 158.827 176.163 158.827C173.483 156.917 173.893 155.057 176.223 151.377Z" fill="#FFAD8D"/>
<path d="M180.494 158.907C179.944 157.847 175.174 157.777 175.494 158.807C175.984 160.427 181.454 160.747 180.494 158.907Z" fill="#CE6C4E"/>
<path d="M101.345 133.648C95.7046 123.368 87.3446 119.288 82.9746 122.398C88.1046 124.908 96.2046 132.757 95.8446 135.657C91.9746 138.657 96.2146 142.938 98.6746 143.228C93.5846 136.768 101.345 133.648 101.345 133.648Z" fill="#F26E4E"/>
<path d="M101.763 128.377C99.7631 120.037 93.7631 111.997 85.6131 114.827C82.8131 116.467 82.8731 118.727 82.8731 118.727C85.5531 116.647 94.9331 120.757 101.763 128.377Z" fill="#FFC599"/>
<path d="M233.294 109.607C243.734 115.737 246.514 127.767 242.044 129.837C234.984 116.247 226.974 107.557 222.694 104.897C230.004 111.427 228.434 120.097 225.254 121.847C227.644 115.587 221.664 106.188 217.744 102.538C221.564 112.378 218.594 118.757 215.064 119.967C213.644 114.127 204.154 92.7173 204.154 92.7173C211.474 95.9573 215.394 109.228 215.394 109.228C215.266 104.888 214.757 100.568 213.874 96.3174C218.974 99.4074 233.294 109.607 233.294 109.607Z" fill="#3F2F39"/>
<path d="M90.2235 110.317C113.443 84.8975 201.033 81.9973 238.043 111.847C244.863 101.917 239.503 33.8973 175.703 27.3673C111.903 20.8373 89.0635 74.7675 90.2235 110.317ZM203.343 62.9376C227.273 68.5576 226.223 91.9974 219.823 89.5474C197.183 80.8974 182.943 81.7975 178.573 80.6075C174.203 79.4175 181.363 57.7773 203.303 62.9473L203.343 62.9376Z" fill="#333333"/>
<path d="M170.293 27.6473C136.763 26.2573 118.083 58.2175 115.693 83.0175C127.943 77.5175 162.923 77.8375 174.963 79.0175C177.123 60.3175 195.583 58.3173 204.533 60.3173C213.483 62.3173 228.603 74.3975 225.463 89.7675C231.933 91.4775 238.613 97.7675 238.613 97.7675C238.713 64.3875 219.153 29.6673 170.293 27.6473Z" fill="#666666"/>
<path d="M120.455 56.9575C121.525 57.6175 122.635 63.0976 123.385 64.5576C126.645 65.6276 132.265 66.0175 132.495 67.6875C132.725 69.3575 125.875 70.2374 125.405 71.1674C124.685 72.5574 127.605 78.0075 126.465 78.9975C125.325 79.9875 119.005 75.9173 117.715 75.7173C116.425 75.5173 109.265 81.0174 108.305 80.6274C107.345 80.2374 111.485 73.2074 111.305 72.1674C111.125 71.1274 105.915 69.4471 106.235 68.0971C106.555 66.7471 113.115 64.9971 114.455 64.0971C115.795 63.1971 119.375 56.3175 120.455 56.9575Z" fill="#B8C4CC"/>
<path d="M121.764 61.7373C119.431 65.9333 117.745 70.4576 116.764 75.1572C118.764 74.3172 124.294 79.7373 125.834 78.0273C127.374 76.3173 124.094 71.9175 124.834 70.6675C125.574 69.4175 132.324 68.0674 131.834 67.3374C131.344 66.6074 124.934 65.5874 123.954 64.8174C123.075 63.9049 122.337 62.8668 121.764 61.7373Z" fill="#EAEAEA"/>
<path d="M180.434 80.9671C193.504 79.6571 213.624 80.7571 218.294 84.9671C220.504 86.9671 216.294 96.6473 212.844 95.7073C199.674 91.7073 180.734 91.5174 180.734 91.5174C178.534 91.2874 178.514 88.5174 178.514 88.5174" fill="#F33B0C"/>
<path d="M217.693 84.6173C220.023 85.8473 216.813 94.7476 213.933 93.9376C211.053 93.1276 215.863 83.6373 217.693 84.6173Z" fill="#FF5F27"/>
<path d="M181.044 81.0375C193.334 79.1875 213.114 81.6275 214.914 83.5175C216.714 85.4075 214.854 92.6771 212.104 92.3471C209.354 92.0171 191.854 89.3471 179.314 89.3471C164.314 87.7671 133.794 87.5172 111.124 95.5072C110.534 92.1172 111.314 87.4271 116.274 85.1171C121.234 82.8071 148.344 77.1375 181.044 81.0375Z" fill="#666666"/>
<path d="M219.664 90.5874C227.524 93.3074 237.664 99.4174 238.854 101.587C240.044 103.757 238.084 109.298 237.274 108.978C232.024 103.788 218.324 97.8074 215.584 96.7974C220.614 95.9274 219.664 90.5874 219.664 90.5874Z" fill="#666666"/>
<path d="M175.863 30.097C209.293 29.677 241.163 64.6874 227.573 77.9574C214.043 52.0174 177.213 52.1072 172.663 75.8172C143.033 73.6072 139.313 30.557 175.863 30.097Z" fill="#999999"/>
<path d="M213.414 83.4873C215.694 84.8773 213.854 89.2175 211.504 90.1675C209.154 91.1175 192.364 86.4172 192.664 83.8872C192.964 81.3572 209.784 81.3173 213.414 83.4873Z" fill="#999999"/>
<path d="M153.493 162.318C149.293 164.088 152.933 167.438 158.213 167.808C156.483 166.028 158.333 160.318 153.493 162.318Z" fill="#FAA181"/>
<path d="M203.284 174.027C204.774 178.357 201.624 178.367 197.184 175.487C199.624 175.127 201.924 170.067 203.284 174.027Z" fill="#FAA181"/>
<path d="M198.224 175.787C198.844 176.057 195.864 178.337 190.944 183.187C188.434 185.647 185.014 186.437 180.824 186.477C173.034 186.537 165.234 182.307 162.504 177.277C160.554 173.687 157.294 168.037 155.654 166.177C155.154 165.607 156.234 166.367 157.114 166.307C166.774 166.937 180.544 174.467 198.224 175.787Z" fill="#A02727"/>
<path d="M187.683 176.188C188.263 179.738 174.543 185.597 167.973 180.777C161.403 175.957 160.823 168.557 162.423 167.197C166.223 168.887 187.223 173.057 187.683 176.188Z" fill="#631111"/>
<path d="M192.483 174.558C191.273 177.178 187.283 179.268 178.273 176.788C167.473 173.788 164.753 171.428 161.613 167.788C169.983 168.938 182.793 172.708 192.483 174.558Z" fill="#E2D0D0"/>
<path d="M176.834 184.567C169.374 182.807 163.304 178.568 159.834 172.458C162.104 177.578 166.214 186.107 175.064 188.127C183.914 190.147 191.444 184.077 194.344 180.077C192.404 181.427 184.314 186.317 176.834 184.567Z" fill="#F27F7C"/>
<path d="M183.984 170.938C180.654 171.367 181.584 170.037 176.754 168.938C173.154 168.088 164.044 167.877 157.164 165.667C163.074 169.567 172.084 171.798 180.684 174.038C186.403 175.536 192.322 176.127 198.224 175.788C192.504 174.638 188.224 170.378 183.984 170.938Z" fill="#E8524A"/>
<path d="M154.735 163.507C152.115 164.977 157.845 167.908 161.845 168.208C160.775 167.598 158.085 166.608 156.605 164.938C155.405 163.578 155.495 163.097 154.735 163.507Z" fill="#C13A36"/>
<path d="M194.064 176.018C196.764 175.918 198.694 176.017 199.864 174.867C200.584 174.127 201.434 173.867 201.604 174.647C202.114 176.997 199.454 175.477 195.474 178.177" fill="#C13A36"/>
<path d="M190.074 176.177C188.894 179.937 170.194 176.717 167.344 170.657C172.934 173.897 187.074 176.487 190.074 176.177Z" fill="#F2E2E2"/>
<path d="M251.655 203.458C270.765 202.608 301.775 209.858 308.335 212.538C307.075 215.968 308.335 223.027 308.335 223.027C298.745 224.547 266.695 225.807 257.605 224.027C254.225 216.507 251.005 206.068 251.655 203.458Z" fill="#FFC599"/>
<path d="M312.035 212.518C311.095 217.868 313.885 219.077 318.765 216.047C323.645 213.017 329.875 204.607 330.375 198.217C335.375 196.357 339.505 192.807 340.845 188.597C342.185 184.387 340.645 183.367 335.085 188.597C329.525 193.827 314.895 196.198 312.035 212.518Z" fill="#FFC599"/>
<path d="M54.3631 252.777C41.9131 256.777 -1.92695 286.557 -17.877 295.967C-16.257 299.127 -11.8169 304.167 -11.8169 304.167C4.31306 299.167 61.423 277.797 66.2631 270.737C64.9331 260.937 57.8731 253.707 54.3631 252.777Z" fill="#FFC599"/>
<path d="M136.884 212.788C144.454 221.938 161.284 227.158 165.154 226.788C169.154 221.568 171.424 212.467 171.734 207.097L177.024 208.998C175.844 218.208 173.024 228.667 167.124 232.877C155.384 233.877 142.124 225.678 135.344 219.288C135.517 217.054 136.036 214.861 136.884 212.788Z" fill="#5151CE"/>
<path d="M119.864 211.317C108.954 212.217 93.554 221.577 84.974 228.257C76.394 234.937 70.084 239.478 70.084 239.478C76.644 245.278 86.084 260.927 86.674 273.547C95.824 268.547 115.254 260.547 118.194 244.667C121.134 228.787 119.864 211.317 119.864 211.317Z" fill="#C7F25F"/>
<path d="M67.2249 240.318C65.1249 239.128 57.3849 244.987 58.0149 247.137C58.6449 249.287 65.7049 253.068 69.3649 261.268C73.0249 269.468 75.6749 281.077 76.6849 282.967C77.6949 284.857 84.1349 281.457 84.7649 275.657C85.3949 269.857 78.5449 246.758 67.2249 240.318Z" fill="#C7F25F"/>
<path d="M123.904 210.377C107.524 213.377 78.1736 238.487 72.0936 241.837C69.1936 242.727 60.4336 244.907 57.9336 252.297L61.5136 256.297C63.7536 252.607 69.1436 247.297 75.9036 247.297C82.1636 244.457 105.394 222.458 127.664 215.958C126.293 214.179 125.037 212.316 123.904 210.377Z" fill="#3B3BB2"/>
<path d="M61.5135 257.938C61.2867 257.937 61.0626 257.889 60.8558 257.795C60.649 257.702 60.4642 257.567 60.3135 257.398L56.7335 253.398C56.5451 253.186 56.4162 252.928 56.36 252.65C56.3037 252.373 56.3222 252.086 56.4135 251.817C59.0335 244.067 67.4735 241.568 71.0735 240.498L71.4635 240.387C73.0135 239.487 76.1535 237.158 80.0935 234.228C91.7135 225.578 111.173 211.097 123.613 208.827C123.945 208.767 124.286 208.814 124.589 208.959C124.893 209.104 125.143 209.342 125.303 209.637C126.404 211.518 127.616 213.332 128.933 215.067C129.092 215.273 129.198 215.515 129.241 215.772C129.285 216.028 129.265 216.291 129.183 216.538C129.104 216.786 128.965 217.011 128.778 217.194C128.592 217.377 128.364 217.512 128.113 217.587C112.813 222.047 97.0435 233.977 86.6035 241.867C81.9635 245.377 78.6035 247.867 76.6035 248.867C76.3951 248.958 76.1706 249.005 75.9435 249.007C69.5935 249.007 64.6535 254.377 62.9435 257.217C62.8107 257.43 62.6307 257.609 62.4174 257.741C62.204 257.873 61.9632 257.954 61.7135 257.978L61.5135 257.938ZM59.7835 251.938L61.3635 253.708C64.0635 250.218 69.1035 245.888 75.5235 245.708C78.7069 243.746 81.7631 241.585 84.6735 239.237C94.8035 231.567 109.893 220.157 125.043 215.107C124.443 214.267 123.743 213.217 123.043 212.107C111.273 214.877 93.0435 228.468 81.9635 236.688C77.6335 239.908 74.5135 242.238 72.8135 243.168C72.7182 243.221 72.6177 243.264 72.5135 243.297L71.9335 243.467C69.0135 244.427 62.2235 246.437 59.7835 251.967V251.938Z" fill="#18187A"/>
<path d="M67.0931 238.657C67.0063 238.657 66.9208 238.636 66.8431 238.597C66.6052 238.496 66.3614 238.41 66.1131 238.338C66.035 238.319 65.9614 238.285 65.8968 238.237C65.8321 238.189 65.7777 238.13 65.7366 238.061C65.6956 237.992 65.6688 237.915 65.6579 237.836C65.647 237.756 65.6522 237.675 65.6731 237.597C65.6929 237.519 65.7281 237.445 65.7766 237.381C65.8252 237.316 65.8861 237.261 65.9559 237.22C66.0257 237.179 66.103 237.153 66.1832 237.142C66.2634 237.131 66.3449 237.136 66.4231 237.157C66.7366 237.243 67.044 237.35 67.3431 237.478C67.4169 237.51 67.4836 237.557 67.5392 237.615C67.5948 237.674 67.6383 237.743 67.6671 237.818C67.6959 237.893 67.7096 237.973 67.7071 238.054C67.7047 238.135 67.6864 238.214 67.6531 238.288C67.6061 238.397 67.5281 238.491 67.4286 238.556C67.329 238.622 67.2124 238.657 67.0931 238.657Z" fill="#18187A"/>
<path d="M88.5834 285.568C88.4293 285.57 88.2799 285.514 88.1663 285.41C88.0528 285.306 87.9837 285.161 87.9734 285.007C87.9734 284.447 87.8634 283.878 87.8034 283.298C87.7937 283.217 87.8 283.136 87.8219 283.058C87.8439 282.981 87.881 282.908 87.9313 282.845C87.9815 282.782 88.0438 282.729 88.1146 282.69C88.1853 282.651 88.2631 282.626 88.3434 282.617C88.5038 282.601 88.6643 282.648 88.7899 282.749C88.9154 282.85 88.9958 282.997 89.0134 283.157C89.0834 283.747 89.1434 284.337 89.1934 284.907C89.2046 285.069 89.1523 285.228 89.0477 285.351C88.943 285.475 88.7944 285.552 88.6334 285.568H88.5834ZM88.0934 281.568C87.9484 281.565 87.8089 281.511 87.6993 281.416C87.5896 281.321 87.5168 281.191 87.4934 281.048C87.4034 280.488 87.3134 279.918 87.2034 279.338C87.1891 279.258 87.1907 279.177 87.2081 279.098C87.2255 279.019 87.2585 278.944 87.305 278.878C87.3515 278.812 87.4107 278.756 87.4791 278.713C87.5475 278.67 87.6237 278.641 87.7034 278.628C87.7822 278.613 87.8631 278.614 87.9414 278.631C88.0197 278.648 88.094 278.68 88.1599 278.725C88.2258 278.771 88.2822 278.829 88.3257 278.896C88.3692 278.963 88.399 279.039 88.4134 279.117C88.5134 279.707 88.6134 280.288 88.7034 280.858C88.7266 281.018 88.6862 281.18 88.5909 281.311C88.4956 281.442 88.353 281.531 88.1934 281.558L88.0934 281.568ZM87.3634 277.568C87.2231 277.57 87.0861 277.524 86.9765 277.436C86.8669 277.348 86.7915 277.225 86.7634 277.088C86.6434 276.528 86.5134 275.968 86.3834 275.398C86.3642 275.32 86.3605 275.239 86.3728 275.16C86.3851 275.081 86.413 275.006 86.4549 274.938C86.4969 274.87 86.5519 274.811 86.6169 274.765C86.6819 274.718 86.7555 274.685 86.8334 274.668C86.9116 274.648 86.9928 274.644 87.0724 274.656C87.152 274.669 87.2284 274.697 87.2971 274.738C87.3659 274.78 87.4258 274.835 87.4732 274.901C87.5206 274.966 87.5547 275.039 87.5734 275.117C87.7034 275.697 87.8334 276.268 87.9534 276.838C87.986 276.995 87.9549 277.16 87.8668 277.295C87.7788 277.429 87.641 277.524 87.4834 277.558L87.3634 277.568ZM86.3634 273.617C86.228 273.617 86.0965 273.572 85.9896 273.488C85.8828 273.405 85.8067 273.289 85.7734 273.157C85.6234 272.607 85.4734 272.047 85.3134 271.487C85.2703 271.332 85.2902 271.167 85.3689 271.026C85.4476 270.886 85.5786 270.782 85.7334 270.737C85.8109 270.713 85.8925 270.705 85.9732 270.713C86.054 270.721 86.1323 270.746 86.2033 270.785C86.2744 270.824 86.3367 270.878 86.3866 270.942C86.4364 271.006 86.4728 271.079 86.4934 271.157C86.6534 271.717 86.8034 272.287 86.9534 272.847C86.9746 272.925 86.9803 273.006 86.9701 273.086C86.96 273.165 86.9342 273.242 86.8942 273.312C86.8543 273.381 86.8009 273.443 86.7373 273.492C86.6737 273.541 86.601 273.576 86.5234 273.597L86.3634 273.617ZM85.2434 269.708C85.1136 269.707 84.9873 269.665 84.883 269.588C84.7787 269.51 84.7017 269.402 84.6634 269.278C84.4934 268.718 84.3134 268.167 84.1334 267.617C84.107 267.541 84.0962 267.461 84.1016 267.381C84.1071 267.3 84.1286 267.221 84.165 267.15C84.2014 267.078 84.2519 267.014 84.3135 266.962C84.3751 266.91 84.4465 266.871 84.5234 266.847C84.5995 266.821 84.6802 266.81 84.7605 266.816C84.8409 266.821 84.9193 266.843 84.9912 266.879C85.063 266.915 85.1268 266.966 85.1788 267.028C85.2307 267.089 85.2697 267.16 85.2934 267.237L85.8334 268.907C85.8803 269.064 85.8635 269.232 85.7868 269.377C85.71 269.521 85.5794 269.629 85.4234 269.677C85.3798 269.679 85.3362 269.676 85.2934 269.668L85.2434 269.708ZM83.9634 265.838C83.8374 265.838 83.7145 265.798 83.6122 265.725C83.5099 265.651 83.4333 265.547 83.3934 265.427C83.1934 264.887 83.0034 264.338 82.8034 263.798C82.7747 263.722 82.7612 263.641 82.7637 263.561C82.7663 263.48 82.7848 263.401 82.8183 263.327C82.8518 263.254 82.8996 263.188 82.9588 263.133C83.018 263.078 83.0876 263.035 83.1634 263.007C83.2389 262.981 83.319 262.969 83.3991 262.973C83.4792 262.977 83.5577 262.997 83.6301 263.031C83.7026 263.065 83.7675 263.114 83.8213 263.173C83.875 263.233 83.9166 263.302 83.9434 263.378C84.1534 263.918 84.3534 264.468 84.5434 265.018C84.5952 265.17 84.5855 265.337 84.5165 265.483C84.4474 265.628 84.3244 265.741 84.1734 265.798C84.1204 265.806 84.0664 265.806 84.0134 265.798L83.9634 265.838ZM82.5434 262.028C82.4216 262.027 82.3025 261.991 82.2012 261.924C82.0998 261.856 82.0206 261.76 81.9734 261.648C81.7634 261.108 81.5434 260.568 81.3234 260.038C81.2923 259.964 81.2761 259.884 81.2759 259.803C81.2757 259.723 81.2913 259.643 81.322 259.569C81.3527 259.495 81.3977 259.427 81.4546 259.37C81.5115 259.313 81.5791 259.268 81.6534 259.237C81.7276 259.206 81.8072 259.19 81.8876 259.19C81.968 259.19 82.0477 259.205 82.1221 259.236C82.1964 259.267 82.264 259.312 82.3208 259.369C82.3777 259.426 82.4228 259.493 82.4534 259.568L83.1134 261.197C83.1424 261.272 83.1564 261.352 83.1545 261.432C83.1526 261.513 83.1349 261.592 83.1024 261.665C83.0699 261.739 83.0232 261.805 82.965 261.86C82.9069 261.915 82.8384 261.959 82.7634 261.987C82.7071 261.996 82.6498 261.996 82.5934 261.987L82.5434 262.028ZM80.9734 258.278C80.8544 258.276 80.7383 258.241 80.639 258.175C80.5397 258.109 80.4614 258.016 80.4134 257.907C80.1834 257.377 79.9434 256.847 79.7034 256.327C79.6698 256.254 79.6509 256.176 79.6478 256.096C79.6447 256.016 79.6575 255.936 79.6854 255.861C79.7132 255.785 79.7557 255.716 79.8102 255.657C79.8648 255.599 79.9305 255.551 80.0034 255.518C80.0763 255.484 80.1551 255.465 80.2352 255.462C80.3154 255.459 80.3954 255.472 80.4707 255.5C80.5459 255.528 80.6149 255.57 80.6737 255.624C80.7325 255.679 80.78 255.745 80.8134 255.818L81.5334 257.418C81.5667 257.491 81.5851 257.57 81.5875 257.651C81.5899 257.732 81.5763 257.812 81.5475 257.887C81.5186 257.963 81.4751 258.032 81.4195 258.09C81.3639 258.148 81.2972 258.195 81.2234 258.228C81.1575 258.24 81.0902 258.243 81.0234 258.237L80.9734 258.278ZM79.2534 254.588C79.1396 254.586 79.0283 254.553 78.9315 254.493C78.8346 254.433 78.7558 254.349 78.7034 254.248C78.4534 253.728 78.1934 253.247 77.9234 252.697C77.8872 252.626 77.8655 252.548 77.8595 252.468C77.8535 252.388 77.8633 252.308 77.8884 252.232C77.9135 252.155 77.9533 252.085 78.0057 252.024C78.058 251.963 78.1218 251.914 78.1934 251.878C78.2641 251.84 78.3417 251.816 78.4215 251.809C78.5014 251.801 78.5819 251.81 78.6583 251.834C78.7348 251.858 78.8056 251.898 78.8666 251.95C78.9276 252.002 78.9775 252.066 79.0134 252.137C79.2834 252.647 79.5434 253.138 79.8034 253.708C79.8392 253.78 79.8604 253.858 79.8657 253.939C79.871 254.019 79.8603 254.1 79.8343 254.176C79.8083 254.252 79.7674 254.323 79.714 254.383C79.6607 254.443 79.5959 254.492 79.5234 254.528C79.4518 254.547 79.3774 254.554 79.3034 254.548L79.2534 254.588ZM77.3734 250.978C77.2653 250.979 77.159 250.95 77.0658 250.896C76.9725 250.841 76.8957 250.762 76.8434 250.668C76.5534 250.148 76.2734 249.667 75.9834 249.157C75.943 249.087 75.9171 249.009 75.9073 248.928C75.8975 248.847 75.9039 248.765 75.9263 248.687C75.9487 248.609 75.9865 248.536 76.0375 248.472C76.0885 248.409 76.1518 248.356 76.2234 248.318C76.2929 248.276 76.3698 248.249 76.4498 248.238C76.5298 248.227 76.6113 248.232 76.6894 248.252C76.7676 248.273 76.8409 248.308 76.9051 248.357C76.9693 248.406 77.0231 248.468 77.0634 248.538C77.3534 249.028 77.6434 249.538 77.9334 250.058C78.0098 250.202 78.0274 250.369 77.9827 250.526C77.9379 250.683 77.8343 250.816 77.6934 250.898C77.6072 250.93 77.5152 250.943 77.4234 250.938L77.3734 250.978ZM75.3034 247.478C75.2005 247.477 75.0992 247.451 75.0086 247.402C74.9179 247.353 74.8406 247.283 74.7834 247.197C74.4734 246.697 74.1534 246.197 73.8434 245.757C73.7979 245.691 73.7659 245.617 73.7493 245.538C73.7327 245.46 73.7319 245.378 73.7467 245.299C73.7616 245.22 73.7919 245.145 73.836 245.078C73.88 245.011 73.9369 244.953 74.0034 244.907C74.0697 244.862 74.1443 244.83 74.2229 244.814C74.3015 244.797 74.3827 244.796 74.4617 244.811C74.5407 244.826 74.6159 244.856 74.6832 244.9C74.7504 244.944 74.8083 245.001 74.8534 245.068C75.1734 245.538 75.4934 246.068 75.8534 246.538C75.9373 246.677 75.9644 246.842 75.929 247.001C75.8936 247.159 75.7985 247.297 75.6634 247.387C75.5656 247.429 75.4593 247.446 75.3534 247.438L75.3034 247.478ZM72.9834 244.137C72.8907 244.135 72.7996 244.113 72.7166 244.071C72.6336 244.03 72.5608 243.971 72.5034 243.898C72.1434 243.428 71.7834 242.978 71.4334 242.558C71.3815 242.497 71.3422 242.426 71.3176 242.35C71.2931 242.274 71.2838 242.193 71.2903 242.113C71.2968 242.033 71.3189 241.955 71.3555 241.884C71.3921 241.813 71.4423 241.749 71.5034 241.697C71.5645 241.646 71.6352 241.606 71.7114 241.582C71.7877 241.557 71.8681 241.548 71.9479 241.554C72.0278 241.561 72.1056 241.583 72.1769 241.62C72.2482 241.656 72.3116 241.707 72.3634 241.768C72.7334 242.198 73.1034 242.668 73.4734 243.148C73.5711 243.277 73.6143 243.439 73.5937 243.6C73.5732 243.761 73.4905 243.907 73.3634 244.007C73.264 244.068 73.1497 244.099 73.0334 244.097L72.9834 244.137ZM70.3134 241.068C70.1572 241.065 70.0075 241.004 69.8934 240.898C69.4942 240.505 69.0736 240.134 68.6334 239.788C68.5079 239.686 68.4271 239.539 68.4084 239.378C68.3898 239.217 68.4346 239.055 68.5334 238.927C68.5831 238.864 68.6449 238.811 68.7151 238.772C68.7854 238.733 68.8627 238.708 68.9426 238.698C69.0225 238.689 69.1035 238.696 69.1809 238.718C69.2583 238.74 69.3305 238.777 69.3934 238.827C69.866 239.198 70.3167 239.595 70.7434 240.018C70.8576 240.134 70.9216 240.29 70.9216 240.452C70.9216 240.615 70.8576 240.771 70.7434 240.887C70.636 240.975 70.5022 241.025 70.3634 241.028L70.3134 241.068Z" fill="#18187A"/>
<path d="M88.7236 288.737C88.5618 288.737 88.4067 288.673 88.2923 288.558C88.1779 288.444 88.1136 288.289 88.1136 288.127C88.1136 287.847 88.1136 287.557 88.1136 287.267C88.1109 287.186 88.1244 287.106 88.1533 287.03C88.1821 286.954 88.2257 286.885 88.2816 286.826C88.3374 286.768 88.4044 286.721 88.4786 286.688C88.5527 286.656 88.6326 286.638 88.7136 286.637C88.7941 286.633 88.8745 286.645 88.9501 286.673C89.0258 286.701 89.095 286.744 89.1538 286.799C89.2126 286.854 89.2597 286.92 89.2923 286.993C89.3249 287.067 89.3424 287.147 89.3436 287.227C89.3436 287.527 89.3436 287.827 89.3436 288.117C89.3463 288.197 89.3328 288.278 89.3038 288.353C89.2749 288.428 89.2311 288.497 89.1751 288.554C89.1191 288.612 89.0521 288.658 88.9779 288.69C88.9038 288.721 88.8241 288.737 88.7436 288.737H88.7236Z" fill="#18187A"/>
<path d="M235.104 198.607C234.958 198.607 234.816 198.554 234.704 198.459C234.592 198.364 234.518 198.232 234.494 198.087C234.454 197.774 234.414 197.474 234.374 197.188C234.366 197.107 234.374 197.026 234.397 196.949C234.42 196.872 234.458 196.8 234.51 196.738C234.561 196.676 234.624 196.624 234.695 196.586C234.766 196.548 234.844 196.525 234.924 196.518C235.004 196.508 235.085 196.514 235.162 196.536C235.239 196.558 235.311 196.596 235.373 196.646C235.436 196.696 235.488 196.758 235.526 196.829C235.564 196.9 235.587 196.978 235.594 197.058C235.594 197.328 235.664 197.608 235.704 197.898C235.719 197.977 235.717 198.059 235.698 198.138C235.68 198.217 235.646 198.291 235.599 198.356C235.551 198.421 235.491 198.477 235.421 198.518C235.352 198.56 235.274 198.586 235.194 198.597L235.104 198.607Z" fill="#18187A"/>
<path d="M244.134 245.867H244.014C243.936 245.853 243.861 245.823 243.794 245.779C243.727 245.736 243.67 245.679 243.625 245.613C243.58 245.547 243.549 245.473 243.534 245.395C243.518 245.316 243.518 245.235 243.534 245.157C243.634 244.607 243.734 244.038 243.814 243.478C243.824 243.398 243.85 243.32 243.89 243.25C243.93 243.18 243.984 243.119 244.049 243.071C244.113 243.022 244.187 242.987 244.265 242.968C244.343 242.948 244.425 242.945 244.504 242.958C244.584 242.967 244.662 242.993 244.731 243.033C244.801 243.074 244.862 243.128 244.911 243.192C244.959 243.256 244.994 243.33 245.014 243.408C245.033 243.487 245.037 243.568 245.024 243.648C244.944 244.228 244.844 244.817 244.734 245.387C244.703 245.523 244.626 245.644 244.517 245.732C244.409 245.819 244.274 245.866 244.134 245.867ZM244.664 241.867C244.584 241.861 244.506 241.839 244.434 241.802C244.363 241.766 244.299 241.715 244.247 241.654C244.195 241.593 244.155 241.522 244.131 241.445C244.106 241.368 244.097 241.288 244.104 241.208C244.104 240.658 244.174 240.077 244.194 239.507C244.213 239.358 244.286 239.22 244.399 239.121C244.513 239.021 244.658 238.966 244.809 238.966C244.96 238.966 245.106 239.021 245.219 239.121C245.332 239.22 245.405 239.358 245.424 239.507C245.424 240.097 245.364 240.688 245.324 241.268C245.322 241.35 245.303 241.431 245.268 241.505C245.232 241.58 245.182 241.647 245.12 241.701C245.059 241.756 244.986 241.797 244.908 241.822C244.829 241.847 244.746 241.856 244.664 241.847V241.867ZM244.764 237.867C244.605 237.865 244.453 237.801 244.339 237.69C244.226 237.578 244.159 237.427 244.154 237.268C244.154 236.708 244.154 236.127 244.084 235.547C244.08 235.467 244.092 235.387 244.119 235.312C244.146 235.236 244.188 235.166 244.241 235.107C244.295 235.048 244.36 235 244.433 234.965C244.505 234.931 244.584 234.911 244.664 234.907C244.744 234.902 244.824 234.913 244.899 234.939C244.975 234.964 245.044 235.005 245.104 235.058C245.164 235.111 245.212 235.176 245.246 235.248C245.281 235.32 245.3 235.398 245.304 235.478C245.304 236.068 245.364 236.667 245.384 237.237C245.387 237.4 245.325 237.557 245.213 237.675C245.101 237.793 244.947 237.862 244.784 237.867H244.764ZM244.504 233.817C244.354 233.816 244.21 233.761 244.098 233.662C243.986 233.562 243.913 233.426 243.894 233.277C243.894 232.717 243.774 232.147 243.694 231.567C243.674 231.407 243.717 231.246 243.814 231.117C243.911 230.988 244.055 230.902 244.214 230.878C244.294 230.866 244.376 230.871 244.454 230.892C244.533 230.912 244.606 230.948 244.67 230.998C244.735 231.047 244.788 231.109 244.828 231.179C244.869 231.25 244.894 231.327 244.904 231.407C244.984 231.987 245.054 232.578 245.114 233.148C245.131 233.308 245.084 233.468 244.982 233.594C244.881 233.719 244.734 233.8 244.574 233.817H244.504ZM243.944 229.817C243.8 229.817 243.661 229.766 243.551 229.672C243.441 229.579 243.368 229.45 243.344 229.308C243.244 228.758 243.144 228.187 243.024 227.617C242.984 227.458 243.009 227.29 243.094 227.149C243.178 227.009 243.315 226.907 243.474 226.867C243.633 226.827 243.802 226.853 243.942 226.937C244.083 227.021 244.184 227.158 244.224 227.317C244.344 227.897 244.454 228.477 244.544 229.047C244.559 229.126 244.557 229.206 244.54 229.284C244.523 229.361 244.491 229.435 244.446 229.5C244.4 229.565 244.342 229.621 244.275 229.663C244.208 229.706 244.133 229.734 244.054 229.748L243.944 229.817ZM243.144 225.817C243.006 225.817 242.872 225.771 242.763 225.686C242.655 225.6 242.578 225.481 242.544 225.347C242.414 224.787 242.284 224.228 242.144 223.668C242.105 223.511 242.129 223.345 242.211 223.207C242.294 223.068 242.428 222.967 242.584 222.927C242.743 222.891 242.91 222.917 243.05 223.001C243.19 223.085 243.292 223.22 243.334 223.378C243.474 223.938 243.604 224.507 243.734 225.067C243.77 225.227 243.742 225.393 243.656 225.532C243.57 225.67 243.433 225.77 243.274 225.808L243.144 225.817ZM242.144 221.898C242.01 221.896 241.881 221.852 241.774 221.771C241.668 221.689 241.591 221.576 241.554 221.447C241.404 220.887 241.244 220.338 241.084 219.788C241.039 219.631 241.058 219.463 241.137 219.32C241.216 219.178 241.348 219.072 241.504 219.027C241.661 218.982 241.829 219.001 241.971 219.08C242.114 219.159 242.219 219.291 242.264 219.447C242.424 219.997 242.584 220.557 242.734 221.117C242.777 221.275 242.756 221.444 242.676 221.586C242.595 221.728 242.462 221.833 242.304 221.878L242.144 221.898ZM241.004 218.007C240.874 218.007 240.748 217.965 240.644 217.887C240.539 217.81 240.462 217.701 240.424 217.577C240.254 217.027 240.074 216.477 239.904 215.927C239.874 215.85 239.86 215.767 239.863 215.684C239.866 215.6 239.886 215.519 239.922 215.443C239.958 215.368 240.009 215.301 240.072 215.246C240.134 215.191 240.208 215.15 240.287 215.125C240.367 215.099 240.45 215.09 240.533 215.099C240.616 215.107 240.696 215.132 240.769 215.173C240.842 215.213 240.906 215.268 240.957 215.335C241.007 215.401 241.044 215.477 241.064 215.558C241.244 216.108 241.414 216.657 241.594 217.217C241.617 217.294 241.625 217.375 241.617 217.455C241.609 217.534 241.585 217.612 241.547 217.683C241.509 217.753 241.457 217.816 241.395 217.866C241.333 217.917 241.261 217.955 241.184 217.978C241.124 217.984 241.063 217.98 241.004 217.967V218.007ZM239.764 214.148C239.636 214.146 239.511 214.105 239.407 214.03C239.304 213.955 239.226 213.849 239.184 213.728C239.004 213.178 238.814 212.627 238.634 212.087C238.609 212.011 238.598 211.931 238.604 211.851C238.609 211.77 238.63 211.692 238.666 211.62C238.702 211.548 238.751 211.484 238.812 211.431C238.873 211.378 238.943 211.338 239.019 211.313C239.095 211.287 239.176 211.276 239.256 211.282C239.336 211.287 239.414 211.309 239.486 211.344C239.558 211.38 239.623 211.43 239.675 211.49C239.728 211.551 239.769 211.621 239.794 211.697C239.984 212.237 240.164 212.787 240.344 213.347C240.371 213.423 240.382 213.503 240.377 213.583C240.372 213.662 240.352 213.741 240.316 213.813C240.281 213.884 240.232 213.948 240.171 214.001C240.111 214.053 240.04 214.092 239.964 214.117C239.897 214.124 239.83 214.121 239.764 214.107V214.148ZM238.474 210.317C238.347 210.318 238.222 210.279 238.118 210.206C238.014 210.132 237.936 210.028 237.894 209.907C237.704 209.347 237.524 208.797 237.334 208.257C237.309 208.181 237.299 208.101 237.306 208.021C237.312 207.941 237.333 207.863 237.37 207.792C237.406 207.72 237.456 207.656 237.517 207.604C237.577 207.552 237.648 207.512 237.724 207.487C237.8 207.461 237.88 207.449 237.96 207.454C238.039 207.459 238.117 207.48 238.189 207.515C238.261 207.551 238.325 207.6 238.377 207.661C238.43 207.721 238.469 207.791 238.494 207.867C238.684 208.407 238.864 208.958 239.054 209.518C239.081 209.593 239.092 209.673 239.087 209.753C239.082 209.833 239.062 209.911 239.026 209.982C238.991 210.054 238.942 210.118 238.881 210.17C238.821 210.223 238.75 210.263 238.674 210.288L238.474 210.317ZM237.224 206.427C237.096 206.426 236.971 206.385 236.867 206.31C236.764 206.234 236.686 206.129 236.644 206.007L236.114 204.347C236.09 204.27 236.081 204.19 236.088 204.109C236.095 204.029 236.118 203.951 236.155 203.879C236.192 203.808 236.243 203.745 236.304 203.693C236.366 203.641 236.437 203.602 236.514 203.577C236.591 203.553 236.672 203.544 236.752 203.551C236.832 203.558 236.911 203.581 236.982 203.618C237.054 203.655 237.117 203.706 237.169 203.768C237.221 203.829 237.26 203.901 237.284 203.978C237.454 204.518 237.624 205.068 237.814 205.628C237.861 205.783 237.846 205.95 237.771 206.094C237.697 206.238 237.568 206.347 237.414 206.398C237.353 206.418 237.289 206.428 237.224 206.427ZM236.044 202.558C235.91 202.558 235.78 202.514 235.673 202.433C235.566 202.351 235.489 202.237 235.454 202.107C235.284 201.507 235.134 200.937 235.004 200.407C234.968 200.25 234.994 200.084 235.079 199.946C235.163 199.808 235.297 199.708 235.454 199.668C235.532 199.648 235.614 199.644 235.693 199.656C235.773 199.668 235.849 199.697 235.918 199.738C235.987 199.78 236.047 199.835 236.094 199.9C236.141 199.966 236.175 200.039 236.194 200.117C236.324 200.637 236.464 201.197 236.634 201.777C236.655 201.855 236.661 201.936 236.651 202.016C236.641 202.095 236.615 202.172 236.575 202.242C236.535 202.311 236.482 202.372 236.418 202.421C236.354 202.47 236.282 202.507 236.204 202.527C236.141 202.552 236.072 202.563 236.004 202.558H236.044Z" fill="#18187A"/>
<path d="M243.373 248.958H243.203C243.126 248.935 243.055 248.897 242.993 248.846C242.93 248.796 242.879 248.733 242.841 248.663C242.803 248.592 242.779 248.514 242.771 248.435C242.763 248.355 242.77 248.274 242.793 248.197C242.873 247.917 242.953 247.637 243.023 247.357C243.044 247.28 243.08 247.207 243.129 247.144C243.178 247.08 243.239 247.027 243.309 246.987C243.379 246.947 243.456 246.921 243.535 246.911C243.615 246.901 243.696 246.906 243.773 246.927C243.851 246.948 243.924 246.984 243.987 247.033C244.051 247.082 244.104 247.143 244.144 247.213C244.184 247.283 244.21 247.36 244.22 247.439C244.23 247.519 244.225 247.6 244.203 247.677C244.13 247.964 244.05 248.254 243.963 248.547C243.921 248.669 243.841 248.775 243.735 248.849C243.629 248.922 243.502 248.96 243.373 248.958Z" fill="#18187A"/>
<path d="M119.815 213.027C111.815 214.197 89.2647 229.377 75.5547 241.317C76.6347 242.887 78.0047 244.457 78.8847 243.967C85.6447 237.207 109.435 221.737 121.285 216.547C121.575 214.887 119.815 213.027 119.815 213.027Z" fill="#5151CE"/>
<path d="M70.084 243.577C66.774 243.687 62.244 246.998 61.084 250.038C61.6253 250.995 62.4959 251.724 63.534 252.088C65.8969 249.322 69.0939 247.399 72.644 246.608C72.624 244.848 71.224 243.427 70.084 243.577Z" fill="#5151CE"/>
<path d="M236.923 197.387C236.493 197.627 236.803 200.388 237.723 200.208C241.723 199.398 245.723 200.538 246.123 200.208C246.523 199.878 246.263 197.927 244.923 197.387C243.583 196.847 238.593 196.457 236.923 197.387Z" fill="#5151CE"/>
</g>
<defs>
<clipPath id="clip0_8_14318">
<rect width="246.68" height="246.68" fill="white" transform="translate(33 82)"/>
</clipPath>
</defs>
</svg>
