<svg width="313" height="329" viewBox="0 0 313 329" fill="none" xmlns="http://www.w3.org/2000/svg">
<g clip-path="url(#clip0_8_14320)">
<path d="M243.56 292.551C291.727 244.383 291.727 166.289 243.56 118.122C195.393 69.9544 117.298 69.9541 69.1305 118.121C20.9633 166.289 20.9635 244.383 69.1308 292.551C117.298 340.718 195.392 340.718 243.56 292.551Z" fill="#FBAE17"/>
<path d="M156.341 316.38C217.666 316.38 267.381 266.665 267.381 205.34C267.381 144.014 217.666 94.2998 156.341 94.2998C95.0151 94.2998 45.3008 144.014 45.3008 205.34C45.3008 266.665 95.0151 316.38 156.341 316.38Z" fill="#F7931E"/>
</g>
<mask id="mask0_8_14320" style="mask-type:alpha" maskUnits="userSpaceOnUse" x="0" y="-19" width="313" height="336">
<path fill-rule="evenodd" clip-rule="evenodd" d="M0 -19H313V272H244.895C224.624 298.808 192.47 316.13 156.27 316.13C120.071 316.13 87.9171 298.808 67.646 272H0V-19Z" fill="#22B573"/>
</mask>
<g mask="url(#mask0_8_14320)">
<path d="M199.509 178.675C225.481 187.55 257.482 215.894 264.18 223.484C270.878 231.074 262.067 240.795 255.538 238.646C249.009 236.496 207.189 211.666 190.68 204.959" fill="#8C6239"/>
<path d="M257.813 222.208C262.337 219.164 267.643 217.492 273.095 217.394C278.546 217.296 283.909 218.776 288.539 221.655C293.89 224.964 297.717 230.092 295.969 232.955C294.452 235.417 288.022 228.318 283 227.203C288.033 229.974 292.168 234.127 294.916 239.172C296.521 242.365 294.203 246.521 290.697 242.427C287.528 238.81 283.775 235.75 279.593 233.375C284.16 236.389 287.62 240.26 289.181 244.077C290.555 247.574 287.112 249.429 284.196 245.995C282.019 243.435 277.872 238.218 274.572 237.522C276.206 238.763 277.541 240.353 278.479 242.178C279.418 244.002 279.936 246.013 279.995 248.064C280.057 251.337 277.489 252.006 276.079 249.437C274.67 246.869 271.62 242.828 269.595 242.195C263.753 244.496 255.325 242.516 253.051 236.987" fill="#8C6239"/>
<path d="M278.28 226.022C278.878 230.481 274.847 237.099 268.987 239.802C267.774 235.646 262.904 231.659 262.244 231.552C268.746 232.542 273.241 229.679 278.28 226.022Z" fill="#774F2F"/>
<path d="M283.652 220.297C288.539 221.644 292.357 224.756 294.087 227.566C295.817 230.375 295.095 232.096 292 229.002C288.905 225.907 281.484 221.18 281.484 221.18" fill="#774F2F"/>
<path d="M257.814 222.205C264.254 213.991 271.657 214.339 279.024 214.178C284.678 214.071 288.46 212.814 288.665 214.883C288.995 218.227 285.204 221.84 278.025 221.18C277.623 225.059 274.118 228.859 266.644 230.473" fill="#8C6239"/>
<path d="M192.417 406.835C201.987 387.562 204.297 316.005 197.162 306.944C190.027 297.882 157.58 310.788 152.086 323.89C146.592 336.992 157.767 380.596 166.775 404.41" fill="#F9BA7A"/>
<path d="M192.434 408.182C192.226 408.182 192.021 408.133 191.836 408.039C191.522 407.88 191.282 407.604 191.169 407.271C191.056 406.937 191.077 406.573 191.23 406.255C195.404 397.845 198.739 376.947 199.72 353.027C200.657 330.275 199.176 311.67 196.153 307.781C194.431 305.596 190.516 304.785 185.129 305.516C170.912 307.434 156.383 317.253 153.378 324.406C151.05 329.954 151.755 342.539 155.367 359.85C158.539 374.83 162.789 389.561 168.085 403.927C168.148 404.093 168.177 404.269 168.172 404.447C168.166 404.624 168.126 404.798 168.053 404.96C167.98 405.121 167.876 405.266 167.747 405.388C167.618 405.509 167.466 405.604 167.3 405.666C167.134 405.729 166.958 405.759 166.781 405.753C166.604 405.748 166.43 405.707 166.268 405.634C166.107 405.561 165.961 405.458 165.84 405.328C165.718 405.199 165.624 405.047 165.561 404.882C160.215 390.384 155.923 375.519 152.718 360.403C150.087 347.783 147.634 331.113 150.934 323.363C152.825 318.859 157.721 314.15 164.723 310.092C170.908 306.438 177.724 303.978 184.817 302.84C191.283 301.948 195.948 303.099 198.32 306.114C200.202 308.504 201.513 314.381 202.218 323.577C202.868 333.416 202.963 343.284 202.503 353.134C201.7 372.452 198.98 396.837 193.727 407.459C193.605 407.692 193.417 407.885 193.188 408.013C192.958 408.141 192.696 408.2 192.434 408.182Z" fill="#C15621"/>
<path d="M142.188 407.844C154.594 390.265 166.519 320.858 160.855 310.789C155.192 300.72 113.585 301.067 109.652 314.704C102.624 346.937 115.315 392.067 117.286 401.672" fill="#F9BA7A"/>
<path d="M142.206 409.192C141.929 409.192 141.658 409.108 141.43 408.951C141.284 408.85 141.16 408.72 141.064 408.57C140.969 408.421 140.904 408.254 140.873 408.079C140.842 407.904 140.847 407.725 140.886 407.551C140.924 407.378 140.997 407.214 141.1 407.069C147.628 397.82 153.586 374.756 156.984 356.232C161.033 334.211 162.148 315.784 159.66 311.423C156.984 306.696 143.517 303.993 130.227 305.536C119.525 306.767 112.39 310.308 110.954 315.017C104.88 342.951 113.674 380.277 117.429 396.224C117.946 398.427 118.321 400.166 118.606 401.37C118.642 401.546 118.643 401.727 118.608 401.903C118.574 402.079 118.506 402.246 118.407 402.396C118.308 402.545 118.18 402.674 118.032 402.774C117.883 402.874 117.716 402.944 117.54 402.98C117.365 403.016 117.184 403.016 117.008 402.982C116.832 402.948 116.664 402.88 116.515 402.781C116.365 402.682 116.237 402.554 116.136 402.405C116.036 402.257 115.966 402.09 115.931 401.914C115.69 400.746 115.288 399.024 114.771 396.839C110.972 380.714 102.079 342.933 108.296 314.393V314.304C109.999 308.417 117.866 304.243 129.871 302.852C142.803 301.362 158.349 303.663 161.979 310.103C165.404 316.194 162.871 339.027 159.571 356.722C156.119 375.496 150.019 398.989 143.24 408.594C143.125 408.766 142.972 408.91 142.792 409.013C142.613 409.117 142.412 409.178 142.206 409.192Z" fill="#C15621"/>
<path d="M196.411 306.509C195.983 318.175 165.632 335.049 159.469 335.281C143.504 324.097 121.591 312.092 108.417 316.284C104.324 308.917 107.882 281.741 116.284 273.589C131.981 288.582 187.118 281.866 192.576 278.468C199.39 285.229 196.411 306.509 196.411 306.509Z" fill="#F9BA7A"/>
<path d="M159.464 336.636C159.186 336.634 158.915 336.547 158.688 336.386C137.033 321.224 118.856 314.357 108.822 317.567C108.526 317.663 108.206 317.652 107.917 317.539C107.628 317.425 107.387 317.214 107.235 316.943C105.13 313.143 104.773 304.537 106.343 295.011C108.011 284.853 111.373 276.487 115.36 272.625C115.611 272.382 115.947 272.246 116.296 272.246C116.646 272.246 116.982 272.382 117.233 272.625C123.574 278.681 138.148 281.865 158.26 281.589C175.25 281.348 189.681 278.699 191.866 277.334C192.125 277.175 192.43 277.107 192.732 277.141C193.034 277.175 193.317 277.309 193.534 277.522C200.616 284.541 197.993 305.054 197.761 306.633C197.423 313.991 187.059 322.107 180.816 326.299C172.628 331.847 163.067 336.485 159.499 336.645L159.464 336.636ZM114.406 314.071C128.943 314.071 148.387 325.915 159.829 333.889C162.942 333.425 171.353 329.429 179.326 324.078C189.137 317.416 194.89 311.003 195.059 306.481C195.055 306.437 195.055 306.392 195.059 306.347C195.826 300.853 196.727 285.923 192.232 280.152C186.88 282.338 170.354 284.13 158.278 284.3C144.097 284.496 125.563 283.105 116.359 275.506C113.148 279.323 110.428 286.637 108.983 295.475C107.663 303.502 107.752 310.994 109.152 314.695C110.872 314.278 112.636 314.069 114.406 314.071Z" fill="#C15621"/>
<path d="M139.311 154.663C140.899 157.222 141.095 165.044 138.883 168.246C133.104 171.082 130.169 169.896 128.929 171.082C124.274 175.541 141.309 182.784 155.49 181.437C169.876 180.081 179.41 174.302 174.612 170.217C173.417 169.191 170.616 170.458 166.3 167.97C163.758 165.017 164.721 155.848 166.425 154.751" fill="#8C6239"/>
<path d="M176.305 198.222C180.889 206.472 188.711 213.874 201.144 209.87C207.735 204.144 211.766 191.435 212.096 184.335C211.882 177.726 199.146 167.389 186.41 173.953" fill="#EF840F"/>
<path d="M204.633 196.96C188.499 200.635 184.94 181.896 185.297 179.185C186.028 173.619 205.329 168.286 210.698 186.017C210.564 189.647 207.416 189.201 204.963 186.507C203.688 185.107 200.308 184.188 199.826 185.268C199.344 186.347 209.093 190.672 204.633 196.96Z" fill="#FFB41D"/>
<path d="M195.684 266.805C196.576 274.412 163.272 296.719 127.311 285.534C115.717 281.922 113.567 271.853 113.639 271.264C114.861 260.222 111.98 241.207 106.967 220.596C102.508 202.116 101.616 185.357 110.178 177.651C115.387 173.995 123.557 172.389 132.93 170.721C138.505 177.384 147.816 184.385 155.228 184.438C162.131 184.483 171.835 177.384 173.172 169.874C179.853 169.232 185.81 170.123 189.146 172.46C198.279 193.99 193.195 245.587 195.684 266.805Z" fill="#F2254B"/>
<path d="M120.934 215.837C124.377 230.571 127.971 257.078 127.177 262.937C126.383 268.797 131.057 274.701 152.623 275.852C176.998 277.154 194.301 266.71 193.293 260.824C191.875 252.565 193.293 240.801 193.436 234.727C193.15 217.549 194.14 193.816 188.78 176.834C188.78 176.834 184.098 174.159 181.752 174.159C183.402 189.918 169.185 195.359 163.968 196.732C158.75 198.106 125.322 201.834 124.938 174.364C121.922 175.034 118.945 175.867 116.02 176.861C122.12 188.366 125.037 200.514 120.934 215.837Z" fill="#FF5069"/>
<path d="M136.704 168.132C132.887 167.008 121.828 169.648 120.276 171.566C118.153 174.188 124.12 182.358 126.822 182.706C129.525 183.054 132.664 183.089 131.692 185.961C130.72 188.833 141.681 194.256 144.286 191.045C146.89 187.834 148.576 189.654 150.35 192.178C152.125 194.702 163.925 194.701 165.789 189.421C171.452 191.437 178.365 185.854 177.981 182.509C177.651 179.629 177.535 179.076 180.853 178.942C184.171 178.808 185.223 172.217 184.091 169.961C182.958 167.704 173.147 166.58 169.535 168.177C169.535 181.609 142.02 183.401 136.704 168.132Z" fill="#EF840F"/>
<path d="M182.332 171.085C181.19 169.025 171.629 168.499 171.245 170.381C170.862 172.263 168.65 176.678 164.717 178.479C164.093 179.978 166.84 186.89 169.283 187.523C171.727 188.156 175.571 184.535 175.803 182.644C176.035 180.754 170.933 178.087 171.406 176.277C171.879 174.466 178.871 176.125 180.842 175.385C181.244 175.226 181.607 174.983 181.906 174.671C182.206 174.359 182.434 173.986 182.575 173.577C182.717 173.169 182.768 172.735 182.726 172.305C182.684 171.875 182.55 171.459 182.332 171.085Z" fill="#FFB41D"/>
<path d="M162.54 179.849C164.761 181.187 165.421 187.1 164.609 189.482C163.798 191.863 155.583 193.334 153.907 191.453C152.23 189.571 152.649 183.06 153.907 181.553C155.164 180.045 161.443 179.171 162.54 179.849Z" fill="#FFB41D"/>
<path d="M145.914 180.047C145.754 181.554 143.479 189.724 140.652 190.036C137.825 190.348 133.963 188.582 133.57 185.969C133.178 183.356 137.816 178.245 140.331 177.532C142.846 176.818 146.075 178.593 145.914 180.047Z" fill="#FFB41D"/>
<path d="M135.596 170.217C134.49 168.79 124.001 169.825 122.859 172.813C121.718 175.8 125.062 180.537 127.497 180.608C129.932 180.679 135.087 175.774 137.255 176.844C139.422 177.914 134.73 181.856 135.364 183.194C135.997 184.532 144.283 177.95 141.901 177.388C139.52 176.826 137.442 172.572 135.596 170.217Z" fill="#FFB41D"/>
<path d="M164.924 225.981C163.557 226.005 162.234 225.5 161.231 224.571C160.673 223.921 160.297 223.134 160.141 222.292C159.984 221.449 160.053 220.581 160.339 219.773C160.532 219.035 160.929 218.365 161.484 217.842C162.039 217.318 162.73 216.961 163.479 216.812C164.392 216.576 165.352 216.595 166.256 216.865C167.16 217.136 167.973 217.648 168.607 218.346C169.055 218.961 169.357 219.671 169.49 220.42C169.623 221.17 169.583 221.94 169.374 222.672C169.147 223.663 168.574 224.54 167.759 225.146C166.943 225.753 165.938 226.049 164.924 225.981Z" fill="#FFB41D"/>
<path d="M159.231 235.702C157.865 235.727 156.542 235.222 155.539 234.293C154.972 233.648 154.586 232.864 154.42 232.021C154.254 231.178 154.314 230.307 154.593 229.495C154.786 228.755 155.183 228.084 155.741 227.56C156.298 227.037 156.991 226.681 157.742 226.534C158.654 226.297 159.613 226.315 160.516 226.585C161.418 226.856 162.229 227.369 162.861 228.068C163.31 228.681 163.614 229.388 163.748 230.136C163.883 230.884 163.845 231.653 163.637 232.384C163.412 233.368 162.846 234.24 162.04 234.848C161.233 235.455 160.239 235.757 159.231 235.702Z" fill="#FFB41D"/>
<path d="M159.461 244.18C157.017 244.18 148.33 238.597 147.991 236.804C147.705 235.243 149.561 227.564 155.697 218.699C161.378 210.485 168.299 205.392 171.456 205.392C171.714 205.39 171.971 205.432 172.215 205.517C174.141 206.195 175.684 212.947 173.606 221.571C171.564 230.026 162.208 243.467 159.889 244.127C159.748 244.16 159.605 244.178 159.461 244.18ZM171.456 206.311C168.968 206.311 162.19 210.904 156.446 219.225C150.551 227.743 148.633 235.226 148.892 236.635C149.115 237.705 157.044 243.27 159.461 243.27C159.519 243.285 159.58 243.285 159.639 243.27C161.378 242.789 170.698 229.75 172.714 221.393C174.73 213.036 173.151 206.846 171.911 206.4C171.766 206.344 171.612 206.314 171.456 206.311Z" fill="#FFB41D"/>
<path d="M163.771 210.209C170.862 204.411 174.59 202.895 174.082 215.426L173.868 217.62C171.076 218.031 164.949 215.382 162.104 211.761L163.771 210.209Z" fill="#FFB41D"/>
<path d="M137.666 237.304C137.545 237.313 137.423 237.297 137.308 237.257C137.193 237.218 137.087 237.155 136.997 237.072C136.852 236.888 136.762 236.665 136.739 236.432C136.715 236.198 136.758 235.962 136.863 235.752C140.351 227.467 148.752 220.519 154.826 220.875C154.887 220.878 154.946 220.892 155.001 220.918C155.056 220.943 155.105 220.98 155.146 221.024C155.186 221.069 155.218 221.122 155.238 221.179C155.258 221.236 155.267 221.297 155.263 221.357C155.26 221.417 155.244 221.475 155.218 221.529C155.192 221.583 155.156 221.631 155.111 221.671C155.066 221.711 155.014 221.742 154.958 221.761C154.901 221.781 154.841 221.789 154.781 221.785C152.266 223.391 150.554 230.133 148.538 234.387C148.664 234.389 148.785 234.438 148.877 234.523C148.969 234.609 149.027 234.726 149.038 234.851C149.038 234.972 148.99 235.088 148.904 235.173C148.819 235.258 148.703 235.306 148.583 235.306C148.583 235.306 148.583 235.306 148.538 235.306C145.62 235.368 142.724 235.83 139.931 236.68C139.213 237.003 138.449 237.213 137.666 237.304Z" fill="#FFB41D"/>
<path d="M165.239 253.681C165.171 253.693 165.101 253.693 165.034 253.681C164.418 253.511 164.142 252.655 163.847 250.925C163.146 248.078 162.056 245.341 160.61 242.791C160.547 242.687 160.527 242.561 160.556 242.443C160.584 242.324 160.658 242.222 160.761 242.157C160.984 242.032 161.145 242.38 161.395 242.318C162.608 242.006 168.396 233.31 169.074 230.58C169.136 230.34 168.993 230.09 169.199 229.947C169.3 229.879 169.425 229.854 169.545 229.877C169.666 229.901 169.772 229.971 169.841 230.072C173.239 235.138 171.571 245.894 166.273 253.083C166.149 253.246 165.994 253.384 165.816 253.486C165.638 253.589 165.442 253.655 165.239 253.681Z" fill="#FFB41D"/>
<path d="M156.084 252.46C154.675 252.46 147.566 248.001 145.381 246.511C142.42 244.478 142.376 244.04 142.349 243.773C142.215 242.569 146.282 239.171 148.717 237.253C148.814 237.194 148.929 237.173 149.04 237.193C149.152 237.213 149.252 237.273 149.322 237.362C149.392 237.451 149.428 237.562 149.421 237.675C149.415 237.788 149.368 237.895 149.288 237.975C146.443 240.205 143.339 243.024 143.259 243.702C143.74 244.701 154.184 251.202 155.924 251.532C156.405 250.863 157.208 246.868 157.707 243.398C157.714 243.339 157.732 243.281 157.762 243.229C157.791 243.177 157.831 243.131 157.878 243.094C157.926 243.058 157.98 243.031 158.038 243.015C158.096 243 158.156 242.997 158.216 243.006C158.276 243.014 158.333 243.033 158.386 243.063C158.438 243.094 158.484 243.134 158.52 243.182C158.557 243.23 158.584 243.285 158.599 243.344C158.614 243.402 158.617 243.463 158.608 243.523C157.814 249.222 157.003 252.228 156.191 252.442L156.084 252.46Z" fill="#FFB41D"/>
<path d="M144.849 246.001C144.742 245.999 144.638 245.961 144.555 245.894C144.509 245.855 144.471 245.808 144.443 245.754C144.416 245.701 144.4 245.642 144.396 245.582C144.391 245.522 144.399 245.462 144.419 245.405C144.439 245.348 144.47 245.296 144.51 245.252L150.174 238.607C150.254 238.518 150.366 238.464 150.486 238.455C150.606 238.447 150.724 238.485 150.816 238.562C150.862 238.601 150.899 238.648 150.927 238.701C150.954 238.754 150.971 238.813 150.976 238.872C150.981 238.932 150.974 238.992 150.956 239.049C150.938 239.106 150.908 239.159 150.869 239.205L145.197 245.84C145.155 245.891 145.101 245.932 145.041 245.96C144.981 245.987 144.915 246.001 144.849 246.001Z" fill="#FFB41D"/>
<path d="M147.606 247.946C147.517 247.945 147.431 247.92 147.356 247.874C147.254 247.805 147.184 247.699 147.161 247.579C147.137 247.459 147.163 247.334 147.231 247.232L152.02 240.097C152.053 240.046 152.095 240.002 152.145 239.968C152.195 239.934 152.251 239.911 152.31 239.899C152.37 239.887 152.43 239.888 152.489 239.9C152.548 239.913 152.604 239.937 152.654 239.972C152.704 240.005 152.746 240.048 152.78 240.098C152.813 240.148 152.836 240.204 152.848 240.263C152.859 240.322 152.859 240.382 152.847 240.441C152.835 240.5 152.812 240.556 152.779 240.605L147.989 247.741C147.947 247.804 147.89 247.856 147.823 247.892C147.756 247.928 147.681 247.946 147.606 247.946Z" fill="#FFB41D"/>
<path d="M150.209 249.631C150.131 249.631 150.055 249.613 149.986 249.577C149.933 249.548 149.886 249.509 149.848 249.462C149.81 249.414 149.782 249.36 149.766 249.302C149.749 249.244 149.744 249.183 149.751 249.123C149.758 249.063 149.778 249.005 149.807 248.953L153.901 241.443C153.96 241.336 154.058 241.256 154.175 241.221C154.292 241.186 154.418 241.198 154.525 241.256C154.579 241.285 154.625 241.324 154.663 241.371C154.701 241.418 154.729 241.472 154.746 241.53C154.762 241.589 154.767 241.649 154.76 241.709C154.753 241.769 154.734 241.828 154.704 241.88L150.601 249.39C150.564 249.462 150.508 249.522 150.438 249.565C150.369 249.607 150.29 249.63 150.209 249.631Z" fill="#FFB41D"/>
<path d="M153.361 251.249C153.305 251.262 153.247 251.262 153.191 251.249C153.135 251.227 153.084 251.193 153.042 251.151C152.999 251.108 152.965 251.058 152.941 251.002C152.918 250.947 152.906 250.887 152.906 250.827C152.906 250.766 152.918 250.707 152.941 250.651L156.25 242.669C156.297 242.551 156.388 242.456 156.504 242.405C156.62 242.354 156.752 242.351 156.87 242.397C156.989 242.443 157.084 242.535 157.135 242.651C157.186 242.767 157.188 242.899 157.142 243.017L153.833 250.999C153.789 251.084 153.72 251.153 153.636 251.197C153.551 251.242 153.455 251.26 153.361 251.249Z" fill="#FFB41D"/>
<path d="M147.458 208.858C147.074 208.911 146.949 210.303 146.825 210.757C146.7 211.212 144.755 211.079 144.818 211.328C144.88 211.578 145.942 212.452 146.04 212.63C146.138 212.809 145.844 214.628 146.165 214.655C146.486 214.682 147.538 213.621 147.877 213.496C148.216 213.371 149.242 214.477 149.59 214.156C149.937 213.835 148.965 212.782 149.09 212.425C149.215 212.069 150.785 211.212 150.562 210.757C150.339 210.303 148.778 211.025 148.492 210.757C148.207 210.49 147.832 208.813 147.458 208.858Z" fill="#FFB41D"/>
<path d="M177.781 228.739C178.334 228.48 179.689 230.237 180.242 230.728C180.795 231.218 183.302 229.381 183.426 229.773C183.551 230.166 182.891 232.253 182.909 232.556C182.927 232.86 184.898 235.071 184.488 235.392C184.077 235.713 181.759 235.187 181.206 235.303C180.653 235.419 180.198 237.782 179.466 237.658C178.735 237.533 179.119 235.268 178.655 234.92C178.191 234.572 175.337 234.741 175.239 233.939C175.141 233.136 177.915 232.734 178.013 232.155C178.111 231.575 177.228 228.988 177.781 228.739Z" fill="#FFB41D"/>
<path d="M148.189 255.626C147.583 256.028 148.502 260.086 148.189 260.594C147.877 261.103 144.149 263.395 144.31 263.948C144.47 264.501 149.09 264.242 149.108 264.75C149.126 265.259 149.438 269.692 150.134 269.924C150.829 270.155 152.471 266.195 152.622 265.803C152.774 265.41 157.206 266.695 157.67 265.651C158.134 264.608 154.486 262.244 154.415 261.531C154.343 260.817 156.662 256.786 156.118 256.322C155.574 255.858 152.551 258.338 151.926 258.266C151.302 258.195 149.126 255.002 148.189 255.626Z" fill="#FFB41D"/>
<path d="M140.298 153.592C143.42 159.443 141.369 168.754 139.059 171.082C155.719 169.458 162.783 154.894 162.783 154.894" fill="#774F2F"/>
<path d="M113.643 271.25C97.2947 293.975 82.2485 348.452 82.2931 355.213C83.5417 368.288 116.693 374.959 120.359 371.008C124.025 367.057 125.452 368.065 128.297 372.712C135.53 384.52 184.067 381.934 190.096 372.489C193.663 366.852 194.172 366.299 199.505 370.268C204.357 373.88 221.009 369.055 222.347 360.323C221.33 335.885 205.793 286.296 195.59 268.093C177.253 283.852 138.919 280.811 123.828 276.191C120.181 275.125 116.738 273.454 113.643 271.25Z" fill="#F2254B"/>
<path d="M151.088 288.385C148.118 292.47 144.033 368.432 147.128 374.265C150.223 380.098 184.222 377.78 186.273 371.135C188.324 364.49 177.461 290.437 173.912 287.208C171.682 285.175 153.032 285.71 151.088 288.385Z" fill="#FF5069"/>
<path d="M188.4 283.231C188.302 280.975 192.583 278.468 195.776 279.976C201.957 282.892 219.911 342.238 220.642 360.308C220.847 365.41 210.448 369.414 207.451 367.372C204.454 365.329 188.534 286.602 188.4 283.231Z" fill="#FF5069"/>
<path d="M115.44 366.989C112.764 371.181 93.6865 367.631 93.7757 359.925C93.963 343.024 113.843 284.57 121.933 282.599C122.602 282.438 127.882 283.928 127.899 285.908C128.015 298.046 117.759 363.297 115.44 366.989Z" fill="#FF5069"/>
<path d="M188.849 24.5864C206.321 27.0748 212.698 50.5941 207.079 51.2451C203.512 51.6554 201.657 44.3508 196.207 40.7119C202.45 47.3921 202.798 55.7669 198.366 56.4358C193.933 57.1047 191.284 39.0884 182.713 41.4252" fill="#160A05"/>
<path d="M198.119 57.7979C195.613 57.7979 193.981 54.6942 192.099 51.1266C189.263 45.7753 186.748 41.7173 183.082 42.7251C182.911 42.7714 182.733 42.7835 182.557 42.7608C182.381 42.7381 182.212 42.6809 182.058 42.5927C181.905 42.5045 181.77 42.3872 181.662 42.2469C181.553 42.1066 181.474 41.9463 181.428 41.7753C181.381 41.6043 181.369 41.4258 181.392 41.2501C181.415 41.0744 181.472 40.9051 181.56 40.7514C181.648 40.5978 181.766 40.4629 181.906 40.3547C182.046 40.2465 182.207 40.1671 182.378 40.1209C188.478 38.4619 191.948 45.0532 194.481 49.8694C195.542 51.8672 197.335 55.2206 198.182 55.0957C198.56 55.0415 198.913 54.8733 199.193 54.6136C199.474 54.3539 199.668 54.0151 199.752 53.642C200.643 51.1002 199.359 46.0343 195.292 41.6372C195.065 41.3963 194.934 41.08 194.925 40.7488C194.916 40.4177 195.03 40.0949 195.244 39.8421C195.458 39.5894 195.758 39.4244 196.086 39.3788C196.414 39.3331 196.747 39.4101 197.022 39.5948C199.76 41.3786 201.651 44.0539 203.176 46.2212C204.702 48.3885 205.852 50.0299 206.994 49.9051C207.52 49.8426 207.77 48.7277 207.779 47.6396C207.868 41.2002 201.214 27.6969 188.728 25.922C188.541 25.9101 188.359 25.8597 188.193 25.774C188.027 25.6883 187.88 25.569 187.762 25.4238C187.644 25.2787 187.558 25.1106 187.508 24.9304C187.458 24.7502 187.446 24.562 187.472 24.3769C187.499 24.1918 187.564 24.0141 187.662 23.8552C187.76 23.6962 187.891 23.5594 188.045 23.4532C188.199 23.3471 188.373 23.2737 188.556 23.2381C188.74 23.2025 188.929 23.2054 189.111 23.2464C203.319 25.271 210.579 40.1924 210.517 47.6753C210.463 51.778 208.269 52.4735 207.333 52.5894C205.442 52.8035 203.997 51.6261 202.659 49.9939C202.934 51.5043 202.84 53.0591 202.383 54.5248C202.138 55.3638 201.657 56.1149 200.998 56.6887C200.338 57.2626 199.528 57.6351 198.663 57.7622C198.484 57.7919 198.301 57.8039 198.119 57.7979Z" fill="#020100"/>
<path d="M175.059 31.1008C169.163 25.9903 168.352 17.8027 171.982 15.9387C175.612 14.0746 173.953 23.8142 177.815 29.8523C173.641 21.3704 174.559 12.1124 179.055 6.48457C183.55 0.856741 185.788 5.27137 183.933 7.81326C182.078 10.3551 179.795 14.8682 180.508 24.1974C177.628 4.25472 208.157 -5.90367 217.129 7.50145C217.129 10.7836 209.887 6.1101 202.235 9.28523C209.7 7.92955 217.013 10.9263 223.185 19.9879C225.629 23.7249 224.853 29.5577 221.214 25.8118C217.909 22.4808 213.664 20.2404 209.049 19.3904C215.952 21.2634 224.532 33.3306 222.062 36.4879C219.591 39.6452 214.677 31.1365 211.02 28.4609C216.514 33.0898 220.055 44.5149 216.514 46.3522C213.535 47.8863 212.384 37.8613 204.393 31.4575C210.636 33.3305 212.813 47.0655 209.745 49.0188C206.676 50.972 205.017 39.0832 198.471 37.5313C191.925 35.9794 188.375 37.2191 186.876 42.1066" fill="#160A05"/>
<path d="M209.031 50.5371C208.824 50.5358 208.617 50.5085 208.416 50.4565C206.846 50.0462 205.838 48.2092 204.563 45.8725C203.011 43.0274 201.076 39.4953 198.124 38.7996C191.256 37.1675 189.205 39.0762 188.179 42.4386C188.129 42.6085 188.045 42.7665 187.934 42.9042C187.822 43.0418 187.685 43.1563 187.529 43.2408C187.373 43.3253 187.202 43.3782 187.026 43.3967C186.85 43.4152 186.672 43.3987 186.502 43.3484C186.332 43.298 186.174 43.2147 186.036 43.1032C185.899 42.9917 185.785 42.8539 185.7 42.6982C185.616 42.5425 185.563 42.3718 185.544 42.1956C185.526 42.0194 185.542 41.8415 185.592 41.6717C187.742 34.4474 194.128 35.0714 198.748 36.1684C202.868 37.1405 205.214 41.4398 206.926 44.5704C207.473 45.7379 208.178 46.8241 209.022 47.7987C209.531 47.3527 210.003 45.4441 209.584 42.4473C209.363 40.8468 208.943 39.2799 208.336 37.7828C207.005 35.7936 205.384 34.0142 203.528 32.5028C203.281 32.3085 203.109 32.0334 203.043 31.7255C202.977 31.4176 203.021 31.0963 203.167 30.8175C203.313 30.5387 203.553 30.3202 203.844 30.1995C204.135 30.0789 204.458 30.0639 204.759 30.1573C207.435 30.9511 209.424 33.475 210.717 36.4806C211.816 38.1559 212.826 39.8889 213.741 41.6717C214.445 43.0006 215.391 44.7841 215.899 45.123C216.097 44.9341 216.255 44.7075 216.364 44.4563C216.473 44.205 216.53 43.9344 216.532 43.6606C216.942 40.0395 214.07 32.7881 210.137 29.4792C209.868 29.2545 209.697 28.9337 209.66 28.5847C209.624 28.2357 209.725 27.886 209.942 27.6105C210.16 27.335 210.476 27.1555 210.824 27.1097C211.172 27.0639 211.524 27.1559 211.805 27.3658C213.293 28.6012 214.661 29.9745 215.89 31.4681C217.326 33.1003 219.734 35.8209 220.742 35.8209C220.742 35.8209 220.831 35.8207 220.965 35.6423C221.099 35.4639 221.223 34.6614 220.786 33.3503C219.003 27.9009 212.492 21.7556 208.657 20.6853C208.321 20.5929 208.033 20.3746 207.853 20.0756C207.674 19.7766 207.617 19.4202 207.693 19.0801C207.771 18.7405 207.976 18.4439 208.267 18.2526C208.558 18.0614 208.912 17.9905 209.254 18.0545C214.145 18.9505 218.644 21.3257 222.142 24.8595C222.399 25.1539 222.7 25.4065 223.034 25.6085C223.192 24.7648 223.18 23.8983 222.999 23.0592C222.819 22.22 222.473 21.4251 221.982 20.721C216.488 12.694 209.896 9.26909 202.36 10.6337C202.029 10.7008 201.685 10.6409 201.396 10.466C201.106 10.2911 200.894 10.014 200.799 9.68953C200.705 9.3651 200.736 9.01704 200.887 8.71446C201.037 8.41188 201.295 8.17686 201.611 8.05599C205.999 6.27221 210.28 6.80735 213.107 7.1641C213.794 7.25329 214.659 7.36924 215.257 7.38707C210.726 1.8306 201.798 1.91106 195.136 4.46187C189 6.80754 182.364 12.1678 181.624 20.0878C181.594 21.4238 181.633 22.7601 181.74 24.0922C181.765 24.4401 181.655 24.7846 181.432 25.0529C181.209 25.3211 180.891 25.4924 180.544 25.5306C180.197 25.5687 179.849 25.4709 179.573 25.2575C179.297 25.0442 179.114 24.7318 179.064 24.3866C178.851 22.9309 178.806 21.4558 178.93 19.9898C179.117 11.9628 181.775 8.33255 182.738 7.01255C182.96 6.75615 183.096 6.43739 183.128 6.10019C183.16 5.763 183.086 5.4242 182.917 5.13078C182.81 5.04159 181.793 5.08615 180.009 7.3248C175.603 12.8367 175.175 21.6484 178.921 29.2562C179.097 29.5673 179.143 29.936 179.047 30.2805C178.952 30.6251 178.724 30.9174 178.413 31.0936C178.102 31.2698 177.733 31.3152 177.389 31.2199C177.044 31.1245 176.752 30.8964 176.575 30.5854C174.658 27.5886 174.016 23.8961 173.507 20.9261C173.368 19.619 173.068 18.334 172.615 17.0999H172.526C172.11 17.393 171.768 17.7782 171.525 18.2252C171.282 18.6722 171.146 19.1692 171.126 19.6776C170.796 22.4067 172.143 26.8128 175.871 30.0593C176.005 30.1764 176.115 30.3187 176.194 30.4782C176.273 30.6378 176.32 30.8114 176.332 30.9891C176.344 31.1667 176.321 31.3447 176.264 31.5134C176.207 31.6821 176.117 31.8383 176 31.9724C175.883 32.1065 175.741 32.216 175.581 32.2951C175.422 32.3742 175.248 32.4212 175.07 32.4332C174.893 32.4452 174.714 32.4221 174.546 32.3652C174.377 32.3083 174.221 32.2189 174.087 32.1018C169.628 28.1953 168.013 22.8885 168.441 19.3566C168.488 18.4046 168.774 17.4795 169.271 16.6661C169.768 15.8528 170.461 15.1769 171.287 14.7007C171.659 14.4782 172.081 14.35 172.514 14.3267C172.948 14.3034 173.38 14.3858 173.775 14.5671L174.025 14.7099C174.526 11.3917 175.867 8.25644 177.922 5.60329C179.073 4.15843 182.043 1.00114 184.585 2.92762C185.155 3.42452 185.564 4.08064 185.76 4.81157C185.955 5.5425 185.928 6.31505 185.682 7.03041C188.186 4.80632 191.075 3.05937 194.208 1.87547C203.948 -1.85263 213.83 0.0916041 218.173 6.69159C218.325 6.91877 218.405 7.18553 218.405 7.4585C218.418 7.81537 218.352 8.17094 218.212 8.49932C218.071 8.82771 217.86 9.12115 217.593 9.35855C217.185 9.65112 216.722 9.85837 216.232 9.96868C215.741 10.079 215.234 10.0899 214.739 10.0005C218.555 12.2812 221.799 15.4055 224.22 19.1336C226.432 22.5139 226.263 26.4647 224.648 27.749C224.069 28.2128 222.472 29.0333 220.189 26.652L220.091 26.554C221.466 28.3301 222.561 30.3061 223.337 32.4136C224.024 34.5006 223.944 36.115 223.079 37.221C222.815 37.5815 222.474 37.878 222.08 38.088C221.686 38.2981 221.25 38.4161 220.804 38.4338C219.877 38.4197 218.98 38.1069 218.245 37.5419C218.965 39.5744 219.268 41.7314 219.136 43.8836C218.887 46.0687 217.861 47.032 217.032 47.4511C215.016 48.4857 213.634 46.987 212.358 44.8286C212.358 46.8175 211.912 49.0654 210.351 50.0554C209.966 50.3376 209.508 50.5047 209.031 50.5371Z" fill="#020100"/>
<path d="M174.833 32.907C170.035 31.6761 171.587 25.3347 177.125 25.8341C182.664 26.3336 190.397 32.8714 192.234 39.6676C194.071 46.4638 188.889 48.7112 187.106 44.7066C185.322 40.7021 181.273 34.5659 174.833 32.907Z" fill="#E04469"/>
<path d="M189.673 48.0383C188.84 47.9956 188.037 47.7091 187.365 47.2144C186.693 46.7197 186.18 46.0391 185.892 45.256C184.937 43.1065 181.289 35.9622 174.511 34.2141C172.326 33.6522 170.203 31.7346 170.703 28.8627C171.122 26.4368 173.512 24.1536 177.267 24.4925C183.733 25.0634 191.644 32.2699 193.553 39.3159C194.837 44.0607 193.071 47.0573 190.877 47.8332C190.49 47.9693 190.083 48.0386 189.673 48.0383ZM176.536 27.1504C174.618 27.1504 173.548 28.2295 173.36 29.3087C173.173 30.3878 173.86 31.2533 175.144 31.6011C183.1 33.6524 187.238 41.7237 188.317 44.1585C188.728 45.0504 189.352 45.4966 189.941 45.2825C190.833 44.9882 191.796 43.2848 190.913 40.0205C189.129 33.6078 181.807 27.6055 176.99 27.1774L176.536 27.1504Z" fill="#821030"/>
<path d="M176.681 26.7573C180.008 26.7573 184.824 29.4864 187.384 32.6526C189.943 35.8188 188.882 37.9328 185.903 35.3731C183.075 32.8844 179.593 31.2593 175.869 30.6907C173.256 30.4142 174.121 26.7573 176.681 26.7573Z" fill="#FC638E"/>
<path d="M177.366 24.6739C173.487 17.5388 175.886 11.3936 178.597 7.04122C181.309 2.68879 182.7 6.98758 180.524 10.4838C178.347 13.98 180.542 24.9771 177.366 24.6739Z" fill="#30170F"/>
<path d="M181.615 23.8179C179.501 15.443 185.905 7.10385 196.634 3.08142C207.364 -0.940999 211.011 4.16934 210.78 5.33771C210.548 6.50609 201.548 3.18842 194.636 11.0727C202.066 6.67571 210.485 9.28872 216.042 13.5163C221.598 17.7438 219.012 22.1854 213.767 18.6268C208.523 15.0681 203.707 12.9991 196.821 17.6012C189.936 22.2034 189.686 26.6271 187.225 27.412C184.763 28.1969 184.638 20.937 190.792 13.6948C183.916 18.4664 184.21 24.9773 181.615 23.8179Z" fill="#30170F"/>
<path d="M188.744 28.7299C183.455 25.2069 193.801 16.4842 201.409 16.2434C209.017 16.0026 217.526 25.1622 216.348 28.159C214.761 32.1992 212.156 25.5368 204.228 22.5846C196.299 19.6325 191.554 30.6029 188.744 28.7299Z" fill="#30170F"/>
<path d="M196.958 27.2655C199.072 22.4671 207.759 22.8062 211.763 28.8354C215.768 34.8646 214.439 39.5827 209.319 33.054C204.2 26.5254 195.611 30.3246 196.958 27.2655Z" fill="#30170F"/>
<path d="M187.442 8.03231C192.962 3.2161 199.669 0.950618 201.417 3.48358C203.166 6.01655 196.664 5.6422 191.089 10.8687C185.515 16.0951 183.526 18.9489 182.509 18.4227C181.493 17.8965 182.313 12.4918 187.442 8.03231Z" fill="#42261F"/>
<path d="M196.858 9.97562C204.065 6.66671 210.388 9.81505 209.942 12.1696C209.264 15.7372 203.592 11.7503 197.26 15.3535C190.927 18.9568 191.088 22.2122 188.546 20.9814C186.004 19.7506 189.108 13.5164 196.858 9.97562Z" fill="#42261F"/>
<path d="M204.357 1.57355C207.033 1.76085 208.014 4.47254 205.249 4.8293C202.484 5.18605 200.37 1.28815 204.357 1.57355Z" fill="#42261F"/>
<path d="M213.797 11.9964C217.472 13.254 216.865 16.9551 213.672 15.7956C210.479 14.6362 210.649 10.9172 213.797 11.9964Z" fill="#42261F"/>
<path d="M195.916 20.2332C194.373 16.1483 202.284 14.5785 208.215 18.7882C214.147 22.9979 210.632 23.1136 205.656 20.9731C200.679 18.8325 196.773 22.5075 195.916 20.2332Z" fill="#42261F"/>
<path d="M194.68 82.7061C192.37 30.147 151.78 10.8287 113.376 24.5281C84.5497 34.8116 66.1679 68.338 81.0446 106.11C97.2681 147.324 118.103 131.43 120.823 131.082" fill="#160A05"/>
<path d="M192.527 90.4501C195.559 89.9328 200.875 79.6492 208.715 84.3584C213.531 87.2392 212.211 107.476 200.063 110.624C194.997 111.935 191.456 104.845 191.43 104.64" fill="#8C6239"/>
<path d="M197.193 93.2863C198.629 87.4623 204.837 85.8571 206.692 86.6242C201.804 91.8417 198.968 104.908 199.771 107.138" fill="#44160A"/>
<path d="M186.473 55.8605C173.728 37.1308 145.161 22.156 111.331 44.266C70.6879 70.8353 106.176 127.863 115.595 141.09C127.376 157.652 159.297 162.798 172.979 158.784C183.048 155.823 199.174 142.731 202.625 121.245C203.695 114.645 197.211 71.647 186.473 55.8605Z" fill="#8C6239"/>
<path d="M189.707 71.7546C180.788 51.6336 149.144 47.4326 127.623 66.0196C101.758 88.3168 119.346 128.452 127.293 139.574C137.229 153.541 162.915 158.214 174.456 154.959C185.792 151.757 198.715 137.023 200.49 118.926C200.749 116.384 196.245 86.4619 189.707 71.7546Z" fill="#BC7C52"/>
<path d="M146.141 82.2625C142.217 78.5165 119.385 83.5024 119.385 94.2229C124.888 84.4121 148.425 84.4476 146.141 82.2625Z" fill="#763400"/>
<path d="M172.413 77.2026C173.51 71.3875 190.67 69.6928 193.684 76.596C186.835 71.646 172.002 79.3789 172.413 77.2026Z" fill="#763400"/>
<path d="M103.943 116.691C103.943 116.691 90.0297 107.826 84.4732 116.486C79.9157 123.621 94.5694 139.327 106.36 138.292C112.416 137.766 113.709 129.32 113.674 129.106" fill="#8C6239"/>
<path d="M105.441 121.922C96.8878 115.964 88.5754 116.036 86.3457 120.236C91.4206 120.236 100.991 123.26 101.865 125.695C99.9827 129.673 105.04 131.358 107.118 130.618C100.5 127.479 105.441 121.922 105.441 121.922Z" fill="#44160A"/>
<path d="M176.462 115.661C179.138 114.189 176.524 119.345 171.396 121.235C166.268 123.126 160.06 121.966 160.131 120.709C160.203 119.451 167.909 118.925 170.344 118.328C172.498 117.731 174.558 116.833 176.462 115.661Z" fill="#774F2F"/>
<path d="M170.987 112.378C173.029 112.663 174.073 115.75 171.78 116.329C169.488 116.909 168.579 112.057 170.987 112.378Z" fill="#D38D67"/>
<path d="M160.85 113.664C160.359 114.752 159.137 115.947 158.745 117.374C158.254 119.158 160.698 121.37 160.698 121.37L162.678 119.586C162.129 119.508 161.608 119.298 161.158 118.975C160.707 118.652 160.342 118.225 160.092 117.731C159.342 116.072 160.85 113.664 160.85 113.664Z" fill="#774F2F"/>
<path d="M166.93 119.714C165.521 119.571 161.775 121.631 163.514 121.809C165.253 121.988 169.276 119.946 166.93 119.714Z" fill="#44160A"/>
<path d="M175.717 117.535C174.825 117.027 171.543 118.258 172.756 118.945C173.746 119.515 176.743 118.115 175.717 117.535Z" fill="#44160A"/>
<path d="M197.813 86.2578C198.919 85.3659 201.621 83.404 204.199 83.1453C204.591 46.3995 168.086 12.4538 127.782 21.2657C82.9465 31.0765 73.4746 74.6188 93.221 111.427C97.5378 112.613 106.813 126.589 110.033 125.76C104.45 113.095 105.832 97.6651 107.866 91.8678C106.158 94.5915 104.86 97.5516 104.013 100.653C104.013 87.7385 112.423 69.3477 120.593 62.0431C120.593 62.0431 116.624 60.6605 111.442 63.2202C117.632 58.5913 121.726 60.9281 123.652 58.7608C125.579 56.5935 115.242 46.185 115.242 46.185C121.048 50.2164 124.83 53.82 128.397 54.81C131.965 55.8 151.8 52.0091 164.483 46.8897C162.266 48.8599 159.812 50.547 157.178 51.9113C162.806 51.9113 168.943 51.4563 174.517 53.4809C191.864 59.7598 197.813 86.2578 197.813 86.2578Z" fill="#160A05"/>
<path d="M83.9182 72.7517C94.5406 74.7138 110.354 71.8599 113.672 69.3091C111.495 77.4253 102.603 90.7145 91.0266 81.1445C96.3779 88.3955 103.718 89.1716 105.877 88.6276C104.664 98.3046 87.3966 104.869 81.2871 89.0378C82.072 81.76 82.7944 89.127 94.3801 89.2965C84.9171 84.9351 81.8312 74.7852 83.9182 72.7517Z" fill="#30170F"/>
<path d="M128.733 51.5291C136.983 53.1524 167.736 43.4396 173.381 40.1218C170.269 44.4269 166.285 48.0282 161.689 50.6908C171.125 50.9138 182.684 49.6919 186.457 44.5011C185.074 48.5971 182.211 52.0291 178.43 54.1247C189.025 56.5149 190.024 46.5255 189.311 42.4674C188.597 38.4093 183.067 34.6189 181.096 34.824C179.776 29.8651 165.149 20.4023 155.713 22.2039C148.061 25.2452 137.358 41.1208 137.358 41.1208C138.856 32.9957 147.731 23.6039 147.169 21.0085C146.607 18.4131 128.823 25.8603 124.693 37.2676C124.693 26.1546 131.686 22.6319 132.515 21.4636C131.748 17.6195 108.024 22.632 103.172 32.2555C104.59 36.6525 113.197 40.2824 114.829 39.9881C113.108 33.9054 120.011 27.5017 120.011 27.5017C117.656 34.173 117.335 42.1912 119.279 44.1445C120.448 45.295 123.177 47.6136 123.177 47.6136C125.451 42.1552 132.042 36.9109 132.042 36.9109C127.699 42.8687 128.733 51.5291 128.733 51.5291Z" fill="#30170F"/>
<path d="M193.78 48.4219C192.095 55.6551 183.693 55.4143 181.57 54.4778C188.34 61.8805 190.944 64.4135 193.959 64.0835C193.611 67.107 195.742 76.5699 198.079 78.6926C200.416 80.8153 202.467 58.6519 193.78 48.4219Z" fill="#30170F"/>
<path d="M84.7842 47.5418C90.5458 39.9072 97.9574 37.5082 100.526 37.4636C103.095 37.419 107.055 43.5286 106.832 45.1518C98.9296 47.0337 92.2315 53.2324 92.2315 53.2324C97.866 50.051 104.261 48.4659 110.729 48.648C114.698 48.6034 121.191 56.3628 120.852 57.5669C108.794 58.1555 96.5036 60.947 90.858 66.5837C100.339 61.7497 116.366 62.6062 116.562 64.3989C107.92 69.0813 93.3731 73.915 88.7353 73.4602C82.3939 73.585 82.5991 71.8726 83.5712 68.1088C84.5434 64.3451 93.1056 57.4598 98.0823 56.2112C90.8937 55.132 82.0282 63.3464 80.9223 62.1691C79.8163 60.9919 81.4664 52.2688 84.7842 47.5418Z" fill="#30170F"/>
<path d="M83.2969 95.1875C86.7485 106.265 100.073 118.68 106.486 119.269C105.453 114.396 104.856 109.441 104.702 104.463C96.9517 105.792 89.7096 103.188 83.2969 95.1875Z" fill="#30170F"/>
<path d="M82.1798 53.8898C93.373 55.0403 89.636 82.6532 76.3469 81.5384C63.0577 80.4235 68.6409 52.4895 82.1798 53.8898Z" fill="#E04469"/>
<path d="M77.116 82.9475C76.8127 82.9475 76.5184 82.9475 76.2241 82.9475C74.5951 82.8464 73.0269 82.2919 71.6967 81.3462C70.3665 80.4006 69.3273 79.1015 68.6965 77.5962C66.1992 72.2002 67.3765 63.8432 71.4346 58.144C74.2976 54.1305 78.1595 52.1507 82.3157 52.5788C87.667 53.1318 90.7708 58.8756 90.0305 66.8491C89.7048 70.8497 88.333 74.6944 86.0527 77.9977C83.6446 81.2353 80.5765 82.9475 77.116 82.9475ZM81.183 55.2009C77.6154 55.2009 75.1181 57.5912 73.6198 59.6604C70.1414 64.539 69.0443 71.8969 71.1403 76.4099C71.5744 77.4773 72.3029 78.3995 73.2408 79.069C74.1787 79.7385 75.2875 80.128 76.4381 80.1917H77.0624C82.9132 80.1917 86.7037 73.2884 87.337 66.5368C88.0237 59.1431 85.1608 55.5129 82.0303 55.1918C81.7452 55.1739 81.4592 55.1739 81.174 55.1918L81.183 55.2009Z" fill="#821030"/>
<path d="M73.0794 72.2447C69.824 68.1242 62.2519 68.374 57.5249 74.8581C53.226 80.7535 55.6965 90.1451 51.7544 89.3334C47.8122 88.5218 45.2614 74.8221 51.1211 70.987C45.0117 79.6829 47.3662 89.5205 43.6916 89.0656C39.3303 88.5216 38.9736 76.5792 43.103 70.3359C40.2311 74.1175 38.0728 83.7146 34.3625 81.583C30.6522 79.4514 35.3704 65.1896 41.9525 61.1226C37.5216 63.355 33.8687 66.8745 31.4728 71.2191C28.9844 75.964 26.1214 70.7197 27.3344 66.3851C30.6076 55.8073 37.2076 50.5538 45.5201 49.3586C36.3693 48.9038 30.456 55.709 29.2609 52.6231C33.8719 37.015 69.5476 36.4621 73.6146 56.1907C71.046 47.1558 67.0502 43.6506 64.2051 41.8669C61.36 40.0831 62.127 35.169 68.843 38.9952C75.5589 42.8214 79.7419 51.6151 79.4208 60.4716C82.0341 64.1016 79.2335 73.0295 75.5411 74.403C66.31 77.8457 71.1619 91.5452 66.319 92.553C63.0368 93.2309 58.8181 85.3732 62.9922 77.0072C58.5327 82.2426 59.1838 89.7614 55.3309 90.5463C49.1947 91.8039 47.5357 67.482 64.9811 59.3301" fill="#160A05"/>
<path d="M65.9271 93.9947C65.184 93.942 64.4629 93.719 63.8195 93.3432C63.1762 92.9674 62.6278 92.4487 62.2169 91.8273C61.0635 90.2234 60.3306 88.356 60.0853 86.3958C59.1934 89.0715 58.1231 91.4082 55.6258 91.9165C54.9962 92.0469 54.343 92.0045 53.7355 91.7942C53.1279 91.5838 52.5885 91.2133 52.1742 90.7215C51.9525 90.7183 51.7315 90.6944 51.5142 90.6501C49.6234 90.2577 48.2677 88.2241 47.4383 85.8963C46.8764 88.5719 46.0647 90.7125 43.5496 90.3557C42.4972 90.2219 41.0345 89.5977 39.982 87.3412C39.1884 85.3582 38.8119 83.233 38.8761 81.098C38.2784 82.0141 37.408 82.719 36.3878 83.1135C35.9425 83.2478 35.4738 83.2862 35.0126 83.2263C34.5514 83.1663 34.1082 83.0093 33.7121 82.7655C32.8202 82.2482 31.7767 81.0709 31.741 78.3061C31.8408 75.6044 32.4458 72.9452 33.5248 70.4663C33.2394 70.9123 32.9807 71.3582 32.7399 71.822C31.1345 74.8901 29.2348 74.4981 28.4945 74.2394C26.2648 73.3475 25.1321 69.4232 26.1042 65.9894C27.3589 61.5566 29.6765 57.4968 32.8558 54.1628C31.518 54.7068 30.4299 54.9654 29.4667 54.573C29.1431 54.439 28.8516 54.2377 28.6117 53.9825C28.3719 53.7272 28.189 53.4236 28.0753 53.0923C27.9711 52.8042 27.9711 52.4886 28.0753 52.2004C30.751 43.0764 42.3456 39.3662 51.9423 39.7675C55.5198 39.9127 59.0486 40.648 62.3863 41.9437C61.8704 41.3817 61.5397 40.6749 61.4392 39.9186C61.3387 39.1624 61.4732 38.3936 61.8245 37.7164C62.2793 36.9583 64.188 34.7197 69.6196 37.8056C76.5942 41.7835 81.0804 50.6845 80.8842 60.1029C82.1239 62.181 82.2487 65.3918 81.2052 68.8345C80.1617 72.2772 78.2441 74.8902 76.1214 75.684C71.5639 77.3875 71.002 82.1591 70.5115 86.3866C70.0923 89.9542 69.6998 93.272 66.6942 93.8963C66.443 93.9578 66.1857 93.9911 65.9271 93.9947ZM63.0106 75.7018C63.2736 75.7042 63.5304 75.7816 63.7509 75.9248C64.027 76.1062 64.2267 76.3827 64.3122 76.7017C64.3977 77.0207 64.363 77.3599 64.2147 77.655C61.655 82.8012 62.4934 87.7512 64.3574 90.1415C64.9461 90.9085 65.615 91.3368 66.061 91.2476C67.158 91.0157 67.4433 88.5719 67.7377 86.0657C68.2639 81.6062 68.9863 75.4342 75.0869 73.1598C76.3623 72.6782 77.7625 70.6269 78.5296 68.0493C79.4214 65.2666 79.3055 62.6 78.3422 61.28C78.1642 61.0347 78.076 60.7353 78.0925 60.4326C78.3958 52.0042 74.3287 43.674 68.1925 40.1778C65.5169 38.6348 64.2058 38.867 64.0542 39.1256C63.9026 39.3843 64.1166 40.2227 64.9461 40.74C66.4088 41.6319 70.449 44.1827 73.4993 51.6299C74.1687 52.9976 74.6603 54.4453 74.962 55.9378C75.0343 56.2793 74.9703 56.6354 74.7837 56.9303C74.5971 57.2252 74.3026 57.4356 73.9631 57.5165C73.624 57.5994 73.2659 57.5481 72.9636 57.3737C72.6612 57.1992 72.4378 56.9148 72.3398 56.5797C71.9563 55.233 71.5461 54.0112 71.118 52.9142C67.6217 45.7791 58.899 42.7913 51.755 42.4881C40.2675 42.0064 33.1145 46.8939 30.9472 51.9687C31.7739 51.6779 32.5838 51.3416 33.3732 50.961C36.1826 49.6767 40.4191 47.7323 45.6099 47.991C45.942 48.0105 46.2551 48.1523 46.4889 48.389C46.7227 48.6256 46.8607 48.9403 46.8762 49.2726C46.8917 49.6049 46.7837 49.9311 46.5729 50.1884C46.3622 50.4458 46.0636 50.6163 45.7347 50.6666C37.3242 51.8796 31.5805 57.2844 28.6462 66.7206C27.9594 69.1287 28.9226 71.4029 29.4132 71.6705C29.8098 71.3792 30.1184 70.9843 30.3051 70.529C32.8259 65.9294 36.6777 62.1989 41.3556 59.8263C41.665 59.6708 42.0222 59.6397 42.3539 59.7393C42.6856 59.8388 42.9666 60.0614 43.1394 60.3616C43.3025 60.6632 43.3444 61.0156 43.2565 61.3471C43.1687 61.6786 42.9577 61.9641 42.6666 62.1454C38.2072 64.8835 34.3542 73.3921 34.4167 78.1994C34.4167 79.5015 34.7556 80.1525 35.0588 80.322C35.3621 80.4914 35.4958 80.4559 35.5761 80.4291C36.7088 80.0723 38.1537 76.9416 39.215 74.6584C39.9829 72.829 40.9268 71.0787 42.0334 69.432C42.2404 69.1399 42.5549 68.9418 42.9078 68.8816C43.2608 68.8213 43.6232 68.9041 43.9153 69.1111C44.2074 69.318 44.4054 69.6322 44.4656 69.9851C44.5258 70.338 44.4433 70.7007 44.2364 70.9928C41.3645 75.3007 40.9007 82.8104 42.4526 86.155C42.738 86.7793 43.2196 87.5286 43.8885 87.6178C43.9239 87.6238 43.9601 87.6238 43.9955 87.6178C44.4237 87.3502 44.8161 85.1827 45.1015 83.5951C45.4295 81.6154 45.8702 79.6559 46.4215 77.7264C46.6891 74.5424 47.8218 71.4386 50.4082 69.6994C50.671 69.525 50.987 69.4493 51.3003 69.4852C51.6136 69.5211 51.9042 69.6665 52.1207 69.8958C52.2165 69.9936 52.2976 70.1049 52.3615 70.2259C54.7933 64.8401 59.079 60.5066 64.4377 58.0156C64.7585 57.8914 65.1145 57.894 65.4335 58.0225C65.7526 58.1511 66.0108 58.3962 66.156 58.708C66.3011 59.0198 66.3223 59.3754 66.2152 59.7022C66.1081 60.0291 65.8808 60.3027 65.5793 60.4683C53.7618 65.9801 51.1575 79.4834 52.9056 86.128C53.0394 85.3966 53.1553 84.5672 53.2444 83.9339C53.6636 80.8569 54.1899 77.022 56.4553 73.9093C59.1309 70.2347 62.9214 68.0765 66.8458 67.9962C68.2364 67.9311 69.6229 68.1924 70.8944 68.7592C72.1659 69.326 73.2871 70.1824 74.1682 71.2602C74.3894 71.5417 74.4897 71.8995 74.447 72.2549C74.4044 72.6103 74.2223 72.9343 73.9408 73.1555C73.6593 73.3767 73.3015 73.4769 72.946 73.4342C72.5906 73.3916 72.2667 73.2096 72.0455 72.9282C71.4201 72.1796 70.6281 71.5882 69.7329 71.201C68.8376 70.8138 67.8641 70.6416 66.8904 70.6984C63.8312 70.7609 60.8166 72.4821 58.6404 75.4967C56.7764 78.0564 56.3036 81.5171 55.9201 84.2998C55.6436 86.2887 55.4118 87.9743 54.725 89.1159C54.8459 89.1382 54.9698 89.1382 55.0907 89.1159C56.3215 88.8572 56.9547 87.136 57.8823 84.3355C58.7207 81.8025 59.7642 78.6543 61.985 76.0232C62.1256 75.9035 62.2889 75.8132 62.4651 75.758C62.6414 75.7028 62.8269 75.6836 63.0106 75.7018ZM49.0704 78.3775C48.9873 79.8134 49.0802 81.2542 49.3469 82.6675C49.4737 83.3591 49.6465 84.0415 49.8642 84.71C49.5035 80.9546 49.9225 77.1651 51.095 73.5792C50.2575 75.106 49.5848 76.7176 49.0883 78.3866L49.0704 78.3775Z" fill="#020100"/>
<path d="M77.046 55.6725C78.589 47.6455 73.8798 42.6512 69.4917 39.4404C65.1036 36.2296 65.166 40.7513 68.689 43.3289C72.2119 45.9065 73.8352 57.0817 77.046 55.6725Z" fill="#30170F"/>
<path d="M72.3366 56.2686C71.5785 47.6619 61.9015 41.9093 49.2099 41.6774C36.5183 41.4455 34.5115 47.4748 35.1715 48.4916C35.8315 49.5083 44.0904 43.4076 54.142 48.5539C44.795 46.8682 36.8839 52.1214 32.5761 57.9544C28.2683 63.7874 32.5761 67.1142 36.7769 62.0215C40.9777 56.9288 45.3391 53.3789 54.2134 55.4303C63.0877 57.4816 67.3777 62.0393 70.2674 61.9858C73.1571 61.9323 68.1982 54.5564 59.1455 49.7758C68.0199 51.9788 70.0177 58.1951 72.3366 56.2686Z" fill="#30170F"/>
<path d="M71.7045 64.7731C76.0034 59.6982 61.4478 51.894 48.8722 55.6578C40.8452 58.0569 35.1281 69.4376 37.4203 71.8546C40.524 75.1457 40.0424 66.6282 48.1229 62.579C61.0732 56.1218 69.4213 67.4755 71.7045 64.7731Z" fill="#30170F"/>
<path d="M57.4637 64.6118C53.5393 60.7856 44.5401 63.9696 42.4888 71.0066C40.4374 78.0436 43.5323 82.0306 46.5469 74.1731C49.5615 66.3155 59.961 67.0556 57.4637 64.6118Z" fill="#30170F"/>
<path d="M60.6153 43.288C53.1056 40.5678 45.2659 40.6127 44.3383 43.6273C43.4108 46.6419 50.091 44.0822 57.788 47.1949C65.4851 50.3076 68.5977 52.3144 69.4718 51.4849C70.3458 50.6554 67.581 45.8032 60.6153 43.288Z" fill="#42261F"/>
<path d="M51.412 48.2511C42.6715 47.5286 37.1417 52.5945 38.4617 54.6637C40.4239 57.7764 44.9815 52.1663 52.9014 53.4596C60.8214 54.7528 61.8204 57.9192 64.0323 55.8857C66.2442 53.8522 60.7947 49.0538 51.412 48.2511Z" fill="#42261F"/>
<path d="M40.5255 42.8123C37.8498 43.8647 37.7249 46.7632 40.7039 46.2013C43.6828 45.6394 44.6103 41.2336 40.5255 42.8123Z" fill="#42261F"/>
<path d="M34.3751 55.7889C30.9681 58.197 32.9124 61.4791 35.8557 59.3564C38.7989 57.2337 37.3005 53.7197 34.3751 55.7889Z" fill="#42261F"/>
<path d="M56.04 57.6286C56.2183 53.2583 47.3529 54.4091 42.6616 60.3491C37.9703 66.2891 41.6538 65.2274 46.1221 61.5528C50.5905 57.8782 55.9418 60.0634 56.04 57.6286Z" fill="#42261F"/>
<path d="M76.1644 63.5773C68.6101 60.8392 56.5428 62.5874 53.769 75.056C50.9953 87.5247 55.7847 90.4949 57.0066 83.5738C58.2285 76.6528 63.9098 66.9399 76.5122 67.5642C80.0976 67.3591 77.8233 64.2195 76.1644 63.5773Z" fill="#30170F"/>
<path d="M68.52 71.5045C63.0528 69.9704 62.6603 80.138 63.3827 83.9909C64.1052 87.8439 65.9157 84.8385 66.6738 80.6912C67.4319 76.5439 71.936 72.4677 68.52 71.5045Z" fill="#30170F"/>
<path d="M86.0411 59.0015C87.4236 62.3818 86.933 68.1881 84.9887 71.8538C83.0444 75.5194 80.6184 75.1715 81.7779 71.2828C82.9412 67.4496 83 63.3661 81.9473 59.501C81.109 56.7718 84.9709 56.3972 86.0411 59.0015Z" fill="#FC638E"/>
<path d="M131.136 47.1505C132.58 52.154 160.8 41.3175 166.811 34.664C164.186 38.8235 160.53 42.2338 156.198 44.5641C171.288 41.1392 172.956 35.5294 172.252 31.0878C171.547 26.6462 159.194 25.4332 154.566 25.7364C149.937 26.0397 139.038 36.3322 136.291 41.2465C138.797 31.2395 149.419 25.1475 146.102 23.9256C142.784 22.7038 127.711 35.1278 131.136 47.1505Z" fill="#42261F"/>
<path d="M126.885 23.1947C127.777 19.422 107.263 27.9395 107.905 33.7101C110.385 36.8941 113.355 35.8505 113.355 35.8505C115.014 31.9708 119.018 29.2685 119.018 29.2685C117.235 34.272 116.566 40.7291 120.57 41.3713C124.575 42.0134 125.788 27.8236 126.885 23.1947Z" fill="#42261F"/>
<path d="M91.7522 53.8458C95.2216 49.5915 107.003 48.4228 111.374 49.7696C115.744 51.1163 115.441 55.8256 114.049 55.674C112.658 55.5224 97.2462 58.7422 93.6786 60.6508C94.6015 58.9655 95.8478 57.4788 97.3461 56.2758C98.8444 55.0729 100.565 54.1776 102.41 53.6407C96.9875 53.6585 91.2438 54.4612 91.7522 53.8458Z" fill="#42261F"/>
<path d="M86.4545 49.2727C84.4656 45.6517 94.9898 39.5333 99.3066 39.462C103.623 39.3906 106.138 43.0826 104.658 44.1618C103.177 45.241 87.2483 50.7265 86.4545 49.2727Z" fill="#42261F"/>
<path d="M93.8778 66.4104C92.5756 60.9341 110.092 63.5119 110.137 64.7873C110.182 66.0627 95.2959 72.3414 93.8778 66.4104Z" fill="#42261F"/>
<path d="M92.2528 74.3073C92.5026 77.4556 101.172 83.0746 109.359 72.8179C103.294 76.0198 92.1369 72.8624 92.2528 74.3073Z" fill="#42261F"/>
<path d="M146.463 132.585C143.876 135.26 147.703 136.402 151.814 134.93C149.923 134.234 149.46 129.543 146.463 132.585Z" fill="#774F2F"/>
<path d="M188.335 123.662C190.851 126.257 188.496 127.301 184.215 126.721C185.936 125.66 186.016 121.298 188.335 123.662Z" fill="#774F2F"/>
<path d="M185.103 126.579C185.665 126.579 183.569 132.02 182.186 135.436C181.143 138.031 178.28 140.421 175.131 141.831C169.298 144.444 162.047 144.007 158.364 141.331C155.688 139.422 151.05 135.088 149.222 134.294C148.66 134.062 149.882 134.544 150.515 134.223C156.304 132.1 164.571 131.645 174.739 129.469C178.248 128.712 181.708 127.747 185.103 126.579Z" fill="#A52929"/>
<path d="M176.814 132.893C178.259 135.488 173.157 142.276 162.892 140.777C155.444 139.698 152.287 133.945 154.642 133.375C158.031 133.446 175.548 130.574 176.814 132.893Z" fill="#631111"/>
<path d="M180.978 128.249C178.205 134.929 157.861 136.32 154.828 133.6C161.491 131.647 174.94 128.177 180.978 128.249Z" fill="#E2D0D0"/>
<path d="M171.911 141.37C164.133 143.243 158.47 141.031 153.895 137.802C157.284 141.994 162.573 146.445 170.992 145.196C179.019 144.019 182.346 136.616 183.229 132.808C182.185 134.431 178.056 139.889 171.911 141.37Z" fill="#FF9292"/>
<path d="M172.4 127.426C170.027 128.844 170.304 127.577 166.29 128.371C163.302 128.951 156.221 133.036 150.316 133.722C156.033 134.552 163.695 131.938 170.91 130.699C177.1 129.637 182.237 128.023 185.1 126.569C180.4 127.657 175.37 125.651 172.4 127.426Z" fill="#EF5D59"/>
<path d="M147.779 133.018C146.824 134.231 148.269 134.677 150.178 134.65C151.324 134.684 152.467 134.521 153.558 134.169C153.157 133.883 151.105 133.999 149.652 133.41C148.198 132.822 148.216 132.474 147.779 133.018Z" fill="#A52929"/>
<path d="M182.027 128.129C184.025 127.166 185.506 126.595 186.014 125.391C186.317 124.633 186.906 124.151 187.254 124.66C188.404 126.167 185.907 125.962 183.784 129.191" fill="#A52929"/>
<path d="M178.693 130.309C177.891 132.619 162.443 135.464 159.848 133.956C167.893 131.29 175.518 130.683 178.693 130.309Z" fill="#F2E2E2"/>
<path d="M146.88 99.4954C151.928 101.279 153.873 108.611 147.148 104.936C140.423 101.261 133.074 107.077 130.362 111.179C127.651 115.282 125.216 109.975 126.893 106.988C128.57 104 138.318 96.4005 146.88 99.4954Z" fill="#44160A"/>
<path d="M179.151 93.385C175.361 97.1755 175.646 104.025 181.114 98.6471C186.581 93.269 191.986 95.0794 195.955 98.0583C198.818 100.181 198.398 95.5969 195.955 93.1799C193.511 90.7629 183.985 88.5331 179.151 93.385Z" fill="#44160A"/>
<path d="M109.57 214.098C75.2238 236.396 66.9113 248.061 53.4616 262.073L40.7344 249.944C43.3209 239.473 79.371 188.751 99.3494 185.87C103.729 185.781 116.786 199.917 109.57 214.098Z" fill="#8C6239"/>
<path d="M85.25 195.618C74.0301 203.315 55.7285 226.165 46.9434 243.031C48.8074 247.365 58.1634 246.803 58.1634 246.803C66.9485 233.835 83.832 215.542 94.9182 208.059C94.2062 205.451 92.9855 203.008 91.3263 200.873C89.6671 198.738 87.6021 196.952 85.25 195.618Z" fill="#774F2F"/>
<path d="M54.5503 246.911C46.4341 248.177 35.3925 238.5 29.943 237.484C24.4936 236.467 23.6998 244.449 39.3079 250.603C34.7681 249.854 27.5438 248.169 21.2471 248.445C14.4955 248.739 15.3428 252.423 17.8044 253.395C15.1287 254.019 16.6182 257.462 18.5625 258.318C22.353 259.995 31.1292 264.258 31.1292 264.258C25.5014 263.366 21.3898 266.042 21.033 268.334C20.3195 272.793 28.8549 270.038 36.766 270.198C42.3046 270.305 56.2538 267.523 60.7578 258.381C65.2619 249.239 73.1194 241.684 67.6522 239.348C64.1649 237.858 58.0376 246.358 54.5503 246.911Z" fill="#F9BA7A"/>
<path d="M17.8047 253.394C23.7447 254.134 33.3236 257.113 33.3236 257.113L17.8047 253.394Z" fill="#F9BA7A"/>
<path d="M45.7836 251.03C40.5215 251.744 32.1912 262.125 33.2972 267.397L45.7836 251.03Z" fill="#F9BA7A"/>
<path d="M47.572 252.407C40.2853 252.139 31.518 264.536 37.012 266.802C42.5061 269.067 52.7539 265.018 55.4385 260.621C58.4442 255.769 52.7539 252.603 47.572 252.407Z" fill="#F29657"/>
<path d="M101.362 219.567C102.254 214.385 93.7722 197.43 84.2468 193.657C82.2936 183.721 100.167 168.131 114.848 176.229C121.626 179.966 127.218 201.416 117.719 213.073C111.012 221.315 103.182 220.432 101.362 219.567Z" fill="#EF840F"/>
<path d="M102.312 208.471C99.7881 207.276 98.2273 202.896 99.2886 202.308C102.758 199.864 103.998 198.74 103.632 197.848C103.266 196.956 99.1727 199.043 96.167 199.569C93.8927 198.49 91.4489 195.69 91.3508 193.594C91.1278 189.134 93.9195 187.814 98.6197 185.46C91.0565 185.032 90.4857 191.801 88.47 190.865C85.2235 185.174 97.8259 170.699 112.275 177.04C116.297 178.824 123.521 187.27 118.313 199.034C114.585 207.463 107.601 209.693 102.312 208.471Z" fill="#FFB41D"/>
<path d="M214.674 187.592C231.227 195.869 256.022 215.767 257.484 218.416C257.272 219.337 256.871 220.205 256.306 220.963C255.741 221.722 255.025 222.355 254.202 222.821C244.24 214.304 211.811 197.429 211.811 197.429C211.811 197.429 215.111 190.071 214.674 187.592Z" fill="#774F2F"/>
<path d="M260.906 220.861C263.207 223.76 270.119 222.752 276.166 219.006C279.912 219.443 287.253 218.221 287.253 214.832C282.936 216.277 268.247 213.075 260.906 220.861Z" fill="#774F2F"/>
</g>
<defs>
<clipPath id="clip0_8_14320">
<rect width="246.68" height="246.68" fill="white" transform="translate(33 82)"/>
</clipPath>
</defs>
</svg>
