<svg width="313" height="329" viewBox="0 0 313 329" fill="none" xmlns="http://www.w3.org/2000/svg">
<g clip-path="url(#clip0_8_14319)">
<path d="M243.56 292.551C291.727 244.383 291.727 166.289 243.56 118.122C195.393 69.9544 117.298 69.9541 69.1305 118.121C20.9633 166.289 20.9635 244.383 69.1308 292.551C117.298 340.718 195.392 340.718 243.56 292.551Z" fill="#FBAE17"/>
<path d="M156.341 316.38C217.666 316.38 267.381 266.665 267.381 205.34C267.381 144.014 217.666 94.2998 156.341 94.2998C95.0151 94.2998 45.3008 144.014 45.3008 205.34C45.3008 266.665 95.0151 316.38 156.341 316.38Z" fill="#22B573"/>
</g>
<mask id="mask0_8_14319" style="mask-type:alpha" maskUnits="userSpaceOnUse" x="0" y="0" width="313" height="317">
<path d="M312.63 0H0V290.22H84.67C104.687 307.173 130.079 316.459 156.31 316.42C182.546 316.458 207.941 307.168 227.96 290.21H312.63V0Z" fill="#FF0000"/>
</mask>
<g mask="url(#mask0_8_14319)">
<path d="M71.0346 295.969C65.1379 294.454 55.8662 307.609 56.4223 311.108C56.9785 314.608 90.6615 316.689 90.6231 313.649C90.5848 310.61 78.6859 297.934 71.0346 295.969Z" fill="#DBD7C3"/>
<path d="M81.6764 316.583C77.1433 316.561 72.6145 316.299 68.1092 315.797C55.4625 314.378 55.1461 312.403 54.9735 311.339C54.4845 308.27 58.8088 301.636 62.807 297.973C65.9711 295.096 68.9338 293.917 71.4363 294.55C76.5756 295.873 82.4531 301.146 84.735 303.352C85.9623 304.531 92.0795 310.591 92.1179 313.63C92.1179 315.941 88.5991 316.238 86.691 316.401C85.2528 316.526 83.5557 316.583 81.6764 316.583ZM57.8595 310.639C58.9909 311.415 64.2836 312.69 73.4306 313.342C81.8202 313.937 87.2471 313.592 88.9922 313.103C87.5731 309.804 77.4864 299.133 70.6693 297.388C69.2502 297.023 67.1025 298.021 64.7822 300.14C60.7264 303.821 57.965 309.009 57.8595 310.639Z" fill="#5E5B4D"/>
<path d="M71.8588 298.04C66.4511 296.659 57.9561 308.721 58.4355 311.923C58.9149 315.126 89.8173 317.044 89.7886 314.253C89.7598 311.463 78.8581 299.852 71.8588 298.04Z" fill="#A39E89"/>
<path d="M178.574 203.07C185.756 197.317 257.82 201.238 268.837 218.209C262.883 233.867 244.78 234.969 234.991 231.584C225.201 228.2 202.564 227.749 197.597 227.471" fill="#F9BA7A"/>
<path d="M244.848 234.624C241.325 234.645 237.823 234.085 234.483 232.965C226.122 230.089 207.924 229.351 200.157 229.044C199.036 228.996 198.125 228.967 197.502 228.929C197.301 228.931 197.103 228.891 196.918 228.814C196.734 228.736 196.567 228.621 196.429 228.476C196.29 228.332 196.183 228.16 196.113 227.973C196.043 227.785 196.013 227.585 196.023 227.385C196.034 227.185 196.085 226.989 196.174 226.81C196.263 226.63 196.388 226.471 196.541 226.342C196.693 226.213 196.871 226.116 197.063 226.058C197.254 226 197.456 225.982 197.655 226.005C198.269 226.005 199.16 226.072 200.272 226.12C208.173 226.426 226.678 227.165 235.442 230.195C241.107 232.024 247.181 232.173 252.93 230.626C256.088 229.834 259.017 228.319 261.487 226.198C263.957 224.078 265.899 221.412 267.159 218.411C262.845 212.783 249.814 207.864 231.137 204.834C206.208 200.816 182.621 201.679 179.466 204.211C179.162 204.445 178.777 204.55 178.396 204.504C178.014 204.458 177.666 204.263 177.426 203.963C177.187 203.663 177.074 203.281 177.113 202.898C177.152 202.516 177.339 202.165 177.635 201.919C182.736 197.844 210.829 198.592 231.606 201.919C246.075 204.259 264.494 208.842 270.036 217.385C270.162 217.578 270.241 217.799 270.266 218.029C270.291 218.259 270.262 218.492 270.179 218.708C268.83 222.309 266.628 225.528 263.76 228.09C260.893 230.652 257.446 232.48 253.717 233.416C250.828 234.215 247.845 234.621 244.848 234.624Z" fill="#C15621"/>
<path d="M180.215 196.818C189.324 196.972 259 195.485 265.424 199.896C271.848 204.306 291.312 214.374 291.034 220.328C290.756 226.282 263.756 240.31 255.932 242.285C248.108 244.26 221.3 249.639 213.064 257.051" fill="#DBD7C3"/>
<path d="M207.522 215.745C215.192 221.498 217.848 238.584 218.73 240.07C219.613 241.556 256.124 227.385 257.639 222.562C259.154 217.739 249.01 203.021 245.951 201.113C242.892 199.205 203.581 202.322 199.928 204.488C196.275 206.655 203.332 212.629 207.522 215.745Z" fill="#F7F4E7"/>
<path d="M102.656 248.642C89.2534 257.831 74.317 264.553 58.5506 268.49C48.742 270.867 39.499 267.377 36.6226 265.066C33.7462 262.756 46.4696 239.993 54.2264 238.44C61.9832 236.887 81.7347 226.647 93.2404 219.561C106.453 211.43 115.849 211.095 121.765 215.285" fill="#FAA181"/>
<path d="M51.7995 270.752C49.4066 270.747 47.0213 270.484 44.6851 269.966C41.4662 269.356 38.4117 268.075 35.7202 266.207C34.2437 265.018 34.8477 262.573 35.0395 261.768C36.7749 254.692 46.8329 238.421 53.9568 237.002C61.0808 235.583 79.9886 226.004 92.4723 218.315C108.437 208.487 117.67 210.586 122.608 214.086C122.908 214.317 123.108 214.654 123.165 215.028C123.222 215.403 123.132 215.784 122.914 216.094C122.696 216.404 122.367 216.617 121.995 216.69C121.624 216.762 121.239 216.688 120.92 216.483C114.87 212.197 105.579 213.693 94.016 220.808C82.7595 227.749 62.7779 238.229 54.5321 239.878C51.3297 240.511 46.0371 246.321 41.6553 253.982C38.3186 259.821 37.5516 263.206 37.6858 264.031C40.5622 266.207 49.2779 269.237 58.2236 267.06C73.8325 263.192 88.6169 256.544 101.869 247.434C102.027 247.314 102.208 247.227 102.4 247.18C102.593 247.132 102.793 247.123 102.989 247.155C103.185 247.186 103.372 247.258 103.54 247.364C103.707 247.47 103.851 247.609 103.964 247.773C104.076 247.936 104.154 248.121 104.193 248.315C104.232 248.51 104.231 248.711 104.19 248.905C104.149 249.099 104.069 249.283 103.956 249.445C103.842 249.608 103.696 249.745 103.527 249.85C89.9933 259.151 74.8984 265.945 58.9618 269.908C56.6171 270.477 54.2122 270.76 51.7995 270.752Z" fill="#A54A2F"/>
<path d="M225.087 464.144C248.357 463.415 261.809 440.126 256.162 425.322C250.303 409.981 194.414 351.541 185.21 340.812C174.107 327.82 100.892 312.105 93.9786 321.156C87.0656 330.207 82.1948 372.232 116.031 394.659C116.031 394.659 197.732 436.396 200.848 439.502" fill="#DBD7C3"/>
<path d="M161.144 217.059C159.207 217.678 157.212 218.099 155.19 218.315C150.847 218.806 146.452 218.082 142.495 216.224C140.455 215.245 138.582 213.951 136.944 212.389C132.073 207.768 130.28 201.631 132.533 198.17C132.839 197.703 133.218 197.289 133.655 196.943C135.61 195.46 137.707 194.175 139.916 193.107C149.792 188.15 165.699 183.673 174.05 188.448L174.529 188.678C178.336 190.701 201.712 204.383 161.144 217.059Z" fill="#DBD7C3"/>
<path d="M122.581 335.951C118.582 328.731 103.97 310.447 96.012 307.638C88.0538 304.829 9.17239 299.248 4.54133 300.034C1.17601 300.705 -2.1156 301.704 -5.28649 303.016C-5.28649 303.016 -7.92323 302.201 -11.8639 300.715C-15.8047 299.229 -58.5005 294.416 -54.7132 298.356C-50.0247 303.208 -45.5182 313.4 -46.8126 318.98C-48.97 328.29 -67.2449 344.581 -74.4935 348.128C-80.1313 350.89 -89.6523 352.797 -89.6523 352.797C-89.6523 352.797 -66.0943 358.895 -60.0059 361.849C-53.9174 364.802 123.3 396.011 130.855 400.431" fill="#DBD7C3"/>
<path d="M130.856 401.888C130.596 401.892 130.34 401.822 130.118 401.687C126.081 399.328 63.2117 387.439 17.3038 378.752C-29.2657 369.941 -57.9437 364.475 -60.6476 363.172C-66.5347 360.295 -89.7859 354.273 -90.016 354.216C-90.3469 354.141 -90.6415 353.953 -90.8497 353.685C-91.0579 353.417 -91.1667 353.086 -91.1577 352.746C-91.1486 352.407 -91.0223 352.081 -90.8001 351.825C-90.578 351.568 -90.2737 351.397 -89.9393 351.339C-89.853 351.339 -80.5429 349.422 -75.1352 346.785C-67.9537 343.276 -50.2637 327.37 -48.2406 318.625C-47.09 313.649 -51.4142 303.869 -55.7672 299.353C-56.1117 299.048 -56.3352 298.629 -56.3968 298.174C-56.4584 297.718 -56.354 297.255 -56.1028 296.87C-55.4796 295.911 -54.4441 294.338 -33.9639 296.198C-24.8456 297.023 -13.5795 298.48 -11.3455 299.324C-8.46906 300.407 -6.28297 301.136 -5.34334 301.443C-2.22917 300.173 1.00132 299.21 4.30232 298.566C7.01576 298.106 29.4328 299.478 49.146 301.012C61.6776 301.97 91.3816 304.434 96.5016 306.237C105.131 309.276 119.916 328.089 123.866 335.222C124.054 335.563 124.099 335.964 123.992 336.338C123.884 336.712 123.632 337.028 123.291 337.216C122.95 337.404 122.549 337.45 122.175 337.342C121.801 337.234 121.485 336.982 121.297 336.641C117.461 329.767 103.079 311.655 95.5333 308.999C92.2541 307.848 74.3914 305.902 48.9158 303.926C24.8113 302.057 6.64182 301.146 4.81049 301.453C1.55859 302.106 -1.62323 303.069 -4.69134 304.329C-5.01627 304.449 -5.37316 304.449 -5.69809 304.329C-5.81315 304.329 -8.42111 303.485 -12.3618 301.99C-13.848 301.434 -23.0813 300.072 -33.216 299.113C-44.5587 298.049 -50.2732 298.068 -52.6319 298.346C-48.0488 303.821 -44.0506 313.524 -45.3641 319.191C-47.5982 328.779 -66.0553 345.52 -73.8313 349.326C-76.992 350.76 -80.2746 351.909 -83.6399 352.758C-76.2379 354.772 -63.6678 358.32 -59.3436 360.429C-56.8123 361.637 -18.8434 368.819 17.8695 375.77C81.851 387.87 127.462 396.624 131.613 399.06C131.894 399.22 132.113 399.468 132.237 399.766C132.361 400.065 132.382 400.395 132.297 400.707C132.213 401.019 132.028 401.293 131.77 401.488C131.513 401.683 131.198 401.786 130.875 401.783L130.856 401.888Z" fill="#5E5B4D"/>
<path d="M231.626 345.721C215.046 345.817 198.709 341.742 184.117 333.871C183.795 333.675 183.561 333.364 183.463 333.001C183.364 332.638 183.409 332.252 183.587 331.921C183.765 331.59 184.064 331.34 184.421 331.223C184.779 331.106 185.167 331.13 185.507 331.291C219.18 349.509 252.547 341.292 261.972 338.329C269.748 335.874 273.765 333.286 274.187 332.432C274.954 330.86 274.187 327.983 272.068 324.33C271.228 322.899 270.302 321.519 269.297 320.198C265.28 324.675 255.222 330.745 230.226 331.234C212.622 331.56 194.127 328.722 184.203 324.139C184.014 324.068 183.841 323.959 183.696 323.818C183.551 323.678 183.437 323.509 183.36 323.322C183.283 323.135 183.246 322.935 183.25 322.733C183.255 322.531 183.301 322.333 183.385 322.149C183.47 321.966 183.592 321.802 183.743 321.668C183.893 321.534 184.07 321.432 184.262 321.37C184.454 321.307 184.657 321.285 184.858 321.304C185.059 321.324 185.254 321.385 185.43 321.483C194.826 325.826 213.236 328.635 230.159 328.309C249.661 327.945 263.468 323.822 268.051 317.015C268.177 316.826 268.345 316.669 268.543 316.556C268.74 316.443 268.96 316.377 269.187 316.364C269.414 316.351 269.641 316.391 269.85 316.48C270.058 316.57 270.244 316.707 270.39 316.88C271.349 318.002 279.595 327.974 276.805 333.717C275.568 336.258 269.019 339.135 263.295 340.975C253.038 344.145 242.361 345.745 231.626 345.721Z" fill="#0C0C0B"/>
<path d="M162.754 213.645C166.724 217.26 180.262 206.329 173.052 192.101C170.875 187.805 161.853 188.265 154.182 190.096C139.599 193.587 125.178 195.907 133.577 208.266C141.977 220.625 157.203 213.396 163.857 211.862" fill="#A39E89"/>
<path d="M157.327 189.876C161.652 189.119 171.22 193.481 175.104 199.522C178.987 205.562 172.678 224.892 165.391 226.685C158.104 228.478 145.361 202.283 145.361 202.283" fill="#7F7B69"/>
<path d="M99.3287 220.682C92.2527 225.611 110.269 296.495 114.315 303.14C118.361 309.785 169.61 334.781 180.607 326.152C191.605 317.522 205.881 212.331 197.08 201.746C174.96 200.049 132.072 197.93 99.3287 220.682Z" fill="#F9BA7A"/>
<path d="M172.026 202.379C171.365 201.334 164.682 188.802 169.629 175.973L139.781 193.529C145.151 197.844 145.87 206.646 145.87 206.646" fill="#F9BA7A"/>
<path d="M141.804 366.211C140.48 376.355 134.354 384.687 134.354 384.687C134.354 384.687 61.2154 369.835 55.1078 367.016C49.0001 364.197 18.5674 343.123 16.5923 344.053C14.6171 344.983 29.3445 362.922 28.6254 363.497C27.9063 364.073 -45.3086 347.121 -45.3086 347.121C-33.3906 335.893 -28.9321 319.708 -28.4719 317.522C-28.0116 315.336 -33.8124 302.891 -34.1097 302.431C-34.1097 302.431 -11.0311 302.622 -10.5804 303.572C-10.1298 304.521 -16.2278 314.914 -16.2278 314.914C-16.2278 314.914 1.59647 302.987 4.74138 301.999C7.88628 301.011 66.2875 305.058 70.7939 306.611C78.7904 313.965 97.2955 348.492 98.5995 356.814C108.13 350.764 121.726 342.384 121.726 342.384C134.123 349.527 140.873 362.798 141.804 366.211Z" fill="#F7F4E7"/>
<path d="M141.237 334.456C124.286 336.92 106.279 345.693 97.6498 351.455C96.7485 335.357 78.8667 300.216 71.0332 295.969C77.6202 296.726 98.6086 307.245 102.156 313.113" fill="#DBD7C3"/>
<path d="M97.6519 352.922C97.4256 352.923 97.2023 352.87 97 352.768C96.7697 352.653 96.5741 352.478 96.4327 352.263C96.2913 352.047 96.2092 351.798 96.1945 351.541C95.2357 335.03 77.1525 300.954 70.3066 297.253C70.0108 297.089 69.7808 296.828 69.6554 296.514C69.53 296.2 69.5169 295.852 69.6184 295.53C69.7199 295.207 69.9298 294.93 70.2124 294.744C70.4951 294.558 70.8332 294.476 71.1696 294.511C78.2168 295.326 99.5408 306.017 103.386 312.355C103.586 312.688 103.647 313.087 103.553 313.465C103.46 313.842 103.22 314.167 102.887 314.368C102.562 314.565 102.173 314.625 101.803 314.537C101.434 314.449 101.114 314.22 100.912 313.898C98.3423 309.66 84.9668 302.335 76.4238 299.065C80.4221 303.946 84.8422 311.702 88.2556 318.654C94.0084 330.313 97.8437 341.378 98.8792 348.962C109.139 342.566 125.927 335.222 141.067 333.036C141.268 332.978 141.479 332.964 141.686 332.994C141.894 333.025 142.092 333.099 142.268 333.212C142.444 333.325 142.593 333.475 142.707 333.651C142.82 333.827 142.895 334.026 142.925 334.233C142.955 334.44 142.941 334.651 142.883 334.852C142.825 335.053 142.725 335.24 142.588 335.399C142.452 335.558 142.284 335.686 142.094 335.775C141.905 335.863 141.698 335.91 141.489 335.912C123.425 338.54 105.476 348.032 98.5053 352.682C98.2526 352.849 97.9544 352.933 97.6519 352.922Z" fill="#5E5B4D"/>
<path d="M192.238 320.61C192.238 320.61 191.998 332.02 189.774 338.617C168.143 346.038 119.924 334.408 100.748 313.582C102.033 308.596 106.913 301.252 106.913 301.252" fill="#232322"/>
<path d="M173.455 342.346C163.484 342.203 153.572 340.782 143.962 338.118C124.882 333.074 108.754 324.445 99.6649 314.579C99.4997 314.398 99.3825 314.179 99.3239 313.941C99.2653 313.703 99.2671 313.455 99.3293 313.218C100.662 308.059 105.494 300.753 105.696 300.446C105.912 300.122 106.248 299.897 106.63 299.821C107.012 299.744 107.409 299.823 107.733 300.039C108.057 300.255 108.283 300.591 108.359 300.973C108.435 301.355 108.357 301.752 108.141 302.076C108.093 302.143 103.855 308.538 102.388 313.189C111.199 322.412 126.569 330.448 144.719 335.29C161.758 339.844 178.47 340.659 188.604 337.466C190.522 331.071 190.771 320.696 190.771 320.591C190.781 320.208 190.94 319.843 191.214 319.575C191.487 319.307 191.855 319.155 192.238 319.153C192.431 319.156 192.621 319.198 192.797 319.275C192.974 319.353 193.134 319.464 193.267 319.603C193.401 319.741 193.506 319.905 193.576 320.085C193.646 320.264 193.68 320.456 193.676 320.648C193.676 321.128 193.398 332.365 191.136 339.086C191.069 339.306 190.952 339.507 190.793 339.673C190.635 339.84 190.441 339.967 190.225 340.045C184.794 341.707 179.132 342.484 173.455 342.346Z" fill="#0C0C0B"/>
<path d="M205.22 202.206C197.089 199.982 185.449 199.167 180.597 197.479C192.467 222.092 160.75 229.753 150.107 241.729C143.731 231.642 129.531 202.561 125.034 203.875C120.537 205.188 98.801 211.823 93.9207 217.672C87.2665 225.659 94.4385 243.148 94.4385 243.148C96.4136 249.61 105.043 284.06 105.033 292.172C104.305 294.195 102.253 299.67 105.647 303.563C120.595 318.213 173.953 329.546 193.167 323.698C195.478 322.998 204.155 313.601 205.009 308.941C206.476 300.964 218.48 257.779 212.181 228.401" fill="#DBD7C3"/>
<path d="M107.864 209.762C90.3752 215.793 50.6804 236.791 45.1193 237.903C39.5582 239.016 28.0621 255.21 29.7783 260.637C31.4946 266.064 50.2586 280.033 56.9606 281.481C63.6627 282.929 83.9224 272.564 89.8862 271.615C94.927 270.979 100.003 270.658 105.083 270.656" fill="#DBD7C3"/>
<path d="M106.713 211.152C100.347 212.715 58.8397 233.819 56.5481 236.129C54.2565 238.44 59.4245 243.733 60.9298 247.635C62.4352 251.538 56.3947 268.729 59.1177 269.438C61.8407 270.148 97.4702 257.635 98.6975 254.222C99.9247 250.808 85.9165 234.768 87.3451 234.001C88.7738 233.234 105.352 248.316 109.906 247.625C114.46 246.935 111.239 210.04 106.713 211.152Z" fill="#F7F4E7"/>
<path d="M198.575 304.541C196.609 309.44 178.219 319.651 175.563 319.479C172.907 319.306 181.556 309.066 184.193 306.2C186.829 303.333 186.599 296.851 185.727 295.461C184.854 294.07 173.022 312.902 170.386 315.951C167.749 319 150.548 317.312 148.716 316.353C146.885 315.394 151.89 304.406 151.593 302.795C151.296 301.185 145.629 300.025 142.523 304.263C139.416 308.501 144.085 313.755 142.331 315.039C140.576 316.324 133.836 315.759 131.458 312.163C130.873 302.632 138.917 285.048 145.332 277.329C151.746 269.611 174.988 244.356 181.633 234.48C181.633 234.48 193.742 220.204 191.585 205.467C191.259 203.204 207.77 203.127 209.505 207.096C211.241 211.066 211.317 272.67 198.575 304.541Z" fill="#F7F4E7"/>
<path d="M168.631 241.288C168.631 241.288 159.043 253.062 154.911 254.299C141.861 229.369 124.631 212.868 124.344 204.718C126.707 201.697 129.402 198.95 132.379 196.53C135.15 194.277 138.016 192.561 139.944 192.868C139.937 192.967 139.937 193.066 139.944 193.165C139.838 194.383 139.771 199.119 144.019 205.083C145.236 206.78 148.055 209.877 151.382 213.77C152.6 215.198 153.894 216.732 155.218 218.343C161.009 225.496 167.116 234.087 168.631 241.288Z" fill="#DBD7C3"/>
<path d="M139.034 201.382C142.064 208.151 155.113 220.213 160.003 228.047C156.618 232.189 149.168 241.182 149.168 241.182C140.204 226.982 128.707 215.889 125.562 206.78C127.624 202.331 136.109 198.707 136.109 198.707C136.109 198.707 137.059 198.017 139.034 201.382Z" fill="#F7F4E7"/>
<path d="M97.7654 218.449C100.153 223.023 110.326 247.462 108.993 270.042C108.792 273.427 113.03 284.895 113.03 284.895C113.03 284.895 107.037 295.441 112.637 302.421C113.289 270.32 145.792 243.503 145.792 243.503C145.792 243.503 125.897 216.656 123.222 206.761C114.573 207.911 96.7107 216.426 97.7654 218.449Z" fill="#F7F4E7"/>
<path d="M172.583 191.382C177.243 199.407 175.603 205.169 170.733 215.304C165.766 225.64 135.257 259.956 127.375 269.391C120.079 278.097 114.767 294.118 116.224 304.665C118.803 307.379 131.565 312.336 131.565 312.336C131.565 312.336 138.277 282.382 149.284 270.042C160.291 257.702 183.341 230.731 188.595 220.184C193.849 209.637 190.292 205.908 188.931 203.453C187.147 200.222 176.591 189.617 174.002 188.515" fill="#DBD7C3"/>
<path d="M175.495 194.708C177.336 200.193 177.135 208.065 171.392 215.706C165.648 223.348 152.973 241.594 143.586 252.477C132.598 265.267 127.957 269.63 123.691 276.888C119.424 284.146 110.545 302.287 112.751 307.57C114.371 309.555 115.215 306.151 116.059 302.517C116.902 298.883 120.479 289.266 123.115 285.757C129.827 281.462 141.994 276.025 141.994 276.025C151.966 262.659 177.394 233.377 180.807 227.021C184.221 220.664 184.642 218.794 184.642 218.794L179.072 207.106C179.817 204.665 180.001 202.086 179.609 199.564C179.217 197.042 178.26 194.641 176.809 192.542C173.712 189.253 174.182 190.796 175.495 194.708Z" fill="#F7F4E7"/>
<path d="M242.651 239.197C239.334 239.284 232.708 234.643 230.273 231.929C227.837 229.216 224.031 203.961 225.91 199.254C227.789 194.546 230.704 189.1 233.629 190.346C236.553 191.593 255.585 201.775 259.095 211.057C262.604 220.338 250.648 238.986 242.651 239.197Z" fill="#DBD7C3"/>
<path d="M244.233 236.378C241.212 236.455 235.172 232.227 232.957 229.753C230.742 227.28 227.271 204.268 228.978 199.982C230.685 195.696 233.379 190.729 236.016 191.87C238.652 193.011 256.026 202.283 259.219 210.73C262.412 219.177 251.52 236.177 244.233 236.378Z" fill="#A39E89"/>
<path d="M238.176 193.414C234.609 191.928 232.672 204.297 236.996 214.892C241.321 225.487 245.856 238.699 253.91 230.357C261.964 222.016 260.353 208.122 253.267 201.9" fill="#7F7B69"/>
<path d="M223.073 193.539C218.087 187.911 210.417 173.471 207.33 172.685C202.353 171.4 192.775 176.856 190.464 179.742C187.846 183.011 189.227 187.738 189.227 187.738L189.035 197.326" fill="#F9BA7A"/>
<path d="M205.192 178.303C201.232 176.597 190.426 181.927 188.001 185.686C186.361 188.246 188.422 190.998 188.422 190.998" fill="#F9BA7A"/>
<path d="M202.67 183.951C199.036 182.283 189.16 187.268 187.08 190.806C185.565 193.395 187.08 196.396 187.08 196.396" fill="#F9BA7A"/>
<path d="M223.074 193.539C223.671 194.148 224.399 194.614 225.202 194.9C225.912 201.775 221.971 209.091 219.775 210.951C219.775 210.951 216.276 209.11 215.24 209.484C210.274 211.967 205.096 209.771 202.057 204.603C197.617 197.038 196.773 196.511 196.773 196.511C196.773 196.511 193.283 198.592 191.931 198.611C193.283 198.611 196.323 196.559 196.773 196.511C197.224 196.463 198.49 198.228 197.454 200.116C196.419 202.005 193.379 204.105 191.912 203.731C189.592 203.137 186.39 199.896 186.735 197.019C187.08 194.143 196.601 187.776 200.235 189.435" fill="#F9BA7A"/>
<path d="M200.139 198.227C200.139 199.886 203.552 205.841 205.978 207.624C208.404 209.407 210.705 208.861 210.35 207.825C209.525 205.39 200.177 196.559 200.139 198.227Z" fill="#FFDA9F"/>
<path d="M204.818 173.567C206.342 173.797 205.383 176.05 203.715 176.443C202.047 176.836 192.813 180.652 192.209 179.914C191.605 179.175 200.436 172.896 204.818 173.567Z" fill="#FFDA9F"/>
<path d="M202.275 178.946C203.598 178.946 202.342 181.985 200.808 182.139C199.274 182.292 189.733 187.393 189.973 185.418C190.136 184.21 196.723 178.888 202.275 178.946Z" fill="#FFDA9F"/>
<path d="M199.132 184.296C200.349 184.219 200.091 186.885 198.125 187.47C196.159 188.055 188.997 192.503 188.738 191.171C188.479 189.838 194.76 184.565 199.132 184.296Z" fill="#FFDA9F"/>
<path d="M196.639 190.212C197.952 189.867 197.78 192.302 196.063 193.28C194.347 194.258 189.007 197.327 188.316 196.396C187.626 195.466 192.631 191.295 196.639 190.212Z" fill="#FFDA9F"/>
<path d="M217.359 209.867C224.387 213.175 252.663 225.879 261.752 226.589C278.397 227.893 287.276 221.287 289.376 216.128C291.476 210.97 276.441 195.811 269.998 194.469C254.657 191.257 238.866 198.304 223.515 193.98" fill="#F9BA7A"/>
<path opacity="0.25" d="M238.424 194.795C241.195 198.764 247.753 207.173 245.404 215.169C244.684 217.301 243.453 219.224 241.818 220.769C241.818 220.769 254.426 227.481 259.805 224.01C265.184 220.539 246.104 194.699 246.104 194.699L238.424 194.795Z" fill="#591507"/>
<path d="M290.86 221.105C293.736 212.763 287.84 202.888 275.433 194.258C270.566 191.051 265.004 189.052 259.21 188.429C254.674 187.882 238.039 189.646 238.039 189.646C253.553 207.346 256.841 216.694 251.53 227.893C260.063 228.967 258.817 229.13 263.754 230.473C266.631 231.259 271.597 230.425 276.602 228.68" fill="#DBD7C3"/>
<path d="M232.642 192.887C233.447 191.276 236.601 191.602 239.238 194.383C241.875 197.163 253.467 214.086 251.626 220.673C250.399 225.055 244.579 234.528 241.443 234.662C239.526 234.739 234.674 231.997 234.674 231.997C234.674 231.997 232.018 233.071 233.811 234.874C236.214 236.96 239.016 238.536 242.047 239.505C247.455 240.732 255.279 240.463 256.813 239.811C259.776 238.488 264.695 230.08 266.286 224.94C267.878 219.801 263.717 200.347 249.938 189.829C247.11 188.237 234.597 188.016 232.469 188.87C230.34 189.723 228.893 193.271 228.893 193.271" fill="#DBD7C3"/>
<path d="M231.232 231.488C229.899 229.12 229.947 225.975 231.568 228.526C232.987 230.779 238.778 235.918 242.047 235.141C245.317 234.365 253.007 223.827 253.476 219.062C253.946 214.297 247.609 202.053 241.28 195.006C238.241 191.794 236.918 190.672 234.952 190.71C232.316 190.576 230.724 193.683 230.292 192.839C229.861 191.995 231.548 189.876 233.648 189.118C235.748 188.361 247.139 189.023 249.229 189.943C251.319 190.864 266.325 206.243 265.126 221.68C264.714 222.84 258.031 221.565 256.852 222.965C255.672 224.365 247.781 236.493 243.064 237.596C240.408 238.267 232.574 233.847 231.232 231.488Z" fill="#F7F4E7"/>
<path d="M253.361 190.135C253.361 190.135 264.647 202.043 266.785 209.196C267.633 212.74 268.162 216.354 268.367 219.992C268.367 219.992 283.228 217.183 285.29 210.404C286.738 205.687 275.702 193.692 266.43 191.123C262.161 190.059 257.742 189.724 253.361 190.135Z" fill="#F7F4E7"/>
<path d="M186.983 326.708C185.219 331.502 180.099 338.214 180.099 338.214C158.813 341.177 135.341 333.353 124.306 328.358C123.759 324.81 122.877 315.586 122.877 315.586C146.502 324.906 177.951 328.329 186.983 326.708Z" fill="#383835"/>
<path d="M22.3555 264.999C22.9979 270.014 24.7237 276.227 26.4975 278.72C29.8342 283.389 51.2445 291.769 60.8901 288.643C66.317 286.889 69.7975 276.533 70.7563 271.078C71.7151 265.622 68.0428 251.461 62.9516 245.037C57.8603 238.613 22.3555 264.999 22.3555 264.999Z" fill="#DBD7C3"/>
<path d="M25.6451 244.298C24.4083 246.504 20.4196 262.573 23.4015 267.185C28.8763 275.68 55.1094 283.408 60.45 278.307C65.4358 273.561 68.1876 251.346 62.0896 243.483C51.9358 230.415 33.5266 230.214 25.6451 244.298Z" fill="#F7F4E7"/>
<path d="M29.201 243.905C27.5902 245.516 24.2152 260.895 26.8999 265.056C31.8473 272.727 51.1578 279.103 57.9654 274.827C62.443 272.008 64.5716 252.889 60.0844 245.794C52.0975 233.138 39.3453 233.684 29.201 243.905Z" fill="#A39E89"/>
<path d="M30.1487 243.752C26.5532 250.051 28.3078 262.928 33.1977 267.991C38.0877 273.053 56.6695 278.068 59.7664 272.584C62.8634 267.099 65.6152 248.747 58.2323 242.793C50.8495 236.839 32.8334 239.015 30.1487 243.752Z" fill="#7F7B69"/>
<path d="M53.545 271.164C44.9157 273.245 35.6153 265.776 31.9334 259.611C28.2516 253.445 30.9171 238.268 29.709 222.85C29.709 222.85 49.1824 217.519 50.2371 221.143C50.8699 223.291 53.3245 228.507 56.6899 237.002C59.4801 244.039 62.8935 248.431 62.2606 256.178C61.7141 263.618 56.805 270.397 53.545 271.164Z" fill="#E09A5A"/>
<path d="M36.2287 226.752C34.1833 226.841 32.1502 226.394 30.3306 225.455C28.511 224.517 26.968 223.119 25.8544 221.401C23.6491 217.768 20.7439 206.061 21.3959 204.69C22.4986 202.35 48.5495 195.101 50.841 196.904C53.1326 198.707 53.3819 200.739 55.6351 201.871C57.8883 203.002 60.6497 203.443 60.5154 206.895C60.3812 210.347 57.4952 215.457 55.7885 218.401C54.0818 221.344 49.6425 226.944 43.6404 225.39" fill="#F9BA7A"/>
<path d="M33.4297 211.469C37.1786 213.674 40.1414 218.017 40.5537 221.575L33.4297 211.469Z" fill="#F9BA7A"/>
<path d="M49.1366 213.031C45.8692 214.692 43.344 217.518 42.0605 220.951L49.1366 213.031Z" fill="#F9BA7A"/>
<path d="M48.7815 186.981C47.8226 186.022 42.5492 186.569 42.252 188.985C41.9547 191.401 48.5418 199.742 48.6089 201.219C48.676 202.696 47.4295 207.202 49.5677 207.729C51.7058 208.257 55.2438 202.168 54.9754 199.378C54.7069 196.588 50.632 188.726 48.7815 186.981Z" fill="#F9BA7A"/>
<path d="M41.1484 188.582C40.3871 187.986 39.4551 187.65 38.4889 187.622C37.5227 187.595 36.5731 187.877 35.779 188.429C34.1395 189.752 33.8614 191.794 34.2162 192.6C34.5709 193.405 41.5415 202.744 42.2318 204.345C42.9222 205.946 42.5386 209.714 44.7535 210.098C46.9683 210.481 49.2695 204.402 48.5887 201.257C47.908 198.113 42.9605 190.49 41.1484 188.582Z" fill="#F9BA7A"/>
<path d="M27.946 196.099C27.946 194.047 31.7813 191.305 34.2166 192.599C36.652 193.894 41.9734 202.657 42.3665 204.767C42.7597 206.876 42.7884 213.051 39.6148 213.396C37.2849 213.674 36.489 207.777 35.6644 206.492C34.1303 204.105 27.8693 199.263 27.946 196.099Z" fill="#F9BA7A"/>
<path d="M21.3307 205.304C21.3173 204.171 21.5368 203.048 21.9755 202.004C22.4142 200.96 23.0628 200.017 23.8811 199.234C25.4056 197.988 27.1411 197.24 28.4642 197.863C29.7874 198.486 36.499 205.16 37.1894 207.451C37.8797 209.743 38.7139 217.039 36.5758 217.739C34.4376 218.439 32.0694 216.943 30.9859 210.414C29.0944 209.096 27.4326 207.477 26.0672 205.62" fill="#F9BA7A"/>
<path d="M54.0628 210.625C54.0628 210.625 52.4712 212.687 48.262 212.687C44.0528 212.687 43.3241 208.919 45.4718 207.825C49.9207 205.563 52.8259 200.749 55.0024 200.376C56.9872 200.04 60.4869 201.938 60.5636 204.288C60.3881 207.594 59.6183 210.842 58.2912 213.876" fill="#F9BA7A"/>
<path d="M48.1752 187.585C46.948 186.626 43.6305 187.585 44.2249 189.119C44.8194 190.653 49.6135 199.58 50.5051 200.136C50.8008 200.316 51.1363 200.421 51.482 200.442C51.8277 200.463 52.1732 200.398 52.4883 200.254C52.8034 200.11 53.0784 199.892 53.2893 199.617C53.5002 199.342 53.6405 199.02 53.698 198.678C54.2637 196.694 49.4984 188.61 48.1752 187.585Z" fill="#FFDA9F"/>
<path d="M40.6019 189.339C39.5088 188.457 36.2585 188.888 36.92 191.007C37.5816 193.126 43.229 201.947 44.2262 202.513C45.2234 203.079 47.4286 203.289 47.4478 201.142C47.467 198.994 42.7209 191.065 40.6019 189.339Z" fill="#FFDA9F"/>
<path d="M33.6887 193.472C32.5189 192.81 29.4699 194.661 30.7355 196.453C32.0012 198.246 37.6581 205.083 38.9717 205.955C40.2853 206.828 41.9153 206.147 41.3687 204.508C40.8222 202.868 36.2487 194.9 33.6887 193.472Z" fill="#FFDA9F"/>
<path d="M28.0425 198.841C26.8536 198.314 24.0251 198.765 25.2716 201.373C26.518 203.981 31.9833 208.18 33.2872 208.66C34.5912 209.139 36.4034 208.66 35.8952 207.327C35.387 205.994 30.1423 199.8 28.0425 198.841Z" fill="#FFDA9F"/>
<path d="M54.7729 201.343C55.7318 200.922 58.4836 202.648 57.9562 204.585C57.4289 206.521 54.2264 209.81 50.5733 210.567C46.9203 211.325 44.7534 209.503 47.3805 207.758C50.0077 206.013 52.8553 202.168 54.7729 201.343Z" fill="#FFDA9F"/>
<path d="M32.5011 230.578C30.7944 230.808 30.2287 251.499 33.6708 257.952C37.113 264.404 42.7124 264.606 44.4958 263.973C46.2792 263.34 35.6172 230.156 32.5011 230.578Z" fill="#F9BA7A"/>
<path opacity="0.25" d="M174.538 188.745C170.77 197.94 160.156 208.88 151.354 213.77C147.988 215.63 144.872 216.646 142.494 216.253C142.108 216.2 141.728 216.103 141.363 215.965C139.576 215.248 138.039 214.021 136.943 212.437C134.249 208.746 133.031 203.156 132.532 198.218C132.475 197.652 132.427 197.086 132.379 196.53C135.15 194.277 138.017 192.561 139.944 192.868C139.937 192.967 139.937 193.066 139.944 193.165C149.82 188.208 165.726 183.73 174.078 188.505L174.538 188.745Z" fill="#591507"/>
<path d="M98.7144 349.653C95.0038 329.096 81.964 304.195 74.0059 297.081C82.6352 300.226 89.5482 304.617 91.6384 306.755C100.153 314.982 111.332 330.496 127.354 335.213C111.294 339.863 99.5486 347.371 98.7144 349.653Z" fill="#F7F4E7"/>
<path d="M172.199 28.4408C165.631 10.0891 186.063 -0.323531 197.243 8.1236C212.306 -4.07248 233.524 16.2351 232.844 31.3748C232.278 44.0695 223.764 62.728 200.57 55.4219C177.376 48.1157 172.199 28.4408 172.199 28.4408Z" fill="#160A05"/>
<path d="M202.076 25.296C196.448 16.4653 183.053 26.9741 187.463 34.5966C178.412 29.9943 183.887 21.7292 190.167 19.1021C180.829 22.6113 178.729 27.5685 178.575 28.7862C174.347 18.2872 181.097 13.033 185.287 12.0838C178.719 11.125 174.309 18.287 174.309 18.287C174.309 18.287 176.36 8.64122 183.695 5.6689C190.062 3.0897 197.656 5.94696 201.376 13.3394C198.068 10.0507 194.357 7.95108 191.606 9.955C195.096 9.85911 206.045 16.1202 202.076 25.296Z" fill="#30170F"/>
<path d="M200.81 8.99658C207.521 2.2849 223.428 4.94081 230.782 20.5023C238.136 36.0638 229.286 46.3901 227.062 47.6749C233.534 38.3936 235.078 27.7221 227.474 19.9461C219.871 12.1702 214.549 15.0369 214.549 15.0369C220.619 14.8356 229.958 20.5311 229.89 34.4243C229.823 48.3175 216.227 57.0715 204.808 49.6407C193.388 42.21 200.656 23.4745 212.373 27.5015C224.09 31.5285 214.195 43.6579 208.835 38.4707C202.066 40.791 205.47 50.264 214.732 50.1393C223.994 50.0147 233.841 36.0639 223.543 28.0291C213.245 19.9942 206.285 22.9282 202.967 26.8114C203.772 18.5272 213.955 15.9479 218.893 20.1475C212.181 16.4177 207.023 16.4752 204.568 17.0697C204.568 11.9976 211.011 8.14324 214.866 9.9554C205.978 8.47883 203.897 12.4002 203.897 12.4002L200.81 8.99658Z" fill="#30170F"/>
<path d="M200.195 22.0264C197.137 19.9458 189.581 23.714 188.565 23.8003C186.791 21.154 192.285 18.2393 194.049 17.9229C192.27 17.6644 190.456 17.7826 188.725 18.2698C186.994 18.7571 185.384 19.6022 184.001 20.7511C184.001 20.7511 182.16 16.9163 183.042 14.4617C183.924 12.0072 190.415 7.94143 198.623 13.3395C192.055 11.7479 189.035 13.3395 189.035 13.3395C196.475 13.5025 196.274 14.6627 198.623 16.4365C200.972 18.2103 200.195 22.0264 200.195 22.0264Z" fill="#4C2B25"/>
<path d="M195.171 8.03768C188.719 6.60905 182.17 9.9553 182.17 9.9553C187.338 3.32991 188.93 2.78339 195.171 8.03768Z" fill="#4C2B25"/>
<path d="M225.997 17.3384C217.684 11.806 213.36 15.4207 213.36 15.4207C221.625 17.0795 226.131 21.1159 223.648 25.5552C217.253 19.2654 210.627 19.5148 207.032 22.0365C209.62 19.7796 212.967 18.5873 216.399 18.6998C211.759 15.3056 208.585 15.4971 208.585 15.4971L207.626 11.365C209.329 10.468 211.2 9.9362 213.121 9.80412C215.041 9.67203 216.967 9.94232 218.777 10.5977C211.634 5.59267 205.152 8.68004 205.152 8.68004C209.879 2.99429 223.034 7.46261 225.997 17.3384Z" fill="#4C2B25"/>
<path d="M220.761 28.0957C231.787 37.9139 222.238 54.6742 210.387 43.6478C218.402 43.5136 222.554 34.165 220.761 28.0957Z" fill="#30170F"/>
<path d="M195.449 7.65409C189.897 -0.975217 169.302 5.41058 172.437 19.7544C163.587 7.7405 192.879 -3.42039 196.475 8.16205" fill="#160A05"/>
<path d="M199.198 9.955C197.021 4.13502 206.044 -1.33997 210.454 0.673537C204.462 -2.26043 191.01 5.0169 197.827 10.4438C203.57 13.3777 199.198 9.955 199.198 9.955Z" fill="#160A05"/>
<path d="M179.916 31.4043C169.369 41.6252 195.526 66.8802 208.249 55.0197C220.972 43.1592 192.649 19.026 179.916 31.4043Z" fill="#E04469"/>
<path d="M200.233 59.6022C198.628 59.5879 197.032 59.359 195.487 58.9215C190.538 57.3962 186.077 54.5957 182.553 50.8006C175.448 43.3411 173.981 35.1237 178.89 30.3584C182.725 26.6383 188.162 25.5647 194.231 27.3289C202.755 29.8122 210.799 37.4921 212.544 44.8174C213.101 46.8183 213.086 48.9352 212.501 50.928C211.916 52.9207 210.786 54.7101 209.236 56.0933C206.805 58.3874 203.576 59.6455 200.233 59.6022ZM188.727 29.4188C187.298 29.3854 185.875 29.6372 184.543 30.159C183.212 30.6808 181.997 31.4626 180.971 32.4587C177.922 35.4214 177.893 41.6249 184.71 48.7585C191.124 55.4701 201.211 59.5929 207.29 53.9167C208.457 52.8854 209.307 51.544 209.741 50.0487C210.176 48.5534 210.177 46.9655 209.745 45.4696C208.22 39.0743 201.067 32.3243 193.445 30.1286C191.901 29.6668 190.3 29.4276 188.689 29.4188H188.727Z" fill="#821030"/>
<path d="M204.662 39.1128C202.045 35.1337 195.41 31.4424 190.05 30.7808C184.882 30.1767 183.262 33.0527 188.295 34.6731C193.28 36.238 197.723 39.1758 201.115 43.1494C203.435 46.0737 206.685 42.1906 204.662 39.1128Z" fill="#FC638E"/>
<path d="M92.8766 110.036C87.8332 48.4992 132.245 20.0322 178.987 30.3298C214.07 38.0674 240.399 74.3873 228.644 120.573C215.825 170.949 189.218 155.503 186.006 155.541" fill="#160A05"/>
<path d="M96.5387 118.732C92.9239 118.579 85.2247 107.399 76.7871 114.024C71.6 118.09 76.116 141.456 90.7283 143.335C96.8167 144.112 99.8945 135.339 99.8945 135.099" fill="#F9BA7A"/>
<path d="M91.5044 144.851C91.1836 144.851 90.8632 144.829 90.5456 144.784C81.6958 143.652 76.3552 135.339 74.3225 127.928C72.7596 122.271 72.635 115.463 75.8853 112.874C82.597 107.581 88.8964 112.136 93.0577 115.147C94.4096 116.105 95.9341 117.237 96.6053 117.265C96.9943 117.282 97.3609 117.452 97.6243 117.739C97.8878 118.026 98.0265 118.406 98.0099 118.795C97.9934 119.184 97.823 119.55 97.5362 119.814C97.2494 120.077 96.8697 120.216 96.4806 120.2C94.9369 120.132 93.3453 118.972 91.3318 117.515C86.4419 113.967 82.3286 111.542 77.6975 115.176C76.1346 116.403 75.5018 121.216 77.1414 127.151C78.9344 133.652 83.4887 140.929 90.9195 141.878C92.8371 142.127 94.611 141.149 96.2505 139.002C97.187 137.728 97.936 136.327 98.4749 134.841C98.5558 134.494 98.7604 134.19 99.0502 133.984C99.3401 133.778 99.6952 133.685 100.049 133.723C100.402 133.76 100.73 133.926 100.97 134.188C101.21 134.451 101.345 134.792 101.351 135.147C100.552 138.071 98.9471 140.713 96.7203 142.77C95.2971 144.082 93.4399 144.823 91.5044 144.851Z" fill="#C15621"/>
<path d="M91.4958 122.721C88.9741 116.163 81.505 115.204 79.4531 116.374C85.9155 121.724 91.1506 136.509 90.5466 139.27" fill="#F49045"/>
<path d="M98.475 77.5708C110.556 53.8785 141.622 32.2383 184.27 53.0157C235.508 77.9448 202.573 149.597 193.56 166.376C182.275 187.403 146.32 196.099 129.857 193.491C117.699 191.525 96.2027 178.888 89.28 156.097C87.0077 148.58 88.2925 97.5332 98.475 77.5708Z" fill="#F9BA7A"/>
<path d="M97.0774 96.5455C104.499 71.8082 140.723 62.2582 168.528 80.7345C201.914 102.941 187.35 152.176 179.746 166.337C170.225 184.066 141.173 192.101 127.29 189.857C115.295 187.939 96.1953 173.883 91.4588 153.067C90.778 150.152 91.6314 114.638 97.0774 96.5455Z" fill="#FFDA9F"/>
<path d="M118.17 104.341C115.964 97.7439 94.7458 98.3577 92.0898 106.853C99.7124 100.084 118.985 106.795 118.17 104.341Z" fill="#763400"/>
<path d="M203.504 136.259C203.504 136.259 218.404 123.891 226.151 133.153C232.508 140.776 217.752 161.236 203.868 161.773C196.744 162.042 193.993 152.396 194.012 152.185" fill="#F9BA7A"/>
<path d="M202.544 142.568C211.634 134.371 221.318 133.239 224.53 137.774C218.614 138.484 207.923 143.441 207.271 146.404C210.052 150.757 204.395 153.46 201.883 152.904C209.151 148.321 202.544 142.568 202.544 142.568Z" fill="#F49045"/>
<path d="M119.205 148.427C115.83 147.113 119.685 152.722 125.917 154.18C132.149 155.637 139.235 153.355 138.957 151.907C138.679 150.459 129.637 150.949 126.713 150.632C124.12 150.248 121.594 149.505 119.205 148.427Z" fill="#F9BA7A"/>
<path d="M125.11 143.814C122.77 144.447 122.003 148.206 124.765 148.532C127.526 148.858 127.842 143.066 125.11 143.814Z" fill="#FFE9C7"/>
<path d="M137.125 143.795C137.854 144.994 139.445 146.202 140.126 147.813C140.951 149.807 138.429 152.751 138.429 152.751L135.859 150.967C136.487 150.796 137.064 150.475 137.542 150.033C138.019 149.591 138.383 149.039 138.602 148.427C139.263 146.375 137.125 143.795 137.125 143.795Z" fill="#F9BA7A"/>
<path d="M130.903 151.735C132.523 151.371 137.192 153.211 135.188 153.653C133.184 154.094 128.199 152.349 130.903 151.735Z" fill="#ED8B43"/>
<path d="M120.355 150.498C121.314 149.769 125.331 150.728 124.008 151.696C122.963 152.492 119.252 151.322 120.355 150.498Z" fill="#ED8B43"/>
<path d="M89.7586 114.629C88.33 113.756 84.8974 111.868 81.8676 111.954C75.9997 69.21 113.508 24.3187 161.746 28.643C215.392 33.437 232.832 82.7774 215.257 128.542C210.406 130.565 201.652 148.178 197.797 147.718C202.429 132.147 198.545 114.38 195.324 107.936C197.699 110.863 199.637 114.118 201.077 117.601C199.159 102.558 186.694 82.3841 176.08 75.0779C176.08 75.0779 180.491 72.8918 186.905 75.0779C179.024 70.6003 174.594 73.9273 172.034 71.7029C169.474 69.4785 179.973 55.8156 179.973 55.8156C173.798 61.3671 169.944 66.1228 165.927 67.8007C161.909 69.4786 138.255 67.9924 122.732 63.8887C125.603 65.8692 128.711 67.4799 131.985 68.6827C125.436 69.5265 118.216 69.8907 112.022 73.0643C92.7884 82.9209 89.7586 114.629 89.7586 114.629Z" fill="#160A05"/>
<path d="M229.075 79.4214C216.812 87.763 189.476 84.9729 185.238 82.5183C188.978 91.6462 201.279 105.808 213.36 92.9693C208.231 102.193 199.764 104.197 197.166 103.871C200.042 114.955 234.291 111.378 231.884 88.1462C230.542 81.8372 224.118 101.052 210.656 102.951C228.73 92.2791 231.808 81.4924 229.075 79.4214Z" fill="#30170F"/>
<path d="M165.064 64.032C155.696 67.1386 118.446 60.3502 111.37 57.3204C115.625 61.8634 120.79 65.4574 126.529 67.8673C115.58 69.5069 101.936 69.7852 96.806 64.3008C99.0044 68.863 102.827 72.4396 107.525 74.3299C95.5308 78.6733 92.8557 67.1961 93.1433 62.3541C93.431 57.5121 99.2989 52.2964 101.581 52.258C102.396 46.2751 118.331 32.4683 129.597 33.1778C139.022 35.5748 153.472 53.1401 153.472 53.1401C150.538 43.8971 136.434 32.3528 138.054 29.6777C140.547 25.5644 161.161 34.1174 167.662 46.7833C166.023 33.8489 157.355 30.7711 156.224 29.5247C156.55 24.9224 186.963 25.4206 192.083 37.051C191.124 42.3819 181.536 48.605 179.542 48.4804C180.644 41.1455 171.67 34.7021 171.67 34.7021C175.39 42.1233 176.982 51.4045 174.978 53.9645C173.779 55.4794 170.941 58.5863 170.941 58.5863C167.499 52.565 159.042 47.3872 159.042 47.3872C164.987 53.7921 165.064 64.032 165.064 64.032Z" fill="#30170F"/>
<path d="M88.8574 69.9771C91.8872 78.1653 101.638 76.6405 103.968 75.2407C97.1703 84.8288 94.5144 88.1943 90.9668 88.2422C91.8105 91.7227 90.6983 103.008 88.3108 105.875C85.9234 108.742 80.2472 83.1799 88.8574 69.9771Z" fill="#30170F"/>
<path d="M214.884 83.7265C209.572 84.925 187.078 81.3297 181.143 77.2643C181.143 75.1453 204.902 75.1641 215.852 69.1715C206.657 70.907 186.742 71.2237 175.141 69.9389C174.556 68.5486 180.98 58.5576 185.611 58.0207C190.242 57.4837 202.87 61.6642 212.956 58.9795C212.956 58.9795 197.807 57.3113 189.638 53.3994C189.13 51.5584 192.84 43.8589 195.842 43.5233C198.843 43.1877 212.141 47.5698 219.927 55.6143C226.773 65.6626 226.38 69.469 210.665 74.1767C220.253 75.615 225.239 72.4891 226.965 70.2071C230.598 78.9898 224.069 82.8731 214.884 83.7265Z" fill="#30170F"/>
<path d="M231.443 101.177C235.681 117.103 208.336 137.995 201.011 139.644C201.516 133.818 201.496 127.959 200.953 122.136C210.081 122.529 225.154 111.436 231.443 101.177Z" fill="#30170F"/>
<path d="M161.603 59.2863C160.645 65.3173 126.204 56.8508 118.169 50.0049C121.843 54.4583 126.606 57.8865 131.995 59.9572C113.912 58.193 111.151 51.9031 111.275 46.6392C111.4 41.3753 125.658 38.1252 131.094 37.8376C136.531 37.55 150.73 47.8955 154.652 53.1786C150.251 41.8934 139.081 32.775 140.893 31.9696C144.69 30.3012 163.866 44.7699 161.603 59.2863Z" fill="#42261F"/>
<path d="M163.079 30.7809C161.459 26.5334 186.599 33.4175 186.723 40.2347C184.307 44.3096 180.692 43.533 180.692 43.533C178.19 39.2567 173.127 36.7061 173.127 36.7061C176.004 42.2672 177.672 49.679 173.127 51.0213C168.583 52.3637 165.064 35.9777 163.079 30.7809Z" fill="#42261F"/>
<path d="M214.366 66.4099C208.335 71.0889 190.798 70.4178 186.138 67.7044C179.695 63.965 183.262 58.3656 184.758 58.9313C186.253 59.497 207.117 62.2009 211.758 61.0695C208.824 64.4061 202.266 65.2787 198.469 65.202C204.643 66.7745 215.104 65.8442 214.366 66.4099Z" fill="#42261F"/>
<path d="M216.209 57.0997C214.943 50.7907 202.622 45.0954 197.579 45.594C192.536 46.0925 190.167 50.8195 192.075 51.8454C193.984 52.8714 216.583 59.0077 216.209 57.0997Z" fill="#42261F"/>
<path d="M207.876 76.2281C208.586 69.6603 188.566 75.2691 188.7 76.7361C188.834 78.2031 207.099 83.3425 207.876 76.2281Z" fill="#42261F"/>
<path d="M210.907 85.1837C211.079 88.8847 201.827 96.6893 190.771 85.9698C198.308 88.7982 210.83 83.4866 210.907 85.1837Z" fill="#42261F"/>
<path d="M117.996 134.725C120.623 131.177 121.102 114.542 106.845 112.845C96.0391 111.551 89.826 122.817 89.941 127.64C93.6996 141.542 112.866 141.686 117.996 134.725Z" fill="#56331B"/>
<path d="M117.997 134.725C120.874 130.842 118.707 116.326 106.703 115.865C96.9994 115.501 91.6876 124.025 91.8026 128.493C95.2831 141.312 113.213 141.14 117.997 134.725Z" fill="#FCCACA"/>
<path d="M105.379 119.154C98.1785 119.154 92.8379 124.821 94.046 130.085C95.0048 134.361 101.717 140.2 111.084 136.796C120.452 133.393 115.571 119.154 105.379 119.154Z" fill="white"/>
<path d="M106.73 115.788C115.455 118.473 116.241 132.146 110.019 137.966C105.474 139.692 96.3267 137.477 93.8722 133.709C92.6928 131.916 92.0696 125.808 94.0831 121.733C96.6623 117.342 103.297 114.686 106.73 115.788Z" fill="#5F724C"/>
<path d="M106.329 120.842C114.325 123.565 114.105 133.067 108.841 137.995C105.005 139.452 97.2486 137.583 95.168 134.399C93.0874 131.216 94.353 116.738 106.329 120.842Z" fill="#9FAD82"/>
<path d="M102.234 117.687C114.238 118.147 112.627 138.34 101.409 136.413C90.1908 134.486 94.4768 117.4 102.234 117.687Z" fill="#1C270A"/>
<path d="M115.552 125.464C113.96 122.674 107.239 125.77 107.881 128.34C108.523 130.91 117.977 129.702 115.552 125.464Z" fill="white"/>
<path d="M95.8201 127.831C98.0446 127.458 97.9103 131.264 96.1653 131.581C94.4203 131.897 93.5957 128.215 95.8201 127.831Z" fill="white"/>
<path d="M182.094 136.806C180.099 123.708 171.47 116.124 160.703 117.553C150.252 118.943 145.764 133.402 146.925 137.189C149.024 143.949 173.33 149.308 182.094 136.806Z" fill="#56331B"/>
<path d="M179.619 136.969C178.891 128.676 171.067 118.953 159.398 121.475C149.973 124.064 146.627 134.275 147.374 137.775C148.736 144.112 171.719 148.197 179.619 136.969Z" fill="#FCCACA"/>
<path d="M178.68 136.519C177.108 130.258 170.262 123.047 160.128 125.617C152.083 127.659 148.229 134.85 149.312 137.928C151.105 143.144 171.259 146.02 178.68 136.519Z" fill="white"/>
<path d="M167.644 122.884C172.755 127.937 173.042 138.868 167.405 143.23C162.937 145.397 152.687 143.652 150.875 140.689C148.784 137.295 148.852 127.755 153.885 123.268C156.925 121.024 164.71 119.988 167.644 122.884Z" fill="#5F724C"/>
<path d="M161.518 125.76C172.065 126.565 172.774 138.436 166.436 143.354C162.601 145.272 153.694 143.719 152.121 141.158C149.657 137.141 149.293 124.82 161.518 125.76Z" fill="#9FAD82"/>
<path d="M160.463 123.306C170.483 123.469 171.758 141.955 160.137 141.878C148.516 141.801 150.99 123.095 160.463 123.306Z" fill="#1C270A"/>
<path d="M173.426 132.846C171.969 130.181 165.42 133.268 165.909 135.722C166.398 138.177 175.631 136.873 173.426 132.846Z" fill="white"/>
<path d="M152.381 133.479C154.768 133.047 154.5 137.103 152.63 137.458C150.76 137.813 150.003 133.93 152.381 133.479Z" fill="white"/>
<path d="M127.038 168.245L149.465 166.443C149.465 166.443 137.671 171.86 130.288 172.502C122.906 173.145 117.249 170.748 114.641 168.667C118.332 166.893 124.181 167.958 127.038 168.245Z" fill="#EF7F7C"/>
<path d="M127.02 165.369C129.791 166.433 129.389 164.765 134.096 164.631C138.804 164.496 146.197 165.877 150.914 166.961C137.491 166.961 134.614 168.246 128.401 168.457C121.795 168.677 118.909 168.246 114.613 168.658C116.253 166.769 122.006 163.423 127.02 165.369Z" fill="#E5524A"/>
<path d="M153.338 164.803C155.716 166.654 151.718 167.977 140.471 167.315C145.073 166.711 149.378 166.826 151.066 165.762C152.446 164.889 152.734 164.324 153.338 164.803Z" fill="#BE3A36"/>
<path d="M147.892 105.299C147.307 105.846 150.845 110.927 154.345 110.812C157.844 110.697 166.474 108.895 173.358 109.652C177.648 110.234 181.645 112.157 184.777 115.146C182.16 110.716 177.232 106.728 171.536 106.335C165.841 105.942 159.072 106.862 155.745 106.622C152.418 106.382 149.11 104.196 147.892 105.299Z" fill="#763400"/>
</g>
<defs>
<clipPath id="clip0_8_14319">
<rect width="246.68" height="246.68" fill="white" transform="translate(33 82)"/>
</clipPath>
</defs>
</svg>
